# Blender v2.91.0 OBJ File: 'Green_Potion_9(Handle).blend'
# www.blender.org
mtllib Green_Potion_9(Handle).mtl
o Green_Potion_9(Handle)_Cylinder.057
v -0.027547 0.115291 -0.012832
v -0.030112 0.110880 -0.014281
v -0.027306 0.115291 0.013604
v -0.029843 0.110880 0.015100
v -0.004291 0.115291 0.026613
v -0.004265 0.110880 0.029558
v 0.018482 0.115291 0.013186
v 0.021046 0.110880 0.014636
v 0.018241 0.115291 -0.013250
v 0.020778 0.110880 -0.014746
v -0.004774 0.115291 -0.026258
v -0.004801 0.110880 -0.029204
v -0.030112 0.092884 -0.014281
v -0.029843 0.092884 0.015100
v -0.004801 0.092884 -0.029204
v -0.004265 0.092884 0.029558
v 0.021046 0.092884 0.014636
v 0.020778 0.092884 -0.014746
v -0.017054 0.092884 0.022329
v 0.007989 0.092884 -0.021975
v -0.056118 -0.092418 -0.029227
v -0.083682 -0.059120 -0.044808
v -0.004969 -0.092418 -0.059384
v -0.005258 -0.059120 -0.091045
v 0.046722 -0.092418 -0.030166
v 0.073997 -0.059120 -0.046247
v 0.047264 -0.092418 0.029209
v 0.074828 -0.059120 0.044789
v -0.003886 -0.092418 0.059366
v -0.003597 -0.059120 0.091027
v -0.055577 -0.092418 0.030147
v -0.082852 -0.059120 0.046228
v -0.094654 -0.015175 -0.051009
v -0.004889 0.094286 -0.050615
v -0.048023 0.094286 0.025694
v -0.005373 -0.015175 -0.103648
v 0.039630 0.094286 0.024894
v 0.084853 -0.015175 -0.052648
v -0.003966 0.094286 0.050597
v 0.085799 -0.015175 0.050991
v 0.039168 0.094286 -0.025712
v -0.003482 -0.015175 0.103629
v -0.048484 0.094286 -0.024912
v -0.093708 -0.015175 0.052629
v -0.044398 0.101701 0.023557
v -0.004004 0.101701 0.046389
v 0.035967 0.101701 0.022823
v 0.035543 0.101701 -0.023575
v -0.004851 0.101701 -0.046408
v -0.044822 0.101701 -0.022842
v -0.044822 0.086871 -0.022842
v -0.004851 0.086871 -0.046408
v 0.035543 0.086871 -0.023575
v 0.035967 0.086871 0.022823
v -0.004004 0.086871 0.046389
v -0.044398 0.086871 0.023557
v -0.029789 0.078529 0.014943
v -0.004159 0.078529 0.029431
v 0.021203 0.078529 0.014478
v 0.020934 0.078529 -0.014962
v -0.004696 0.078529 -0.029449
v -0.030057 0.078529 -0.014497
v -0.030057 0.060967 -0.014497
v -0.004696 0.060967 -0.029449
v 0.020934 0.060967 -0.014962
v 0.021203 0.060967 0.014478
v -0.004159 0.060967 0.029431
v -0.029789 0.060967 0.014943
v -0.078781 0.028259 0.043829
v -0.003640 0.028259 0.086302
v 0.070714 0.028259 0.042464
v 0.069927 0.028259 -0.043847
v -0.005215 0.028259 -0.086320
v -0.079569 0.028259 -0.042483
v -0.034645 0.101701 0.017806
v -0.004107 0.101701 0.035067
v 0.026110 0.101701 0.017252
v 0.025790 0.101701 -0.017825
v -0.004747 0.101701 -0.035086
v -0.034965 0.101701 -0.017270
v -0.029010 0.096659 0.014484
v -0.004167 0.096659 0.028527
v 0.020416 0.096659 0.014033
v 0.020155 0.096659 -0.014503
v -0.004688 0.096659 -0.028545
v -0.029271 0.096659 -0.014052
v 0.052513 0.035999 0.000009
v 0.048284 0.038950 0.008942
v 0.039826 0.044854 0.008942
v 0.035597 0.047806 0.000009
v 0.039826 0.044854 -0.008924
v 0.048284 0.038950 -0.008924
v 0.058554 0.049951 -0.008924
v 0.052323 0.058171 -0.008924
v 0.049208 0.062281 0.000009
v 0.052323 0.058171 0.008942
v 0.058554 0.049951 0.008942
v 0.061669 0.045841 0.000009
v 0.076762 0.053743 -0.008060
v 0.077917 0.062989 -0.008060
v 0.078495 0.067612 0.000009
v 0.077917 0.062989 0.008078
v 0.076762 0.053743 0.008078
v 0.076184 0.049121 0.000009
v 0.093092 0.039832 -0.008060
v 0.100523 0.045452 -0.008060
v 0.104239 0.048262 0.000009
v 0.100523 0.045452 0.008078
v 0.093092 0.039832 0.008078
v 0.089376 0.037022 0.000009
v 0.094983 0.022548 -0.008060
v 0.104247 0.021555 -0.008060
v 0.108879 0.021059 0.000009
v 0.104247 0.021555 0.008078
v 0.094983 0.022548 0.008078
v 0.090351 0.023044 0.000009
v 0.089235 0.006458 -0.008060
v 0.096144 0.000207 -0.008060
v 0.099598 -0.002919 0.000009
v 0.096144 0.000207 0.008078
v 0.089235 0.006458 0.008078
v 0.085780 0.009584 0.000009
v 0.076938 -0.004502 -0.008060
v 0.080362 -0.013168 -0.008060
v 0.082074 -0.017500 0.000009
v 0.080362 -0.013168 0.008078
v 0.076938 -0.004502 0.008078
v 0.075227 -0.000169 0.000009
vt 0.725384 0.988632
vt 0.725310 0.988632
vt 0.725313 0.988623
vt 0.725380 0.988623
vt 0.725236 0.988632
vt 0.725239 0.988623
vt 0.725162 0.988632
vt 0.725165 0.988623
vt 0.725088 0.988632
vt 0.725091 0.988623
vt 0.725013 0.988632
vt 0.725017 0.988623
vt 0.724939 0.988632
vt 0.724943 0.988623
vt 0.725273 0.988607
vt 0.725356 0.988559
vt 0.725356 0.988464
vt 0.725273 0.988415
vt 0.725190 0.988464
vt 0.725190 0.988559
vt 0.725384 0.988700
vt 0.725310 0.988700
vt 0.725236 0.988700
vt 0.725162 0.988700
vt 0.725013 0.988700
vt 0.724939 0.988700
vt 0.725088 0.988700
vt 0.725050 0.988700
vt 0.725273 0.988700
vt 0.384681 0.747665
vt 0.384681 0.748126
vt 0.384512 0.748126
vt 0.384512 0.747665
vt 0.384343 0.747665
vt 0.384343 0.748126
vt 0.384174 0.748126
vt 0.384174 0.747665
vt 0.384005 0.748126
vt 0.384005 0.747665
vt 0.383837 0.748126
vt 0.383837 0.747665
vt 0.384174 0.748126
vt 0.384343 0.748126
vt 0.384343 0.748126
vt 0.384174 0.748126
vt 0.384850 0.747665
vt 0.384689 0.747643
vt 0.384841 0.747643
vt 0.384520 0.747643
vt 0.384352 0.747643
vt 0.384183 0.747643
vt 0.384335 0.747643
vt 0.384014 0.747643
vt 0.383845 0.747643
vt 0.384596 0.747608
vt 0.384786 0.747499
vt 0.384786 0.747280
vt 0.384596 0.747171
vt 0.384407 0.747280
vt 0.384407 0.747499
vt 0.384512 0.748126
vt 0.384681 0.748126
vt 0.384681 0.748126
vt 0.384512 0.748126
vt 0.384174 0.748126
vt 0.384343 0.748126
vt 0.384005 0.748126
vt 0.384005 0.748126
vt 0.384850 0.748126
vt 0.384850 0.748126
vt 0.384343 0.748126
vt 0.384174 0.748126
vt 0.384850 0.748126
vt 0.383837 0.748126
vt 0.384005 0.748126
vt 0.383837 0.748126
vt 0.384005 0.748126
vt 0.384681 0.748126
vt 0.384850 0.748126
vt 0.384850 0.748126
vt 0.384681 0.748126
vt 0.384512 0.748126
vt 0.384512 0.748126
vt 0.384512 0.748126
vt 0.384681 0.748126
vt 0.383837 0.748126
vt 0.384681 0.748126
vt 0.384850 0.748126
vt 0.384850 0.748126
vt 0.384005 0.748126
vt 0.384174 0.748126
vt 0.383837 0.748126
vt 0.383837 0.748126
vt 0.384343 0.748126
vt 0.384343 0.748126
vt 0.384174 0.748126
vt 0.384005 0.748126
vt 0.383837 0.748126
vt 0.384512 0.748126
vt 0.384512 0.748126
vt 0.384343 0.748126
vt 0.384005 0.748126
vt 0.383837 0.748126
vt 0.384174 0.748126
vt 0.384681 0.748126
vt 0.384850 0.748126
vt 0.384174 0.748126
vt 0.384005 0.748126
vt 0.384681 0.748126
vt 0.384512 0.748126
vt 0.384343 0.748126
vt 0.384850 0.748126
vt 0.383837 0.748126
vt 0.384512 0.748126
vt 0.384681 0.748126
vt 0.384681 0.748126
vt 0.384512 0.748126
vt 0.384005 0.748126
vt 0.384174 0.748126
vt 0.384174 0.748126
vt 0.384005 0.748126
vt 0.384850 0.748126
vt 0.384850 0.748126
vt 0.383837 0.748126
vt 0.383837 0.748126
vt 0.384343 0.748126
vt 0.384343 0.748126
vt 0.384174 0.748126
vt 0.384343 0.748126
vt 0.384681 0.748126
vt 0.384850 0.748126
vt 0.384512 0.748126
vt 0.383837 0.748126
vt 0.384005 0.748126
vt 0.384512 0.748126
vt 0.384681 0.748126
vt 0.383837 0.748126
vt 0.384005 0.748126
vt 0.384174 0.748126
vt 0.384343 0.748126
vt 0.384850 0.748126
vt 0.384174 0.748126
vt 0.384343 0.748126
vt 0.384681 0.748126
vt 0.384850 0.748126
vt 0.384512 0.748126
vt 0.383837 0.748126
vt 0.384005 0.748126
vt 0.384512 0.748126
vt 0.384681 0.748126
vt 0.383837 0.748126
vt 0.384005 0.748126
vt 0.384174 0.748126
vt 0.384343 0.748126
vt 0.384850 0.748126
vt 0.384174 0.748126
vt 0.384343 0.748126
vt 0.384681 0.748126
vt 0.384850 0.748126
vt 0.384512 0.748126
vt 0.383837 0.748126
vt 0.384005 0.748126
vn -0.8656 0.5006 0.0079
vn -0.4260 0.5006 0.7536
vn 0.4397 0.5006 0.7457
vn 0.8656 0.5006 -0.0079
vn 0.4260 0.5006 -0.7536
vn -0.4397 0.5006 -0.7457
vn 0.0000 1.0000 -0.0000
vn -1.0000 0.0000 0.0091
vn 0.5079 0.0000 0.8614
vn -0.5079 -0.0000 -0.8614
vn 0.4921 -0.0000 -0.8706
vn 1.0000 -0.0000 -0.0091
vn -0.4921 0.0000 0.8706
vn 0.4776 -0.2410 -0.8449
vn 0.4929 -0.2410 0.8360
vn -0.4776 -0.2410 0.8449
vn -0.9705 -0.2410 0.0089
vn 0.9705 -0.2410 -0.0089
vn 0.4558 -0.4410 0.7731
vn -0.3921 -0.6357 -0.6650
vn 0.3799 -0.6357 -0.6720
vn 0.7719 -0.6357 -0.0070
vn 0.3921 -0.6357 0.6650
vn -0.3799 -0.6357 0.6720
vn -0.7719 -0.6357 0.0070
vn 0.0000 -1.0000 -0.0000
vn 0.2430 -0.8695 -0.4299
vn 0.2508 -0.8695 0.4254
vn 0.4939 -0.8695 -0.0045
vn -0.2430 -0.8695 0.4299
vn -0.2508 -0.8695 -0.4254
vn 0.4558 0.4410 0.7731
vn -0.4929 -0.2410 -0.8360
vn -0.8975 -0.4410 0.0082
vn -0.4416 0.4410 0.7813
vn -0.4558 0.4410 -0.7731
vn 0.4416 0.4410 -0.7813
vn -0.4558 -0.4410 -0.7731
vn -0.4416 -0.4410 0.7813
vn -0.8975 0.4410 0.0082
vn 0.4416 -0.4410 -0.7813
vn 0.8975 0.4410 -0.0082
vn 0.8975 -0.4410 -0.0082
vn -0.2810 0.8331 -0.4765
vn -0.4939 -0.8695 0.0045
vn 0.4800 0.3266 0.8142
vn -0.2722 0.8331 0.4816
vn 0.2810 0.8331 0.4765
vn -0.5532 0.8331 0.0050
vn 0.2722 0.8331 -0.4816
vn 0.5532 0.8331 -0.0050
vn -0.4800 0.3266 -0.8142
vn -0.4651 0.3266 0.8228
vn 0.4651 0.3266 -0.8228
vn -0.9451 0.3266 0.0086
vn 0.9451 0.3266 -0.0086
vn 0.3272 0.7469 -0.5788
vn -0.3272 0.7469 0.5788
vn -0.3377 0.7469 -0.5727
vn 0.3377 0.7469 0.5727
vn -0.6649 0.7469 0.0061
vn 0.6649 0.7469 -0.0061
vn -0.6331 0.5948 -0.4954
vn 0.6355 -0.5923 0.4954
vn -0.0000 0.0000 -1.0000
vn 0.6355 -0.5923 -0.4954
vn -0.0000 -0.0000 1.0000
vn -0.6331 0.5948 0.4954
vn 0.0373 0.0108 0.9992
vn 0.0373 0.0108 -0.9992
vn -0.1534 0.8695 0.4695
vn -0.1534 0.8695 -0.4695
vn 0.1982 -0.8595 -0.4711
vn 0.1982 -0.8595 0.4711
vn 0.5365 0.7032 -0.4666
vn -0.5862 -0.6653 -0.4624
vn -0.5862 -0.6653 0.4624
vn 0.5365 0.7032 0.4666
vn 0.8707 0.1425 0.4708
vn 0.8707 0.1425 -0.4708
vn -0.8805 -0.0807 -0.4671
vn -0.8805 -0.0807 0.4671
vn 0.8187 -0.3140 -0.4807
vn -0.8283 0.2892 -0.4799
vn -0.8283 0.2892 0.4799
vn 0.8187 -0.3140 0.4807
vn 0.5610 -0.6684 0.4885
vn 0.5610 -0.6684 -0.4885
vn -0.5866 0.6472 -0.4869
vn -0.5866 0.6472 0.4869
usemtl RHIGH.043
s off
f 2/1/1 4/2/1 3/3/1 1/4/1
f 4/2/2 6/5/2 5/6/2 3/3/2
f 6/5/3 8/7/3 7/8/3 5/6/3
f 8/7/4 10/9/4 9/10/4 7/8/4
f 10/9/5 12/11/5 11/12/5 9/10/5
f 12/11/6 2/13/6 1/14/6 11/12/6
f 1/15/7 3/16/7 5/17/7 7/18/7 9/19/7 11/20/7
f 2/1/8 13/21/8 14/22/8 4/2/8
f 6/5/9 16/23/9 17/24/9 8/7/9
f 12/11/10 15/25/10 13/26/10 2/13/10
f 10/9/11 18/27/11 20/28/11 15/25/11 12/11/11
f 8/7/12 17/24/12 18/27/12 10/9/12
f 4/2/13 14/22/13 19/29/13 16/23/13 6/5/13
usemtl RLOW.043
f 24/30/14 36/31/14 38/32/14 26/33/14
f 28/34/15 40/35/15 42/36/15 30/37/15
f 30/37/16 42/36/16 44/38/16 32/39/16
f 32/39/17 44/38/17 33/40/17 22/41/17
f 26/33/18 38/32/18 40/35/18 28/34/18
f 55/42/19 54/43/19 37/44/19 39/45/19
f 22/46/20 24/30/20 23/47/20 21/48/20
f 24/30/21 26/33/21 25/49/21 23/47/21
f 26/33/22 28/34/22 27/50/22 25/49/22
f 28/34/23 30/37/23 29/51/23 27/52/23
f 30/37/24 32/39/24 31/53/24 29/51/24
f 32/39/25 22/41/25 21/54/25 31/53/25
f 21/55/26 23/56/26 25/57/26 27/58/26 29/59/26 31/60/26
f 60/61/27 61/62/27 52/63/27 53/64/27
f 58/65/28 59/66/28 54/43/28 55/42/28
f 59/66/29 60/61/29 53/64/29 54/43/29
f 57/67/30 58/65/30 55/42/30 56/68/30
f 61/62/31 62/69/31 51/70/31 52/63/31
f 39/45/32 37/44/32 47/71/32 46/72/32
f 22/46/33 33/73/33 36/31/33 24/30/33
f 51/74/34 56/68/34 35/75/34 43/76/34
f 35/75/35 39/45/35 46/72/35 45/77/35
f 34/78/36 43/79/36 50/80/36 49/81/36
f 41/82/37 34/78/37 49/81/37 48/83/37
f 52/63/38 51/70/38 43/79/38 34/78/38
f 65/84/11 64/85/11 61/62/11 60/61/11
f 56/68/39 55/42/39 39/45/39 35/75/39
f 43/76/40 35/75/40 45/77/40 50/86/40
f 53/64/41 52/63/41 34/78/41 41/82/41
f 37/44/42 41/82/42 48/83/42 47/71/42
f 54/43/43 53/64/43 41/82/43 37/44/43
f 73/87/44 74/88/44 63/89/44 64/85/44
f 68/90/13 67/91/13 58/65/13 57/67/13
f 62/92/45 57/67/45 56/68/45 51/74/45
f 64/85/10 63/89/10 62/69/10 61/62/10
f 63/93/8 68/90/8 57/67/8 62/92/8
f 67/91/9 66/94/9 59/66/9 58/65/9
f 42/36/46 40/35/46 71/95/46 70/96/46
f 69/97/47 70/96/47 67/91/47 68/90/47
f 70/96/48 71/95/48 66/94/48 67/91/48
f 74/98/49 69/97/49 68/90/49 63/93/49
f 72/99/50 73/87/50 64/85/50 65/84/50
f 66/94/12 65/84/12 60/61/12 59/66/12
f 71/95/51 72/99/51 65/84/51 66/94/51
f 36/31/52 33/73/52 74/88/52 73/87/52
f 44/38/53 42/36/53 70/96/53 69/97/53
f 38/32/54 36/31/54 73/87/54 72/99/54
f 33/40/55 44/38/55 69/97/55 74/98/55
f 40/35/56 38/32/56 72/99/56 71/95/56
f 47/71/7 48/83/7 78/100/7 77/101/7
f 50/86/7 45/77/7 75/102/7 80/103/7
f 46/72/7 47/71/7 77/101/7 76/104/7
f 48/83/7 49/81/7 79/105/7 78/100/7
f 49/81/7 50/80/7 80/106/7 79/105/7
f 45/77/7 46/72/7 76/104/7 75/102/7
f 75/102/57 76/104/57 82/107/57 81/108/57
f 78/100/58 79/105/58 85/109/58 84/110/58
f 76/104/59 77/101/59 83/111/59 82/107/59
f 79/105/60 80/106/60 86/112/60 85/109/60
f 77/101/61 78/100/61 84/110/61 83/111/61
f 80/103/62 75/102/62 81/108/62 86/113/62
f 95/114/63 94/115/63 91/116/63 90/117/63
f 98/118/64 97/119/64 88/120/64 87/121/64
f 94/115/65 93/122/65 92/123/65 91/116/65
f 93/124/66 98/118/66 87/121/66 92/125/66
f 97/119/67 96/126/67 89/127/67 88/120/67
f 96/126/68 95/114/68 90/117/68 89/127/68
f 96/126/69 97/119/69 103/128/69 102/129/69
f 93/122/70 94/115/70 100/130/70 99/131/70
f 95/114/71 96/126/71 102/129/71 101/132/71
f 94/115/72 95/114/72 101/132/72 100/130/72
f 98/118/73 93/124/73 99/133/73 104/134/73
f 97/119/74 98/118/74 104/134/74 103/128/74
f 100/130/75 101/132/75 107/135/75 106/136/75
f 104/134/76 99/133/76 105/137/76 110/138/76
f 103/128/77 104/134/77 110/138/77 109/139/77
f 102/129/67 103/128/67 109/139/67 108/140/67
f 99/131/65 100/130/65 106/136/65 105/141/65
f 101/132/78 102/129/78 108/140/78 107/135/78
f 108/140/67 109/139/67 115/142/67 114/143/67
f 105/141/65 106/136/65 112/144/65 111/145/65
f 107/135/79 108/140/79 114/143/79 113/146/79
f 106/136/80 107/135/80 113/146/80 112/144/80
f 110/138/81 105/137/81 111/147/81 116/148/81
f 109/139/82 110/138/82 116/148/82 115/142/82
f 112/144/83 113/146/83 119/149/83 118/150/83
f 116/148/84 111/147/84 117/151/84 122/152/84
f 115/142/85 116/148/85 122/152/85 121/153/85
f 114/143/67 115/142/67 121/153/67 120/154/67
f 111/145/65 112/144/65 118/150/65 117/155/65
f 113/146/86 114/143/86 120/154/86 119/149/86
f 120/154/67 121/153/67 127/156/67 126/157/67
f 117/155/65 118/150/65 124/158/65 123/159/65
f 119/149/87 120/154/87 126/157/87 125/160/87
f 118/150/88 119/149/88 125/160/88 124/158/88
f 122/152/89 117/151/89 123/161/89 128/162/89
f 121/153/90 122/152/90 128/162/90 127/156/90
