# Blender v2.91.0 OBJ File: 'Green_Potion_1.blend'
# www.blender.org
mtllib Green_Potion_1.mtl
o Green_Potion_1_Cylinder.042
v -0.029689 -0.170539 -0.051422
v -0.032997 -0.153175 -0.057152
v 0.029689 -0.170539 -0.051422
v 0.032997 -0.153175 -0.057152
v 0.059377 -0.170539 0.000000
v 0.065993 -0.153175 0.000000
v 0.029689 -0.170539 0.051422
v 0.032997 -0.153175 0.057152
v -0.029689 -0.170539 0.051422
v -0.032997 -0.153175 0.057152
v -0.059377 -0.170539 0.000000
v -0.065993 -0.153175 0.000000
v -0.032997 0.110630 -0.057152
v -0.012452 0.140584 -0.021568
v 0.012452 0.140584 -0.021568
v 0.032997 0.110630 -0.057152
v 0.024904 0.140584 -0.000000
v 0.065993 0.110630 0.000000
v 0.012452 0.140584 0.021568
v 0.032997 0.110630 0.057152
v -0.012452 0.140584 0.021568
v -0.032997 0.110630 0.057152
v -0.024904 0.140584 0.000000
v -0.065993 0.110630 0.000000
v -0.025636 0.129461 -0.044403
v 0.025636 0.129461 -0.044403
v 0.051272 0.129461 -0.000000
v 0.025636 0.129461 0.044403
v -0.025636 0.129461 0.044403
v -0.051272 0.129461 0.000000
v -0.010836 0.164934 -0.018769
v 0.010836 0.164934 -0.018769
v 0.021673 0.164934 -0.000000
v 0.010836 0.164934 0.018769
v -0.010836 0.164934 0.018769
v -0.021673 0.164934 0.000000
v -0.015269 0.169569 -0.026446
v 0.015269 0.169569 -0.026446
v 0.030537 0.169569 -0.000000
v 0.015269 0.169569 0.026446
v -0.015269 0.169569 0.026446
v -0.030537 0.169569 0.000000
v -0.007985 0.188106 -0.013830
v 0.007985 0.188106 -0.013830
v 0.015970 0.188106 -0.000000
v 0.007985 0.188106 0.013830
v -0.007985 0.188106 0.013830
v -0.015970 0.188106 0.000000
v -0.016634 0.188107 -0.028811
v 0.016634 0.188107 -0.028811
v 0.033268 0.188107 0.000000
v 0.016634 0.188107 0.028811
v -0.016634 0.188107 0.028811
v -0.033268 0.188107 0.000000
v -0.008627 0.198572 -0.014943
v -0.009589 0.186967 -0.016608
v -0.017255 0.198572 0.000000
v -0.019177 0.186967 0.000000
v -0.008627 0.198572 0.014943
v -0.009589 0.186967 0.016608
v 0.008627 0.198572 0.014943
v 0.009589 0.186967 0.016608
v 0.017255 0.198572 0.000000
v 0.019177 0.186967 0.000000
v 0.008627 0.198572 -0.014943
v 0.009589 0.186967 -0.016608
vt 0.380986 0.750776
vt 0.380986 0.750798
vt 0.380978 0.750798
vt 0.380978 0.750776
vt 0.380970 0.750776
vt 0.380970 0.750798
vt 0.380961 0.750798
vt 0.380961 0.750776
vt 0.380953 0.750798
vt 0.380953 0.750776
vt 0.380945 0.750798
vt 0.380945 0.750776
vt 0.380962 0.750765
vt 0.380957 0.750767
vt 0.380957 0.750767
vt 0.380962 0.750765
vt 0.380995 0.750776
vt 0.380987 0.750775
vt 0.380994 0.750775
vt 0.380978 0.750775
vt 0.380970 0.750775
vt 0.380962 0.750775
vt 0.380954 0.750775
vt 0.380945 0.750775
vt 0.380995 0.750798
vt 0.380994 0.750800
vt 0.380987 0.750800
vt 0.380978 0.750800
vt 0.380970 0.750800
vt 0.380962 0.750800
vt 0.380954 0.750800
vt 0.380945 0.750800
vt 0.380962 0.750760
vt 0.380957 0.750757
vt 0.380953 0.750760
vt 0.380948 0.750757
vt 0.380953 0.750765
vt 0.380948 0.750767
vt 0.380953 0.750765
vt 0.380953 0.750760
vt 0.380953 0.750760
vt 0.380953 0.750765
vt 0.380957 0.750757
vt 0.380962 0.750760
vt 0.380957 0.750767
vt 0.380953 0.750765
vt 0.380957 0.750767
vt 0.380962 0.750760
vt 0.380957 0.750757
vt 0.380962 0.750765
vt 0.380961 0.750764
vt 0.380957 0.750766
vt 0.380954 0.750764
vt 0.380954 0.750760
vt 0.380957 0.750758
vt 0.380961 0.750760
vt 0.380957 0.750757
vt 0.380953 0.750760
vt 0.380962 0.750765
vt 0.380962 0.750760
vt 0.727270 0.987212
vt 0.727034 0.987212
vt 0.727046 0.987182
vt 0.727259 0.987182
vt 0.726798 0.987212
vt 0.726810 0.987182
vt 0.726562 0.987212
vt 0.726574 0.987182
vt 0.726326 0.987212
vt 0.726338 0.987182
vt 0.726090 0.987212
vt 0.726102 0.987182
vt 0.725854 0.987212
vt 0.725866 0.987182
vt 0.726916 0.987134
vt 0.727181 0.986981
vt 0.727181 0.986675
vt 0.726916 0.986522
vt 0.726652 0.986675
vt 0.726652 0.986981
vn 0.8660 0.0000 -0.5000
vn -0.0000 0.0000 1.0000
vn -0.8660 0.0000 0.5000
vn -0.8660 0.0000 -0.5000
vn 0.8660 0.0000 0.5000
vn 0.0000 0.1142 -0.9935
vn 0.0000 -0.3133 -0.9496
vn 0.8224 -0.3133 -0.4748
vn 0.8224 -0.3133 0.4748
vn -0.0000 -0.3133 0.9496
vn -0.8224 -0.3133 0.4748
vn -0.8224 -0.3133 -0.4748
vn 0.0000 -1.0000 -0.0000
vn 0.0000 0.5606 -0.8281
vn 0.7171 0.5606 -0.4140
vn 0.7171 0.5606 0.4140
vn -0.0000 0.5606 0.8281
vn -0.7171 0.5606 0.4140
vn -0.7171 0.5606 -0.4140
vn 0.0000 0.0000 -1.0000
vn 0.0000 0.8990 -0.4379
vn 0.3792 0.8990 -0.2189
vn 0.3792 0.8990 0.2189
vn -0.0000 0.8990 0.4379
vn -0.3792 0.8990 0.2189
vn -0.3792 0.8990 -0.2189
vn -0.4476 -0.8561 0.2584
vn -0.8604 0.1142 -0.4967
vn -0.0000 0.1142 0.9935
vn 0.8604 0.1142 -0.4967
vn -0.8604 0.1142 0.4967
vn 0.8604 0.1142 0.4967
vn -0.8591 -0.1265 -0.4960
vn 0.4476 -0.8561 0.2584
vn 0.0000 -0.8561 -0.5168
vn -0.4476 -0.8561 -0.2584
vn -0.0000 -0.8561 0.5168
vn 0.4476 -0.8561 -0.2584
vn 0.0000 1.0000 0.0000
vn -0.0000 -0.1265 0.9920
vn 0.8591 -0.1265 -0.4960
vn -0.8591 -0.1265 0.4960
vn 0.8591 -0.1265 0.4960
vn 0.0000 -0.1265 -0.9920
vn -0.8572 0.1420 -0.4949
vn -0.8572 0.1420 0.4949
vn 0.0000 0.1420 0.9899
vn 0.8572 0.1420 0.4949
vn 0.8572 0.1420 -0.4949
vn 0.0000 0.1420 -0.9899
usemtl RLOW.017
s off
f 4/1/1 16/2/1 18/3/1 6/4/1
f 8/5/2 20/6/2 22/7/2 10/8/2
f 10/8/3 22/7/3 24/9/3 12/10/3
f 12/10/4 24/9/4 13/11/4 2/12/4
f 6/4/5 18/3/5 20/6/5 8/5/5
f 15/13/6 14/14/6 31/15/6 32/16/6
f 2/17/7 4/1/7 3/18/7 1/19/7
f 4/1/8 6/4/8 5/20/8 3/18/8
f 6/4/9 8/5/9 7/21/9 5/20/9
f 8/5/10 10/8/10 9/22/10 7/21/10
f 10/8/11 12/10/11 11/23/11 9/22/11
f 12/10/12 2/12/12 1/24/12 11/23/12
f 1/19/13 3/18/13 5/20/13 7/21/13 9/22/13 11/23/13
f 16/2/14 13/25/14 25/26/14 26/27/14
f 18/3/15 16/2/15 26/27/15 27/28/15
f 20/6/16 18/3/16 27/28/16 28/29/16
f 22/7/17 20/6/17 28/29/17 29/30/17
f 24/9/18 22/7/18 29/30/18 30/31/18
f 13/11/19 24/9/19 30/31/19 25/32/19
f 2/17/20 13/25/20 16/2/20 4/1/20
f 14/14/21 15/13/21 26/27/21 25/26/21
f 15/13/22 17/33/22 27/28/22 26/27/22
f 17/33/23 19/34/23 28/29/23 27/28/23
f 19/34/24 21/35/24 29/36/24 28/29/24
f 21/35/25 23/37/25 30/38/25 29/36/25
f 23/37/26 14/14/26 25/26/26 30/38/26
f 36/39/27 35/40/27 41/41/27 42/42/27
f 14/14/28 23/37/28 36/39/28 31/15/28
f 21/35/29 19/34/29 34/43/29 35/40/29
f 17/33/30 15/13/30 32/16/30 33/44/30
f 23/37/31 21/35/31 35/40/31 36/39/31
f 19/34/32 17/33/32 33/44/32 34/43/32
f 37/45/33 42/42/33 54/46/33 49/47/33
f 34/43/34 33/44/34 39/48/34 40/49/34
f 32/16/35 31/15/35 37/45/35 38/50/35
f 31/15/36 36/39/36 42/42/36 37/45/36
f 35/40/37 34/43/37 40/49/37 41/41/37
f 33/44/38 32/16/38 38/50/38 39/48/38
f 44/51/39 43/52/39 48/53/39 47/54/39 46/55/39 45/56/39
f 41/41/40 40/49/40 52/57/40 53/58/40
f 39/48/41 38/50/41 50/59/41 51/60/41
f 42/42/42 41/41/42 53/58/42 54/46/42
f 40/49/43 39/48/43 51/60/43 52/57/43
f 38/50/44 37/45/44 49/47/44 50/59/44
f 43/52/39 44/51/39 50/59/39 49/47/39
f 44/51/39 45/56/39 51/60/39 50/59/39
f 45/56/39 46/55/39 52/57/39 51/60/39
f 46/55/39 47/54/39 53/58/39 52/57/39
f 47/54/39 48/53/39 54/46/39 53/58/39
f 48/53/39 43/52/39 49/47/39 54/46/39
usemtl RHIGH.017
f 56/61/45 58/62/45 57/63/45 55/64/45
f 58/62/46 60/65/46 59/66/46 57/63/46
f 60/65/47 62/67/47 61/68/47 59/66/47
f 62/67/48 64/69/48 63/70/48 61/68/48
f 64/69/49 66/71/49 65/72/49 63/70/49
f 66/71/50 56/73/50 55/74/50 65/72/50
f 55/75/39 57/76/39 59/77/39 61/78/39 63/79/39 65/80/39
