# Blender v2.91.0 OBJ File: 'Green_Potion_3(Label).blend'
# www.blender.org
mtllib Green_Potion_3(Label).mtl
o Green_Potion_3(Label)_Cylinder.047
v -0.013396 0.167375 -0.022792
v -0.014869 0.162964 -0.025343
v -0.026615 0.167375 0.000103
v -0.029560 0.162964 0.000103
v -0.013396 0.167375 0.022998
v -0.014869 0.162964 0.025549
v 0.013040 0.167375 0.022998
v 0.014513 0.162964 0.025549
v 0.026259 0.167375 0.000103
v 0.029204 0.162964 0.000103
v 0.013040 0.167375 -0.022792
v 0.014513 0.162964 -0.025343
v -0.014869 0.144969 -0.025343
v -0.029560 0.144969 0.000103
v 0.014513 0.144969 -0.025343
v -0.014869 0.144969 0.025549
v 0.014513 0.144969 0.025549
v 0.029204 0.144969 0.000103
v -0.022215 0.144969 0.012826
v 0.021859 0.144969 -0.012620
v -0.029681 -0.111626 -0.051426
v -0.054685 -0.057186 -0.094735
v 0.029696 -0.111626 -0.051426
v 0.054700 -0.057186 -0.094735
v 0.059384 -0.111626 -0.000004
v 0.109393 -0.057186 -0.000004
v 0.029696 -0.111626 0.051418
v 0.054700 -0.057186 0.094726
v -0.029681 -0.111626 0.051418
v -0.054685 -0.057186 0.094726
v -0.059370 -0.111626 -0.000004
v -0.109378 -0.057186 -0.000004
v -0.052426 -0.001933 -0.090821
v 0.025311 0.146370 -0.043832
v -0.050601 0.146370 -0.000004
v 0.052440 -0.001933 -0.090821
v 0.025311 0.146370 0.043824
v 0.104873 -0.001933 -0.000004
v -0.025297 0.146370 0.043824
v 0.052440 -0.001933 0.090812
v 0.050615 0.146370 -0.000004
v -0.052426 -0.001933 0.090812
v -0.025297 0.146370 -0.043832
v -0.104858 -0.001933 -0.000004
v -0.046393 0.153785 -0.000004
v -0.023193 0.153785 0.040180
v 0.023208 0.153785 0.040180
v 0.046408 0.153785 -0.000004
v 0.023208 0.153785 -0.040188
v -0.023193 0.153785 -0.040188
v -0.023193 0.138955 -0.040188
v 0.023208 0.138955 -0.040188
v 0.046408 0.138955 -0.000004
v 0.023208 0.138955 0.040180
v -0.023193 0.138955 0.040180
v -0.046393 0.138955 -0.000004
v -0.029434 0.130613 -0.000004
v -0.014713 0.130613 0.025493
v 0.014728 0.130613 0.025493
v 0.029448 0.130613 -0.000004
v 0.014728 0.130613 -0.025501
v -0.014713 0.130613 -0.025501
v -0.014713 0.087976 -0.025501
v 0.014728 0.087976 -0.025501
v 0.029448 0.087976 -0.000004
v 0.014728 0.087976 0.025493
v -0.014713 0.087976 0.025493
v -0.029434 0.087976 -0.000004
v -0.053284 0.051827 -0.000004
v -0.026638 0.051827 0.046147
v 0.026653 0.051827 0.046147
v 0.053298 0.051827 -0.000004
v 0.026653 0.051827 -0.046155
v -0.026638 0.051827 -0.046155
v -0.035071 0.153785 -0.000004
v -0.017532 0.153785 0.030374
v 0.017546 0.153785 0.030374
v 0.035085 0.153785 -0.000004
v 0.017546 0.153785 -0.030383
v -0.017532 0.153785 -0.030383
v -0.028530 0.148743 -0.000004
v -0.014261 0.148743 0.024710
v 0.014276 0.148743 0.024710
v 0.028544 0.148743 -0.000004
v 0.014276 0.148743 -0.024718
v -0.014261 0.148743 -0.024718
v 0.082046 -0.057186 0.047361
v 0.078657 -0.001933 0.045404
v -0.078642 -0.001933 0.045404
v -0.082032 -0.057186 0.047361
vt 0.728106 0.992411
vt 0.727945 0.992411
vt 0.727953 0.992390
vt 0.728098 0.992390
vt 0.727784 0.992411
vt 0.727792 0.992390
vt 0.727937 0.992390
vt 0.727622 0.992411
vt 0.727630 0.992390
vt 0.727461 0.992411
vt 0.727469 0.992390
vt 0.727300 0.992411
vt 0.727308 0.992390
vt 0.727139 0.992411
vt 0.727147 0.992390
vt 0.727864 0.992357
vt 0.728045 0.992253
vt 0.728045 0.992044
vt 0.727864 0.991940
vt 0.727683 0.992044
vt 0.727683 0.992253
vt 0.728106 0.992558
vt 0.727945 0.992558
vt 0.727784 0.992558
vt 0.727622 0.992558
vt 0.727300 0.992558
vt 0.727139 0.992558
vt 0.727461 0.992558
vt 0.727381 0.992558
vt 0.727864 0.992558
vt 0.759613 0.501588
vt 0.759613 0.502105
vt 0.759423 0.502105
vt 0.759423 0.501588
vt 0.759329 0.502105
vt 0.759329 0.501588
vt 0.759707 0.501588
vt 0.759707 0.502105
vt 0.378570 0.736593
vt 0.378570 0.737110
vt 0.378380 0.737110
vt 0.378380 0.736593
vt 0.377813 0.736593
vt 0.377813 0.737110
vt 0.377623 0.737110
vt 0.377623 0.736593
vt 0.378286 0.737110
vt 0.378286 0.736593
vt 0.378002 0.737110
vt 0.378191 0.737110
vt 0.378191 0.737110
vt 0.378002 0.737110
vt 0.378759 0.736593
vt 0.378579 0.736569
vt 0.378749 0.736569
vt 0.378390 0.736569
vt 0.378191 0.736593
vt 0.378201 0.736569
vt 0.378002 0.736593
vt 0.378011 0.736569
vt 0.377907 0.736593
vt 0.377822 0.736569
vt 0.377633 0.736569
vt 0.378475 0.736530
vt 0.378687 0.736407
vt 0.378687 0.736162
vt 0.378475 0.736040
vt 0.378263 0.736162
vt 0.378263 0.736407
vt 0.378380 0.737110
vt 0.378570 0.737110
vt 0.378570 0.737110
vt 0.378380 0.737110
vt 0.378002 0.737110
vt 0.378191 0.737110
vt 0.377813 0.737110
vt 0.377813 0.737110
vt 0.378759 0.737110
vt 0.378759 0.737110
vt 0.378191 0.737110
vt 0.378002 0.737110
vt 0.378759 0.737110
vt 0.377623 0.737110
vt 0.377813 0.737110
vt 0.377623 0.737110
vt 0.377813 0.737110
vt 0.378570 0.737110
vt 0.378759 0.737110
vt 0.378759 0.737110
vt 0.378570 0.737110
vt 0.378380 0.737110
vt 0.378380 0.737110
vt 0.378380 0.737110
vt 0.378570 0.737110
vt 0.377623 0.737110
vt 0.378570 0.737110
vt 0.378759 0.737110
vt 0.378759 0.737110
vt 0.377813 0.737110
vt 0.378002 0.737110
vt 0.377623 0.737110
vt 0.377623 0.737110
vt 0.378191 0.737110
vt 0.378002 0.737110
vt 0.378191 0.737110
vt 0.378191 0.737110
vt 0.378002 0.737110
vt 0.377813 0.737110
vt 0.377623 0.737110
vt 0.378380 0.737110
vt 0.377907 0.737110
vt 0.378380 0.737110
vt 0.378191 0.737110
vt 0.377813 0.737110
vt 0.377623 0.737110
vt 0.378002 0.737110
vt 0.378570 0.737110
vt 0.378759 0.737110
vt 0.378002 0.737110
vt 0.377813 0.737110
vt 0.378570 0.737110
vt 0.378380 0.737110
vt 0.378191 0.737110
vt 0.378759 0.737110
vt 0.377623 0.737110
vn -0.7497 0.5006 -0.4328
vn -0.7497 0.5006 0.4328
vn 0.0000 0.5006 0.8657
vn 0.7497 0.5006 0.4328
vn 0.7497 0.5006 -0.4328
vn -0.0000 0.5006 -0.8657
vn 0.0000 1.0000 0.0000
vn -0.8660 0.0000 -0.5000
vn 0.0000 0.0000 1.0000
vn -0.0000 -0.0000 -1.0000
vn 0.8660 -0.0000 -0.5000
vn 0.8660 -0.0000 0.5000
vn -0.8660 0.0000 0.5000
vn -0.0000 0.0707 0.9975
vn -0.8639 0.0707 0.4988
vn 0.8639 0.0707 0.4988
vn 0.8639 0.0707 -0.4988
vn -0.8639 0.0707 -0.4988
vn -0.0000 -0.4410 0.8975
vn -0.0000 -0.6226 -0.7826
vn 0.6777 -0.6226 -0.3913
vn 0.6777 -0.6226 0.3913
vn 0.0000 -0.6226 0.7826
vn -0.6777 -0.6226 0.3913
vn -0.6777 -0.6226 -0.3913
vn 0.0000 -1.0000 -0.0000
vn 0.4277 -0.8695 -0.2469
vn -0.0000 -0.8695 0.4939
vn 0.4277 -0.8695 0.2469
vn -0.4277 -0.8695 0.2469
vn 0.0000 -0.8695 -0.4939
vn 0.0000 0.4410 0.8975
vn 0.0000 0.0707 -0.9975
vn -0.7772 -0.4410 -0.4487
vn -0.7772 0.4410 0.4487
vn 0.0000 0.4410 -0.8975
vn 0.7772 0.4410 -0.4487
vn 0.0000 -0.4410 -0.8975
vn -0.7772 -0.4410 0.4487
vn -0.7772 0.4410 -0.4487
vn 0.7772 -0.4410 -0.4487
vn 0.7772 0.4410 0.4487
vn 0.7772 -0.4410 0.4487
vn 0.0000 0.4961 -0.8683
vn -0.4277 -0.8695 -0.2469
vn -0.0000 0.6390 0.7692
vn -0.7519 0.4961 0.4341
vn -0.0000 0.4961 0.8683
vn -0.7519 0.4961 -0.4341
vn 0.7519 0.4961 -0.4341
vn 0.7519 0.4961 0.4341
vn -0.0000 0.6390 -0.7692
vn -0.6661 0.6390 0.3846
vn 0.6661 0.6390 -0.3846
vn -0.6661 0.6390 -0.3846
vn 0.6661 0.6390 0.3846
vn 0.5758 0.7469 -0.3324
vn -0.5758 0.7469 0.3324
vn 0.0000 0.7469 -0.6649
vn 0.0000 0.7469 0.6649
vn -0.5758 0.7469 -0.3324
vn 0.5758 0.7469 0.3324
usemtl RHIGH.024
s off
f 2/1/1 4/2/1 3/3/1 1/4/1
f 4/2/2 6/5/2 5/6/2 3/7/2
f 6/5/3 8/8/3 7/9/3 5/6/3
f 8/8/4 10/10/4 9/11/4 7/9/4
f 10/10/5 12/12/5 11/13/5 9/11/5
f 12/12/6 2/14/6 1/15/6 11/13/6
f 1/16/7 3/17/7 5/18/7 7/19/7 9/20/7 11/21/7
f 2/1/8 13/22/8 14/23/8 4/2/8
f 6/5/9 16/24/9 17/25/9 8/8/9
f 12/12/10 15/26/10 13/27/10 2/14/10
f 10/10/11 18/28/11 20/29/11 15/26/11 12/12/11
f 8/8/12 17/25/12 18/28/12 10/10/12
f 4/2/13 14/23/13 19/30/13 16/24/13 6/5/13
f 28/31/14 40/32/14 42/33/14 30/34/14
f 30/34/15 42/33/15 89/35/15 90/36/15
f 87/37/16 88/38/16 40/32/16 28/31/16
usemtl RLOW.024
f 24/39/17 36/40/17 38/41/17 26/42/17
f 32/43/18 44/44/18 33/45/18 22/46/18
f 26/42/16 38/41/16 88/47/16 87/48/16
f 55/49/19 54/50/19 37/51/19 39/52/19
f 22/53/20 24/39/20 23/54/20 21/55/20
f 24/39/21 26/42/21 25/56/21 23/54/21
f 26/42/22 87/48/22 28/57/22 27/58/22 25/56/22
f 28/57/23 30/59/23 29/60/23 27/58/23
f 30/59/24 90/61/24 32/43/24 31/62/24 29/60/24
f 32/43/25 22/46/25 21/63/25 31/62/25
f 21/64/26 23/65/26 25/66/26 27/67/26 29/68/26 31/69/26
f 60/70/27 61/71/27 52/72/27 53/73/27
f 58/74/28 59/75/28 54/50/28 55/49/28
f 59/75/29 60/70/29 53/73/29 54/50/29
f 57/76/30 58/74/30 55/49/30 56/77/30
f 61/71/31 62/78/31 51/79/31 52/72/31
f 39/52/32 37/51/32 47/80/32 46/81/32
f 22/53/33 33/82/33 36/40/33 24/39/33
f 51/83/34 56/77/34 35/84/34 43/85/34
f 35/84/35 39/52/35 46/81/35 45/86/35
f 34/87/36 43/88/36 50/89/36 49/90/36
f 41/91/37 34/87/37 49/90/37 48/92/37
f 52/72/38 51/79/38 43/88/38 34/87/38
f 65/93/11 64/94/11 61/71/11 60/70/11
f 56/77/39 55/49/39 39/52/39 35/84/39
f 43/85/40 35/84/40 45/86/40 50/95/40
f 53/73/41 52/72/41 34/87/41 41/91/41
f 37/51/42 41/91/42 48/92/42 47/80/42
f 54/50/43 53/73/43 41/91/43 37/51/43
f 73/96/44 74/97/44 63/98/44 64/94/44
f 68/99/13 67/100/13 58/74/13 57/76/13
f 62/101/45 57/76/45 56/77/45 51/83/45
f 64/94/10 63/98/10 62/78/10 61/71/10
f 63/102/8 68/99/8 57/76/8 62/101/8
f 67/100/9 66/103/9 59/75/9 58/74/9
f 42/104/46 40/105/46 71/106/46 70/107/46
f 69/108/47 70/107/47 67/100/47 68/99/47
f 70/107/48 71/106/48 66/103/48 67/100/48
f 74/109/49 69/108/49 68/99/49 63/102/49
f 72/110/50 73/96/50 64/94/50 65/93/50
f 66/103/12 65/93/12 60/70/12 59/75/12
f 71/106/51 72/110/51 65/93/51 66/103/51
f 36/40/52 33/82/52 74/97/52 73/96/52
f 44/44/53 89/111/53 42/104/53 70/107/53 69/108/53
f 38/41/54 36/40/54 73/96/54 72/110/54
f 33/45/55 44/44/55 69/108/55 74/109/55
f 40/105/56 88/47/56 38/41/56 72/110/56 71/106/56
f 47/80/7 48/92/7 78/112/7 77/113/7
f 50/95/7 45/86/7 75/114/7 80/115/7
f 46/81/7 47/80/7 77/113/7 76/116/7
f 48/92/7 49/90/7 79/117/7 78/112/7
f 49/90/7 50/89/7 80/118/7 79/117/7
f 45/86/7 46/81/7 76/116/7 75/114/7
f 75/114/57 76/116/57 82/119/57 81/120/57
f 78/112/58 79/117/58 85/121/58 84/122/58
f 76/116/59 77/113/59 83/123/59 82/119/59
f 79/117/60 80/118/60 86/124/60 85/121/60
f 77/113/61 78/112/61 84/122/61 83/123/61
f 80/115/62 75/114/62 81/120/62 86/125/62
f 90/61/15 89/111/15 44/44/15 32/43/15
