# Blender v2.91.0 OBJ File: 'Green_Potion_9.blend'
# www.blender.org
mtllib Green_Potion_9.mtl
o Green_Potion_9_Cylinder.058
v -0.013602 0.117202 -0.022670
v -0.015098 0.112790 -0.025207
v -0.026611 0.117202 0.000345
v -0.029557 0.112790 0.000372
v -0.013185 0.117202 0.023118
v -0.014634 0.112790 0.025682
v 0.013251 0.117202 0.022877
v 0.014747 0.112790 0.025414
v 0.026260 0.117201 -0.000138
v 0.029205 0.112790 -0.000165
v 0.012833 0.117202 -0.022911
v 0.014283 0.112790 -0.025475
v -0.015098 0.094795 -0.025207
v -0.029557 0.094795 0.000372
v 0.014283 0.094795 -0.025475
v -0.014634 0.094795 0.025682
v 0.014747 0.094795 0.025414
v 0.029205 0.094795 -0.000165
v -0.022095 0.094795 0.013027
v 0.021744 0.094795 -0.012820
v -0.030148 -0.090507 -0.051154
v -0.046229 -0.057209 -0.078429
v 0.029227 -0.090507 -0.051696
v 0.044807 -0.057209 -0.079260
v 0.059383 -0.090507 -0.000547
v 0.091045 -0.057209 -0.000836
v 0.030165 -0.090507 0.051144
v 0.046246 -0.057209 0.078419
v -0.029209 -0.090507 0.051686
v -0.044790 -0.057209 0.079250
v -0.059366 -0.090507 0.000537
v -0.091027 -0.057209 0.000826
v -0.052630 -0.013265 -0.089286
v 0.024912 0.096197 -0.044062
v -0.050597 0.096197 0.000457
v 0.051009 -0.013265 -0.090232
v 0.025712 0.096197 0.043590
v 0.103647 -0.013265 -0.000951
v -0.024894 0.096197 0.044052
v 0.052647 -0.013265 0.089276
v 0.050615 0.096197 -0.000467
v -0.050992 -0.013265 0.090221
v -0.025694 0.096197 -0.043600
v -0.103630 -0.013265 0.000941
v -0.046390 0.103612 0.000418
v -0.022824 0.103612 0.040389
v 0.023575 0.103612 0.039966
v 0.046407 0.103612 -0.000429
v 0.022841 0.103612 -0.040399
v -0.023557 0.103612 -0.039976
v -0.023557 0.088781 -0.039976
v 0.022841 0.088781 -0.040399
v 0.046407 0.088781 -0.000429
v 0.023575 0.088781 0.039966
v -0.022824 0.088781 0.040389
v -0.046390 0.088781 0.000418
v -0.029431 0.080439 0.000264
v -0.014479 0.080439 0.025625
v 0.014961 0.080439 0.025356
v 0.029449 0.080439 -0.000274
v 0.014496 0.080439 -0.025635
v -0.014944 0.080439 -0.025367
v -0.014944 0.062877 -0.025367
v 0.014496 0.062877 -0.025635
v 0.029449 0.062877 -0.000274
v 0.014961 0.062877 0.025356
v -0.014479 0.062877 0.025625
v -0.029431 0.062877 0.000264
v -0.086303 0.030170 0.000782
v -0.042465 0.030170 0.075136
v 0.043846 0.030170 0.074349
v 0.086320 0.030170 -0.000793
v 0.042482 0.030170 -0.075147
v -0.043829 0.030170 -0.074359
v -0.035068 0.103612 0.000315
v -0.017252 0.103612 0.030532
v 0.017824 0.103612 0.030212
v 0.035085 0.103612 -0.000325
v 0.017270 0.103612 -0.030542
v -0.017807 0.103612 -0.030222
v -0.028527 0.098570 0.000255
v -0.014034 0.098570 0.024838
v 0.014502 0.098570 0.024578
v 0.028545 0.098570 -0.000266
v 0.014051 0.098570 -0.024848
v -0.014485 0.098570 -0.024588
vt 0.726627 0.984945
vt 0.726548 0.984945
vt 0.726552 0.984935
vt 0.726623 0.984935
vt 0.726470 0.984945
vt 0.726474 0.984935
vt 0.726545 0.984935
vt 0.726392 0.984945
vt 0.726396 0.984935
vt 0.726314 0.984945
vt 0.726318 0.984935
vt 0.726236 0.984945
vt 0.726240 0.984935
vt 0.726157 0.984945
vt 0.726161 0.984935
vt 0.726509 0.984919
vt 0.726597 0.984767
vt 0.726509 0.984716
vt 0.726422 0.984767
vt 0.726422 0.984868
vt 0.726627 0.985016
vt 0.726548 0.985016
vt 0.726470 0.985016
vt 0.726392 0.985016
vt 0.726236 0.985016
vt 0.726157 0.985016
vt 0.726314 0.985016
vt 0.726275 0.985016
vt 0.726509 0.985016
vt 0.381953 0.740065
vt 0.381953 0.740101
vt 0.381940 0.740101
vt 0.381940 0.740065
vt 0.381926 0.740065
vt 0.381926 0.740101
vt 0.381913 0.740101
vt 0.381913 0.740065
vt 0.381900 0.740101
vt 0.381900 0.740065
vt 0.381886 0.740101
vt 0.381886 0.740065
vt 0.381913 0.740101
vt 0.381926 0.740101
vt 0.381926 0.740101
vt 0.381913 0.740101
vt 0.381966 0.740065
vt 0.381954 0.740063
vt 0.381966 0.740063
vt 0.381940 0.740063
vt 0.381927 0.740063
vt 0.381914 0.740063
vt 0.381900 0.740063
vt 0.381887 0.740063
vt 0.381961 0.740034
vt 0.381946 0.740026
vt 0.381931 0.740034
vt 0.381940 0.740101
vt 0.381953 0.740101
vt 0.381953 0.740101
vt 0.381940 0.740101
vt 0.381913 0.740101
vt 0.381926 0.740101
vt 0.381900 0.740101
vt 0.381900 0.740101
vt 0.381966 0.740101
vt 0.381966 0.740101
vt 0.381926 0.740101
vt 0.381913 0.740101
vt 0.381966 0.740101
vt 0.381886 0.740101
vt 0.381900 0.740101
vt 0.381886 0.740101
vt 0.381900 0.740101
vt 0.381953 0.740101
vt 0.381966 0.740101
vt 0.381966 0.740101
vt 0.381953 0.740101
vt 0.381940 0.740101
vt 0.381940 0.740101
vt 0.381940 0.740101
vt 0.381953 0.740101
vt 0.381886 0.740101
vt 0.381953 0.740101
vt 0.381966 0.740101
vt 0.381966 0.740101
vt 0.381900 0.740101
vt 0.381913 0.740101
vt 0.381886 0.740101
vt 0.381886 0.740101
vt 0.381926 0.740101
vt 0.381926 0.740101
vt 0.381913 0.740101
vt 0.381900 0.740101
vt 0.381886 0.740101
vt 0.381940 0.740101
vt 0.381940 0.740101
vt 0.381926 0.740101
vt 0.381900 0.740101
vt 0.381886 0.740101
vt 0.381913 0.740101
vt 0.381953 0.740101
vt 0.381966 0.740101
vt 0.381913 0.740101
vt 0.381900 0.740101
vt 0.381953 0.740101
vt 0.381940 0.740101
vt 0.381926 0.740101
vt 0.381966 0.740101
vt 0.381886 0.740101
vn -0.7536 0.5006 -0.4260
vn -0.7457 0.5006 0.4397
vn 0.0079 0.5006 0.8656
vn 0.7536 0.5006 0.4260
vn 0.7457 0.5006 -0.4397
vn -0.0079 0.5006 -0.8656
vn 0.0000 1.0000 -0.0000
vn -0.8706 -0.0000 -0.4921
vn 0.0091 0.0000 1.0000
vn -0.0091 -0.0000 -1.0000
vn 0.8614 -0.0000 -0.5079
vn 0.8706 -0.0000 0.4921
vn -0.8614 0.0000 0.5079
vn 0.8360 -0.2410 -0.4929
vn 0.0089 -0.2410 0.9705
vn -0.8360 -0.2410 0.4929
vn -0.8449 -0.2410 -0.4776
vn 0.8449 -0.2410 0.4776
vn 0.0082 -0.4410 0.8975
vn -0.0070 -0.6357 -0.7719
vn 0.6650 -0.6357 -0.3921
vn 0.6720 -0.6357 0.3799
vn 0.0070 -0.6357 0.7719
vn -0.6650 -0.6357 0.3921
vn -0.6720 -0.6357 -0.3799
vn 0.0000 -1.0000 -0.0000
vn 0.4254 -0.8695 -0.2508
vn 0.0045 -0.8695 0.4939
vn 0.4299 -0.8695 0.2430
vn -0.4254 -0.8695 0.2508
vn -0.0045 -0.8695 -0.4939
vn 0.0082 0.4410 0.8975
vn -0.0089 -0.2410 -0.9705
vn -0.7813 -0.4410 -0.4416
vn -0.7731 0.4410 0.4558
vn -0.0082 0.4410 -0.8975
vn 0.7731 0.4410 -0.4558
vn -0.0082 -0.4410 -0.8975
vn -0.7731 -0.4410 0.4558
vn -0.7813 0.4410 -0.4416
vn 0.7731 -0.4410 -0.4558
vn 0.7813 0.4410 0.4416
vn 0.7813 -0.4410 0.4416
vn -0.0050 0.8331 -0.5532
vn -0.4299 -0.8695 -0.2430
vn 0.0086 0.3266 0.9451
vn -0.4765 0.8331 0.2810
vn 0.0050 0.8331 0.5532
vn -0.4816 0.8331 -0.2722
vn 0.4765 0.8331 -0.2810
vn 0.4816 0.8331 0.2722
vn -0.0086 0.3266 -0.9451
vn -0.8142 0.3266 0.4800
vn 0.8142 0.3266 -0.4800
vn -0.8228 0.3266 -0.4651
vn 0.8228 0.3266 0.4651
vn 0.5727 0.7469 -0.3377
vn -0.5727 0.7469 0.3377
vn -0.0061 0.7469 -0.6649
vn 0.0061 0.7469 0.6649
vn -0.5788 0.7469 -0.3272
vn 0.5788 0.7469 0.3272
usemtl RHIGH.041
s off
f 2/1/1 4/2/1 3/3/1 1/4/1
f 4/2/2 6/5/2 5/6/2 3/7/2
f 6/5/3 8/8/3 7/9/3 5/6/3
f 8/8/4 10/10/4 9/11/4 7/9/4
f 10/10/5 12/12/5 11/13/5 9/11/5
f 12/12/6 2/14/6 1/15/6 11/13/6
f 1/16/7 3/3/7 5/17/7 7/18/7 9/19/7 11/20/7
f 2/1/8 13/21/8 14/22/8 4/2/8
f 6/5/9 16/23/9 17/24/9 8/8/9
f 12/12/10 15/25/10 13/26/10 2/14/10
f 10/10/11 18/27/11 20/28/11 15/25/11 12/12/11
f 8/8/12 17/24/12 18/27/12 10/10/12
f 4/2/13 14/22/13 19/29/13 16/23/13 6/5/13
usemtl RLOW.041
f 24/30/14 36/31/14 38/32/14 26/33/14
f 28/34/15 40/35/15 42/36/15 30/37/15
f 30/37/16 42/36/16 44/38/16 32/39/16
f 32/39/17 44/38/17 33/40/17 22/41/17
f 26/33/18 38/32/18 40/35/18 28/34/18
f 55/42/19 54/43/19 37/44/19 39/45/19
f 22/46/20 24/30/20 23/47/20 21/48/20
f 24/30/21 26/33/21 25/49/21 23/47/21
f 26/33/22 28/34/22 27/50/22 25/49/22
f 28/34/23 30/37/23 29/51/23 27/50/23
f 30/37/24 32/39/24 31/52/24 29/51/24
f 32/39/25 22/41/25 21/53/25 31/52/25
f 21/53/26 23/47/26 25/54/26 27/55/26 29/56/26 31/52/26
f 60/57/27 61/58/27 52/59/27 53/60/27
f 58/61/28 59/62/28 54/43/28 55/42/28
f 59/62/29 60/57/29 53/60/29 54/43/29
f 57/63/30 58/61/30 55/42/30 56/64/30
f 61/58/31 62/65/31 51/66/31 52/59/31
f 39/45/32 37/44/32 47/67/32 46/68/32
f 22/46/33 33/69/33 36/31/33 24/30/33
f 51/70/34 56/64/34 35/71/34 43/72/34
f 35/71/35 39/45/35 46/68/35 45/73/35
f 34/74/36 43/75/36 50/76/36 49/77/36
f 41/78/37 34/74/37 49/77/37 48/79/37
f 52/59/38 51/66/38 43/75/38 34/74/38
f 65/80/11 64/81/11 61/58/11 60/57/11
f 56/64/39 55/42/39 39/45/39 35/71/39
f 43/72/40 35/71/40 45/73/40 50/82/40
f 53/60/41 52/59/41 34/74/41 41/78/41
f 37/44/42 41/78/42 48/79/42 47/67/42
f 54/43/43 53/60/43 41/78/43 37/44/43
f 73/83/44 74/84/44 63/85/44 64/81/44
f 68/86/13 67/87/13 58/61/13 57/63/13
f 62/88/45 57/63/45 56/64/45 51/70/45
f 64/81/10 63/85/10 62/65/10 61/58/10
f 63/89/8 68/86/8 57/63/8 62/88/8
f 67/87/9 66/90/9 59/62/9 58/61/9
f 42/36/46 40/35/46 71/91/46 70/92/46
f 69/93/47 70/92/47 67/87/47 68/86/47
f 70/92/48 71/91/48 66/90/48 67/87/48
f 74/94/49 69/93/49 68/86/49 63/89/49
f 72/95/50 73/83/50 64/81/50 65/80/50
f 66/90/12 65/80/12 60/57/12 59/62/12
f 71/91/51 72/95/51 65/80/51 66/90/51
f 36/31/52 33/69/52 74/84/52 73/83/52
f 44/38/53 42/36/53 70/92/53 69/93/53
f 38/32/54 36/31/54 73/83/54 72/95/54
f 33/40/55 44/38/55 69/93/55 74/94/55
f 40/35/56 38/32/56 72/95/56 71/91/56
f 47/67/7 48/79/7 78/96/7 77/97/7
f 50/82/7 45/73/7 75/98/7 80/99/7
f 46/68/7 47/67/7 77/97/7 76/100/7
f 48/79/7 49/77/7 79/101/7 78/96/7
f 49/77/7 50/76/7 80/102/7 79/101/7
f 45/73/7 46/68/7 76/100/7 75/98/7
f 75/98/57 76/100/57 82/103/57 81/104/57
f 78/96/58 79/101/58 85/105/58 84/106/58
f 76/100/59 77/97/59 83/107/59 82/103/59
f 79/101/60 80/102/60 86/108/60 85/105/60
f 77/97/61 78/96/61 84/106/61 83/107/61
f 80/99/62 75/98/62 81/104/62 86/109/62
