# Blender v2.91.0 OBJ File: 'Green_Potion_10.blend'
# www.blender.org
mtllib Green_Potion_10.mtl
o Green_Potion_10_Cube.008
v -0.068693 -0.191007 0.046482
v -0.078066 -0.191007 0.040901
v -0.089521 -0.169211 0.044615
v -0.102145 0.111065 0.050403
v -0.114780 0.079238 0.057202
v -0.078066 -0.191007 -0.040901
v -0.089521 -0.169211 -0.044615
v -0.068693 -0.191007 -0.046482
v -0.074931 -0.169211 -0.053302
v -0.102145 0.111065 -0.050403
v -0.096072 0.079238 -0.068341
v -0.114780 0.079238 -0.057202
v 0.078070 -0.191007 0.040901
v 0.089526 -0.169211 0.044615
v 0.068697 -0.191007 0.046482
v 0.102158 0.111065 0.050403
v 0.114784 0.079238 0.057202
v 0.068697 -0.191007 -0.046482
v 0.074935 -0.169211 -0.053302
v 0.078070 -0.191007 -0.040901
v 0.089526 -0.169211 -0.044615
v 0.102158 0.111065 -0.050403
v 0.114784 0.079238 -0.057202
v 0.096077 0.079238 -0.068341
v -0.098773 0.093983 0.066835
v -0.112250 0.093983 0.058810
v -0.112250 0.093983 -0.058810
v -0.098773 0.093983 -0.066835
v 0.098777 0.093983 -0.066835
v 0.112255 0.093983 -0.058810
v 0.112255 0.093983 0.058810
v 0.098777 0.093983 0.066835
v -0.037501 0.147637 0.027886
v -0.037501 0.147637 -0.027886
v 0.037532 0.147637 -0.027886
v 0.037532 0.147637 0.027886
v -0.026873 0.164702 0.027368
v -0.026873 0.164702 -0.027368
v 0.026904 0.164702 -0.027368
v 0.026904 0.164702 0.027368
v -0.038539 0.177118 0.039242
v -0.038539 0.177118 -0.039242
v 0.038570 0.177118 -0.039242
v 0.038570 0.177118 0.039242
v -0.038539 0.194708 0.039242
v -0.038539 0.194708 -0.039242
v 0.038570 0.194708 -0.039242
v 0.038570 0.194708 0.039242
v -0.028957 0.205055 0.029489
v -0.028957 0.205055 -0.029489
v 0.028988 0.205055 -0.029489
v 0.028988 0.205055 0.029489
v -0.023715 0.205055 0.024153
v -0.023715 0.205055 -0.024153
v 0.023746 0.205055 -0.024153
v 0.023746 0.205055 0.024153
v -0.020376 0.197635 0.020755
v -0.020376 0.197635 -0.020755
v 0.020407 0.197635 -0.020755
v 0.020407 0.197635 0.020755
v 0.017755 0.213257 0.021640
v 0.018611 0.209114 0.023837
v 0.020199 0.213257 0.019042
v 0.022265 0.209114 0.019952
v 0.020199 0.213257 -0.019042
v 0.022265 0.209114 -0.019952
v 0.017755 0.213257 -0.021640
v 0.018611 0.209114 -0.023837
v -0.020510 0.213257 0.019042
v -0.022577 0.209114 0.019952
v -0.018066 0.213257 0.021640
v -0.018922 0.209114 0.023837
v -0.018066 0.213257 -0.021640
v -0.018922 0.209114 -0.023837
v -0.020510 0.213257 -0.019042
v -0.022577 0.209114 -0.019952
v 0.018611 0.197457 0.023837
v 0.022265 0.197457 0.019952
v 0.022265 0.197457 -0.019952
v 0.018611 0.197457 -0.023837
v -0.022577 0.197457 0.019952
v -0.018922 0.197457 0.023837
v -0.018922 0.197457 -0.023837
v -0.022577 0.197457 -0.019952
v 0.074935 -0.169211 0.053302
v -0.074931 -0.169211 0.053302
v -0.096072 0.079238 0.068341
v 0.096077 0.079238 0.068341
vt 0.726804 0.988130
vt 0.726826 0.988152
vt 0.726818 0.988171
vt 0.726785 0.988137
vt 0.726826 0.987779
vt 0.726804 0.987801
vt 0.726785 0.987794
vt 0.726818 0.987760
vt 0.727177 0.987801
vt 0.727154 0.987779
vt 0.727162 0.987760
vt 0.727196 0.987794
vt 0.727154 0.988152
vt 0.727177 0.988130
vt 0.727196 0.988137
vt 0.727162 0.988171
vt 0.727162 0.988171
vt 0.726818 0.988171
vt 0.727162 0.987760
vt 0.727196 0.987794
vt 0.727215 0.988137
vt 0.726818 0.987760
vt 0.726785 0.987794
vt 0.726785 0.988137
vt 0.384315 0.733297
vt 0.384371 0.733297
vt 0.384371 0.733349
vt 0.384315 0.733349
vt 0.384371 0.733421
vt 0.384315 0.733421
vt 0.384315 0.733411
vt 0.384371 0.733411
vt 0.384371 0.733359
vt 0.384315 0.733359
vt 0.384371 0.733483
vt 0.384315 0.733483
vt 0.384315 0.733473
vt 0.384371 0.733473
vt 0.384431 0.733478
vt 0.384315 0.733292
vt 0.384371 0.733292
vt 0.384253 0.733471
vt 0.384256 0.733475
vt 0.384255 0.733478
vt 0.384250 0.733473
vt 0.384430 0.733475
vt 0.384433 0.733471
vt 0.384436 0.733473
vt 0.384433 0.733422
vt 0.384430 0.733419
vt 0.384436 0.733421
vt 0.384256 0.733419
vt 0.384253 0.733422
vt 0.384250 0.733421
vt 0.384380 0.733419
vt 0.384377 0.733422
vt 0.384309 0.733422
vt 0.384306 0.733419
vt 0.384377 0.733471
vt 0.384380 0.733475
vt 0.384306 0.733475
vt 0.384309 0.733471
vt 0.384429 0.733469
vt 0.384428 0.733423
vt 0.384382 0.733424
vt 0.384382 0.733470
vt 0.384382 0.733469
vt 0.384382 0.733424
vt 0.384382 0.733424
vt 0.384382 0.733469
vt 0.384428 0.733423
vt 0.384428 0.733470
vt 0.384429 0.733469
vt 0.384429 0.733424
vt 0.384382 0.733424
vt 0.384382 0.733469
vt 0.384429 0.733469
vt 0.384429 0.733424
vt 0.384429 0.733424
vt 0.384429 0.733469
vt 0.384429 0.733469
vt 0.384429 0.733424
vt 0.384382 0.733470
vt 0.384382 0.733469
vt 0.384382 0.733424
vt 0.384382 0.733424
vt 0.384382 0.733469
vt 0.384382 0.733423
vt 0.384429 0.733469
vt 0.384429 0.733424
vt 0.384429 0.733469
vt 0.384429 0.733424
vt 0.384382 0.733424
vt 0.384382 0.733469
vn 0.6479 0.4570 0.6094
vn 0.6479 0.4570 -0.6094
vn -0.6479 0.4570 -0.6094
vn -0.6479 0.4570 0.6094
vn 0.8949 0.4463 0.0000
vn 0.0000 0.4685 -0.8835
vn -0.8949 0.4463 0.0000
vn 0.0000 0.4685 0.8835
vn 0.0000 1.0000 -0.0000
vn 0.0000 0.0000 1.0000
vn -0.7284 0.0000 -0.6851
vn -1.0000 0.0000 0.0000
vn 0.0000 0.0000 -1.0000
vn 0.7284 0.0000 -0.6851
vn 1.0000 0.0000 0.0000
vn 0.7284 0.0000 0.6851
vn -0.7284 0.0000 0.6851
vn -0.9949 -0.1011 0.0000
vn 0.5093 -0.0951 -0.8553
vn -0.5093 -0.0951 -0.8553
vn 0.5093 -0.0951 0.8553
vn 0.0000 -0.0604 0.9982
vn 0.0000 -0.0604 -0.9982
vn 0.9949 -0.1011 0.0000
vn -0.5093 -0.0951 0.8553
vn -0.4725 -0.3835 0.7935
vn -0.5116 -0.0059 0.8592
vn -0.5116 -0.0059 -0.8592
vn -0.4725 -0.3835 -0.7935
vn 0.5116 -0.0059 -0.8592
vn 0.4725 -0.3835 -0.7935
vn 0.5116 -0.0059 0.8592
vn 0.4725 -0.3835 0.7935
vn -0.8852 -0.4652 0.0000
vn 0.0000 -0.2986 -0.9544
vn 0.8852 -0.4652 0.0000
vn 0.0000 -0.2986 0.9544
vn -0.9856 0.1691 0.0000
vn 0.0000 0.1016 0.9948
vn 0.9856 0.1691 0.0000
vn 0.0000 0.1016 -0.9948
vn 0.0000 -1.0000 -0.0000
vn -0.4141 0.5873 0.6955
vn -0.4141 0.5873 -0.6955
vn 0.4141 0.5871 -0.6955
vn 0.4141 0.5871 0.6955
vn -0.8607 0.5092 0.0000
vn 0.0000 0.6933 0.7207
vn 0.8609 0.5088 0.0000
vn 0.0000 0.6933 -0.7207
vn 0.8489 0.5286 0.0000
vn 0.0000 0.5243 -0.8515
vn 0.0000 0.5243 0.8515
vn 0.4925 0.8703 0.0000
vn -0.4924 0.8704 0.0000
vn -0.8489 0.5286 0.0000
vn 0.0000 0.0303 -0.9995
vn 0.0000 0.0303 0.9995
vn 0.7288 -0.6847 0.0000
vn -0.7288 -0.6847 0.0000
vn 0.0000 -0.6911 -0.7227
vn 0.0000 -0.6911 0.7227
vn -0.7337 0.6795 0.0000
vn 0.0000 0.6859 -0.7277
vn 0.0000 0.6859 0.7277
vn 0.7337 0.6795 0.0000
vn 0.9119 0.4104 0.0000
vn -0.9119 0.4104 0.0000
vn 0.0000 0.4164 0.9092
vn 0.0000 0.4164 -0.9092
usemtl RHIGH.044
s off
f 63/1/1 61/2/1 62/3/1 64/4/1
f 67/5/2 65/6/2 66/7/2 68/8/2
f 75/9/3 73/10/3 74/11/3 76/12/3
f 71/13/4 69/14/4 70/15/4 72/16/4
f 64/4/5 66/7/5 65/6/5 63/1/5
f 68/8/6 74/11/6 73/10/6 67/5/6
f 76/12/7 70/15/7 69/14/7 75/9/7
f 72/16/8 62/3/8 61/2/8 71/13/8
f 65/6/9 67/5/9 73/10/9 75/9/9 69/14/9 71/13/9 61/2/9 63/1/9
f 62/3/10 72/16/10 82/17/10 77/18/10
f 76/12/11 74/11/11 83/19/11 84/20/11
f 70/15/12 76/12/12 84/20/12 81/21/12
f 74/11/13 68/8/13 80/22/13 83/19/13
f 68/8/14 66/7/14 79/23/14 80/22/14
f 66/7/15 64/4/15 78/24/15 79/23/15
f 64/4/16 62/3/16 77/18/16 78/24/16
f 72/16/17 70/15/17 81/21/17 82/17/17
usemtl RLOW.044
f 3/25/18 5/26/18 12/27/18 7/28/18
f 23/29/19 21/30/19 19/31/19 24/32/19
f 11/33/20 9/34/20 7/28/20 12/27/20
f 88/35/21 85/36/21 14/37/21 17/38/21
f 85/36/22 88/35/22 87/39/22 86/40/22
f 9/34/23 11/33/23 24/32/23 19/31/23
f 21/30/24 23/29/24 17/38/24 14/37/24
f 86/40/25 87/41/25 5/26/25 3/25/25
f 2/42/26 1/43/26 86/44/26 3/45/26
f 25/46/27 26/47/27 5/48/27 87/39/27
f 27/49/28 28/50/28 11/33/28 12/51/28
f 8/52/29 6/53/29 7/54/29 9/34/29
f 29/55/30 30/56/30 23/29/30 24/32/30
f 20/57/31 18/58/31 19/31/31 21/30/31
f 31/59/32 32/60/32 88/35/32 17/38/32
f 15/61/33 13/62/33 14/37/33 85/36/33
f 3/45/34 7/54/34 6/53/34 2/42/34
f 9/34/35 19/31/35 18/58/35 8/52/35
f 21/30/36 14/37/36 13/62/36 20/57/36
f 85/36/37 86/44/37 1/43/37 15/61/37
f 26/47/38 27/49/38 12/51/38 5/48/38
f 32/60/39 25/46/39 87/39/39 88/35/39
f 17/38/40 23/29/40 30/56/40 31/59/40
f 24/32/41 11/33/41 28/50/41 29/55/41
f 6/53/42 8/52/42 18/58/42 20/57/42 13/62/42 15/61/42 1/43/42 2/42/42
f 4/63/43 26/47/43 25/46/43
f 10/64/44 28/50/44 27/49/44
f 22/65/45 30/56/45 29/55/45
f 16/66/46 32/60/46 31/59/46
f 4/63/47 10/64/47 27/49/47 26/47/47
f 16/66/48 4/63/48 25/46/48 32/60/48
f 22/65/49 16/66/49 31/59/49 30/56/49
f 10/64/50 22/65/50 29/55/50 28/50/50
f 36/67/51 35/68/51 39/69/51 40/70/51
f 22/65/52 10/64/52 34/71/52 35/68/52
f 4/63/53 16/66/53 36/67/53 33/72/53
f 16/66/54 22/65/54 35/68/54 36/67/54
f 10/64/55 4/63/55 33/72/55 34/71/55
f 34/71/56 33/72/56 37/73/56 38/74/56
f 35/68/57 34/71/57 38/74/57 39/69/57
f 33/72/58 36/67/58 40/70/58 37/73/58
f 40/70/59 39/69/59 43/75/59 44/76/59
f 38/74/60 37/73/60 41/77/60 42/78/60
f 39/69/61 38/74/61 42/78/61 43/75/61
f 37/73/62 40/70/62 44/76/62 41/77/62
f 46/79/63 45/80/63 49/81/63 50/82/63
f 42/78/12 41/77/12 45/80/12 46/79/12
f 48/83/10 45/80/10 41/77/10 44/76/10
f 52/84/9 51/85/9 55/86/9 56/87/9
f 47/88/64 46/79/64 50/82/64 51/85/64
f 45/80/65 48/83/65 52/84/65 49/81/65
f 48/83/66 47/88/66 51/85/66 52/84/66
f 43/75/13 42/78/13 46/79/13 47/88/13
f 47/88/15 48/83/15 44/76/15 43/75/15
f 50/82/9 49/81/9 53/89/9 54/90/9
f 51/85/9 50/82/9 54/90/9 55/86/9
f 49/81/9 52/84/9 56/87/9 53/89/9
f 54/90/67 53/89/67 57/91/67 58/92/67
f 56/87/68 55/86/68 59/93/68 60/94/68
f 55/86/69 54/90/69 58/92/69 59/93/69
f 53/89/70 56/87/70 60/94/70 57/91/70
