# Blender v2.91.0 OBJ File: 'Green_Potion_9(Doubke-Handle).blend'
# www.blender.org
mtllib Green_Potion_9(Doubke-Handle).mtl
o Green_Potion_9(Doubke-Handle)_Cylinder.059
v -0.023150 0.113569 -0.012832
v -0.025715 0.109157 -0.014282
v -0.022909 0.113569 0.013603
v -0.025447 0.109157 0.015099
v 0.000105 0.113569 0.026612
v 0.000132 0.109157 0.029558
v 0.022879 0.113569 0.013185
v 0.025443 0.109157 0.014635
v 0.022637 0.113569 -0.013250
v 0.025175 0.109157 -0.014746
v -0.000377 0.113569 -0.026259
v -0.000404 0.109157 -0.029204
v -0.025715 0.091162 -0.014282
v -0.025447 0.091162 0.015099
v -0.000404 0.091162 -0.029204
v 0.000132 0.091162 0.029558
v 0.025443 0.091162 0.014635
v 0.025175 0.091162 -0.014746
v -0.012657 0.091162 0.022329
v 0.012385 0.091162 -0.021975
v -0.051722 -0.094140 -0.029228
v -0.079286 -0.060842 -0.044808
v -0.000572 -0.094140 -0.059384
v -0.000861 -0.060842 -0.091046
v 0.051119 -0.094140 -0.030166
v 0.078394 -0.060842 -0.046247
v 0.051660 -0.094140 0.029208
v 0.079224 -0.060842 0.044789
v 0.000511 -0.094140 0.059365
v 0.000800 -0.060842 0.091026
v -0.051180 -0.094140 0.030147
v -0.078455 -0.060842 0.046228
v -0.090257 -0.016898 -0.051010
v -0.000492 0.092564 -0.050616
v -0.043626 0.092564 0.025693
v -0.000976 -0.016898 -0.103648
v 0.044026 0.092564 0.024893
v 0.089250 -0.016898 -0.052648
v 0.000431 0.092564 0.050596
v 0.090196 -0.016898 0.050990
v 0.043565 0.092564 -0.025713
v 0.000915 -0.016898 0.103629
v -0.044088 0.092564 -0.024913
v -0.089311 -0.016898 0.052629
v -0.040001 0.099979 0.023556
v 0.000393 0.099979 0.046389
v 0.040364 0.099979 0.022823
v 0.039940 0.099979 -0.023576
v -0.000454 0.099979 -0.046408
v -0.040425 0.099979 -0.022842
v -0.040425 0.085149 -0.022842
v -0.000454 0.085149 -0.046408
v 0.039940 0.085149 -0.023576
v 0.040364 0.085149 0.022823
v 0.000393 0.085149 0.046389
v -0.040001 0.085149 0.023556
v -0.025392 0.076806 0.014943
v 0.000238 0.076806 0.029430
v 0.025600 0.076806 0.014478
v 0.025331 0.076806 -0.014962
v -0.000299 0.076806 -0.029450
v -0.025661 0.076806 -0.014497
v -0.025661 0.059245 -0.014497
v -0.000299 0.059245 -0.029450
v 0.025331 0.059245 -0.014962
v 0.025600 0.059245 0.014478
v 0.000238 0.059245 0.029430
v -0.025392 0.059245 0.014943
v -0.074385 0.026537 0.043828
v 0.000757 0.026537 0.086302
v 0.075111 0.026537 0.042464
v 0.074323 0.026537 -0.043847
v -0.000818 0.026537 -0.086321
v -0.075172 0.026537 -0.042483
v -0.030248 0.099979 0.017806
v 0.000290 0.099979 0.035067
v 0.030507 0.099979 0.017251
v 0.030187 0.099979 -0.017825
v -0.000351 0.099979 -0.035086
v -0.030568 0.099979 -0.017271
v -0.024613 0.094937 0.014484
v 0.000230 0.094937 0.028526
v 0.024813 0.094937 0.014033
v 0.024552 0.094937 -0.014503
v -0.000291 0.094937 -0.028546
v -0.024874 0.094937 -0.014052
v 0.056910 0.034276 0.000009
v 0.052681 0.037228 0.008941
v 0.044223 0.043132 0.008941
v 0.039994 0.046084 0.000009
v 0.044223 0.043132 -0.008924
v 0.052681 0.037228 -0.008924
v 0.062951 0.048229 -0.008924
v 0.056720 0.056449 -0.008924
v 0.053604 0.060559 0.000009
v 0.056720 0.056449 0.008941
v 0.062951 0.048229 0.008941
v 0.066066 0.044119 0.000009
v 0.081159 0.052021 -0.008060
v 0.082314 0.061267 -0.008060
v 0.082892 0.065889 0.000009
v 0.082314 0.061267 0.008078
v 0.081159 0.052021 0.008078
v 0.080581 0.047399 0.000009
v 0.097488 0.038110 -0.008060
v 0.104920 0.043730 -0.008060
v 0.108636 0.046540 0.000009
v 0.104920 0.043730 0.008078
v 0.097488 0.038110 0.008078
v 0.093773 0.035300 0.000009
v 0.099380 0.020826 -0.008060
v 0.108644 0.019833 -0.008060
v 0.113276 0.019337 0.000009
v 0.108644 0.019833 0.008078
v 0.099380 0.020826 0.008078
v 0.094748 0.021322 0.000009
v 0.093632 0.004736 -0.008060
v 0.100540 -0.001515 -0.008060
v 0.103995 -0.004641 0.000009
v 0.100540 -0.001515 0.008078
v 0.093632 0.004736 0.008078
v 0.090177 0.007862 0.000009
v 0.081335 -0.006224 -0.008060
v 0.084759 -0.014890 -0.008060
v 0.086470 -0.019222 0.000009
v 0.084759 -0.014890 0.008078
v 0.081335 -0.006224 0.008078
v 0.079623 -0.001891 0.000009
v -0.056261 0.034276 0.000009
v -0.052032 0.037228 -0.008924
v -0.043574 0.043132 -0.008924
v -0.039345 0.046084 0.000009
v -0.043574 0.043132 0.008941
v -0.052032 0.037228 0.008941
v -0.062302 0.048229 0.008941
v -0.056071 0.056449 0.008941
v -0.052956 0.060559 0.000009
v -0.056071 0.056449 -0.008924
v -0.062302 0.048229 -0.008924
v -0.065418 0.044119 0.000009
v -0.080510 0.052021 0.008078
v -0.081666 0.061267 0.008078
v -0.082243 0.065889 0.000009
v -0.081666 0.061267 -0.008060
v -0.080510 0.052021 -0.008060
v -0.079932 0.047399 0.000009
v -0.096840 0.038110 0.008078
v -0.104271 0.043730 0.008078
v -0.107987 0.046540 0.000009
v -0.104271 0.043730 -0.008060
v -0.096840 0.038110 -0.008060
v -0.093124 0.035300 0.000009
v -0.098731 0.020826 0.008078
v -0.107996 0.019833 0.008078
v -0.112628 0.019337 0.000009
v -0.107996 0.019833 -0.008060
v -0.098731 0.020826 -0.008060
v -0.094099 0.021322 0.000009
v -0.092983 0.004736 0.008078
v -0.099892 -0.001515 0.008078
v -0.103346 -0.004641 0.000009
v -0.099892 -0.001515 -0.008060
v -0.092983 0.004736 -0.008060
v -0.089529 0.007862 0.000009
v -0.080686 -0.006224 0.008078
v -0.084110 -0.014890 0.008078
v -0.085822 -0.019222 0.000009
v -0.084110 -0.014890 -0.008060
v -0.080686 -0.006224 -0.008060
v -0.078975 -0.001891 0.000009
vt 0.722988 0.988654
vt 0.722892 0.988654
vt 0.722897 0.988642
vt 0.722983 0.988642
vt 0.722796 0.988654
vt 0.722801 0.988642
vt 0.722701 0.988654
vt 0.722706 0.988642
vt 0.722605 0.988654
vt 0.722610 0.988642
vt 0.722509 0.988654
vt 0.722514 0.988642
vt 0.722414 0.988654
vt 0.722419 0.988642
vt 0.722844 0.988622
vt 0.722952 0.988560
vt 0.722952 0.988436
vt 0.722844 0.988374
vt 0.722737 0.988436
vt 0.722737 0.988560
vt 0.722988 0.988741
vt 0.722892 0.988741
vt 0.722796 0.988741
vt 0.722701 0.988741
vt 0.722509 0.988741
vt 0.722414 0.988741
vt 0.722605 0.988741
vt 0.722557 0.988741
vt 0.722844 0.988741
vt 0.382128 0.741508
vt 0.382128 0.741844
vt 0.382005 0.741844
vt 0.382005 0.741508
vt 0.381882 0.741508
vt 0.381882 0.741844
vt 0.381759 0.741844
vt 0.381759 0.741508
vt 0.381636 0.741844
vt 0.381636 0.741508
vt 0.381513 0.741844
vt 0.381513 0.741508
vt 0.381759 0.741844
vt 0.381882 0.741844
vt 0.381882 0.741844
vt 0.381759 0.741844
vt 0.382251 0.741508
vt 0.382135 0.741492
vt 0.382245 0.741492
vt 0.382012 0.741492
vt 0.381888 0.741492
vt 0.381766 0.741492
vt 0.381642 0.741492
vt 0.381519 0.741492
vt 0.382067 0.741467
vt 0.382205 0.741387
vt 0.382205 0.741228
vt 0.382067 0.741148
vt 0.381929 0.741228
vt 0.381929 0.741387
vt 0.382005 0.741844
vt 0.382128 0.741844
vt 0.382128 0.741844
vt 0.382005 0.741844
vt 0.381759 0.741844
vt 0.381882 0.741844
vt 0.381636 0.741844
vt 0.381636 0.741844
vt 0.382251 0.741844
vt 0.382251 0.741844
vt 0.381882 0.741844
vt 0.381759 0.741844
vt 0.382251 0.741844
vt 0.381513 0.741844
vt 0.381636 0.741844
vt 0.381513 0.741844
vt 0.381636 0.741844
vt 0.382128 0.741844
vt 0.382251 0.741844
vt 0.382251 0.741844
vt 0.382128 0.741844
vt 0.382005 0.741844
vt 0.382005 0.741844
vt 0.382005 0.741844
vt 0.382128 0.741844
vt 0.381513 0.741844
vt 0.382128 0.741844
vt 0.382251 0.741844
vt 0.382251 0.741844
vt 0.381636 0.741844
vt 0.381759 0.741844
vt 0.381513 0.741844
vt 0.381513 0.741844
vt 0.381882 0.741844
vt 0.381882 0.741844
vt 0.381759 0.741844
vt 0.381636 0.741844
vt 0.381513 0.741844
vt 0.382005 0.741844
vt 0.382005 0.741844
vt 0.381882 0.741844
vt 0.381636 0.741844
vt 0.381513 0.741844
vt 0.381759 0.741844
vt 0.382128 0.741844
vt 0.382251 0.741844
vt 0.381759 0.741844
vt 0.381636 0.741844
vt 0.382128 0.741844
vt 0.382005 0.741844
vt 0.381882 0.741844
vt 0.382251 0.741844
vt 0.381513 0.741844
vt 0.382005 0.741844
vt 0.382128 0.741844
vt 0.382128 0.741844
vt 0.382005 0.741844
vt 0.381636 0.741844
vt 0.381759 0.741844
vt 0.381759 0.741844
vt 0.381636 0.741844
vt 0.382251 0.741844
vt 0.382251 0.741844
vt 0.381513 0.741844
vt 0.381513 0.741844
vt 0.381882 0.741844
vt 0.381882 0.741844
vt 0.381759 0.741844
vt 0.381882 0.741844
vt 0.382128 0.741844
vt 0.382251 0.741844
vt 0.382005 0.741844
vt 0.381513 0.741844
vt 0.381636 0.741844
vt 0.382005 0.741844
vt 0.382128 0.741844
vt 0.381513 0.741844
vt 0.381636 0.741844
vt 0.381759 0.741844
vt 0.381882 0.741844
vt 0.382251 0.741844
vt 0.381759 0.741844
vt 0.381882 0.741844
vt 0.382128 0.741844
vt 0.382251 0.741844
vt 0.382005 0.741844
vt 0.381513 0.741844
vt 0.381636 0.741844
vt 0.382005 0.741844
vt 0.382128 0.741844
vt 0.381513 0.741844
vt 0.381636 0.741844
vt 0.381759 0.741844
vt 0.381882 0.741844
vt 0.382251 0.741844
vt 0.381759 0.741844
vt 0.381882 0.741844
vt 0.382128 0.741844
vt 0.382251 0.741844
vt 0.382005 0.741844
vt 0.381513 0.741844
vt 0.381636 0.741844
vt 0.382005 0.741844
vt 0.382128 0.741844
vt 0.382128 0.741844
vt 0.382005 0.741844
vt 0.381636 0.741844
vt 0.381759 0.741844
vt 0.381759 0.741844
vt 0.381636 0.741844
vt 0.382251 0.741844
vt 0.382251 0.741844
vt 0.381513 0.741844
vt 0.381513 0.741844
vt 0.381882 0.741844
vt 0.381882 0.741844
vt 0.381759 0.741844
vt 0.381882 0.741844
vt 0.382128 0.741844
vt 0.382251 0.741844
vt 0.382005 0.741844
vt 0.381513 0.741844
vt 0.381636 0.741844
vt 0.382005 0.741844
vt 0.382128 0.741844
vt 0.381513 0.741844
vt 0.381636 0.741844
vt 0.381759 0.741844
vt 0.381882 0.741844
vt 0.382251 0.741844
vt 0.381759 0.741844
vt 0.381882 0.741844
vt 0.382128 0.741844
vt 0.382251 0.741844
vt 0.382005 0.741844
vt 0.381513 0.741844
vt 0.381636 0.741844
vt 0.382005 0.741844
vt 0.382128 0.741844
vt 0.381513 0.741844
vt 0.381636 0.741844
vt 0.381759 0.741844
vt 0.381882 0.741844
vt 0.382251 0.741844
vt 0.381759 0.741844
vt 0.381882 0.741844
vt 0.382128 0.741844
vt 0.382251 0.741844
vt 0.382005 0.741844
vt 0.381513 0.741844
vt 0.381636 0.741844
vn -0.8656 0.5006 0.0079
vn -0.4260 0.5006 0.7536
vn 0.4397 0.5006 0.7457
vn 0.8656 0.5006 -0.0079
vn 0.4260 0.5006 -0.7536
vn -0.4397 0.5006 -0.7457
vn 0.0000 1.0000 -0.0000
vn -1.0000 0.0000 0.0091
vn 0.5079 0.0000 0.8614
vn -0.5079 -0.0000 -0.8614
vn 0.4921 -0.0000 -0.8706
vn 1.0000 -0.0000 -0.0091
vn -0.4921 0.0000 0.8706
vn 0.4776 -0.2410 -0.8449
vn 0.4929 -0.2410 0.8360
vn -0.4776 -0.2410 0.8449
vn -0.9705 -0.2410 0.0089
vn 0.9705 -0.2410 -0.0089
vn 0.4558 -0.4410 0.7731
vn -0.3921 -0.6357 -0.6650
vn 0.3799 -0.6357 -0.6720
vn 0.7719 -0.6357 -0.0070
vn 0.3921 -0.6357 0.6650
vn -0.3799 -0.6357 0.6720
vn -0.7719 -0.6357 0.0070
vn 0.0000 -1.0000 -0.0000
vn 0.2430 -0.8695 -0.4299
vn 0.2508 -0.8695 0.4254
vn 0.4939 -0.8695 -0.0045
vn -0.2430 -0.8695 0.4299
vn -0.2508 -0.8695 -0.4254
vn 0.4558 0.4410 0.7731
vn -0.4929 -0.2410 -0.8360
vn -0.8975 -0.4410 0.0082
vn -0.4416 0.4410 0.7813
vn -0.4558 0.4410 -0.7731
vn 0.4416 0.4410 -0.7813
vn -0.4558 -0.4410 -0.7731
vn -0.4416 -0.4410 0.7813
vn -0.8975 0.4410 0.0082
vn 0.4416 -0.4410 -0.7813
vn 0.8975 0.4410 -0.0082
vn 0.8975 -0.4410 -0.0082
vn -0.2810 0.8331 -0.4765
vn -0.4939 -0.8695 0.0045
vn 0.4800 0.3266 0.8142
vn -0.2722 0.8331 0.4816
vn 0.2810 0.8331 0.4765
vn -0.5532 0.8331 0.0050
vn 0.2722 0.8331 -0.4816
vn 0.5532 0.8331 -0.0050
vn -0.4800 0.3266 -0.8142
vn -0.4651 0.3266 0.8228
vn 0.4651 0.3266 -0.8228
vn -0.9451 0.3266 0.0086
vn 0.9451 0.3266 -0.0086
vn 0.3272 0.7469 -0.5788
vn -0.3272 0.7469 0.5788
vn -0.3377 0.7469 -0.5727
vn 0.3377 0.7469 0.5727
vn -0.6649 0.7469 0.0061
vn 0.6649 0.7469 -0.0061
vn -0.6331 0.5948 -0.4954
vn 0.6355 -0.5923 0.4954
vn -0.0000 0.0000 -1.0000
vn 0.6355 -0.5923 -0.4954
vn 0.0000 -0.0000 1.0000
vn -0.6331 0.5948 0.4954
vn 0.0373 0.0108 0.9992
vn 0.0373 0.0108 -0.9992
vn -0.1534 0.8695 0.4695
vn -0.1534 0.8695 -0.4695
vn 0.1982 -0.8595 -0.4711
vn 0.1982 -0.8595 0.4711
vn 0.5365 0.7032 -0.4666
vn -0.5862 -0.6653 -0.4624
vn -0.5862 -0.6653 0.4624
vn 0.5365 0.7032 0.4666
vn 0.8707 0.1425 0.4708
vn 0.8707 0.1425 -0.4708
vn -0.8805 -0.0807 -0.4671
vn -0.8805 -0.0807 0.4671
vn 0.8187 -0.3140 -0.4807
vn -0.8283 0.2892 -0.4799
vn -0.8283 0.2892 0.4799
vn 0.8187 -0.3140 0.4807
vn 0.5610 -0.6684 0.4885
vn 0.5610 -0.6684 -0.4885
vn -0.5866 0.6472 -0.4869
vn -0.5866 0.6472 0.4869
vn 0.6331 0.5948 0.4954
vn -0.6355 -0.5923 -0.4954
vn -0.6355 -0.5923 0.4954
vn 0.6331 0.5948 -0.4954
vn -0.0373 0.0108 -0.9992
vn -0.0373 0.0108 0.9992
vn 0.1534 0.8695 -0.4695
vn 0.1534 0.8695 0.4695
vn -0.1982 -0.8595 0.4711
vn -0.1982 -0.8595 -0.4711
vn -0.5365 0.7032 0.4666
vn 0.5862 -0.6653 0.4624
vn 0.5862 -0.6653 -0.4624
vn -0.5365 0.7032 -0.4666
vn -0.8707 0.1425 -0.4708
vn -0.8707 0.1425 0.4708
vn 0.8805 -0.0807 0.4671
vn 0.8805 -0.0807 -0.4671
vn -0.8187 -0.3140 0.4807
vn 0.8283 0.2892 0.4799
vn 0.8283 0.2892 -0.4799
vn -0.8187 -0.3140 -0.4807
vn -0.5610 -0.6684 -0.4885
vn -0.5610 -0.6684 0.4885
vn 0.5866 0.6472 0.4869
vn 0.5866 0.6472 -0.4869
usemtl RHIGH.042
s off
f 2/1/1 4/2/1 3/3/1 1/4/1
f 4/2/2 6/5/2 5/6/2 3/3/2
f 6/5/3 8/7/3 7/8/3 5/6/3
f 8/7/4 10/9/4 9/10/4 7/8/4
f 10/9/5 12/11/5 11/12/5 9/10/5
f 12/11/6 2/13/6 1/14/6 11/12/6
f 1/15/7 3/16/7 5/17/7 7/18/7 9/19/7 11/20/7
f 2/1/8 13/21/8 14/22/8 4/2/8
f 6/5/9 16/23/9 17/24/9 8/7/9
f 12/11/10 15/25/10 13/26/10 2/13/10
f 10/9/11 18/27/11 20/28/11 15/25/11 12/11/11
f 8/7/12 17/24/12 18/27/12 10/9/12
f 4/2/13 14/22/13 19/29/13 16/23/13 6/5/13
usemtl RLOW.042
f 24/30/14 36/31/14 38/32/14 26/33/14
f 28/34/15 40/35/15 42/36/15 30/37/15
f 30/37/16 42/36/16 44/38/16 32/39/16
f 32/39/17 44/38/17 33/40/17 22/41/17
f 26/33/18 38/32/18 40/35/18 28/34/18
f 55/42/19 54/43/19 37/44/19 39/45/19
f 22/46/20 24/30/20 23/47/20 21/48/20
f 24/30/21 26/33/21 25/49/21 23/47/21
f 26/33/22 28/34/22 27/50/22 25/49/22
f 28/34/23 30/37/23 29/51/23 27/50/23
f 30/37/24 32/39/24 31/52/24 29/51/24
f 32/39/25 22/41/25 21/53/25 31/52/25
f 21/54/26 23/55/26 25/56/26 27/57/26 29/58/26 31/59/26
f 60/60/27 61/61/27 52/62/27 53/63/27
f 58/64/28 59/65/28 54/43/28 55/42/28
f 59/65/29 60/60/29 53/63/29 54/43/29
f 57/66/30 58/64/30 55/42/30 56/67/30
f 61/61/31 62/68/31 51/69/31 52/62/31
f 39/45/32 37/44/32 47/70/32 46/71/32
f 22/46/33 33/72/33 36/31/33 24/30/33
f 51/73/34 56/67/34 35/74/34 43/75/34
f 35/74/35 39/45/35 46/71/35 45/76/35
f 34/77/36 43/78/36 50/79/36 49/80/36
f 41/81/37 34/77/37 49/80/37 48/82/37
f 52/62/38 51/69/38 43/78/38 34/77/38
f 65/83/11 64/84/11 61/61/11 60/60/11
f 56/67/39 55/42/39 39/45/39 35/74/39
f 43/75/40 35/74/40 45/76/40 50/85/40
f 53/63/41 52/62/41 34/77/41 41/81/41
f 37/44/42 41/81/42 48/82/42 47/70/42
f 54/43/43 53/63/43 41/81/43 37/44/43
f 73/86/44 74/87/44 63/88/44 64/84/44
f 68/89/13 67/90/13 58/64/13 57/66/13
f 62/91/45 57/66/45 56/67/45 51/73/45
f 64/84/10 63/88/10 62/68/10 61/61/10
f 63/92/8 68/89/8 57/66/8 62/91/8
f 67/90/9 66/93/9 59/65/9 58/64/9
f 42/36/46 40/35/46 71/94/46 70/95/46
f 69/96/47 70/95/47 67/90/47 68/89/47
f 70/95/48 71/94/48 66/93/48 67/90/48
f 74/97/49 69/96/49 68/89/49 63/92/49
f 72/98/50 73/86/50 64/84/50 65/83/50
f 66/93/12 65/83/12 60/60/12 59/65/12
f 71/94/51 72/98/51 65/83/51 66/93/51
f 36/31/52 33/72/52 74/87/52 73/86/52
f 44/38/53 42/36/53 70/95/53 69/96/53
f 38/32/54 36/31/54 73/86/54 72/98/54
f 33/40/55 44/38/55 69/96/55 74/97/55
f 40/35/56 38/32/56 72/98/56 71/94/56
f 47/70/7 48/82/7 78/99/7 77/100/7
f 50/85/7 45/76/7 75/101/7 80/102/7
f 46/71/7 47/70/7 77/100/7 76/103/7
f 48/82/7 49/80/7 79/104/7 78/99/7
f 49/80/7 50/79/7 80/105/7 79/104/7
f 45/76/7 46/71/7 76/103/7 75/101/7
f 75/101/57 76/103/57 82/106/57 81/107/57
f 78/99/58 79/104/58 85/108/58 84/109/58
f 76/103/59 77/100/59 83/110/59 82/106/59
f 79/104/60 80/105/60 86/111/60 85/108/60
f 77/100/61 78/99/61 84/109/61 83/110/61
f 80/102/62 75/101/62 81/107/62 86/112/62
f 95/113/63 94/114/63 91/115/63 90/116/63
f 98/117/64 97/118/64 88/119/64 87/120/64
f 94/114/65 93/121/65 92/122/65 91/115/65
f 93/123/66 98/117/66 87/120/66 92/124/66
f 97/118/67 96/125/67 89/126/67 88/119/67
f 96/125/68 95/113/68 90/116/68 89/126/68
f 96/125/69 97/118/69 103/127/69 102/128/69
f 93/121/70 94/114/70 100/129/70 99/130/70
f 95/113/71 96/125/71 102/128/71 101/131/71
f 94/114/72 95/113/72 101/131/72 100/129/72
f 98/117/73 93/123/73 99/132/73 104/133/73
f 97/118/74 98/117/74 104/133/74 103/127/74
f 100/129/75 101/131/75 107/134/75 106/135/75
f 104/133/76 99/132/76 105/136/76 110/137/76
f 103/127/77 104/133/77 110/137/77 109/138/77
f 102/128/67 103/127/67 109/138/67 108/139/67
f 99/130/65 100/129/65 106/135/65 105/140/65
f 101/131/78 102/128/78 108/139/78 107/134/78
f 108/139/67 109/138/67 115/141/67 114/142/67
f 105/140/65 106/135/65 112/143/65 111/144/65
f 107/134/79 108/139/79 114/142/79 113/145/79
f 106/135/80 107/134/80 113/145/80 112/143/80
f 110/137/81 105/136/81 111/146/81 116/147/81
f 109/138/82 110/137/82 116/147/82 115/141/82
f 112/143/83 113/145/83 119/148/83 118/149/83
f 116/147/84 111/146/84 117/150/84 122/151/84
f 115/141/85 116/147/85 122/151/85 121/152/85
f 114/142/67 115/141/67 121/152/67 120/153/67
f 111/144/65 112/143/65 118/149/65 117/154/65
f 113/145/86 114/142/86 120/153/86 119/148/86
f 120/153/67 121/152/67 127/155/67 126/156/67
f 117/154/65 118/149/65 124/157/65 123/158/65
f 119/148/87 120/153/87 126/156/87 125/159/87
f 118/149/88 119/148/88 125/159/88 124/157/88
f 122/151/89 117/150/89 123/160/89 128/161/89
f 121/152/90 122/151/90 128/161/90 127/155/90
f 137/162/91 136/163/91 133/164/91 132/165/91
f 140/166/92 139/167/92 130/168/92 129/169/92
f 136/163/67 135/170/67 134/171/67 133/164/67
f 135/172/93 140/166/93 129/169/93 134/173/93
f 139/167/65 138/174/65 131/175/65 130/168/65
f 138/174/94 137/162/94 132/165/94 131/175/94
f 138/174/95 139/167/95 145/176/95 144/177/95
f 135/170/96 136/163/96 142/178/96 141/179/96
f 137/162/97 138/174/97 144/177/97 143/180/97
f 136/163/98 137/162/98 143/180/98 142/178/98
f 140/166/99 135/172/99 141/181/99 146/182/99
f 139/167/100 140/166/100 146/182/100 145/176/100
f 142/178/101 143/180/101 149/183/101 148/184/101
f 146/182/102 141/181/102 147/185/102 152/186/102
f 145/176/103 146/182/103 152/186/103 151/187/103
f 144/177/65 145/176/65 151/187/65 150/188/65
f 141/179/67 142/178/67 148/184/67 147/189/67
f 143/180/104 144/177/104 150/188/104 149/183/104
f 150/188/65 151/187/65 157/190/65 156/191/65
f 147/189/67 148/184/67 154/192/67 153/193/67
f 149/183/105 150/188/105 156/191/105 155/194/105
f 148/184/106 149/183/106 155/194/106 154/192/106
f 152/186/107 147/185/107 153/195/107 158/196/107
f 151/187/108 152/186/108 158/196/108 157/190/108
f 154/192/109 155/194/109 161/197/109 160/198/109
f 158/196/110 153/195/110 159/199/110 164/200/110
f 157/190/111 158/196/111 164/200/111 163/201/111
f 156/191/65 157/190/65 163/201/65 162/202/65
f 153/193/67 154/192/67 160/198/67 159/203/67
f 155/194/112 156/191/112 162/202/112 161/197/112
f 162/202/65 163/201/65 169/204/65 168/205/65
f 159/203/67 160/198/67 166/206/67 165/207/67
f 161/197/113 162/202/113 168/205/113 167/208/113
f 160/198/114 161/197/114 167/208/114 166/206/114
f 164/200/115 159/199/115 165/209/115 170/210/115
f 163/201/116 164/200/116 170/210/116 169/204/116
