# Blender v2.91.0 OBJ File: 'Red_Potion_2.(Label).blend'
# www.blender.org
mtllib Red_Potion_2.(Label).mtl
o Red_Potion_2.(Label)_Cylinder.071
v -0.031563 0.183521 -0.054285
v -0.035061 0.172993 -0.060345
v -0.062959 0.183521 0.000096
v -0.069956 0.172993 0.000096
v -0.031563 0.183521 0.054477
v -0.035061 0.172993 0.060536
v 0.031231 0.183521 0.054477
v 0.034730 0.172993 0.060536
v 0.062628 0.183521 0.000096
v 0.069625 0.172993 0.000096
v 0.031231 0.183521 -0.054285
v 0.034730 0.172993 -0.060345
v -0.035061 0.130041 -0.060345
v -0.069956 0.130041 0.000096
v 0.034730 0.130041 -0.060345
v -0.035061 0.130041 0.060536
v 0.034730 0.130041 0.060536
v 0.069625 0.130041 0.000096
v -0.052508 0.130041 0.030316
v 0.052177 0.130041 -0.030124
v -0.051761 -0.184177 -0.089699
v -0.057531 -0.166813 -0.099692
v 0.051801 -0.184177 -0.089699
v 0.057570 -0.166813 -0.099692
v 0.103582 -0.184177 -0.000011
v 0.115121 -0.166813 -0.000011
v 0.051801 -0.184177 0.089676
v 0.057570 -0.166813 0.099669
v -0.051761 -0.184177 0.089676
v -0.057531 -0.166813 0.099669
v -0.103542 -0.184177 -0.000011
v -0.115081 -0.166813 -0.000011
v -0.057531 0.096992 -0.099692
v 0.057570 0.096992 -0.099692
v 0.115121 0.096992 -0.000011
v 0.057570 0.096992 0.099669
v -0.057531 0.096992 0.099669
v -0.115081 0.096992 -0.000011
v -0.050827 0.118959 -0.088081
v 0.050866 0.118959 -0.088081
v 0.101713 0.118959 -0.000011
v 0.050866 0.118959 0.088058
v -0.050827 0.118959 0.088058
v -0.101674 0.118959 -0.000011
v -0.050827 0.132863 -0.088081
v 0.050866 0.132863 -0.088081
v 0.101713 0.132863 -0.000011
v 0.050866 0.132863 0.088058
v -0.050827 0.132863 0.088058
v -0.101674 0.132863 -0.000011
v -0.056660 0.143985 -0.098184
v 0.056700 0.143985 -0.098184
v 0.113380 0.143985 -0.000011
v 0.056700 0.143985 0.098161
v -0.056660 0.143985 0.098161
v -0.113341 0.143985 -0.000011
v -0.051151 0.156962 -0.088641
v 0.051190 0.156962 -0.088641
v 0.102361 0.156962 -0.000011
v 0.051190 0.156962 0.088619
v -0.051151 0.156962 0.088619
v -0.102321 0.156962 -0.000011
v -0.041899 0.156962 -0.072617
v 0.041938 0.156962 -0.072617
v 0.083857 0.156962 -0.000011
v 0.041938 0.156962 0.072594
v -0.041899 0.156962 0.072594
v -0.083818 0.156962 -0.000011
v -0.034719 0.144912 -0.060180
v 0.034758 0.144912 -0.060180
v 0.069496 0.144912 -0.000011
v 0.034758 0.144912 0.060157
v -0.034719 0.144912 0.060157
v -0.069457 0.144912 -0.000011
v -0.057531 -0.095976 -0.099692
v -0.057531 0.026154 -0.099692
v 0.057570 0.026154 -0.099692
v 0.057570 -0.095976 -0.099692
v -0.115081 -0.095976 -0.000011
v -0.115081 0.026154 -0.000011
v 0.115121 0.026154 -0.000011
v 0.115121 -0.095976 -0.000011
v 0.057570 0.026154 0.099669
v 0.057570 -0.095976 0.099669
v -0.057531 0.026154 0.099669
v -0.057531 -0.095976 0.099669
v 0.086345 -0.095976 -0.049852
v 0.086345 0.026154 -0.049852
v -0.086306 -0.095976 0.049829
v -0.086306 0.026154 0.049829
vt 0.727783 0.989842
vt 0.727729 0.989842
vt 0.727732 0.989835
vt 0.727780 0.989835
vt 0.727676 0.989842
vt 0.727678 0.989835
vt 0.727622 0.989842
vt 0.727625 0.989835
vt 0.727569 0.989842
vt 0.727572 0.989835
vt 0.727516 0.989842
vt 0.727518 0.989835
vt 0.727462 0.989842
vt 0.727465 0.989835
vt 0.727702 0.989824
vt 0.727762 0.989789
vt 0.727762 0.989720
vt 0.727702 0.989686
vt 0.727643 0.989720
vt 0.727643 0.989789
vt 0.727783 0.989890
vt 0.727729 0.989890
vt 0.727676 0.989890
vt 0.727622 0.989890
vt 0.727516 0.989890
vt 0.727462 0.989890
vt 0.727569 0.989890
vt 0.727542 0.989890
vt 0.727702 0.989890
vt 0.230740 0.957002
vt 0.230740 0.957091
vt 0.230642 0.957091
vt 0.230642 0.957002
vt 0.230691 0.957002
vt 0.230544 0.957002
vt 0.230544 0.957091
vt 0.230446 0.957091
vt 0.230446 0.957002
vt 0.230349 0.957091
vt 0.230349 0.957002
vt 0.230398 0.957002
vt 0.230251 0.957091
vt 0.230251 0.957002
vt 0.230838 0.956824
vt 0.230740 0.956824
vt 0.230745 0.956812
vt 0.230833 0.956812
vt 0.230642 0.956824
vt 0.230647 0.956812
vt 0.230544 0.956824
vt 0.230549 0.956812
vt 0.230446 0.956824
vt 0.230451 0.956812
vt 0.230349 0.956824
vt 0.230354 0.956812
vt 0.230442 0.956812
vt 0.230251 0.956824
vt 0.230256 0.956812
vt 0.230344 0.956812
vt 0.230691 0.956792
vt 0.230801 0.956728
vt 0.230801 0.956602
vt 0.230691 0.956538
vt 0.230581 0.956602
vt 0.230581 0.956728
vt 0.230838 0.957002
vt 0.230838 0.957091
vt 0.230349 0.957091
vt 0.230251 0.957091
vt 0.230544 0.957091
vt 0.230446 0.957091
vt 0.230740 0.957091
vt 0.230642 0.957091
vt 0.230838 0.957091
vt 0.230446 0.957091
vt 0.230349 0.957091
vt 0.230642 0.957091
vt 0.230544 0.957091
vt 0.230838 0.957091
vt 0.230740 0.957091
vt 0.230251 0.957091
vt 0.230349 0.957091
vt 0.230251 0.957091
vt 0.230544 0.957091
vt 0.230446 0.957091
vt 0.230740 0.957091
vt 0.230642 0.957091
vt 0.230838 0.957091
vt 0.230446 0.957091
vt 0.230349 0.957091
vt 0.230642 0.957091
vt 0.230544 0.957091
vt 0.230838 0.957091
vt 0.230740 0.957091
vt 0.230251 0.957091
vt 0.230446 0.957091
vt 0.230349 0.957091
vt 0.230642 0.957091
vt 0.230544 0.957091
vt 0.230838 0.957091
vt 0.230740 0.957091
vt 0.230251 0.957091
vt 0.230349 0.957091
vt 0.230251 0.957091
vt 0.230544 0.957091
vt 0.230446 0.957091
vt 0.230740 0.957091
vt 0.230642 0.957091
vt 0.230838 0.957091
vt 0.230838 0.956913
vt 0.230740 0.956913
vt 0.230642 0.956913
vt 0.230544 0.956913
vt 0.762171 0.513972
vt 0.762171 0.514061
vt 0.762073 0.514061
vt 0.762073 0.513972
vt 0.230349 0.956913
vt 0.230251 0.956913
vt 0.230446 0.956913
vt 0.230398 0.956913
vt 0.761976 0.513972
vt 0.761976 0.514061
vt 0.761927 0.514061
vt 0.761927 0.513972
vt 0.230691 0.956913
vt 0.762220 0.513972
vt 0.762220 0.514061
vn -0.7506 0.4988 -0.4334
vn -0.7506 0.4988 0.4334
vn 0.0000 0.4988 0.8667
vn 0.7506 0.4988 0.4334
vn 0.7506 0.4988 -0.4334
vn 0.0000 0.4988 -0.8667
vn 0.0000 1.0000 -0.0000
vn -0.8660 0.0000 -0.5000
vn 0.0000 0.0000 1.0000
vn 0.0000 -0.0000 -1.0000
vn 0.8660 -0.0000 -0.5000
vn 0.8660 -0.0000 0.5000
vn -0.8660 0.0000 0.5000
vn 0.0000 -0.4988 -0.8667
vn 0.7506 -0.4988 -0.4334
vn 0.7506 -0.4988 0.4334
vn -0.0000 -0.4988 0.8667
vn -0.7506 -0.4988 0.4334
vn -0.7506 -0.4988 -0.4334
vn 0.0000 -1.0000 0.0000
vn -0.7657 0.4673 -0.4420
vn -0.0000 0.4673 0.8841
vn 0.7657 0.4673 -0.4420
vn -0.7657 0.4673 0.4420
vn 0.7657 0.4673 0.4420
vn 0.0000 0.4673 -0.8841
vn -0.6410 -0.6724 -0.3701
vn -0.0000 -0.6724 0.7402
vn 0.6410 -0.6724 -0.3701
vn -0.6410 -0.6724 0.3701
vn 0.6410 -0.6724 0.3701
vn 0.0000 -0.6724 -0.7402
vn -0.6977 0.5924 0.4028
vn 0.6977 0.5924 0.4028
vn 0.0000 0.5924 -0.8056
vn -0.6977 0.5924 -0.4028
vn -0.0000 0.5924 0.8056
vn 0.6977 0.5924 -0.4028
vn 0.6026 0.7182 0.3479
vn 0.0000 0.7182 -0.6958
vn -0.6026 0.7182 0.3479
vn 0.6026 0.7182 -0.3479
vn -0.6026 0.7182 -0.3479
vn -0.0000 0.7182 0.6958
usemtl RHIGH.058
s off
f 2/1/1 4/2/1 3/3/1 1/4/1
f 4/2/2 6/5/2 5/6/2 3/3/2
f 6/5/3 8/7/3 7/8/3 5/6/3
f 8/7/4 10/9/4 9/10/4 7/8/4
f 10/9/5 12/11/5 11/12/5 9/10/5
f 12/11/6 2/13/6 1/14/6 11/12/6
f 1/15/7 3/16/7 5/17/7 7/18/7 9/19/7 11/20/7
f 2/1/8 13/21/8 14/22/8 4/2/8
f 6/5/9 16/23/9 17/24/9 8/7/9
f 12/11/10 15/25/10 13/26/10 2/13/10
f 10/9/11 18/27/11 20/28/11 15/25/11 12/11/11
f 8/7/12 17/24/12 18/27/12 10/9/12
f 4/2/13 14/22/13 19/29/13 16/23/13 6/5/13
usemtl RLOW.058
f 77/30/11 34/31/11 35/32/11 81/33/11 88/34/11
f 83/35/9 36/36/9 37/37/9 85/38/9
f 85/38/13 37/37/13 38/39/13 80/40/13 90/41/13
f 80/40/8 38/39/8 33/42/8 76/43/8
f 81/33/12 35/32/12 36/36/12 83/35/12
f 22/44/14 24/45/14 23/46/14 21/47/14
f 24/45/15 26/48/15 25/49/15 23/46/15
f 26/48/16 28/50/16 27/51/16 25/49/16
f 28/50/17 30/52/17 29/53/17 27/51/17
f 30/52/18 32/54/18 31/55/18 29/56/18
f 32/54/19 22/57/19 21/58/19 31/59/19
f 21/60/20 23/61/20 25/62/20 27/63/20 29/64/20 31/65/20
f 76/66/10 33/67/10 34/31/10 77/30/10
f 33/42/21 38/39/21 44/68/21 39/69/21
f 37/37/22 36/36/22 42/70/22 43/71/22
f 35/32/23 34/31/23 40/72/23 41/73/23
f 38/39/24 37/37/24 43/71/24 44/68/24
f 36/36/25 35/32/25 41/73/25 42/70/25
f 34/31/26 33/67/26 39/74/26 40/72/26
f 44/68/13 43/71/13 49/75/13 50/76/13
f 42/70/12 41/73/12 47/77/12 48/78/12
f 40/72/10 39/74/10 45/79/10 46/80/10
f 39/69/8 44/68/8 50/76/8 45/81/8
f 43/71/9 42/70/9 48/78/9 49/75/9
f 41/73/11 40/72/11 46/80/11 47/77/11
f 45/81/27 50/76/27 56/82/27 51/83/27
f 49/75/28 48/78/28 54/84/28 55/85/28
f 47/77/29 46/80/29 52/86/29 53/87/29
f 50/76/30 49/75/30 55/85/30 56/82/30
f 48/78/31 47/77/31 53/87/31 54/84/31
f 46/80/32 45/79/32 51/88/32 52/86/32
f 56/82/33 55/85/33 61/89/33 62/90/33
f 54/84/34 53/87/34 59/91/34 60/92/34
f 52/86/35 51/88/35 57/93/35 58/94/35
f 51/83/36 56/82/36 62/90/36 57/95/36
f 55/85/37 54/84/37 60/92/37 61/89/37
f 53/87/38 52/86/38 58/94/38 59/91/38
f 62/90/7 61/89/7 67/96/7 68/97/7
f 60/92/7 59/91/7 65/98/7 66/99/7
f 58/94/7 57/93/7 63/100/7 64/101/7
f 57/95/7 62/90/7 68/97/7 63/102/7
f 61/89/7 60/92/7 66/99/7 67/96/7
f 59/91/7 58/94/7 64/101/7 65/98/7
f 63/102/39 68/97/39 74/103/39 69/104/39
f 67/96/40 66/99/40 72/105/40 73/106/40
f 65/98/41 64/101/41 70/107/41 71/108/41
f 68/97/42 67/96/42 73/106/42 74/103/42
f 66/99/43 65/98/43 71/108/43 72/105/43
f 64/101/44 63/100/44 69/109/44 70/107/44
f 22/44/10 75/110/10 78/111/10 24/45/10
f 75/110/10 76/66/10 77/30/10 78/111/10
f 26/48/12 82/112/12 84/113/12 28/50/12
f 82/114/12 81/115/12 83/116/12 84/117/12
f 32/54/8 79/118/8 75/119/8 22/57/8
f 79/118/8 80/40/8 76/43/8 75/119/8
f 30/52/13 86/120/13 89/121/13 79/118/13 32/54/13
f 86/122/13 85/123/13 90/124/13 89/125/13
f 28/50/9 84/113/9 86/120/9 30/52/9
f 84/117/9 83/116/9 85/123/9 86/122/9
f 24/45/11 78/111/11 87/126/11 82/112/11 26/48/11
f 78/111/11 77/30/11 88/34/11 87/126/11
f 87/127/11 88/128/11 81/115/11 82/114/11
f 89/121/13 90/41/13 80/40/13 79/118/13
