# Blender v2.91.0 OBJ File: 'Red_Potion_6(String+Label).blend'
# www.blender.org
mtllib Red_Potion_6(String+Label).mtl
o Red_Potion_6(String+Label)_Cylinder.077
v -0.021474 0.135347 -0.001824
v -0.023886 0.131736 -0.001824
v -0.010652 0.135347 0.016920
v -0.011858 0.131736 0.019009
v 0.010992 0.135347 0.016920
v 0.012198 0.131736 0.019009
v 0.021814 0.135347 -0.001824
v 0.024226 0.131736 -0.001824
v 0.010992 0.135347 -0.020569
v 0.012198 0.131736 -0.022658
v -0.010652 0.135347 -0.020569
v -0.011858 0.131736 -0.022658
v -0.023886 0.117002 -0.001824
v -0.011858 0.117002 0.019009
v -0.011858 0.117002 -0.022658
v 0.012198 0.117002 0.019009
v 0.024226 0.117002 -0.001824
v 0.012198 0.117002 -0.022658
v 0.000170 0.117002 0.019009
v 0.000170 0.117002 -0.022658
v -0.059207 -0.076771 -0.002014
v -0.029519 -0.076771 -0.053436
v 0.029859 -0.076771 -0.053436
v 0.059547 -0.076771 -0.002014
v 0.029859 -0.076771 0.049409
v -0.100924 -0.033847 -0.002014
v -0.029519 -0.076771 0.049409
v -0.050377 -0.033847 -0.089564
v 0.050717 -0.033847 -0.089564
v -0.020547 0.118150 -0.037883
v -0.020547 0.118150 0.033883
v 0.101265 -0.033847 -0.002014
v 0.041604 0.118150 -0.002000
v 0.050717 -0.033847 0.085537
v 0.020887 0.118150 0.033883
v -0.050377 -0.033847 0.085537
v 0.020887 0.118150 -0.037883
v -0.046014 -0.054527 0.077979
v -0.041264 0.118150 -0.002000
v 0.046354 -0.054527 0.077979
v -0.018825 0.124221 0.030900
v 0.019165 0.124221 0.030900
v 0.038159 0.124221 -0.002000
v 0.019165 0.124221 -0.034899
v -0.018825 0.124221 -0.034899
v -0.037819 0.124221 -0.002000
v -0.037819 0.112079 -0.002000
v -0.018825 0.112079 -0.034899
v 0.019165 0.112079 -0.034899
v 0.038159 0.112079 -0.002000
v 0.019165 0.112079 0.030900
v -0.018825 0.112079 0.030900
v -0.011882 0.105249 0.018875
v 0.012222 0.105249 0.018875
v 0.024274 0.105249 -0.002000
v 0.012222 0.105249 -0.022875
v -0.011882 0.105249 -0.022875
v -0.023934 0.105249 -0.002000
v -0.025893 0.094886 -0.002014
v -0.012861 0.094886 -0.024585
v 0.013202 0.094886 -0.024585
v 0.026233 0.094886 -0.002014
v 0.013202 0.094886 0.020558
v -0.012861 0.094886 0.020558
v -0.014190 0.124221 0.022872
v 0.014530 0.124221 0.022872
v 0.028889 0.124221 -0.002000
v 0.014530 0.124221 -0.026871
v -0.014190 0.124221 -0.026871
v -0.028549 0.124221 -0.002000
v -0.011512 0.120093 0.018234
v 0.011852 0.120093 0.018234
v 0.023534 0.120093 -0.002000
v 0.011852 0.120093 -0.022234
v -0.011512 0.120093 -0.022234
v -0.023194 0.120093 -0.002000
v 0.092537 -0.054527 -0.002014
v 0.046354 -0.054527 -0.082006
v -0.046014 -0.054527 -0.082006
v -0.092197 -0.054527 -0.002014
v -0.012854 0.105667 0.020559
v 0.013194 0.105667 0.020559
v 0.026218 0.105667 -0.001999
v 0.013194 0.105667 -0.024557
v -0.012854 0.105667 -0.024557
v -0.025878 0.105667 -0.001999
v -0.026176 0.094468 -0.002014
v -0.013003 0.094468 -0.024830
v 0.013343 0.094468 -0.024830
v 0.026516 0.094468 -0.002014
v 0.013343 0.094468 0.020802
v -0.013003 0.094468 0.020802
v -0.031003 0.103135 -0.001998
v -0.032167 0.097940 -0.002016
v -0.015999 0.097940 -0.030021
v -0.015416 0.103135 -0.028994
v 0.015756 0.103135 0.024999
v 0.031343 0.103135 -0.001998
v -0.015416 0.103135 0.024999
v 0.015756 0.103135 -0.028994
v 0.032508 0.097940 -0.002016
v 0.016339 0.097940 -0.030021
v 0.016339 0.097940 0.025989
v -0.015999 0.097940 0.025989
v -0.012806 0.075457 0.033151
v -0.008335 0.095342 0.021999
v 0.001492 0.093657 0.022657
v -0.003030 0.073545 0.033938
v -0.005500 0.098772 0.024489
v -0.010624 0.076198 0.037018
v -0.000817 0.098759 0.025261
v -0.006142 0.075296 0.038288
v 0.007044 0.070338 0.036028
v 0.002095 0.094537 0.022174
v 0.011984 0.095176 0.020895
v 0.014753 0.070659 0.035140
v 0.004467 0.098652 0.024029
v 0.007448 0.076634 0.037278
v 0.009081 0.099749 0.023862
v 0.012174 0.076848 0.037646
v -0.019742 0.042451 0.047431
v -0.011863 0.042146 0.047628
v -0.017233 0.046612 0.049045
v -0.013496 0.046385 0.049900
v 0.016339 0.038975 0.050034
v 0.024048 0.039297 0.049147
v 0.018945 0.037538 0.054602
v 0.023671 0.037752 0.054970
v 0.015455 0.009808 0.063798
v 0.019936 0.009144 0.064197
v 0.017049 0.014695 0.065873
v 0.020202 0.014540 0.065956
v -0.032648 0.008689 0.063653
v -0.000677 0.007717 0.065371
v -0.026869 0.049517 0.045063
v -0.001946 0.048758 0.046402
v -0.026894 0.049803 0.045683
v -0.032673 0.008975 0.064274
v -0.000701 0.008003 0.065992
v -0.001971 0.049044 0.047022
v -0.014493 0.047471 0.046368
v -0.014526 0.047855 0.047201
vt 0.227366 0.945839
vt 0.227366 0.945839
vt 0.227366 0.945839
vt 0.227366 0.945839
vt 0.227951 0.945928
vt 0.227951 0.945928
vt 0.227835 0.945860
vt 0.227835 0.945860
vt 0.227951 0.945928
vt 0.227835 0.945860
vt 0.227718 0.945928
vt 0.227718 0.945928
vt 0.227718 0.946062
vt 0.227718 0.946062
vt 0.227835 0.946130
vt 0.227835 0.946130
vt 0.227575 0.946448
vt 0.227679 0.946448
vt 0.227679 0.946448
vt 0.227575 0.946448
vt 0.227366 0.945839
vt 0.227366 0.945839
vt 0.227366 0.945839
vt 0.227366 0.945839
vt 0.227366 0.945839
vt 0.227366 0.945839
vt 0.227366 0.945839
vt 0.227366 0.945839
vt 0.227718 0.946062
vt 0.227835 0.946130
vt 0.227951 0.946062
vt 0.227951 0.946062
vt 0.227951 0.946062
vt 0.227718 0.945928
vt 0.227783 0.946448
vt 0.227887 0.946448
vt 0.227887 0.946448
vt 0.227783 0.946448
vt 0.227575 0.946448
vt 0.227679 0.946448
vt 0.227471 0.946448
vt 0.227471 0.946448
vt 0.227991 0.946448
vt 0.227991 0.946448
vt 0.227679 0.946448
vt 0.227575 0.946448
vt 0.227366 0.946448
vt 0.227471 0.946448
vt 0.227366 0.946448
vt 0.227471 0.946448
vt 0.227887 0.946448
vt 0.227991 0.946448
vt 0.227991 0.946448
vt 0.227887 0.946448
vt 0.227783 0.946448
vt 0.227783 0.946448
vt 0.227783 0.946448
vt 0.227887 0.946448
vt 0.227366 0.946448
vt 0.227471 0.946448
vt 0.227575 0.946448
vt 0.227366 0.946448
vt 0.227991 0.946448
vt 0.227366 0.946448
vt 0.227679 0.946448
vt 0.227783 0.946448
vt 0.227679 0.946448
vt 0.227471 0.946448
vt 0.227366 0.946448
vt 0.227575 0.946448
vt 0.227887 0.946448
vt 0.227991 0.946448
vt 0.227575 0.946448
vt 0.227471 0.946448
vt 0.227887 0.946448
vt 0.227783 0.946448
vt 0.227679 0.946448
vt 0.227991 0.946448
vt 0.227366 0.946448
vt 0.727021 0.988595
vt 0.726868 0.988595
vt 0.726876 0.988575
vt 0.727013 0.988575
vt 0.726715 0.988595
vt 0.726723 0.988575
vt 0.726562 0.988595
vt 0.726570 0.988575
vt 0.726410 0.988595
vt 0.726417 0.988575
vt 0.726257 0.988595
vt 0.726264 0.988575
vt 0.726104 0.988595
vt 0.726112 0.988575
vt 0.726249 0.988575
vt 0.726792 0.988544
vt 0.726963 0.988445
vt 0.726963 0.988247
vt 0.726792 0.988148
vt 0.726620 0.988247
vt 0.726620 0.988445
vt 0.727021 0.988734
vt 0.726868 0.988734
vt 0.726715 0.988734
vt 0.726562 0.988734
vt 0.726257 0.988734
vt 0.726104 0.988734
vt 0.726410 0.988734
vt 0.726333 0.988734
vt 0.726792 0.988734
vt 0.724741 0.954001
vt 0.724741 0.954001
vt 0.724872 0.954001
vt 0.724872 0.954001
vt 0.724346 0.954001
vt 0.724346 0.954001
vt 0.724478 0.954001
vt 0.724478 0.954001
vt 0.725004 0.954001
vt 0.725004 0.954001
vt 0.724215 0.954001
vt 0.724215 0.954001
vt 0.724609 0.954001
vt 0.724609 0.954001
vt 0.724741 0.954001
vt 0.724872 0.954001
vt 0.724872 0.954001
vt 0.724741 0.954001
vt 0.724346 0.954001
vt 0.724478 0.954001
vt 0.724478 0.954001
vt 0.724346 0.954001
vt 0.725004 0.954001
vt 0.725004 0.954001
vt 0.724215 0.954001
vt 0.724215 0.954001
vt 0.724609 0.954001
vt 0.724609 0.954001
vt 0.724346 0.954001
vt 0.724346 0.954001
vt 0.724478 0.954001
vt 0.724478 0.954001
vt 0.724346 0.954001
vt 0.724478 0.954001
vt 0.724478 0.954001
vt 0.724346 0.954001
vt 0.724346 0.954001
vt 0.724346 0.954001
vt 0.724478 0.954001
vt 0.724478 0.954001
vt 0.724346 0.954001
vt 0.724478 0.954001
vt 0.724478 0.954001
vt 0.724346 0.954001
vt 0.724346 0.954001
vt 0.724346 0.954001
vt 0.724346 0.954001
vt 0.724346 0.954001
vt 0.724346 0.954001
vt 0.724346 0.954001
vt 0.724346 0.954001
vt 0.724346 0.954001
vt 0.724346 0.954001
vt 0.724346 0.954001
vt 0.724346 0.954001
vt 0.724346 0.954001
vt 0.764308 0.501317
vt 0.764308 0.502589
vt 0.764308 0.502589
vt 0.764308 0.501317
vt 0.763036 0.502589
vt 0.763036 0.501317
vt 0.763036 0.501317
vt 0.763036 0.502589
vn 0.7731 0.4506 -0.4464
vn 0.8134 -0.3433 -0.4696
vn 0.5320 -0.7890 -0.3072
vn 0.8134 -0.3433 0.4696
vn -0.5320 -0.7890 0.3072
vn 0.7772 -0.4410 0.4487
vn -0.7731 0.4506 -0.4464
vn 0.0000 0.4506 0.8927
vn 0.0000 0.4506 -0.8927
vn 0.0000 -0.3433 0.9392
vn -0.8134 -0.3433 -0.4696
vn 0.0000 -1.0000 -0.0000
vn 0.0000 -0.8695 -0.4939
vn 0.4277 -0.8695 0.2469
vn 0.4277 -0.8695 -0.2469
vn 0.0000 -0.8695 0.4939
vn -0.4277 -0.8695 -0.2469
vn 0.7772 0.4410 0.4487
vn -0.7731 0.4506 0.4464
vn -0.7772 -0.4410 0.4487
vn 0.0000 0.4410 0.8975
vn -0.7772 0.4410 -0.4487
vn 0.0000 0.4410 -0.8975
vn -0.7772 -0.4410 -0.4487
vn 0.0000 0.1628 -0.9867
vn 0.0000 -0.4410 0.8975
vn -0.7772 0.4410 0.4487
vn 0.0000 -0.4410 -0.8975
vn 0.7772 0.4410 -0.4487
vn 0.7772 -0.4410 -0.4487
vn 0.0000 0.1602 0.9871
vn -0.4277 -0.8695 0.2469
vn -0.8546 0.1622 -0.4934
vn -0.8547 0.1609 0.4935
vn 0.8547 0.1609 0.4935
vn 0.5320 -0.7890 0.3072
vn 0.8546 0.1622 -0.4934
vn -0.5320 -0.7890 -0.3072
vn 0.0000 -0.7890 0.6143
vn 0.0000 -0.3433 -0.9392
vn 0.0000 -0.7890 -0.6143
vn 0.0000 1.0000 0.0000
vn 0.0000 0.7469 -0.6649
vn 0.0000 0.7469 0.6649
vn -0.5758 0.7469 -0.3324
vn 0.5758 0.7469 0.3324
vn -0.5758 0.7469 0.3324
vn 0.5758 0.7469 -0.3324
vn 0.7731 0.4506 0.4464
vn -0.8134 -0.3433 0.4696
vn -0.7497 0.5006 0.4328
vn 0.0000 0.5006 0.8657
vn 0.7497 0.5006 0.4328
vn 0.7497 0.5006 -0.4328
vn 0.0000 0.5006 -0.8657
vn -0.7497 0.5006 -0.4328
vn -0.8660 0.0000 0.5000
vn 0.8660 0.0000 0.5000
vn -0.8660 -0.0000 -0.5000
vn -0.0000 -0.0000 -1.0000
vn 0.8660 -0.0000 -0.5000
vn 0.0000 0.0000 1.0000
vn 0.0000 -0.0244 0.9997
vn 0.0000 -0.0217 -0.9998
vn 0.8658 -0.0237 0.4999
vn 0.8658 -0.0224 -0.4999
vn -0.8658 -0.0224 -0.4999
vn -0.8658 -0.0237 0.4999
vn 0.0000 0.1939 -0.9810
vn 0.0000 0.1874 0.9823
vn -0.8499 0.1923 -0.4907
vn -0.8504 0.1890 0.4910
vn 0.8504 0.1890 0.4910
vn 0.8499 0.1923 -0.4907
vn -0.4816 -0.8311 -0.2781
vn 0.0000 0.8685 -0.4956
vn 0.0000 -0.8310 0.5563
vn 0.4291 0.8686 0.2477
vn 0.0000 -0.8311 -0.5561
vn 0.4816 -0.8311 -0.2781
vn -0.4291 0.8686 0.2477
vn -0.4292 0.8686 -0.2478
vn 0.4817 -0.8310 0.2781
vn -0.4817 -0.8310 0.2781
vn 0.0000 0.8687 0.4954
vn 0.4292 0.8686 -0.2478
vn -0.0246 -0.4848 -0.8743
vn -0.1394 0.5046 0.8520
vn 0.8343 0.1125 0.5396
vn -0.8282 0.4039 0.3886
vn -0.0780 -0.5074 -0.8582
vn -0.0893 0.5047 0.8587
vn 0.9007 0.2981 0.3159
vn -0.8910 0.1060 0.4414
vn -0.1763 0.4047 0.8973
vn 0.0011 -0.3986 -0.9171
vn -0.8431 0.3530 0.4058
vn 0.8208 0.0192 0.5708
vn -0.1008 -0.4090 0.9069
vn -0.0858 -0.4274 -0.9000
vn -0.8729 -0.0414 0.4862
vn 0.9305 0.3377 0.1419
vn -0.0890 0.3815 0.9201
vn 0.9918 -0.1073 0.0690
vn -0.0483 -0.4331 -0.9000
vn -0.8718 0.2495 0.4216
vn -0.0547 0.4396 0.8965
vn -0.0950 -0.3327 0.9382
vn 0.9990 0.0406 0.0209
vn -0.9911 0.1011 -0.0860
vn 0.0500 0.9078 -0.4165
vn -0.0500 -0.9078 0.4165
vn 0.0360 -0.4184 -0.9076
vn -0.0360 0.4184 0.9076
usemtl RLOW.066
s off
f 62/1/1 32/2/1 29/3/1 61/4/1
f 78/5/2 29/6/2 32/7/2 77/8/2
f 23/9/3 78/5/3 77/8/3 24/10/3
f 77/8/4 32/7/4 34/11/4 40/12/4
f 27/13/5 38/14/5 80/15/5 21/16/5
f 51/17/6 50/18/6 33/19/6 35/20/6
f 60/21/7 28/22/7 26/23/7 59/24/7
f 64/25/8 36/26/8 34/27/8 63/28/8
f 61/4/9 29/3/9 28/22/9 60/21/9
f 40/12/10 34/11/10 36/29/10 38/14/10
f 80/15/11 26/30/11 28/31/11 79/32/11
f 21/16/12 22/33/12 23/9/12 24/10/12 25/34/12 27/13/12
f 56/35/13 57/36/13 48/37/13 49/38/13
f 54/39/14 55/40/14 50/18/14 51/17/14
f 55/40/15 56/35/15 49/38/15 50/18/15
f 53/41/16 54/39/16 51/17/16 52/42/16
f 57/36/17 58/43/17 47/44/17 48/37/17
f 35/20/18 33/19/18 43/45/18 42/46/18
f 59/24/19 26/23/19 36/26/19 64/25/19
f 47/47/20 52/42/20 31/48/20 39/49/20
f 31/48/21 35/20/21 42/46/21 41/50/21
f 30/51/22 39/52/22 46/53/22 45/54/22
f 37/55/23 30/51/23 45/54/23 44/56/23
f 48/37/24 47/44/24 39/52/24 30/51/24
f 61/57/25 60/58/25 57/36/25 56/35/25
f 52/42/26 51/17/26 35/20/26 31/48/26
f 39/49/27 31/48/27 41/50/27 46/59/27
f 49/38/28 48/37/28 30/51/28 37/55/28
f 33/19/29 37/55/29 44/56/29 43/45/29
f 50/18/30 49/38/30 37/55/30 33/19/30
f 64/60/31 63/61/31 54/39/31 53/41/31
f 58/62/32 53/41/32 52/42/32 47/47/32
f 60/58/33 59/63/33 58/43/33 57/36/33
f 59/64/34 64/60/34 53/41/34 58/62/34
f 63/61/35 62/65/35 55/40/35 54/39/35
f 24/10/36 77/8/36 40/12/36 25/34/36
f 62/65/37 61/57/37 56/35/37 55/40/37
f 26/30/12 28/31/12 29/6/12 32/7/12 34/11/12 36/29/12
f 21/16/38 80/15/38 79/32/38 22/33/38
f 25/34/39 40/12/39 38/14/39 27/13/39
f 79/32/40 28/31/40 29/6/40 78/5/40
f 22/33/41 79/32/41 78/5/41 23/9/41
f 43/45/42 44/56/42 68/66/42 67/67/42
f 46/59/42 41/50/42 65/68/42 70/69/42
f 42/46/42 43/45/42 67/67/42 66/70/42
f 44/56/42 45/54/42 69/71/42 68/66/42
f 45/54/42 46/53/42 70/72/42 69/71/42
f 41/50/42 42/46/42 66/70/42 65/68/42
f 65/68/43 66/70/43 72/73/43 71/74/43
f 68/66/44 69/71/44 75/75/44 74/76/44
f 66/70/45 67/67/45 73/77/45 72/73/45
f 69/71/46 70/72/46 76/78/46 75/75/46
f 67/67/47 68/66/47 74/76/47 73/77/47
f 70/69/48 65/68/48 71/74/48 76/79/48
f 63/28/49 34/27/49 32/2/49 62/1/49
f 38/14/50 36/29/50 26/30/50 80/15/50
usemtl RHIGH.066
f 2/80/51 4/81/51 3/82/51 1/83/51
f 4/81/52 6/84/52 5/85/52 3/82/52
f 6/84/53 8/86/53 7/87/53 5/85/53
f 8/86/54 10/88/54 9/89/54 7/87/54
f 10/88/55 12/90/55 11/91/55 9/89/55
f 12/90/56 2/92/56 1/93/56 11/94/56
f 1/95/42 3/96/42 5/97/42 7/98/42 9/99/42 11/100/42
f 2/80/57 13/101/57 14/102/57 4/81/57
f 6/84/58 16/103/58 17/104/58 8/86/58
f 12/90/59 15/105/59 13/106/59 2/92/59
f 10/88/60 18/107/60 20/108/60 15/105/60 12/90/60
f 8/86/61 17/104/61 18/107/61 10/88/61
f 4/81/62 14/102/62 19/109/62 16/103/62 6/84/62
f 89/110/63 84/111/63 85/112/63 88/113/63
f 92/114/64 81/115/64 82/116/64 91/117/64
f 88/113/65 85/112/65 86/118/65 87/119/65
f 87/120/66 86/121/66 81/115/66 92/114/66
f 91/117/67 82/116/67 83/122/67 90/123/67
f 90/123/68 83/122/68 84/111/68 89/110/68
f 102/124/69 95/125/69 96/126/69 100/127/69
f 104/128/70 103/129/70 97/130/70 99/131/70
f 95/125/71 94/132/71 93/133/71 96/126/71
f 94/134/72 104/128/72 99/131/72 93/135/72
f 103/129/73 101/136/73 98/137/73 97/130/73
f 101/136/74 102/124/74 100/127/74 98/137/74
f 88/113/75 87/119/75 94/132/75 95/125/75
f 85/112/76 84/111/76 100/127/76 96/126/76
f 92/114/77 91/117/77 103/129/77 104/128/77
f 83/122/78 82/116/78 97/130/78 98/137/78
f 89/110/79 88/113/79 95/125/79 102/124/79
f 90/123/80 89/110/80 102/124/80 101/136/80
f 81/115/81 86/121/81 93/135/81 99/131/81
f 86/118/82 85/112/82 96/126/82 93/133/82
f 91/117/83 90/123/83 101/136/83 103/129/83
f 87/120/84 92/114/84 104/128/84 94/134/84
f 82/116/85 81/115/85 99/131/85 97/130/85
f 84/111/86 83/122/86 98/137/86 100/127/86
f 108/138/87 105/139/87 106/140/87 107/141/87
f 112/142/88 111/143/88 109/144/88 110/145/88
f 108/138/89 107/141/89 111/143/89 112/142/89
f 106/140/90 105/139/90 110/145/90 109/144/90
f 116/146/91 113/147/91 114/148/91 115/149/91
f 120/150/92 119/151/92 117/152/92 118/153/92
f 116/146/93 115/149/93 119/151/93 120/150/93
f 114/148/94 113/147/94 118/153/94 117/152/94
f 112/142/95 110/145/95 123/154/95 124/155/95
f 105/139/96 108/138/96 122/156/96 121/157/96
f 110/145/97 105/139/97 121/157/97 123/154/97
f 108/138/98 112/142/98 124/155/98 122/156/98
f 121/157/99 122/156/99 124/155/99 123/154/99
f 113/147/100 116/146/100 126/158/100 125/159/100
f 118/153/101 113/147/101 125/159/101 127/160/101
f 116/146/102 120/150/102 128/161/102 126/158/102
f 120/150/103 118/153/103 127/160/103 128/161/103
f 126/158/104 128/161/104 132/162/104 130/163/104
f 125/159/105 126/158/105 130/163/105 129/164/105
f 127/160/106 125/159/106 129/164/106 131/165/106
f 128/161/107 127/160/107 131/165/107 132/162/107
f 129/164/108 130/163/108 132/162/108 131/165/108
f 134/166/109 136/167/109 140/168/109 139/169/109
f 135/170/110 133/171/110 138/172/110 137/173/110
f 136/167/111 135/170/111 137/173/111 140/168/111
f 133/171/112 134/166/112 139/169/112 138/172/112
f 135/170/113 136/167/113 134/166/113 133/171/113
f 137/173/114 138/172/114 139/169/114 140/168/114
l 142 141
