# Blender v2.91.0 OBJ File: 'Red_Potion_13.blend'
# www.blender.org
mtllib Red_Potion_13.mtl
o Red_Potion_13_Cylinder.092
v -0.029689 -0.181668 -0.051422
v -0.032997 -0.164304 -0.057152
v 0.029689 -0.181668 -0.051422
v 0.032997 -0.164304 -0.057152
v 0.059377 -0.181668 0.000000
v 0.065993 -0.164304 0.000000
v 0.029689 -0.181668 0.051422
v 0.032997 -0.164304 0.057152
v -0.029689 -0.181668 0.051422
v -0.032997 -0.164304 0.057152
v -0.059377 -0.181668 0.000000
v -0.065993 -0.164304 0.000000
v -0.044751 0.099150 -0.077511
v -0.012452 0.139673 -0.021568
v 0.012452 0.139673 -0.021568
v 0.044751 0.099150 -0.077511
v 0.024904 0.139673 -0.000000
v 0.089503 0.099150 0.000000
v 0.012452 0.139673 0.021568
v 0.044751 0.099150 0.077511
v -0.012452 0.139673 0.021568
v -0.044751 0.099150 0.077511
v -0.024904 0.139673 0.000000
v -0.089503 0.099150 0.000000
v -0.010836 0.164023 -0.018769
v 0.010836 0.164023 -0.018769
v 0.021673 0.164023 -0.000000
v 0.010836 0.164023 0.018769
v -0.010836 0.164023 0.018769
v -0.021673 0.164023 0.000000
v -0.015269 0.168658 -0.026446
v 0.015269 0.168658 -0.026446
v 0.030537 0.168658 0.000000
v 0.015269 0.168658 0.026446
v -0.015269 0.168658 0.026446
v -0.030537 0.168658 0.000000
v -0.012231 0.187196 -0.021184
v 0.012231 0.187196 -0.021184
v 0.024461 0.187196 0.000000
v 0.012231 0.187196 0.021184
v -0.012231 0.187196 0.021184
v -0.024461 0.187196 0.000000
v -0.016634 0.187196 -0.028811
v 0.016634 0.187196 -0.028811
v 0.033268 0.187196 0.000000
v 0.016634 0.187196 0.028811
v -0.016634 0.187196 0.028811
v -0.033268 0.187196 0.000000
v -0.012251 0.195254 -0.021219
v -0.013616 0.178774 -0.023583
v -0.024502 0.195254 0.000000
v -0.027232 0.178774 0.000000
v -0.012251 0.195254 0.021219
v -0.013616 0.178774 0.023583
v 0.012251 0.195254 0.021219
v 0.013616 0.178774 0.023583
v 0.024502 0.195254 0.000000
v 0.027232 0.178774 0.000000
v 0.012251 0.195254 -0.021219
v 0.013616 0.178774 -0.023583
vt 0.725447 0.991649
vt 0.725352 0.991649
vt 0.725356 0.991637
vt 0.725442 0.991637
vt 0.725257 0.991649
vt 0.725261 0.991637
vt 0.725347 0.991637
vt 0.725162 0.991649
vt 0.725166 0.991637
vt 0.725067 0.991649
vt 0.725071 0.991637
vt 0.724972 0.991649
vt 0.724976 0.991637
vt 0.724877 0.991649
vt 0.724881 0.991637
vt 0.725304 0.991617
vt 0.725411 0.991432
vt 0.725304 0.991371
vt 0.725198 0.991432
vt 0.725198 0.991556
vt 0.228524 0.947983
vt 0.228524 0.948113
vt 0.228476 0.948113
vt 0.228476 0.947983
vt 0.228429 0.947983
vt 0.228429 0.948113
vt 0.228381 0.948113
vt 0.228381 0.947983
vt 0.228334 0.948113
vt 0.228334 0.947983
vt 0.228286 0.948113
vt 0.228286 0.947983
vt 0.228383 0.947921
vt 0.228358 0.947936
vt 0.228358 0.947936
vt 0.228383 0.947921
vt 0.228571 0.947983
vt 0.228526 0.947977
vt 0.228569 0.947977
vt 0.228479 0.947977
vt 0.228431 0.947977
vt 0.228384 0.947977
vt 0.228336 0.947977
vt 0.228289 0.947977
vt 0.228500 0.947968
vt 0.228553 0.947937
vt 0.228553 0.947875
vt 0.228500 0.947845
vt 0.228447 0.947875
vt 0.228447 0.947937
vt 0.228571 0.948113
vt 0.228332 0.947921
vt 0.228332 0.947891
vt 0.228332 0.947891
vt 0.228332 0.947921
vt 0.228332 0.947921
vt 0.228332 0.947891
vt 0.228358 0.947876
vt 0.228358 0.947876
vt 0.228383 0.947891
vt 0.228383 0.947891
vt 0.228358 0.947936
vt 0.228332 0.947921
vt 0.228358 0.947936
vt 0.228383 0.947891
vt 0.228358 0.947876
vt 0.228383 0.947921
vt 0.228358 0.947876
vt 0.228332 0.947891
vt 0.228383 0.947921
vt 0.228383 0.947891
vt 0.228358 0.947928
vt 0.228377 0.947917
vt 0.228377 0.947895
vt 0.228358 0.947884
vt 0.228339 0.947895
vt 0.228339 0.947917
vn -0.8572 0.1420 -0.4949
vn -0.8572 0.1420 0.4949
vn 0.0000 0.1420 0.9899
vn 0.8572 0.1420 0.4949
vn 0.8572 0.1420 -0.4949
vn 0.0000 0.1420 -0.9899
vn 0.0000 1.0000 0.0000
vn 0.8635 -0.0771 -0.4985
vn -0.0000 -0.0771 0.9970
vn -0.8635 -0.0771 0.4985
vn -0.8635 -0.0771 -0.4985
vn 0.8635 -0.0771 0.4985
vn 0.0000 0.1142 -0.9935
vn 0.0000 -0.3133 -0.9496
vn 0.8224 -0.3133 -0.4748
vn 0.8224 -0.3133 0.4748
vn -0.0000 -0.3133 0.9496
vn -0.8224 -0.3133 0.4748
vn -0.8224 -0.3133 -0.4748
vn 0.0000 -1.0000 -0.0000
vn 0.0000 -0.0771 -0.9970
vn -0.4476 -0.8561 0.2584
vn -0.8604 0.1142 -0.4967
vn -0.0000 0.1142 0.9935
vn 0.8604 0.1142 -0.4967
vn -0.8604 0.1142 0.4967
vn 0.8604 0.1142 0.4967
vn -0.8591 -0.1265 -0.4960
vn 0.4476 -0.8561 0.2584
vn 0.0000 -0.8561 -0.5168
vn -0.4476 -0.8561 -0.2584
vn -0.0000 -0.8561 0.5168
vn 0.4476 -0.8561 -0.2584
vn 0.0000 -0.1265 0.9920
vn 0.8591 -0.1265 -0.4960
vn -0.8591 -0.1265 0.4960
vn 0.8591 -0.1265 0.4960
vn 0.0000 -0.1265 -0.9920
vn 0.0000 0.8099 -0.5866
vn 0.5080 0.8099 -0.2933
vn 0.5080 0.8099 0.2933
vn -0.0000 0.8099 0.5866
vn -0.5080 0.8099 0.2933
vn -0.5080 0.8099 -0.2933
usemtl RHIGH.080
s off
f 50/1/1 52/2/1 51/3/1 49/4/1
f 52/2/2 54/5/2 53/6/2 51/7/2
f 54/5/3 56/8/3 55/9/3 53/6/3
f 56/8/4 58/10/4 57/11/4 55/9/4
f 58/10/5 60/12/5 59/13/5 57/11/5
f 60/12/6 50/14/6 49/15/6 59/13/6
f 49/16/7 51/3/7 53/17/7 55/18/7 57/19/7 59/20/7
usemtl RLOW.080
f 4/21/8 16/22/8 18/23/8 6/24/8
f 8/25/9 20/26/9 22/27/9 10/28/9
f 10/28/10 22/27/10 24/29/10 12/30/10
f 12/30/11 24/29/11 13/31/11 2/32/11
f 6/24/12 18/23/12 20/26/12 8/25/12
f 15/33/13 14/34/13 25/35/13 26/36/13
f 2/37/14 4/21/14 3/38/14 1/39/14
f 4/21/15 6/24/15 5/40/15 3/38/15
f 6/24/16 8/25/16 7/41/16 5/40/16
f 8/25/17 10/28/17 9/42/17 7/41/17
f 10/28/18 12/30/18 11/43/18 9/42/18
f 12/30/19 2/32/19 1/44/19 11/43/19
f 1/45/20 3/46/20 5/47/20 7/48/20 9/49/20 11/50/20
f 2/37/21 13/51/21 16/22/21 4/21/21
f 30/52/22 29/53/22 35/54/22 36/55/22
f 14/34/23 23/56/23 30/52/23 25/35/23
f 21/57/24 19/58/24 28/59/24 29/53/24
f 17/60/25 15/33/25 26/36/25 27/61/25
f 23/56/26 21/57/26 29/53/26 30/52/26
f 19/58/27 17/60/27 27/61/27 28/59/27
f 31/62/28 36/55/28 48/63/28 43/64/28
f 28/59/29 27/61/29 33/65/29 34/66/29
f 26/36/30 25/35/30 31/62/30 32/67/30
f 25/35/31 30/52/31 36/55/31 31/62/31
f 29/53/32 28/59/32 34/66/32 35/54/32
f 27/61/33 26/36/33 32/67/33 33/65/33
f 35/54/34 34/66/34 46/68/34 47/69/34
f 33/65/35 32/67/35 44/70/35 45/71/35
f 36/55/36 35/54/36 47/69/36 48/63/36
f 34/66/37 33/65/37 45/71/37 46/68/37
f 32/67/38 31/62/38 43/64/38 44/70/38
f 37/72/7 38/73/7 44/70/7 43/64/7
f 38/73/7 39/74/7 45/71/7 44/70/7
f 39/74/7 40/75/7 46/68/7 45/71/7
f 40/75/7 41/76/7 47/69/7 46/68/7
f 41/76/7 42/77/7 48/63/7 47/69/7
f 42/77/7 37/72/7 43/64/7 48/63/7
f 16/22/39 13/51/39 14/34/39 15/33/39
f 18/23/40 16/22/40 15/33/40 17/60/40
f 20/26/41 18/23/41 17/60/41 19/58/41
f 22/27/42 20/26/42 19/58/42 21/57/42
f 24/29/43 22/27/43 21/57/43 23/56/43
f 23/56/44 14/34/44 13/51/44 24/29/44
