# Blender v2.91.0 OBJ File: 'Red_Potion_16.blend'
# www.blender.org
mtllib Red_Potion_16.mtl
o Red_Potion_16_Cylinder.094
v -0.023151 0.123268 -0.012832
v -0.025715 0.118901 -0.014282
v -0.022909 0.123268 0.013603
v -0.025447 0.118901 0.015099
v 0.000105 0.123268 0.026612
v 0.000132 0.118901 0.029558
v 0.022878 0.123268 0.013185
v 0.025443 0.118901 0.014635
v 0.022637 0.123268 -0.013250
v 0.025175 0.118901 -0.014746
v -0.000377 0.123268 -0.026259
v -0.000404 0.118901 -0.029205
v -0.025715 0.101086 -0.014282
v -0.025447 0.101086 0.015099
v -0.000404 0.101086 -0.029205
v 0.000132 0.101086 0.029558
v 0.025443 0.101086 0.014635
v 0.025175 0.101086 -0.014746
v -0.012657 0.101086 0.022328
v 0.012385 0.101086 -0.021975
v -0.035529 -0.104466 -0.020075
v -0.045486 -0.095891 -0.025703
v -0.000403 -0.104466 -0.040785
v -0.000507 -0.095891 -0.052222
v 0.035095 -0.104466 -0.020719
v 0.044948 -0.095891 -0.026529
v 0.035467 -0.104466 0.020055
v 0.045425 -0.095891 0.025684
v 0.000341 -0.104466 0.040765
v 0.000446 -0.095891 0.052202
v -0.035157 -0.104466 0.020700
v -0.045010 -0.095891 0.026509
v -0.074655 -0.066604 -0.042191
v -0.000493 0.102474 -0.050616
v -0.043626 0.102474 0.025693
v -0.000813 -0.066604 -0.085726
v 0.044026 0.102474 0.024893
v 0.073811 -0.066604 -0.043546
v 0.000431 0.102474 0.050596
v 0.074593 -0.066604 0.042171
v 0.043564 0.102474 -0.025713
v 0.000751 -0.066604 0.085707
v -0.044088 0.102474 -0.024913
v -0.073872 -0.066604 0.043526
v -0.040001 0.109815 0.023556
v 0.000393 0.109815 0.046389
v 0.040363 0.109815 0.022823
v 0.039940 0.109815 -0.023576
v -0.000454 0.109815 -0.046408
v -0.040425 0.109815 -0.022842
v -0.040425 0.095133 -0.022842
v -0.000454 0.095133 -0.046408
v 0.039940 0.095133 -0.023576
v 0.040363 0.095133 0.022823
v 0.000393 0.095133 0.046389
v -0.040001 0.095133 0.023556
v -0.025392 0.086874 0.014943
v 0.000238 0.086874 0.029430
v 0.025599 0.086874 0.014478
v 0.025331 0.086874 -0.014962
v -0.000299 0.086874 -0.029450
v -0.025661 0.086874 -0.014497
v -0.025661 0.069488 -0.014497
v -0.000299 0.069488 -0.029450
v 0.025331 0.069488 -0.014962
v 0.025599 0.069488 0.014478
v 0.000238 0.069488 0.029430
v -0.025392 0.069488 0.014943
v -0.074385 0.015005 0.043828
v 0.000757 0.015005 0.086301
v 0.075111 0.015005 0.042464
v 0.074323 0.015005 -0.043848
v -0.000818 0.015005 -0.086321
v -0.075172 0.015005 -0.042483
v -0.030248 0.109815 0.017806
v 0.000289 0.109815 0.035067
v 0.030506 0.109815 0.017251
v 0.030186 0.109815 -0.017825
v -0.000351 0.109815 -0.035086
v -0.030568 0.109815 -0.017271
v -0.024613 0.104823 0.014484
v 0.000230 0.104823 0.028526
v 0.024812 0.104823 0.014033
v 0.024552 0.104823 -0.014503
v -0.000291 0.104823 -0.028546
v -0.024874 0.104823 -0.014052
v 0.056910 0.031480 0.000009
v 0.052681 0.034403 0.008941
v 0.044223 0.040248 0.008941
v 0.039994 0.043170 0.000009
v 0.044223 0.040248 -0.008924
v 0.052681 0.034403 -0.008924
v 0.062951 0.045293 -0.008924
v 0.056720 0.053431 -0.008924
v 0.053604 0.057500 0.000009
v 0.056720 0.053431 0.008941
v 0.062951 0.045293 0.008941
v 0.066066 0.041224 0.000009
v 0.081159 0.049048 -0.008060
v 0.082314 0.058201 -0.008060
v 0.082892 0.062777 0.000009
v 0.082314 0.058201 0.008078
v 0.081159 0.049048 0.008078
v 0.080581 0.044471 0.000009
v 0.097488 0.035276 -0.008060
v 0.104920 0.040840 -0.008060
v 0.108635 0.043622 0.000009
v 0.104920 0.040840 0.008078
v 0.097488 0.035276 0.008078
v 0.093773 0.032494 0.000009
v 0.099380 0.018164 -0.008060
v 0.108644 0.017182 -0.008060
v 0.113276 0.016690 0.000009
v 0.108644 0.017182 0.008078
v 0.099380 0.018164 0.008078
v 0.094748 0.018655 0.000009
v 0.093631 0.002236 -0.008060
v 0.100540 -0.003953 -0.008060
v 0.103995 -0.007048 0.000009
v 0.100540 -0.003953 0.008078
v 0.093631 0.002236 0.008078
v 0.090177 0.005330 0.000009
v 0.081335 -0.008615 -0.008060
v 0.084758 -0.017194 -0.008060
v 0.086470 -0.021483 0.000009
v 0.084758 -0.017194 0.008078
v 0.081335 -0.008615 0.008078
v 0.079623 -0.004326 0.000009
v -0.056261 0.031480 0.000009
v -0.052032 0.034403 -0.008924
v -0.043574 0.040248 -0.008924
v -0.039345 0.043170 0.000009
v -0.043574 0.040248 0.008941
v -0.052032 0.034403 0.008941
v -0.062302 0.045293 0.008941
v -0.056071 0.053431 0.008941
v -0.052956 0.057500 0.000009
v -0.056071 0.053431 -0.008924
v -0.062302 0.045293 -0.008924
v -0.065418 0.041224 0.000009
v -0.080510 0.049048 0.008078
v -0.081666 0.058201 0.008078
v -0.082243 0.062777 0.000009
v -0.081666 0.058201 -0.008060
v -0.080510 0.049048 -0.008060
v -0.079933 0.044471 0.000009
v -0.096840 0.035276 0.008078
v -0.104271 0.040840 0.008078
v -0.107987 0.043622 0.000009
v -0.104271 0.040840 -0.008060
v -0.096840 0.035276 -0.008060
v -0.093124 0.032494 0.000009
v -0.098731 0.018164 0.008078
v -0.107996 0.017182 0.008078
v -0.112628 0.016690 0.000009
v -0.107996 0.017182 -0.008060
v -0.098731 0.018164 -0.008060
v -0.094099 0.018655 0.000009
v -0.092983 0.002236 0.008078
v -0.099892 -0.003953 0.008078
v -0.103346 -0.007048 0.000009
v -0.099892 -0.003953 -0.008060
v -0.092983 0.002236 -0.008060
v -0.089529 0.005330 0.000009
v -0.080687 -0.008615 0.008078
v -0.084110 -0.017194 0.008078
v -0.085822 -0.021483 0.000009
v -0.084110 -0.017194 -0.008060
v -0.080687 -0.008615 -0.008060
v -0.078975 -0.004326 0.000009
v -0.040973 -0.087423 -0.023152
v -0.000460 -0.087423 -0.047038
v -0.040544 -0.087423 0.023876
v 0.040483 -0.087423 -0.023896
v 0.040912 -0.087423 0.023133
v 0.000398 -0.087423 0.047019
v 0.000896 -0.025799 0.101597
v -0.000958 -0.025799 -0.101617
v 0.088427 -0.025799 0.049991
v 0.087500 -0.025799 -0.051616
v -0.088488 -0.025799 -0.050010
v -0.087561 -0.025799 0.051597
vt 0.230655 0.960533
vt 0.230655 0.960662
vt 0.230600 0.960662
vt 0.230600 0.960533
vt 0.230544 0.960533
vt 0.230544 0.960662
vt 0.230489 0.960662
vt 0.230489 0.960533
vt 0.230434 0.960662
vt 0.230434 0.960533
vt 0.230378 0.960662
vt 0.230378 0.960533
vt 0.230489 0.960662
vt 0.230544 0.960662
vt 0.230544 0.960662
vt 0.230489 0.960662
vt 0.230710 0.960511
vt 0.230655 0.960511
vt 0.230658 0.960504
vt 0.230707 0.960504
vt 0.230600 0.960511
vt 0.230602 0.960504
vt 0.230544 0.960511
vt 0.230547 0.960504
vt 0.230489 0.960511
vt 0.230492 0.960504
vt 0.230434 0.960511
vt 0.230436 0.960504
vt 0.230378 0.960511
vt 0.230381 0.960504
vt 0.230627 0.960493
vt 0.230689 0.960385
vt 0.230627 0.960350
vt 0.230565 0.960385
vt 0.230565 0.960457
vt 0.230600 0.960662
vt 0.230655 0.960662
vt 0.230655 0.960662
vt 0.230600 0.960662
vt 0.230489 0.960662
vt 0.230544 0.960662
vt 0.230434 0.960662
vt 0.230434 0.960662
vt 0.230710 0.960662
vt 0.230710 0.960662
vt 0.230544 0.960662
vt 0.230489 0.960662
vt 0.230710 0.960533
vt 0.230710 0.960662
vt 0.230378 0.960662
vt 0.230434 0.960662
vt 0.230378 0.960662
vt 0.230434 0.960662
vt 0.230655 0.960662
vt 0.230710 0.960662
vt 0.230710 0.960662
vt 0.230655 0.960662
vt 0.230600 0.960662
vt 0.230600 0.960662
vt 0.230600 0.960662
vt 0.230655 0.960662
vt 0.230378 0.960662
vt 0.230655 0.960662
vt 0.230710 0.960662
vt 0.230710 0.960662
vt 0.230434 0.960662
vt 0.230489 0.960662
vt 0.230378 0.960662
vt 0.230378 0.960662
vt 0.230544 0.960662
vt 0.230489 0.960662
vt 0.230544 0.960662
vt 0.230544 0.960662
vt 0.230489 0.960662
vt 0.230434 0.960662
vt 0.230378 0.960662
vt 0.230600 0.960662
vt 0.230655 0.960662
vt 0.230710 0.960662
vt 0.230434 0.960662
vt 0.230600 0.960662
vt 0.230378 0.960662
vt 0.230600 0.960662
vt 0.230544 0.960662
vt 0.230434 0.960662
vt 0.230378 0.960662
vt 0.230489 0.960662
vt 0.230655 0.960662
vt 0.230710 0.960662
vt 0.230489 0.960662
vt 0.230434 0.960662
vt 0.230655 0.960662
vt 0.230600 0.960662
vt 0.230544 0.960662
vt 0.230710 0.960662
vt 0.230378 0.960662
vt 0.230600 0.950819
vt 0.230655 0.950819
vt 0.230655 0.950819
vt 0.230600 0.950819
vt 0.230434 0.950819
vt 0.230489 0.950819
vt 0.230489 0.950819
vt 0.230434 0.950819
vt 0.230710 0.950819
vt 0.230710 0.950819
vt 0.230378 0.950819
vt 0.230378 0.950819
vt 0.230544 0.950819
vt 0.230544 0.950819
vt 0.230489 0.950819
vt 0.230544 0.950819
vt 0.230655 0.950819
vt 0.230710 0.950819
vt 0.230600 0.950819
vt 0.230378 0.950819
vt 0.230434 0.950819
vt 0.230600 0.950819
vt 0.230655 0.950819
vt 0.230378 0.950819
vt 0.230434 0.950819
vt 0.230489 0.950819
vt 0.230544 0.950819
vt 0.230710 0.950819
vt 0.230489 0.950819
vt 0.230544 0.950819
vt 0.230655 0.950819
vt 0.230710 0.950819
vt 0.230600 0.950819
vt 0.230378 0.950819
vt 0.230434 0.950819
vt 0.230600 0.950819
vt 0.230655 0.950819
vt 0.230378 0.950819
vt 0.230434 0.950819
vt 0.230489 0.950819
vt 0.230544 0.950819
vt 0.230710 0.950819
vt 0.230489 0.950819
vt 0.230544 0.950819
vt 0.230655 0.950819
vt 0.230710 0.950819
vt 0.230600 0.950819
vt 0.230378 0.950819
vt 0.230434 0.950819
vt 0.230600 0.950819
vt 0.230655 0.950819
vt 0.230655 0.950819
vt 0.230600 0.950819
vt 0.230434 0.950819
vt 0.230489 0.950819
vt 0.230489 0.950819
vt 0.230434 0.950819
vt 0.230710 0.950819
vt 0.230710 0.950819
vt 0.230378 0.950819
vt 0.230378 0.950819
vt 0.230544 0.950819
vt 0.230544 0.950819
vt 0.230489 0.950819
vt 0.230544 0.950819
vt 0.230655 0.950819
vt 0.230710 0.950819
vt 0.230600 0.950819
vt 0.230378 0.950819
vt 0.230434 0.950819
vt 0.230600 0.950819
vt 0.230655 0.950819
vt 0.230378 0.950819
vt 0.230434 0.950819
vt 0.230489 0.950819
vt 0.230544 0.950819
vt 0.230710 0.950819
vt 0.230489 0.950819
vt 0.230544 0.950819
vt 0.230655 0.950819
vt 0.230710 0.950819
vt 0.230600 0.950819
vt 0.230378 0.950819
vt 0.230434 0.950819
vt 0.230600 0.950819
vt 0.230655 0.950819
vt 0.230378 0.950819
vt 0.230434 0.950819
vt 0.230489 0.950819
vt 0.230544 0.950819
vt 0.230710 0.950819
vt 0.230489 0.950819
vt 0.230544 0.950819
vt 0.230655 0.950819
vt 0.230710 0.950819
vt 0.230600 0.950819
vt 0.230378 0.950819
vt 0.230434 0.950819
vt 0.727736 0.989826
vt 0.727698 0.989826
vt 0.727700 0.989821
vt 0.727734 0.989821
vt 0.727660 0.989826
vt 0.727662 0.989821
vt 0.727622 0.989826
vt 0.727624 0.989821
vt 0.727585 0.989826
vt 0.727587 0.989821
vt 0.727547 0.989826
vt 0.727549 0.989821
vt 0.727509 0.989826
vt 0.727511 0.989821
vt 0.727721 0.989740
vt 0.727679 0.989716
vt 0.727637 0.989740
vt 0.727637 0.989789
vt 0.727736 0.989860
vt 0.727698 0.989860
vt 0.727660 0.989860
vt 0.727622 0.989860
vt 0.727547 0.989860
vt 0.727509 0.989860
vt 0.727585 0.989860
vt 0.727566 0.989860
vt 0.727679 0.989860
vn 0.2597 -0.8494 -0.4595
vn 0.2680 -0.8494 0.4546
vn -0.2597 -0.8494 0.4595
vn -0.5278 -0.8494 0.0048
vn 0.5278 -0.8494 -0.0048
vn 0.4549 -0.4446 0.7716
vn -0.3324 -0.7561 -0.5638
vn 0.3221 -0.7561 -0.5698
vn 0.6545 -0.7561 -0.0060
vn 0.3324 -0.7561 0.5638
vn -0.3221 -0.7561 0.5698
vn -0.6545 -0.7561 0.0060
vn 0.0000 -1.0000 0.0000
vn 0.2412 -0.8716 -0.4267
vn 0.2489 -0.8716 0.4222
vn 0.4901 -0.8716 -0.0045
vn -0.2412 -0.8716 0.4267
vn -0.2489 -0.8717 -0.4222
vn 0.4549 0.4446 0.7716
vn -0.2680 -0.8494 -0.4546
vn -0.8957 -0.4446 0.0082
vn -0.4408 0.4446 0.7798
vn -0.4549 0.4446 -0.7716
vn 0.4408 0.4446 -0.7798
vn -0.4549 -0.4446 -0.7716
vn 0.4921 -0.0000 -0.8706
vn -0.4408 -0.4446 0.7798
vn -0.8957 0.4446 0.0082
vn 0.4408 -0.4446 -0.7798
vn 0.8957 0.4446 -0.0082
vn 0.8957 -0.4446 -0.0082
vn -0.3767 0.6706 -0.6390
vn -0.4921 0.0000 0.8706
vn -0.4901 -0.8716 0.0045
vn -0.5079 -0.0000 -0.8614
vn -1.0000 0.0000 0.0091
vn 0.5079 0.0000 0.8614
vn 0.4831 0.3088 0.8193
vn -0.3650 0.6706 0.6458
vn 0.3767 0.6706 0.6390
vn -0.7418 0.6706 0.0068
vn 0.3650 0.6706 -0.6458
vn 1.0000 0.0000 -0.0091
vn 0.7418 0.6706 -0.0068
vn -0.4831 0.3088 -0.8193
vn -0.4680 0.3088 0.8280
vn 0.4680 0.3088 -0.8280
vn -0.9511 0.3088 0.0087
vn 0.9511 0.3088 -0.0087
vn -0.0000 1.0000 0.0000
vn 0.3253 0.7503 -0.5756
vn -0.3253 0.7503 0.5756
vn -0.3358 0.7503 -0.5695
vn 0.3358 0.7503 0.5695
vn -0.6611 0.7503 0.0060
vn 0.6611 0.7503 -0.0060
vn -0.6309 0.5986 -0.4936
vn 0.6332 -0.5962 0.4936
vn -0.0000 0.0000 -1.0000
vn 0.6332 -0.5962 -0.4936
vn 0.0000 -0.0000 1.0000
vn -0.6309 0.5986 0.4936
vn 0.0373 0.0109 0.9992
vn 0.0373 0.0109 -0.9992
vn -0.1522 0.8716 0.4659
vn -0.1522 0.8716 -0.4659
vn 0.1967 -0.8618 -0.4676
vn 0.1967 -0.8618 0.4676
vn 0.5338 0.7068 -0.4643
vn -0.5836 -0.6690 -0.4603
vn -0.5836 -0.6690 0.4603
vn 0.5338 0.7068 0.4643
vn 0.8705 0.1439 0.4707
vn 0.8705 0.1439 -0.4707
vn -0.8805 -0.0815 -0.4670
vn -0.8805 -0.0815 0.4670
vn 0.8179 -0.3169 -0.4802
vn -0.8276 0.2919 -0.4795
vn -0.8276 0.2919 0.4795
vn 0.8179 -0.3169 0.4802
vn 0.5585 -0.6721 0.4863
vn 0.5585 -0.6721 -0.4863
vn -0.5842 0.6509 -0.4848
vn -0.5842 0.6509 0.4848
vn 0.6309 0.5986 0.4936
vn -0.6332 -0.5962 -0.4936
vn -0.6332 -0.5962 0.4936
vn 0.6309 0.5986 -0.4936
vn -0.0373 0.0109 -0.9992
vn -0.0373 0.0109 0.9992
vn 0.1522 0.8716 -0.4659
vn 0.1522 0.8716 0.4659
vn -0.1967 -0.8618 0.4676
vn -0.1967 -0.8618 -0.4676
vn -0.5338 0.7068 0.4643
vn 0.5836 -0.6690 0.4603
vn 0.5836 -0.6690 -0.4603
vn -0.5338 0.7068 -0.4643
vn -0.8705 0.1439 -0.4707
vn -0.8705 0.1439 0.4707
vn 0.8805 -0.0815 0.4670
vn 0.8805 -0.0815 -0.4670
vn -0.8179 -0.3169 0.4802
vn 0.8276 0.2919 0.4795
vn 0.8276 0.2919 -0.4795
vn -0.8179 -0.3169 -0.4802
vn -0.5585 -0.6721 -0.4863
vn -0.5585 -0.6721 0.4863
vn 0.5842 0.6509 0.4848
vn 0.5842 0.6509 -0.4848
vn -0.4487 0.4684 -0.7611
vn 0.8835 0.4684 -0.0081
vn -0.8835 0.4684 0.0081
vn -0.4348 0.4684 0.7691
vn 0.4487 0.4684 0.7611
vn 0.4348 0.4684 -0.7691
vn 0.9475 -0.3196 -0.0086
vn -0.9475 -0.3196 0.0086
vn 0.4663 -0.3196 -0.8249
vn -0.4663 -0.3196 0.8249
vn -0.4812 -0.3196 -0.8163
vn 0.4812 -0.3196 0.8163
vn -0.8634 0.5044 0.0079
vn -0.4249 0.5044 0.7517
vn 0.4385 0.5044 0.7438
vn 0.8634 0.5044 -0.0079
vn 0.4249 0.5044 -0.7517
vn -0.4385 0.5044 -0.7438
usemtl RLOW.085
s off
f 172/1/1 36/2/1 38/3/1 174/4/1
f 175/5/2 40/6/2 42/7/2 176/8/2
f 176/8/3 42/7/3 44/9/3 173/10/3
f 173/10/4 44/9/4 33/11/4 171/12/4
f 174/4/5 38/3/5 40/6/5 175/5/5
f 55/13/6 54/14/6 37/15/6 39/16/6
f 22/17/7 24/18/7 23/19/7 21/20/7
f 24/18/8 26/21/8 25/22/8 23/19/8
f 26/21/9 28/23/9 27/24/9 25/22/9
f 28/23/10 30/25/10 29/26/10 27/24/10
f 30/25/11 32/27/11 31/28/11 29/26/11
f 32/27/12 22/29/12 21/30/12 31/28/12
f 21/31/13 23/19/13 25/32/13 27/33/13 29/34/13 31/35/13
f 60/36/14 61/37/14 52/38/14 53/39/14
f 58/40/15 59/41/15 54/14/15 55/13/15
f 59/41/16 60/36/16 53/39/16 54/14/16
f 57/42/17 58/40/17 55/13/17 56/43/17
f 61/37/18 62/44/18 51/45/18 52/38/18
f 39/16/19 37/15/19 47/46/19 46/47/19
f 171/48/20 33/49/20 36/2/20 172/1/20
f 51/50/21 56/43/21 35/51/21 43/52/21
f 35/51/22 39/16/22 46/47/22 45/53/22
f 34/54/23 43/55/23 50/56/23 49/57/23
f 41/58/24 34/54/24 49/57/24 48/59/24
f 52/38/25 51/45/25 43/55/25 34/54/25
f 65/60/26 64/61/26 61/37/26 60/36/26
f 56/43/27 55/13/27 39/16/27 35/51/27
f 43/52/28 35/51/28 45/53/28 50/62/28
f 53/39/29 52/38/29 34/54/29 41/58/29
f 37/15/30 41/58/30 48/59/30 47/46/30
f 54/14/31 53/39/31 41/58/31 37/15/31
f 73/63/32 74/64/32 63/65/32 64/61/32
f 68/66/33 67/67/33 58/40/33 57/42/33
f 62/68/34 57/42/34 56/43/34 51/50/34
f 64/61/35 63/65/35 62/44/35 61/37/35
f 63/69/36 68/66/36 57/42/36 62/68/36
f 67/67/37 66/70/37 59/41/37 58/40/37
f 177/71/38 179/72/38 71/73/38 70/74/38
f 69/75/39 70/74/39 67/67/39 68/66/39
f 70/74/40 71/73/40 66/70/40 67/67/40
f 74/76/41 69/75/41 68/66/41 63/69/41
f 72/77/42 73/63/42 64/61/42 65/60/42
f 66/70/43 65/60/43 60/36/43 59/41/43
f 71/73/44 72/77/44 65/60/44 66/70/44
f 178/78/45 181/79/45 74/64/45 73/63/45
f 182/80/46 177/71/46 70/74/46 69/75/46
f 180/81/47 178/78/47 73/63/47 72/77/47
f 181/82/48 182/80/48 69/75/48 74/76/48
f 179/72/49 180/81/49 72/77/49 71/73/49
f 47/46/50 48/59/50 78/83/50 77/84/50
f 50/62/50 45/53/50 75/85/50 80/86/50
f 46/47/50 47/46/50 77/84/50 76/87/50
f 48/59/50 49/57/50 79/88/50 78/83/50
f 49/57/50 50/56/50 80/89/50 79/88/50
f 45/53/50 46/47/50 76/87/50 75/85/50
f 75/85/51 76/87/51 82/90/51 81/91/51
f 78/83/52 79/88/52 85/92/52 84/93/52
f 76/87/53 77/84/53 83/94/53 82/90/53
f 79/88/54 80/89/54 86/95/54 85/92/54
f 77/84/55 78/83/55 84/93/55 83/94/55
f 80/86/56 75/85/56 81/91/56 86/96/56
f 95/97/57 94/98/57 91/99/57 90/100/57
f 98/101/58 97/102/58 88/103/58 87/104/58
f 94/98/59 93/105/59 92/106/59 91/99/59
f 93/107/60 98/101/60 87/104/60 92/108/60
f 97/102/61 96/109/61 89/110/61 88/103/61
f 96/109/62 95/97/62 90/100/62 89/110/62
f 96/109/63 97/102/63 103/111/63 102/112/63
f 93/105/64 94/98/64 100/113/64 99/114/64
f 95/97/65 96/109/65 102/112/65 101/115/65
f 94/98/66 95/97/66 101/115/66 100/113/66
f 98/101/67 93/107/67 99/116/67 104/117/67
f 97/102/68 98/101/68 104/117/68 103/111/68
f 100/113/69 101/115/69 107/118/69 106/119/69
f 104/117/70 99/116/70 105/120/70 110/121/70
f 103/111/71 104/117/71 110/121/71 109/122/71
f 102/112/61 103/111/61 109/122/61 108/123/61
f 99/114/59 100/113/59 106/119/59 105/124/59
f 101/115/72 102/112/72 108/123/72 107/118/72
f 108/123/61 109/122/61 115/125/61 114/126/61
f 105/124/59 106/119/59 112/127/59 111/128/59
f 107/118/73 108/123/73 114/126/73 113/129/73
f 106/119/74 107/118/74 113/129/74 112/127/74
f 110/121/75 105/120/75 111/130/75 116/131/75
f 109/122/76 110/121/76 116/131/76 115/125/76
f 112/127/77 113/129/77 119/132/77 118/133/77
f 116/131/78 111/130/78 117/134/78 122/135/78
f 115/125/79 116/131/79 122/135/79 121/136/79
f 114/126/61 115/125/61 121/136/61 120/137/61
f 111/128/59 112/127/59 118/133/59 117/138/59
f 113/129/80 114/126/80 120/137/80 119/132/80
f 120/137/61 121/136/61 127/139/61 126/140/61
f 117/138/59 118/133/59 124/141/59 123/142/59
f 119/132/81 120/137/81 126/140/81 125/143/81
f 118/133/82 119/132/82 125/143/82 124/141/82
f 122/135/83 117/134/83 123/144/83 128/145/83
f 121/136/84 122/135/84 128/145/84 127/139/84
f 137/146/85 136/147/85 133/148/85 132/149/85
f 140/150/86 139/151/86 130/152/86 129/153/86
f 136/147/61 135/154/61 134/155/61 133/148/61
f 135/156/87 140/150/87 129/153/87 134/157/87
f 139/151/59 138/158/59 131/159/59 130/152/59
f 138/158/88 137/146/88 132/149/88 131/159/88
f 138/158/89 139/151/89 145/160/89 144/161/89
f 135/154/90 136/147/90 142/162/90 141/163/90
f 137/146/91 138/158/91 144/161/91 143/164/91
f 136/147/92 137/146/92 143/164/92 142/162/92
f 140/150/93 135/156/93 141/165/93 146/166/93
f 139/151/94 140/150/94 146/166/94 145/160/94
f 142/162/95 143/164/95 149/167/95 148/168/95
f 146/166/96 141/165/96 147/169/96 152/170/96
f 145/160/97 146/166/97 152/170/97 151/171/97
f 144/161/59 145/160/59 151/171/59 150/172/59
f 141/163/61 142/162/61 148/168/61 147/173/61
f 143/164/98 144/161/98 150/172/98 149/167/98
f 150/172/59 151/171/59 157/174/59 156/175/59
f 147/173/61 148/168/61 154/176/61 153/177/61
f 149/167/99 150/172/99 156/175/99 155/178/99
f 148/168/100 149/167/100 155/178/100 154/176/100
f 152/170/101 147/169/101 153/179/101 158/180/101
f 151/171/102 152/170/102 158/180/102 157/174/102
f 154/176/103 155/178/103 161/181/103 160/182/103
f 158/180/104 153/179/104 159/183/104 164/184/104
f 157/174/105 158/180/105 164/184/105 163/185/105
f 156/175/59 157/174/59 163/185/59 162/186/59
f 153/177/61 154/176/61 160/182/61 159/187/61
f 155/178/106 156/175/106 162/186/106 161/181/106
f 162/186/59 163/185/59 169/188/59 168/189/59
f 159/187/61 160/182/61 166/190/61 165/191/61
f 161/181/107 162/186/107 168/189/107 167/192/107
f 160/182/108 161/181/108 167/192/108 166/190/108
f 164/184/109 159/183/109 165/193/109 170/194/109
f 163/185/110 164/184/110 170/194/110 169/188/110
f 22/17/111 171/48/111 172/1/111 24/18/111
f 26/21/112 174/4/112 175/5/112 28/23/112
f 32/27/113 173/10/113 171/12/113 22/29/113
f 30/25/114 176/8/114 173/10/114 32/27/114
f 28/23/115 175/5/115 176/8/115 30/25/115
f 24/18/116 172/1/116 174/4/116 26/21/116
f 40/6/117 38/3/117 180/81/117 179/72/117
f 33/11/118 44/9/118 182/80/118 181/82/118
f 38/3/119 36/2/119 178/78/119 180/81/119
f 44/9/120 42/7/120 177/71/120 182/80/120
f 36/2/121 33/49/121 181/79/121 178/78/121
f 42/7/122 40/6/122 179/72/122 177/71/122
usemtl RHIGH.085
f 2/195/123 4/196/123 3/197/123 1/198/123
f 4/196/124 6/199/124 5/200/124 3/197/124
f 6/199/125 8/201/125 7/202/125 5/200/125
f 8/201/126 10/203/126 9/204/126 7/202/126
f 10/203/127 12/205/127 11/206/127 9/204/127
f 12/205/128 2/207/128 1/208/128 11/206/128
f 1/198/50 3/197/50 5/209/50 7/210/50 9/211/50 11/212/50
f 2/195/36 13/213/36 14/214/36 4/196/36
f 6/199/37 16/215/37 17/216/37 8/201/37
f 12/205/35 15/217/35 13/218/35 2/207/35
f 10/203/26 18/219/26 20/220/26 15/217/26 12/205/26
f 8/201/43 17/216/43 18/219/43 10/203/43
f 4/196/33 14/214/33 19/221/33 16/215/33 6/199/33
