# Blender v2.91.0 OBJ File: 'Red_Potion_5(Label).blend'
# www.blender.org
mtllib Red_Potion_5(Label).mtl
o Red_Potion_5(Label)_Cube.010
v -0.102250 -0.182267 0.058102
v -0.107136 -0.167522 0.064000
v -0.116202 -0.182267 0.051126
v -0.127998 -0.167522 0.053569
v -0.060053 0.155831 0.044643
v -0.127998 0.122987 0.053569
v -0.107136 0.122987 0.064000
v -0.116202 -0.182267 -0.051126
v -0.127998 -0.167522 -0.053569
v -0.102250 -0.182267 -0.058102
v -0.107136 -0.167522 -0.064000
v -0.060053 0.155831 -0.044643
v -0.107136 0.122987 -0.064000
v -0.127998 0.122987 -0.053569
v 0.116206 -0.182267 0.051126
v 0.128002 -0.167522 0.053569
v 0.102254 -0.182267 0.058102
v 0.107140 -0.167522 0.064000
v 0.060067 0.155831 0.044643
v 0.107140 0.122987 0.064000
v 0.128002 0.122987 0.053569
v 0.102254 -0.182267 -0.058102
v 0.107140 -0.167522 -0.064000
v 0.116206 -0.182267 -0.051126
v 0.128002 -0.167522 -0.053569
v 0.060067 0.155831 -0.044643
v 0.128002 0.122987 -0.053569
v 0.107140 0.122987 -0.064000
v -0.102250 0.137733 0.058102
v -0.116202 0.137733 0.051126
v -0.116202 0.137733 -0.051126
v -0.102250 0.137733 -0.058102
v 0.102254 0.137733 -0.058102
v 0.116206 0.137733 -0.051126
v 0.116206 0.137733 0.051126
v 0.102254 0.137733 0.058102
v -0.037501 0.175127 0.027886
v -0.037501 0.175127 -0.027886
v 0.037532 0.175127 -0.027886
v 0.037532 0.175127 0.027886
v -0.026873 0.192192 0.027368
v -0.026873 0.192192 -0.027368
v 0.026904 0.192192 -0.027368
v 0.026904 0.192192 0.027368
v -0.038539 0.204608 0.039242
v -0.038539 0.204608 -0.039242
v 0.038570 0.204608 -0.039242
v 0.038570 0.204608 0.039242
v -0.038539 0.222198 0.039242
v -0.038539 0.222198 -0.039242
v 0.038570 0.222198 -0.039242
v 0.038570 0.222198 0.039242
v -0.028958 0.232545 0.029489
v -0.028958 0.232545 -0.029489
v 0.028988 0.232545 -0.029489
v 0.028988 0.232545 0.029489
v -0.023715 0.232545 0.024153
v -0.023715 0.232545 -0.024153
v 0.023746 0.232545 -0.024153
v 0.023746 0.232545 0.024153
v -0.020376 0.225125 0.020755
v -0.020376 0.225125 -0.020755
v 0.020407 0.225125 -0.020755
v 0.020407 0.225125 0.020755
v 0.017755 0.240747 0.021640
v 0.018611 0.236604 0.023837
v 0.020199 0.240747 0.019042
v 0.022265 0.236604 0.019952
v 0.020199 0.240747 -0.019042
v 0.022265 0.236604 -0.019952
v 0.017755 0.240747 -0.021640
v 0.018611 0.236604 -0.023837
v -0.020510 0.240747 0.019042
v -0.022577 0.236604 0.019952
v -0.018067 0.240747 0.021640
v -0.018922 0.236604 0.023837
v -0.018067 0.240747 -0.021640
v -0.018922 0.236604 -0.023837
v -0.020510 0.240747 -0.019042
v -0.022577 0.236604 -0.019952
v 0.018611 0.224947 0.023837
v 0.022265 0.224947 0.019952
v 0.022265 0.224947 -0.019952
v 0.018611 0.224947 -0.023837
v -0.022577 0.224947 0.019952
v -0.018922 0.224947 0.023837
v -0.018922 0.224947 -0.023837
v -0.022577 0.224947 -0.019952
v -0.107136 -0.101485 0.064000
v -0.107136 0.056950 0.064000
v -0.127998 0.056950 0.053569
v -0.127998 -0.101485 0.053569
v 0.107140 -0.101485 0.064000
v 0.107140 0.056950 0.064000
v -0.127998 0.056950 -0.053569
v -0.127998 -0.101485 -0.053569
v -0.107136 0.056950 -0.064000
v -0.107136 -0.101485 -0.064000
v 0.107140 0.056950 -0.064000
v 0.107140 -0.101485 -0.064000
v 0.128002 -0.101485 0.053569
v 0.128002 0.056950 0.053569
v 0.128002 -0.101485 -0.053569
v 0.128002 0.056950 -0.053569
v 0.128002 0.056950 -0.000000
v 0.128002 -0.101485 -0.000000
v -0.127998 0.056950 -0.000000
v -0.127998 -0.101485 -0.000000
vt 0.723357 0.986475
vt 0.723377 0.986495
vt 0.723370 0.986512
vt 0.723340 0.986482
vt 0.723377 0.986161
vt 0.723357 0.986181
vt 0.723340 0.986174
vt 0.723370 0.986144
vt 0.723692 0.986181
vt 0.723672 0.986161
vt 0.723679 0.986144
vt 0.723709 0.986174
vt 0.723672 0.986495
vt 0.723692 0.986475
vt 0.723709 0.986482
vt 0.723679 0.986512
vt 0.723679 0.986512
vt 0.723370 0.986512
vt 0.723679 0.986144
vt 0.723709 0.986174
vt 0.723726 0.986482
vt 0.723370 0.986144
vt 0.723340 0.986174
vt 0.723340 0.986482
vt 0.762658 0.506906
vt 0.762733 0.506906
vt 0.762733 0.506926
vt 0.762658 0.506926
vt 0.762658 0.507670
vt 0.762733 0.507670
vt 0.762733 0.507877
vt 0.762658 0.507877
vt 0.762658 0.507629
vt 0.762733 0.507629
vt 0.762733 0.507030
vt 0.762658 0.507030
vt 0.762658 0.507526
vt 0.762733 0.507526
vt 0.227208 0.955874
vt 0.227283 0.955874
vt 0.227283 0.956081
vt 0.227208 0.956081
vt 0.227208 0.955978
vt 0.227133 0.956369
vt 0.227058 0.956369
vt 0.227058 0.956329
vt 0.227133 0.956329
vt 0.227133 0.956122
vt 0.227058 0.956122
vt 0.227058 0.956081
vt 0.227133 0.956081
vt 0.227133 0.956617
vt 0.227058 0.956617
vt 0.227058 0.956577
vt 0.227133 0.956577
vt 0.227208 0.956617
vt 0.227283 0.956617
vt 0.227283 0.956825
vt 0.227208 0.956825
vt 0.227208 0.956122
vt 0.227283 0.956122
vt 0.227283 0.956329
vt 0.227208 0.956329
vt 0.227208 0.956369
vt 0.227283 0.956369
vt 0.227283 0.956577
vt 0.227208 0.956577
vt 0.227208 0.956473
vt 0.227208 0.955854
vt 0.227283 0.955854
vt 0.226811 0.956572
vt 0.226824 0.956586
vt 0.226819 0.956597
vt 0.226799 0.956577
vt 0.227518 0.956586
vt 0.227531 0.956572
vt 0.227542 0.956577
vt 0.227522 0.956597
vt 0.227531 0.956374
vt 0.227518 0.956361
vt 0.227522 0.956349
vt 0.227542 0.956369
vt 0.226824 0.956361
vt 0.226811 0.956374
vt 0.226799 0.956369
vt 0.226819 0.956349
vt 0.227320 0.956361
vt 0.227306 0.956374
vt 0.227036 0.956374
vt 0.227022 0.956361
vt 0.227027 0.956349
vt 0.227047 0.956369
vt 0.227306 0.956572
vt 0.227320 0.956586
vt 0.227022 0.956586
vt 0.227036 0.956572
vt 0.227047 0.956577
vt 0.227027 0.956597
vt 0.227512 0.956564
vt 0.227510 0.956379
vt 0.227325 0.956382
vt 0.227327 0.956567
vt 0.227325 0.956564
vt 0.227325 0.956382
vt 0.227325 0.956382
vt 0.227325 0.956564
vt 0.227510 0.956379
vt 0.227510 0.956567
vt 0.227512 0.956564
vt 0.227512 0.956382
vt 0.227325 0.956382
vt 0.227325 0.956564
vt 0.227512 0.956564
vt 0.227512 0.956382
vt 0.227512 0.956382
vt 0.227512 0.956564
vt 0.227512 0.956564
vt 0.227512 0.956382
vt 0.227327 0.956567
vt 0.227325 0.956564
vt 0.227325 0.956382
vt 0.227325 0.956382
vt 0.227325 0.956564
vt 0.227327 0.956379
vt 0.227512 0.956564
vt 0.227512 0.956382
vt 0.227512 0.956564
vt 0.227512 0.956382
vt 0.227325 0.956382
vt 0.227325 0.956564
vt 0.227058 0.955854
vt 0.227133 0.955854
vt 0.227133 0.955874
vt 0.227058 0.955874
vt 0.227133 0.956473
vt 0.227133 0.956825
vt 0.227058 0.956825
vt 0.227133 0.955978
vn 0.6479 0.4570 0.6094
vn 0.6479 0.4570 -0.6094
vn -0.6479 0.4570 -0.6094
vn -0.6479 0.4570 0.6094
vn 0.8949 0.4463 0.0000
vn 0.0000 0.4685 -0.8835
vn -0.8949 0.4463 0.0000
vn 0.0000 0.4685 0.8835
vn 0.0000 1.0000 0.0000
vn 0.0000 0.0000 1.0000
vn -0.7284 0.0000 -0.6851
vn -1.0000 0.0000 0.0000
vn 0.0000 0.0000 -1.0000
vn 0.7284 0.0000 -0.6851
vn 1.0000 0.0000 0.0000
vn 0.7284 0.0000 0.6851
vn -0.7284 0.0000 0.6851
vn -0.4472 0.0000 0.8944
vn 0.4472 0.0000 0.8944
vn 0.4472 0.0000 -0.8944
vn -0.4472 0.0000 -0.8944
vn -0.3990 -0.4515 0.7981
vn -0.3990 0.4515 0.7981
vn -0.3990 0.4515 -0.7981
vn -0.3990 -0.4515 -0.7981
vn 0.3990 0.4515 -0.7981
vn 0.3990 -0.4515 -0.7981
vn 0.3990 0.4515 0.7981
vn 0.3990 -0.4515 0.7981
vn -0.7809 -0.6247 0.0000
vn 0.0000 -0.3714 -0.9285
vn 0.7809 -0.6247 0.0000
vn 0.0000 -0.3714 0.9285
vn -0.7809 0.6247 0.0000
vn 0.0000 0.3714 0.9285
vn 0.7809 0.6247 0.0000
vn 0.0000 0.3714 -0.9285
vn 0.0000 -1.0000 -0.0000
vn -0.2260 0.8630 0.4519
vn -0.2260 0.8630 -0.4519
vn 0.2260 0.8629 -0.4520
vn 0.2260 0.8629 0.4520
vn -0.3068 0.9518 0.0000
vn 0.0000 0.5967 0.8024
vn 0.3068 0.9518 0.0000
vn 0.0000 0.5967 -0.8024
vn 0.8489 0.5286 0.0000
vn 0.0000 0.6557 -0.7550
vn 0.0000 0.6557 0.7550
vn 0.6504 0.7596 0.0000
vn -0.6501 0.7598 0.0000
vn -0.8489 0.5286 0.0000
vn 0.0000 0.0303 -0.9995
vn 0.0000 0.0303 0.9995
vn 0.7288 -0.6847 0.0000
vn -0.7288 -0.6847 0.0000
vn 0.0000 -0.6911 -0.7227
vn 0.0000 -0.6911 0.7227
vn -0.7337 0.6795 0.0000
vn 0.0000 0.6859 -0.7277
vn 0.0000 0.6859 0.7277
vn 0.7337 0.6795 0.0000
vn 0.9119 0.4104 0.0000
vn -0.9119 0.4104 0.0000
vn 0.0000 0.4164 0.9092
vn 0.0000 0.4164 -0.9092
usemtl RHIGH.063
s off
f 67/1/1 65/2/1 66/3/1 68/4/1
f 71/5/2 69/6/2 70/7/2 72/8/2
f 79/9/3 77/10/3 78/11/3 80/12/3
f 75/13/4 73/14/4 74/15/4 76/16/4
f 68/4/5 70/7/5 69/6/5 67/1/5
f 72/8/6 78/11/6 77/10/6 71/5/6
f 80/12/7 74/15/7 73/14/7 79/9/7
f 76/16/8 66/3/8 65/2/8 75/13/8
f 69/6/9 71/5/9 77/10/9 79/9/9 73/14/9 75/13/9 65/2/9 67/1/9
f 66/3/10 76/16/10 86/17/10 81/18/10
f 80/12/11 78/11/11 87/19/11 88/20/11
f 74/15/12 80/12/12 88/20/12 85/21/12
f 78/11/13 72/8/13 84/22/13 87/19/13
f 72/8/14 70/7/14 83/23/14 84/22/14
f 70/7/15 68/4/15 82/24/15 83/23/15
f 68/4/16 66/3/16 81/18/16 82/24/16
f 76/16/17 74/15/17 85/21/17 86/17/17
f 89/25/18 90/26/18 91/27/18 92/28/18
f 93/29/10 94/30/10 90/31/10 89/32/10
f 94/30/19 93/29/19 101/33/19 102/34/19
f 92/28/12 91/27/12 107/35/12 108/36/12
f 106/37/15 105/38/15 102/34/15 101/33/15
usemtl RLOW.063
f 91/39/12 6/40/12 14/41/12 95/42/12 107/43/12
f 103/44/20 25/45/20 23/46/20 100/47/20
f 98/48/21 11/49/21 9/50/21 96/51/21
f 93/52/19 18/53/19 16/54/19 101/55/19
f 94/56/10 20/57/10 7/58/10 90/59/10
f 97/60/13 13/61/13 28/62/13 99/63/13
f 104/64/15 27/65/15 21/66/15 102/67/15 105/68/15
f 90/69/18 7/70/18 6/40/18 91/39/18
f 3/71/22 1/72/22 2/73/22 4/74/22
f 29/75/23 30/76/23 6/77/23 7/78/23
f 31/79/24 32/80/24 13/81/24 14/82/24
f 10/83/25 8/84/25 9/85/25 11/86/25
f 33/87/26 34/88/26 27/65/26 28/62/26
f 24/89/27 22/90/27 23/91/27 25/92/27
f 35/93/28 36/94/28 20/57/28 21/66/28
f 17/95/29 15/96/29 16/97/29 18/98/29
f 4/74/30 9/85/30 8/84/30 3/71/30
f 11/86/31 23/91/31 22/90/31 10/83/31
f 25/45/32 16/54/32 15/96/32 24/89/32
f 18/98/33 2/73/33 1/72/33 17/95/33
f 30/76/34 31/79/34 14/82/34 6/77/34
f 36/94/35 29/75/35 7/78/35 20/57/35
f 21/66/36 27/65/36 34/88/36 35/93/36
f 28/62/37 13/81/37 32/80/37 33/87/37
f 8/84/38 10/83/38 22/90/38 24/89/38 15/96/38 17/95/38 1/72/38 3/71/38
f 5/99/39 30/76/39 29/75/39
f 12/100/40 32/80/40 31/79/40
f 26/101/41 34/88/41 33/87/41
f 19/102/42 36/94/42 35/93/42
f 5/99/43 12/100/43 31/79/43 30/76/43
f 19/102/44 5/99/44 29/75/44 36/94/44
f 26/101/45 19/102/45 35/93/45 34/88/45
f 12/100/46 26/101/46 33/87/46 32/80/46
f 40/103/47 39/104/47 43/105/47 44/106/47
f 26/101/48 12/100/48 38/107/48 39/104/48
f 5/99/49 19/102/49 40/103/49 37/108/49
f 19/102/50 26/101/50 39/104/50 40/103/50
f 12/100/51 5/99/51 37/108/51 38/107/51
f 38/107/52 37/108/52 41/109/52 42/110/52
f 39/104/53 38/107/53 42/110/53 43/105/53
f 37/108/54 40/103/54 44/106/54 41/109/54
f 44/106/55 43/105/55 47/111/55 48/112/55
f 42/110/56 41/109/56 45/113/56 46/114/56
f 43/105/57 42/110/57 46/114/57 47/111/57
f 41/109/58 44/106/58 48/112/58 45/113/58
f 50/115/59 49/116/59 53/117/59 54/118/59
f 46/114/12 45/113/12 49/116/12 50/115/12
f 52/119/10 49/116/10 45/113/10 48/112/10
f 56/120/9 55/121/9 59/122/9 60/123/9
f 51/124/60 50/115/60 54/118/60 55/121/60
f 49/116/61 52/119/61 56/120/61 53/117/61
f 52/119/62 51/124/62 55/121/62 56/120/62
f 47/111/13 46/114/13 50/115/13 51/124/13
f 51/124/15 52/119/15 48/112/15 47/111/15
f 54/118/9 53/117/9 57/125/9 58/126/9
f 55/121/9 54/118/9 58/126/9 59/122/9
f 53/117/9 56/120/9 60/123/9 57/125/9
f 58/126/63 57/125/63 61/127/63 62/128/63
f 60/123/64 59/122/64 63/129/64 64/130/64
f 59/122/65 58/126/65 62/128/65 63/129/65
f 57/125/66 60/123/66 64/130/66 61/127/66
f 2/131/18 89/132/18 92/133/18 4/134/18
f 25/45/15 103/44/15 106/135/15 101/55/15 16/54/15
f 103/44/15 104/64/15 105/68/15 106/135/15
f 11/49/13 98/48/13 100/47/13 23/46/13
f 98/48/13 97/60/13 99/63/13 100/47/13
f 18/53/10 93/52/10 89/136/10 2/137/10
f 20/57/19 94/56/19 102/67/19 21/66/19
f 13/61/21 97/60/21 95/42/21 14/41/21
f 97/60/21 98/48/21 96/51/21 95/42/21
f 27/65/20 104/64/20 99/63/20 28/62/20
f 104/64/20 103/44/20 100/47/20 99/63/20
f 4/134/12 92/133/12 108/138/12 96/51/12 9/50/12
f 108/138/12 107/43/12 95/42/12 96/51/12
