# Blender v2.91.0 OBJ File: 'Red_Potion_4.blend'
# www.blender.org
mtllib Red_Potion_4.mtl
o Red_Potion_4_Cylinder.087
v 0.021886 0.099935 0.001712
v 0.016351 0.102720 0.012351
v 0.012083 0.115686 0.012333
v 0.009521 0.121263 0.001660
v 0.012174 0.115686 -0.008992
v 0.016442 0.102720 -0.008974
v 0.046134 0.140310 -0.008847
v 0.037400 0.148988 -0.008884
v 0.032988 0.153328 0.001760
v 0.037309 0.148988 0.012441
v 0.046043 0.140310 0.012478
v 0.050455 0.135970 0.001834
v 0.067019 0.147824 -0.007727
v 0.066846 0.158944 -0.007728
v 0.066718 0.164504 0.001903
v 0.066764 0.158944 0.011535
v 0.066937 0.147824 0.011536
v 0.067065 0.142263 0.001905
v 0.088636 0.134099 -0.007635
v 0.096484 0.141979 -0.007601
v 0.100367 0.145919 0.002047
v 0.096402 0.141979 0.011662
v 0.088554 0.134099 0.011628
v 0.084671 0.130159 0.001980
v 0.093749 0.113984 -0.007613
v 0.104864 0.114353 -0.007566
v 0.110381 0.114538 0.002090
v 0.104782 0.114353 0.011698
v 0.093667 0.113984 0.011650
v 0.088150 0.113799 0.001995
v 0.089633 0.094010 -0.007630
v 0.098840 0.087771 -0.007591
v 0.103402 0.084651 0.002060
v 0.098758 0.087771 0.011672
v 0.089551 0.094010 0.011633
v 0.084989 0.097129 0.001981
v 0.064026 0.067580 -0.007740
v 0.070005 0.060193 -0.007714
v 0.072709 0.055357 0.001929
v 0.069923 0.060193 0.011549
v 0.063944 0.067580 0.011523
v 0.061241 0.072416 0.001880
v -0.032642 0.218290 -0.017158
v -0.035950 0.212555 -0.019087
v -0.032789 0.218290 0.017209
v -0.036113 0.212555 0.019110
v -0.003099 0.218290 0.034520
v -0.003116 0.212555 0.038349
v 0.026737 0.218289 0.017463
v 0.030045 0.212555 0.019392
v 0.026884 0.218289 -0.016904
v 0.030208 0.212555 -0.018805
v -0.002806 0.218289 -0.034215
v -0.002790 0.212555 -0.038044
v -0.035951 0.189161 -0.019087
v -0.036113 0.189161 0.019110
v -0.002790 0.189161 -0.038044
v -0.003116 0.189161 0.038349
v 0.030045 0.189161 0.019392
v 0.030208 0.189161 -0.018805
v -0.019615 0.189161 0.028730
v 0.013709 0.189161 -0.028424
v -0.069498 -0.172103 -0.038967
v -0.117816 -0.126183 -0.067139
v -0.002485 -0.172103 -0.077276
v -0.002247 -0.126184 -0.133207
v 0.064198 -0.172104 -0.038397
v 0.112755 -0.126184 -0.066156
v 0.063869 -0.172103 0.038793
v 0.112188 -0.126184 0.066965
v -0.003143 -0.172103 0.077103
v -0.003382 -0.126183 0.133033
v -0.069827 -0.172103 0.038223
v -0.118383 -0.126183 0.065982
v -0.115034 0.066045 -0.065518
v -0.002532 0.190983 -0.065878
v -0.059929 0.190983 0.032564
v -0.002259 0.066044 -0.129989
v 0.054023 0.190983 0.033050
v 0.109962 0.066044 -0.064559
v -0.003093 0.190983 0.065702
v 0.109408 0.066044 0.065343
v 0.054303 0.190983 -0.032740
v -0.003367 0.066045 0.129814
v -0.059648 0.190983 -0.033226
v -0.115588 0.066045 0.064384
v -0.055180 0.200623 0.029850
v -0.003070 0.200623 0.060232
v 0.049298 0.200623 0.030295
v 0.049555 0.200622 -0.030025
v -0.002555 0.200623 -0.060408
v -0.054923 0.200623 -0.030471
v -0.054923 0.181343 -0.030471
v -0.002556 0.181343 -0.060408
v 0.049555 0.181343 -0.030025
v 0.049298 0.181343 0.030295
v -0.003070 0.181343 0.060233
v -0.055180 0.181344 0.029850
v -0.036040 0.170499 0.018908
v -0.002976 0.170499 0.038186
v 0.030251 0.170498 0.019190
v 0.030414 0.170498 -0.019083
v -0.002650 0.170498 -0.038361
v -0.035877 0.170499 -0.019366
v -0.035877 0.115070 -0.019365
v -0.002650 0.115069 -0.038361
v 0.030414 0.115069 -0.019083
v 0.030251 0.115069 0.019190
v -0.002976 0.115070 0.038186
v -0.036040 0.115070 0.018908
v -0.042401 0.200623 0.022544
v -0.003007 0.200623 0.045513
v 0.036582 0.200623 0.022881
v 0.036776 0.200623 -0.022720
v -0.002618 0.200623 -0.045689
v -0.042207 0.200623 -0.023057
v -0.035020 0.194068 0.018324
v -0.002971 0.194068 0.037010
v 0.029236 0.194068 0.018598
v 0.029394 0.194068 -0.018500
v -0.002654 0.194068 -0.037186
v -0.034861 0.194068 -0.018774
vt 0.725273 0.992286
vt 0.725236 0.992286
vt 0.725238 0.992281
vt 0.725271 0.992281
vt 0.725199 0.992286
vt 0.725201 0.992281
vt 0.725162 0.992286
vt 0.725163 0.992281
vt 0.725124 0.992286
vt 0.725126 0.992281
vt 0.725087 0.992286
vt 0.725089 0.992281
vt 0.725050 0.992286
vt 0.725052 0.992281
vt 0.725217 0.992274
vt 0.725259 0.992250
vt 0.725259 0.992201
vt 0.725217 0.992177
vt 0.725176 0.992201
vt 0.725176 0.992250
vt 0.725273 0.992320
vt 0.725236 0.992320
vt 0.725199 0.992320
vt 0.725162 0.992320
vt 0.725087 0.992320
vt 0.725050 0.992320
vt 0.725124 0.992320
vt 0.725106 0.992320
vt 0.725217 0.992320
vt 0.229597 0.959236
vt 0.229880 0.959236
vt 0.229880 0.959236
vt 0.229597 0.959236
vt 0.228747 0.959236
vt 0.229031 0.959236
vt 0.229031 0.959236
vt 0.228747 0.959236
vt 0.230163 0.959236
vt 0.230163 0.959236
vt 0.228464 0.959236
vt 0.228464 0.959236
vt 0.229314 0.959236
vt 0.229314 0.959236
vt 0.229031 0.959236
vt 0.229314 0.959236
vt 0.229880 0.959236
vt 0.230163 0.959236
vt 0.229597 0.959236
vt 0.228464 0.959236
vt 0.228747 0.959236
vt 0.229597 0.959236
vt 0.229880 0.959236
vt 0.228464 0.959236
vt 0.228747 0.959236
vt 0.229031 0.959236
vt 0.229314 0.959236
vt 0.230163 0.959236
vt 0.229031 0.959236
vt 0.229314 0.959236
vt 0.229880 0.959236
vt 0.230163 0.959236
vt 0.229597 0.959236
vt 0.228464 0.959236
vt 0.228747 0.959236
vt 0.229597 0.959236
vt 0.229880 0.959236
vt 0.228464 0.959236
vt 0.228747 0.959236
vt 0.229031 0.959236
vt 0.229314 0.959236
vt 0.230163 0.959236
vt 0.229031 0.959236
vt 0.229314 0.959236
vt 0.229880 0.959236
vt 0.230163 0.959236
vt 0.229597 0.959236
vt 0.228464 0.959236
vt 0.228747 0.959236
vt 0.232236 0.945764
vt 0.232236 0.946394
vt 0.232006 0.946394
vt 0.232006 0.945764
vt 0.231775 0.945764
vt 0.231775 0.946394
vt 0.231544 0.946394
vt 0.231544 0.945764
vt 0.231313 0.946394
vt 0.231313 0.945764
vt 0.231082 0.946394
vt 0.231082 0.945764
vt 0.231544 0.946394
vt 0.231775 0.946394
vt 0.231775 0.946394
vt 0.231544 0.946394
vt 0.232467 0.945764
vt 0.232248 0.945734
vt 0.232456 0.945734
vt 0.232017 0.945734
vt 0.231786 0.945734
vt 0.231555 0.945734
vt 0.231324 0.945734
vt 0.231532 0.945734
vt 0.231093 0.945734
vt 0.232121 0.945687
vt 0.232380 0.945537
vt 0.232380 0.945238
vt 0.232121 0.945088
vt 0.231862 0.945238
vt 0.231862 0.945537
vt 0.232006 0.946394
vt 0.232236 0.946394
vt 0.232236 0.946394
vt 0.232006 0.946394
vt 0.231544 0.946394
vt 0.231775 0.946394
vt 0.231313 0.946394
vt 0.231313 0.946394
vt 0.232467 0.946394
vt 0.232467 0.946394
vt 0.231775 0.946394
vt 0.231544 0.946394
vt 0.232467 0.946394
vt 0.231082 0.946394
vt 0.231313 0.946394
vt 0.231082 0.946394
vt 0.231313 0.946394
vt 0.232236 0.946394
vt 0.232467 0.946394
vt 0.232467 0.946394
vt 0.232236 0.946394
vt 0.232006 0.946394
vt 0.232006 0.946394
vt 0.232006 0.946394
vt 0.232236 0.946394
vt 0.231082 0.946394
vt 0.231313 0.946394
vt 0.231544 0.946394
vt 0.231082 0.946394
vt 0.232467 0.946394
vt 0.231082 0.946394
vt 0.231775 0.946394
vt 0.232006 0.946394
vt 0.231775 0.946394
vt 0.231313 0.946394
vt 0.231082 0.946394
vt 0.231544 0.946394
vt 0.232236 0.946394
vt 0.232467 0.946394
vt 0.231544 0.946394
vt 0.231313 0.946394
vt 0.232236 0.946394
vt 0.232006 0.946394
vt 0.231775 0.946394
vt 0.232467 0.946394
vt 0.231082 0.946394
vn -0.8657 0.5006 -0.0037
vn -0.4360 0.5006 0.7478
vn 0.4296 0.5006 0.7515
vn 0.8657 0.5006 0.0037
vn 0.4360 0.5006 -0.7478
vn -0.4296 0.5006 -0.7515
vn 0.0000 1.0000 -0.0000
vn -1.0000 0.0000 -0.0043
vn 0.4963 0.0000 0.8681
vn -0.4963 -0.0000 -0.8681
vn 0.5037 -0.0000 -0.8639
vn 1.0000 -0.0000 0.0043
vn -0.5037 0.0000 0.8639
vn -0.7036 0.5256 -0.4782
vn 0.6792 -0.5392 0.4980
vn 0.0043 -0.0000 -1.0000
vn 0.6834 -0.5392 -0.4921
vn -0.0043 0.0000 1.0000
vn -0.7076 0.5256 0.4722
vn 0.0311 0.0159 0.9994
vn 0.0397 0.0159 -0.9991
vn -0.2752 0.8396 0.4683
vn -0.2712 0.8396 -0.4707
vn 0.3182 -0.8235 -0.4697
vn 0.3141 -0.8235 0.4724
vn 0.4351 0.7711 -0.4647
vn -0.4857 -0.7405 -0.4644
vn -0.4896 -0.7405 0.4603
vn 0.4312 0.7711 0.4684
vn 0.8402 0.2626 0.4744
vn 0.8443 0.2626 -0.4672
vn -0.8587 -0.2027 -0.4707
vn -0.8627 -0.2027 0.4634
vn 0.8566 -0.1968 -0.4771
vn -0.8584 0.1709 -0.4836
vn -0.8625 0.1709 0.4763
vn 0.8525 -0.1968 0.4844
vn 0.6001 -0.6303 0.4926
vn 0.6043 -0.6303 -0.4874
vn -0.6254 0.6056 -0.4921
vn -0.6296 0.6056 0.4868
vn 0.5036 0.0145 -0.8638
vn 0.4963 0.0145 0.8681
vn -0.5036 0.0145 0.8638
vn -0.9999 0.0145 -0.0043
vn 0.9999 0.0145 0.0043
vn 0.4454 -0.4410 0.7792
vn -0.3415 -0.7257 -0.5973
vn 0.3465 -0.7257 -0.5943
vn 0.6880 -0.7257 0.0029
vn 0.3414 -0.7257 0.5973
vn -0.3465 -0.7257 0.5943
vn -0.6880 -0.7257 -0.0029
vn -0.0000 -1.0000 0.0000
vn 0.2488 -0.8695 -0.4267
vn 0.2451 -0.8695 0.4288
vn 0.4939 -0.8695 0.0021
vn -0.2488 -0.8695 0.4267
vn -0.2451 -0.8695 -0.4288
vn 0.4454 0.4410 0.7792
vn -0.4963 0.0145 -0.8681
vn -0.8975 -0.4410 -0.0038
vn -0.4521 0.4410 0.7753
vn -0.4454 0.4410 -0.7792
vn 0.4521 0.4410 -0.7753
vn -0.4454 -0.4410 -0.7792
vn -0.4521 -0.4410 0.7753
vn -0.8975 0.4410 -0.0038
vn 0.4521 -0.4410 -0.7753
vn 0.8975 0.4410 0.0038
vn 0.8975 -0.4410 0.0038
vn -0.4939 -0.8695 -0.0021
vn 0.3349 0.7469 -0.5744
vn -0.3349 0.7469 0.5744
vn -0.3300 0.7469 -0.5772
vn 0.3300 0.7469 0.5772
vn -0.6649 0.7469 -0.0028
vn 0.6649 0.7469 0.0028
vn -0.5256 0.8507 -0.0022
vn -0.2647 0.8507 0.4541
vn 0.2609 0.8507 0.4563
vn 0.5256 0.8507 0.0022
vn 0.2647 0.8507 -0.4541
vn -0.2609 0.8507 -0.4563
usemtl RHIGH.061
s off
f 44/1/1 46/2/1 45/3/1 43/4/1
f 46/2/2 48/5/2 47/6/2 45/3/2
f 48/5/3 50/7/3 49/8/3 47/6/3
f 50/7/4 52/9/4 51/10/4 49/8/4
f 52/9/5 54/11/5 53/12/5 51/10/5
f 54/11/6 44/13/6 43/14/6 53/12/6
f 43/15/7 45/16/7 47/17/7 49/18/7 51/19/7 53/20/7
f 44/1/8 55/21/8 56/22/8 46/2/8
f 48/5/9 58/23/9 59/24/9 50/7/9
f 54/11/10 57/25/10 55/26/10 44/13/10
f 52/9/11 60/27/11 62/28/11 57/25/11 54/11/11
f 50/7/12 59/24/12 60/27/12 52/9/12
f 46/2/13 56/22/13 61/29/13 58/23/13 48/5/13
usemtl RLOW.061
f 9/30/14 8/31/14 5/32/14 4/33/14
f 12/34/15 11/35/15 2/36/15 1/37/15
f 8/31/16 7/38/16 6/39/16 5/32/16
f 7/40/17 12/34/17 1/37/17 6/41/17
f 11/35/18 10/42/18 3/43/18 2/36/18
f 10/42/19 9/30/19 4/33/19 3/43/19
f 10/42/20 11/35/20 17/44/20 16/45/20
f 7/38/21 8/31/21 14/46/21 13/47/21
f 9/30/22 10/42/22 16/45/22 15/48/22
f 8/31/23 9/30/23 15/48/23 14/46/23
f 12/34/24 7/40/24 13/49/24 18/50/24
f 11/35/25 12/34/25 18/50/25 17/44/25
f 14/46/26 15/48/26 21/51/26 20/52/26
f 18/50/27 13/49/27 19/53/27 24/54/27
f 17/44/28 18/50/28 24/54/28 23/55/28
f 16/45/18 17/44/18 23/55/18 22/56/18
f 13/47/16 14/46/16 20/52/16 19/57/16
f 15/48/29 16/45/29 22/56/29 21/51/29
f 22/56/18 23/55/18 29/58/18 28/59/18
f 19/57/16 20/52/16 26/60/16 25/61/16
f 21/51/30 22/56/30 28/59/30 27/62/30
f 20/52/31 21/51/31 27/62/31 26/60/31
f 24/54/32 19/53/32 25/63/32 30/64/32
f 23/55/33 24/54/33 30/64/33 29/58/33
f 26/60/34 27/62/34 33/65/34 32/66/34
f 30/64/35 25/63/35 31/67/35 36/68/35
f 29/58/36 30/64/36 36/68/36 35/69/36
f 28/59/18 29/58/18 35/69/18 34/70/18
f 25/61/16 26/60/16 32/66/16 31/71/16
f 27/62/37 28/59/37 34/70/37 33/65/37
f 34/70/18 35/69/18 41/72/18 40/73/18
f 31/71/16 32/66/16 38/74/16 37/75/16
f 33/65/38 34/70/38 40/73/38 39/76/38
f 32/66/39 33/65/39 39/76/39 38/74/39
f 36/68/40 31/67/40 37/77/40 42/78/40
f 35/69/41 36/68/41 42/78/41 41/72/41
f 66/79/42 78/80/42 80/81/42 68/82/42
f 70/83/43 82/84/43 84/85/43 72/86/43
f 72/86/44 84/85/44 86/87/44 74/88/44
f 74/88/45 86/87/45 75/89/45 64/90/45
f 68/82/46 80/81/46 82/84/46 70/83/46
f 97/91/47 96/92/47 79/93/47 81/94/47
f 64/95/48 66/79/48 65/96/48 63/97/48
f 66/79/49 68/82/49 67/98/49 65/96/49
f 68/82/50 70/83/50 69/99/50 67/98/50
f 70/83/51 72/86/51 71/100/51 69/99/51
f 72/86/52 74/88/52 73/101/52 71/102/52
f 74/88/53 64/90/53 63/103/53 73/101/53
f 63/104/54 65/105/54 67/106/54 69/107/54 71/108/54 73/109/54
f 102/110/55 103/111/55 94/112/55 95/113/55
f 100/114/56 101/115/56 96/92/56 97/91/56
f 101/115/57 102/110/57 95/113/57 96/92/57
f 99/116/58 100/114/58 97/91/58 98/117/58
f 103/111/59 104/118/59 93/119/59 94/112/59
f 81/94/60 79/93/60 89/120/60 88/121/60
f 64/95/61 75/122/61 78/80/61 66/79/61
f 93/123/62 98/117/62 77/124/62 85/125/62
f 77/124/63 81/94/63 88/121/63 87/126/63
f 76/127/64 85/128/64 92/129/64 91/130/64
f 83/131/65 76/127/65 91/130/65 90/132/65
f 94/112/66 93/119/66 85/128/66 76/127/66
f 107/133/11 106/134/11 103/111/11 102/110/11
f 98/117/67 97/91/67 81/94/67 77/124/67
f 85/125/68 77/124/68 87/126/68 92/135/68
f 95/113/69 94/112/69 76/127/69 83/131/69
f 79/93/70 83/131/70 90/132/70 89/120/70
f 96/92/71 95/113/71 83/131/71 79/93/71
f 110/136/13 109/137/13 100/114/13 99/116/13
f 104/138/72 99/116/72 98/117/72 93/123/72
f 106/134/10 105/139/10 104/118/10 103/111/10
f 105/140/8 110/136/8 99/116/8 104/138/8
f 109/137/9 108/141/9 101/115/9 100/114/9
f 108/141/12 107/133/12 102/110/12 101/115/12
f 89/120/7 90/132/7 114/142/7 113/143/7
f 92/135/7 87/126/7 111/144/7 116/145/7
f 88/121/7 89/120/7 113/143/7 112/146/7
f 90/132/7 91/130/7 115/147/7 114/142/7
f 91/130/7 92/129/7 116/148/7 115/147/7
f 87/126/7 88/121/7 112/146/7 111/144/7
f 111/144/73 112/146/73 118/149/73 117/150/73
f 114/142/74 115/147/74 121/151/74 120/152/74
f 112/146/75 113/143/75 119/153/75 118/149/75
f 115/147/76 116/148/76 122/154/76 121/151/76
f 113/143/77 114/142/77 120/152/77 119/153/77
f 116/145/78 111/144/78 117/150/78 122/155/78
f 86/87/79 110/136/79 105/140/79 75/89/79
f 84/85/80 109/137/80 110/136/80 86/87/80
f 82/84/81 108/141/81 109/137/81 84/85/81
f 80/81/82 107/133/82 108/141/82 82/84/82
f 78/80/83 106/134/83 107/133/83 80/81/83
f 75/89/84 105/140/84 106/134/84 78/80/84
