# Blender v2.91.0 OBJ File: 'Red_Potion_6(String).blend'
# www.blender.org
mtllib Red_Potion_6(String).mtl
o Red_Potion_6(String)_Cylinder.076
v -0.021782 0.135779 -0.000881
v -0.024194 0.132167 -0.000881
v -0.010960 0.135779 0.017864
v -0.012166 0.132167 0.019953
v 0.010684 0.135779 0.017864
v 0.011890 0.132167 0.019953
v 0.021506 0.135779 -0.000881
v 0.023918 0.132167 -0.000881
v 0.010684 0.135779 -0.019625
v 0.011890 0.132167 -0.021714
v -0.010960 0.135779 -0.019625
v -0.012166 0.132167 -0.021714
v -0.024194 0.117434 -0.000881
v -0.012166 0.117434 0.019953
v -0.012166 0.117434 -0.021714
v 0.011890 0.117434 0.019953
v 0.023918 0.117434 -0.000881
v 0.011890 0.117434 -0.021714
v -0.000138 0.117434 0.019953
v -0.000138 0.117434 -0.021714
v -0.059515 -0.076340 -0.001070
v -0.029827 -0.076340 -0.052492
v 0.029551 -0.076340 -0.052492
v 0.059239 -0.076340 -0.001070
v 0.029551 -0.076340 0.050353
v -0.101232 -0.033415 -0.001070
v -0.029827 -0.076340 0.050353
v -0.050685 -0.033415 -0.088620
v 0.050409 -0.033415 -0.088620
v -0.020855 0.118582 -0.036939
v -0.020855 0.118582 0.034827
v 0.100956 -0.033415 -0.001070
v 0.041296 0.118582 -0.001056
v 0.050409 -0.033415 0.086481
v 0.020579 0.118582 0.034827
v -0.050685 -0.033415 0.086481
v 0.020579 0.118582 -0.036939
v -0.046322 -0.054095 0.078923
v -0.041572 0.118582 -0.001056
v 0.046046 -0.054095 0.078923
v -0.019133 0.124653 0.031844
v 0.018857 0.124653 0.031844
v 0.037851 0.124653 -0.001056
v 0.018857 0.124653 -0.033956
v -0.019133 0.124653 -0.033956
v -0.038127 0.124653 -0.001056
v -0.038127 0.112511 -0.001056
v -0.019133 0.112511 -0.033956
v 0.018857 0.112511 -0.033956
v 0.037851 0.112511 -0.001056
v 0.018857 0.112511 0.031844
v -0.019133 0.112511 0.031844
v -0.012190 0.105681 0.019819
v 0.011914 0.105681 0.019819
v 0.023966 0.105681 -0.001056
v 0.011914 0.105681 -0.021931
v -0.012190 0.105681 -0.021931
v -0.024242 0.105681 -0.001056
v -0.026201 0.095317 -0.001070
v -0.013169 0.095317 -0.023641
v 0.012894 0.095317 -0.023641
v 0.025925 0.095317 -0.001070
v 0.012894 0.095317 0.021502
v -0.013169 0.095317 0.021502
v -0.014498 0.124653 0.023816
v 0.014222 0.124653 0.023816
v 0.028581 0.124653 -0.001056
v 0.014222 0.124653 -0.025927
v -0.014498 0.124653 -0.025927
v -0.028857 0.124653 -0.001056
v -0.011820 0.120525 0.019178
v 0.011544 0.120525 0.019178
v 0.023226 0.120525 -0.001056
v 0.011544 0.120525 -0.021290
v -0.011820 0.120525 -0.021290
v -0.023502 0.120525 -0.001056
v 0.092229 -0.054095 -0.001070
v 0.046046 -0.054095 -0.081062
v -0.046322 -0.054095 -0.081062
v -0.092505 -0.054095 -0.001070
v -0.013162 0.106099 0.021503
v 0.012886 0.106099 0.021503
v 0.025910 0.106099 -0.001055
v 0.012886 0.106099 -0.023613
v -0.013162 0.106099 -0.023613
v -0.026186 0.106099 -0.001055
v -0.026484 0.094899 -0.001070
v -0.013311 0.094899 -0.023886
v 0.013035 0.094899 -0.023886
v 0.026208 0.094899 -0.001070
v 0.013035 0.094899 0.021746
v -0.013311 0.094899 0.021746
v -0.031311 0.103567 -0.001054
v -0.032475 0.098372 -0.001072
v -0.016307 0.098372 -0.029077
v -0.015724 0.103567 -0.028050
v 0.015448 0.103567 0.025943
v 0.031035 0.103567 -0.001054
v -0.015724 0.103567 0.025943
v 0.015448 0.103567 -0.028050
v 0.032199 0.098372 -0.001072
v 0.016031 0.098372 -0.029077
v 0.016031 0.098372 0.026933
v -0.016307 0.098372 0.026933
v -0.013114 0.075889 0.034095
v -0.008643 0.095774 0.022943
v 0.001184 0.094089 0.023601
v -0.003338 0.073977 0.034881
v -0.005808 0.099204 0.025433
v -0.010932 0.076630 0.037962
v -0.001125 0.099190 0.026205
v -0.006450 0.075728 0.039232
v 0.004300 0.075218 0.035092
v 0.001787 0.094968 0.023118
v 0.011676 0.095607 0.021839
v 0.014218 0.075631 0.033950
v 0.004159 0.099083 0.024973
v 0.007140 0.077066 0.038222
v 0.008773 0.100180 0.024806
v 0.011866 0.077280 0.038590
v -0.020050 0.042882 0.048375
v -0.012171 0.042578 0.048572
v -0.017541 0.047043 0.049989
v -0.013804 0.046816 0.050843
v 0.016258 0.034867 0.053112
v 0.026176 0.035280 0.051971
v 0.018637 0.037970 0.055546
v 0.023363 0.038184 0.055914
v 0.015147 0.010240 0.064742
v 0.019628 0.009575 0.065141
v 0.016741 0.015126 0.066817
v 0.019894 0.014971 0.066900
vt 0.729696 0.988509
vt 0.729628 0.988509
vt 0.729631 0.988501
vt 0.729692 0.988501
vt 0.729560 0.988509
vt 0.729563 0.988501
vt 0.729492 0.988509
vt 0.729496 0.988501
vt 0.729424 0.988509
vt 0.729428 0.988501
vt 0.729357 0.988509
vt 0.729360 0.988501
vt 0.729289 0.988509
vt 0.729292 0.988501
vt 0.729594 0.988487
vt 0.729670 0.988443
vt 0.729670 0.988355
vt 0.729594 0.988311
vt 0.729518 0.988355
vt 0.729518 0.988443
vt 0.729696 0.988571
vt 0.729628 0.988571
vt 0.729560 0.988571
vt 0.729492 0.988571
vt 0.729357 0.988571
vt 0.729289 0.988571
vt 0.729424 0.988571
vt 0.729391 0.988571
vt 0.729594 0.988571
vt 0.727847 0.955954
vt 0.727847 0.955954
vt 0.728154 0.955954
vt 0.728154 0.955954
vt 0.726924 0.955954
vt 0.726924 0.955954
vt 0.727231 0.955954
vt 0.727231 0.955954
vt 0.728462 0.955954
vt 0.728462 0.955954
vt 0.726616 0.955954
vt 0.726616 0.955954
vt 0.727539 0.955954
vt 0.727539 0.955954
vt 0.727847 0.955954
vt 0.728154 0.955954
vt 0.728154 0.955954
vt 0.727847 0.955954
vt 0.726924 0.955954
vt 0.727231 0.955954
vt 0.727231 0.955954
vt 0.726924 0.955954
vt 0.728462 0.955954
vt 0.728462 0.955954
vt 0.726616 0.955954
vt 0.726616 0.955954
vt 0.727539 0.955954
vt 0.727539 0.955954
vt 0.726924 0.955954
vt 0.726924 0.955954
vt 0.727231 0.955954
vt 0.727231 0.955954
vt 0.726924 0.955954
vt 0.727231 0.955954
vt 0.727231 0.955954
vt 0.726924 0.955954
vt 0.726924 0.955954
vt 0.726924 0.955954
vt 0.727231 0.955954
vt 0.727231 0.955954
vt 0.726924 0.955954
vt 0.727231 0.955954
vt 0.727231 0.955954
vt 0.726924 0.955954
vt 0.726924 0.955954
vt 0.726924 0.955954
vt 0.726924 0.955954
vt 0.726924 0.955954
vt 0.726924 0.955954
vt 0.726924 0.955954
vt 0.726924 0.955954
vt 0.726924 0.955954
vt 0.726924 0.955954
vt 0.726924 0.955954
vt 0.726924 0.955954
vt 0.726924 0.955954
vt 0.232036 0.950512
vt 0.232036 0.950512
vt 0.232036 0.950512
vt 0.232036 0.950512
vt 0.229836 0.950179
vt 0.229836 0.950179
vt 0.230275 0.950432
vt 0.230275 0.950432
vt 0.229836 0.950179
vt 0.230275 0.950432
vt 0.230714 0.950179
vt 0.230714 0.950179
vt 0.230714 0.949672
vt 0.230714 0.949672
vt 0.230275 0.949418
vt 0.230275 0.949418
vt 0.231253 0.948220
vt 0.230862 0.948220
vt 0.230862 0.948220
vt 0.231253 0.948220
vt 0.232036 0.950512
vt 0.232036 0.950512
vt 0.232036 0.950512
vt 0.232036 0.950512
vt 0.232036 0.950512
vt 0.232036 0.950512
vt 0.232036 0.950512
vt 0.232036 0.950512
vt 0.230714 0.949672
vt 0.230275 0.949418
vt 0.229836 0.949672
vt 0.229836 0.949672
vt 0.229836 0.949672
vt 0.230714 0.950179
vt 0.230471 0.948220
vt 0.230080 0.948220
vt 0.230080 0.948220
vt 0.230471 0.948220
vt 0.231253 0.948220
vt 0.230862 0.948220
vt 0.231644 0.948220
vt 0.231644 0.948220
vt 0.229688 0.948220
vt 0.229688 0.948220
vt 0.230862 0.948220
vt 0.231253 0.948220
vt 0.232036 0.948220
vt 0.231644 0.948220
vt 0.232036 0.948220
vt 0.231644 0.948220
vt 0.230080 0.948220
vt 0.229688 0.948220
vt 0.229688 0.948220
vt 0.230080 0.948220
vt 0.230471 0.948220
vt 0.230471 0.948220
vt 0.230471 0.948220
vt 0.230080 0.948220
vt 0.232036 0.948220
vt 0.231644 0.948220
vt 0.231253 0.948220
vt 0.232036 0.948220
vt 0.229688 0.948220
vt 0.232036 0.948220
vt 0.230862 0.948220
vt 0.230471 0.948220
vt 0.230862 0.948220
vt 0.231644 0.948220
vt 0.232036 0.948220
vt 0.231253 0.948220
vt 0.230080 0.948220
vt 0.229688 0.948220
vt 0.231253 0.948220
vt 0.231644 0.948220
vt 0.230080 0.948220
vt 0.230471 0.948220
vt 0.230862 0.948220
vt 0.229688 0.948220
vt 0.232036 0.948220
vn -0.7497 0.5006 0.4328
vn 0.0000 0.5006 0.8657
vn 0.7497 0.5006 0.4328
vn 0.7497 0.5006 -0.4328
vn 0.0000 0.5006 -0.8657
vn -0.7497 0.5006 -0.4328
vn -0.0000 1.0000 -0.0000
vn -0.8660 0.0000 0.5000
vn 0.8660 0.0000 0.5000
vn -0.8660 -0.0000 -0.5000
vn 0.0000 -0.0000 -1.0000
vn 0.8660 -0.0000 -0.5000
vn 0.0000 0.0000 1.0000
vn 0.0000 -0.0244 0.9997
vn 0.0000 -0.0217 -0.9998
vn 0.8658 -0.0237 0.4999
vn 0.8658 -0.0224 -0.4999
vn -0.8658 -0.0224 -0.4999
vn -0.8658 -0.0237 0.4999
vn 0.0000 0.1939 -0.9810
vn 0.0000 0.1874 0.9823
vn -0.8499 0.1923 -0.4907
vn -0.8504 0.1890 0.4910
vn 0.8504 0.1890 0.4910
vn 0.8499 0.1923 -0.4907
vn -0.4816 -0.8311 -0.2781
vn 0.0000 0.8685 -0.4956
vn 0.0000 -0.8310 0.5563
vn 0.4291 0.8686 0.2477
vn 0.0000 -0.8311 -0.5561
vn 0.4816 -0.8311 -0.2781
vn -0.4291 0.8686 0.2477
vn -0.4292 0.8686 -0.2478
vn 0.4817 -0.8310 0.2781
vn -0.4817 -0.8310 0.2781
vn 0.0000 0.8687 0.4954
vn 0.4292 0.8686 -0.2478
vn -0.0246 -0.4848 -0.8743
vn -0.1394 0.5046 0.8520
vn 0.8343 0.1125 0.5396
vn -0.8282 0.4039 0.3886
vn -0.0758 -0.5240 -0.8483
vn -0.0893 0.5047 0.8587
vn 0.8814 0.3237 0.3441
vn -0.7975 0.2315 0.5571
vn -0.1763 0.4047 0.8973
vn 0.0011 -0.3986 -0.9171
vn -0.8431 0.3530 0.4058
vn 0.8208 0.0192 0.5708
vn -0.1008 -0.4090 0.9069
vn -0.0858 -0.4274 -0.9000
vn -0.7564 0.0662 0.6507
vn 0.8648 0.3939 0.3114
vn -0.0890 0.3815 0.9201
vn 0.9175 0.0084 0.3976
vn -0.0540 -0.4347 -0.8990
vn -0.8976 0.2363 0.3721
vn -0.0547 0.4396 0.8965
vn -0.0950 -0.3327 0.9382
vn 0.7731 0.4506 -0.4464
vn 0.8134 -0.3433 -0.4696
vn 0.5320 -0.7890 -0.3072
vn 0.8134 -0.3433 0.4696
vn -0.5320 -0.7890 0.3072
vn 0.7772 -0.4410 0.4487
vn -0.7731 0.4506 -0.4464
vn 0.0000 0.4506 0.8927
vn 0.0000 0.4506 -0.8927
vn 0.0000 -0.3433 0.9392
vn -0.8134 -0.3433 -0.4696
vn 0.0000 -1.0000 -0.0000
vn 0.0000 -0.8695 -0.4939
vn 0.4277 -0.8695 0.2469
vn 0.4277 -0.8695 -0.2469
vn 0.0000 -0.8695 0.4939
vn -0.4277 -0.8695 -0.2469
vn 0.7772 0.4410 0.4487
vn -0.7731 0.4506 0.4464
vn -0.7772 -0.4410 0.4487
vn 0.0000 0.4410 0.8975
vn -0.7772 0.4410 -0.4487
vn 0.0000 0.4410 -0.8975
vn -0.7772 -0.4410 -0.4487
vn 0.0000 0.1628 -0.9867
vn 0.0000 -0.4410 0.8975
vn -0.7772 0.4410 0.4487
vn 0.0000 -0.4410 -0.8975
vn 0.7772 0.4410 -0.4487
vn 0.7772 -0.4410 -0.4487
vn 0.0000 0.1602 0.9871
vn -0.4277 -0.8695 0.2469
vn -0.8546 0.1622 -0.4934
vn -0.8547 0.1609 0.4935
vn 0.8547 0.1609 0.4935
vn 0.5320 -0.7890 0.3072
vn 0.8546 0.1622 -0.4934
vn -0.5320 -0.7890 -0.3072
vn 0.0000 -0.7890 0.6143
vn 0.0000 -0.3433 -0.9392
vn 0.0000 -0.7890 -0.6143
vn 0.0000 0.7469 -0.6649
vn 0.0000 0.7469 0.6649
vn -0.5758 0.7469 -0.3324
vn 0.5758 0.7469 0.3324
vn -0.5758 0.7469 0.3324
vn 0.5758 0.7469 -0.3324
vn 0.7731 0.4506 0.4464
vn -0.8134 -0.3433 0.4696
usemtl RHIGH.065
s off
f 2/1/1 4/2/1 3/3/1 1/4/1
f 4/2/2 6/5/2 5/6/2 3/3/2
f 6/5/3 8/7/3 7/8/3 5/6/3
f 8/7/4 10/9/4 9/10/4 7/8/4
f 10/9/5 12/11/5 11/12/5 9/10/5
f 12/11/6 2/13/6 1/14/6 11/12/6
f 1/15/7 3/16/7 5/17/7 7/18/7 9/19/7 11/20/7
f 2/1/8 13/21/8 14/22/8 4/2/8
f 6/5/9 16/23/9 17/24/9 8/7/9
f 12/11/10 15/25/10 13/26/10 2/13/10
f 10/9/11 18/27/11 20/28/11 15/25/11 12/11/11
f 8/7/12 17/24/12 18/27/12 10/9/12
f 4/2/13 14/22/13 19/29/13 16/23/13 6/5/13
f 89/30/14 84/31/14 85/32/14 88/33/14
f 92/34/15 81/35/15 82/36/15 91/37/15
f 88/33/16 85/32/16 86/38/16 87/39/16
f 87/40/17 86/41/17 81/35/17 92/34/17
f 91/37/18 82/36/18 83/42/18 90/43/18
f 90/43/19 83/42/19 84/31/19 89/30/19
f 102/44/20 95/45/20 96/46/20 100/47/20
f 104/48/21 103/49/21 97/50/21 99/51/21
f 95/45/22 94/52/22 93/53/22 96/46/22
f 94/54/23 104/48/23 99/51/23 93/55/23
f 103/49/24 101/56/24 98/57/24 97/50/24
f 101/56/25 102/44/25 100/47/25 98/57/25
f 88/33/26 87/39/26 94/52/26 95/45/26
f 85/32/27 84/31/27 100/47/27 96/46/27
f 92/34/28 91/37/28 103/49/28 104/48/28
f 83/42/29 82/36/29 97/50/29 98/57/29
f 89/30/30 88/33/30 95/45/30 102/44/30
f 90/43/31 89/30/31 102/44/31 101/56/31
f 81/35/32 86/41/32 93/55/32 99/51/32
f 86/38/33 85/32/33 96/46/33 93/53/33
f 91/37/34 90/43/34 101/56/34 103/49/34
f 87/40/35 92/34/35 104/48/35 94/54/35
f 82/36/36 81/35/36 99/51/36 97/50/36
f 84/31/37 83/42/37 98/57/37 100/47/37
f 108/58/38 105/59/38 106/60/38 107/61/38
f 112/62/39 111/63/39 109/64/39 110/65/39
f 108/58/40 107/61/40 111/63/40 112/62/40
f 106/60/41 105/59/41 110/65/41 109/64/41
f 116/66/42 113/67/42 114/68/42 115/69/42
f 120/70/43 119/71/43 117/72/43 118/73/43
f 116/66/44 115/69/44 119/71/44 120/70/44
f 114/68/45 113/67/45 118/73/45 117/72/45
f 112/62/46 110/65/46 123/74/46 124/75/46
f 105/59/47 108/58/47 122/76/47 121/77/47
f 110/65/48 105/59/48 121/77/48 123/74/48
f 108/58/49 112/62/49 124/75/49 122/76/49
f 121/77/50 122/76/50 124/75/50 123/74/50
f 113/67/51 116/66/51 126/78/51 125/79/51
f 118/73/52 113/67/52 125/79/52 127/80/52
f 116/66/53 120/70/53 128/81/53 126/78/53
f 120/70/54 118/73/54 127/80/54 128/81/54
f 126/78/55 128/81/55 132/82/55 130/83/55
f 125/79/56 126/78/56 130/83/56 129/84/56
f 127/80/57 125/79/57 129/84/57 131/85/57
f 128/81/58 127/80/58 131/85/58 132/82/58
f 129/84/59 130/83/59 132/82/59 131/85/59
usemtl RLOW.065
f 62/86/60 32/87/60 29/88/60 61/89/60
f 78/90/61 29/91/61 32/92/61 77/93/61
f 23/94/62 78/90/62 77/93/62 24/95/62
f 77/93/63 32/92/63 34/96/63 40/97/63
f 27/98/64 38/99/64 80/100/64 21/101/64
f 51/102/65 50/103/65 33/104/65 35/105/65
f 60/106/66 28/107/66 26/108/66 59/109/66
f 64/110/67 36/111/67 34/112/67 63/113/67
f 61/89/68 29/88/68 28/107/68 60/106/68
f 40/97/69 34/96/69 36/114/69 38/99/69
f 80/100/70 26/115/70 28/116/70 79/117/70
f 21/101/71 22/118/71 23/94/71 24/95/71 25/119/71 27/98/71
f 56/120/72 57/121/72 48/122/72 49/123/72
f 54/124/73 55/125/73 50/103/73 51/102/73
f 55/125/74 56/120/74 49/123/74 50/103/74
f 53/126/75 54/124/75 51/102/75 52/127/75
f 57/121/76 58/128/76 47/129/76 48/122/76
f 35/105/77 33/104/77 43/130/77 42/131/77
f 59/109/78 26/108/78 36/111/78 64/110/78
f 47/132/79 52/127/79 31/133/79 39/134/79
f 31/133/80 35/105/80 42/131/80 41/135/80
f 30/136/81 39/137/81 46/138/81 45/139/81
f 37/140/82 30/136/82 45/139/82 44/141/82
f 48/122/83 47/129/83 39/137/83 30/136/83
f 61/142/84 60/143/84 57/121/84 56/120/84
f 52/127/85 51/102/85 35/105/85 31/133/85
f 39/134/86 31/133/86 41/135/86 46/144/86
f 49/123/87 48/122/87 30/136/87 37/140/87
f 33/104/88 37/140/88 44/141/88 43/130/88
f 50/103/89 49/123/89 37/140/89 33/104/89
f 64/145/90 63/146/90 54/124/90 53/126/90
f 58/147/91 53/126/91 52/127/91 47/132/91
f 60/143/92 59/148/92 58/128/92 57/121/92
f 59/149/93 64/145/93 53/126/93 58/147/93
f 63/146/94 62/150/94 55/125/94 54/124/94
f 24/95/95 77/93/95 40/97/95 25/119/95
f 62/150/96 61/142/96 56/120/96 55/125/96
f 26/115/71 28/116/71 29/91/71 32/92/71 34/96/71 36/114/71
f 21/101/97 80/100/97 79/117/97 22/118/97
f 25/119/98 40/97/98 38/99/98 27/98/98
f 79/117/99 28/116/99 29/91/99 78/90/99
f 22/118/100 79/117/100 78/90/100 23/94/100
f 43/130/7 44/141/7 68/151/7 67/152/7
f 46/144/7 41/135/7 65/153/7 70/154/7
f 42/131/7 43/130/7 67/152/7 66/155/7
f 44/141/7 45/139/7 69/156/7 68/151/7
f 45/139/7 46/138/7 70/157/7 69/156/7
f 41/135/7 42/131/7 66/155/7 65/153/7
f 65/153/101 66/155/101 72/158/101 71/159/101
f 68/151/102 69/156/102 75/160/102 74/161/102
f 66/155/103 67/152/103 73/162/103 72/158/103
f 69/156/104 70/157/104 76/163/104 75/160/104
f 67/152/105 68/151/105 74/161/105 73/162/105
f 70/154/106 65/153/106 71/159/106 76/164/106
f 63/113/107 34/112/107 32/87/107 62/86/107
f 38/99/108 36/114/108 26/115/108 80/100/108
