# Blender v2.91.0 OBJ File: 'Red_Potion_3.blend'
# www.blender.org
mtllib Red_Potion_3.mtl
o Red_Potion_3_Cylinder.073
v -0.013396 0.167375 -0.022792
v -0.014869 0.162964 -0.025343
v -0.026615 0.167375 0.000103
v -0.029560 0.162964 0.000103
v -0.013396 0.167375 0.022998
v -0.014869 0.162964 0.025549
v 0.013040 0.167375 0.022998
v 0.014513 0.162964 0.025549
v 0.026259 0.167375 0.000103
v 0.029204 0.162964 0.000103
v 0.013040 0.167375 -0.022792
v 0.014513 0.162964 -0.025343
v -0.014869 0.144969 -0.025343
v -0.029560 0.144969 0.000103
v 0.014513 0.144969 -0.025343
v -0.014869 0.144969 0.025549
v 0.014513 0.144969 0.025549
v 0.029204 0.144969 0.000103
v -0.022215 0.144969 0.012826
v 0.021859 0.144969 -0.012620
v -0.029681 -0.111626 -0.051426
v -0.054685 -0.057186 -0.094735
v 0.029696 -0.111626 -0.051426
v 0.054700 -0.057186 -0.094735
v 0.059384 -0.111626 -0.000004
v 0.109393 -0.057186 -0.000004
v 0.029696 -0.111626 0.051418
v 0.054700 -0.057186 0.094726
v -0.029681 -0.111627 0.051418
v -0.054685 -0.057186 0.094726
v -0.059370 -0.111627 -0.000004
v -0.109378 -0.057186 -0.000004
v -0.052426 -0.001933 -0.090821
v 0.025311 0.146370 -0.043832
v -0.050601 0.146370 -0.000004
v 0.052440 -0.001933 -0.090821
v 0.025311 0.146370 0.043824
v 0.104873 -0.001933 -0.000004
v -0.025297 0.146370 0.043824
v 0.052440 -0.001933 0.090812
v 0.050615 0.146370 -0.000004
v -0.052426 -0.001933 0.090812
v -0.025297 0.146370 -0.043832
v -0.104858 -0.001933 -0.000004
v -0.046393 0.153785 -0.000004
v -0.023193 0.153785 0.040180
v 0.023208 0.153785 0.040180
v 0.046408 0.153785 -0.000004
v 0.023208 0.153785 -0.040188
v -0.023193 0.153785 -0.040188
v -0.023193 0.138955 -0.040188
v 0.023208 0.138955 -0.040188
v 0.046408 0.138955 -0.000004
v 0.023208 0.138955 0.040180
v -0.023193 0.138955 0.040180
v -0.046393 0.138955 -0.000004
v -0.029434 0.130613 -0.000004
v -0.014713 0.130613 0.025493
v 0.014728 0.130613 0.025493
v 0.029448 0.130613 -0.000004
v 0.014728 0.130613 -0.025501
v -0.014713 0.130613 -0.025501
v -0.014713 0.087976 -0.025501
v 0.014728 0.087976 -0.025501
v 0.029448 0.087976 -0.000004
v 0.014728 0.087976 0.025493
v -0.014713 0.087976 0.025493
v -0.029434 0.087976 -0.000004
v -0.053284 0.051827 -0.000004
v -0.026638 0.051827 0.046147
v 0.026653 0.051827 0.046147
v 0.053298 0.051827 -0.000004
v 0.026653 0.051827 -0.046155
v -0.026638 0.051827 -0.046155
v -0.035071 0.153785 -0.000004
v -0.017532 0.153785 0.030374
v 0.017546 0.153785 0.030374
v 0.035085 0.153785 -0.000004
v 0.017546 0.153785 -0.030383
v -0.017532 0.153785 -0.030383
v -0.028530 0.148743 -0.000004
v -0.014261 0.148743 0.024710
v 0.014276 0.148743 0.024710
v 0.028544 0.148743 -0.000004
v 0.014276 0.148743 -0.024718
v -0.014261 0.148743 -0.024718
vt 0.725420 0.991105
vt 0.725334 0.991105
vt 0.725339 0.991094
vt 0.725416 0.991094
vt 0.725248 0.991105
vt 0.725252 0.991094
vt 0.725162 0.991105
vt 0.725166 0.991094
vt 0.725244 0.991094
vt 0.725075 0.991105
vt 0.725080 0.991094
vt 0.724989 0.991105
vt 0.724993 0.991094
vt 0.724903 0.991105
vt 0.724907 0.991094
vt 0.725291 0.991076
vt 0.725388 0.991021
vt 0.725388 0.990909
vt 0.725291 0.990853
vt 0.725194 0.990909
vt 0.725194 0.991021
vt 0.725420 0.991184
vt 0.725334 0.991184
vt 0.725248 0.991184
vt 0.725162 0.991184
vt 0.724989 0.991184
vt 0.724903 0.991184
vt 0.725075 0.991184
vt 0.725032 0.991184
vt 0.725291 0.991184
vt 0.230832 0.966672
vt 0.230832 0.967065
vt 0.230688 0.967065
vt 0.230688 0.966672
vt 0.230544 0.966672
vt 0.230544 0.967065
vt 0.230400 0.967065
vt 0.230400 0.966672
vt 0.230256 0.967065
vt 0.230256 0.966672
vt 0.230112 0.967065
vt 0.230112 0.966672
vt 0.230400 0.967065
vt 0.230544 0.967065
vt 0.230544 0.967065
vt 0.230400 0.967065
vt 0.230976 0.966672
vt 0.230839 0.966653
vt 0.230969 0.966653
vt 0.230695 0.966653
vt 0.230551 0.966653
vt 0.230407 0.966653
vt 0.230537 0.966653
vt 0.230263 0.966653
vt 0.230119 0.966653
vt 0.230249 0.966653
vt 0.230760 0.966624
vt 0.230922 0.966531
vt 0.230922 0.966344
vt 0.230760 0.966251
vt 0.230599 0.966344
vt 0.230599 0.966531
vt 0.230688 0.967065
vt 0.230832 0.967065
vt 0.230832 0.967065
vt 0.230688 0.967065
vt 0.230400 0.967065
vt 0.230544 0.967065
vt 0.230256 0.967065
vt 0.230256 0.967065
vt 0.230976 0.967065
vt 0.230976 0.967065
vt 0.230544 0.967065
vt 0.230400 0.967065
vt 0.230976 0.967065
vt 0.230112 0.967065
vt 0.230256 0.967065
vt 0.230112 0.967065
vt 0.230256 0.967065
vt 0.230832 0.967065
vt 0.230976 0.967065
vt 0.230976 0.967065
vt 0.230832 0.967065
vt 0.230688 0.967065
vt 0.230688 0.967065
vt 0.230688 0.967065
vt 0.230832 0.967065
vt 0.230112 0.967065
vt 0.230832 0.967065
vt 0.230976 0.967065
vt 0.230976 0.967065
vt 0.230256 0.967065
vt 0.230400 0.967065
vt 0.230112 0.967065
vt 0.230112 0.967065
vt 0.230544 0.967065
vt 0.230544 0.967065
vt 0.230400 0.967065
vt 0.230256 0.967065
vt 0.230112 0.967065
vt 0.230688 0.967065
vt 0.230688 0.967065
vt 0.230544 0.967065
vt 0.230256 0.967065
vt 0.230112 0.967065
vt 0.230400 0.967065
vt 0.230832 0.967065
vt 0.230976 0.967065
vt 0.230400 0.967065
vt 0.230256 0.967065
vt 0.230832 0.967065
vt 0.230688 0.967065
vt 0.230544 0.967065
vt 0.230976 0.967065
vt 0.230112 0.967065
vn -0.7497 0.5006 -0.4328
vn -0.7497 0.5006 0.4328
vn 0.0000 0.5006 0.8657
vn 0.7497 0.5006 0.4328
vn 0.7497 0.5006 -0.4328
vn -0.0000 0.5006 -0.8657
vn 0.0000 1.0000 -0.0000
vn -0.8660 0.0000 -0.5000
vn 0.0000 0.0000 1.0000
vn -0.0000 -0.0000 -1.0000
vn 0.8660 -0.0000 -0.5000
vn 0.8660 -0.0000 0.5000
vn -0.8660 0.0000 0.5000
vn 0.8639 0.0707 -0.4988
vn -0.0000 0.0707 0.9975
vn -0.8639 0.0707 0.4988
vn -0.8639 0.0707 -0.4988
vn 0.8639 0.0707 0.4988
vn 0.0000 -0.4410 0.8975
vn 0.0000 -0.6226 -0.7826
vn 0.6777 -0.6226 -0.3913
vn 0.6777 -0.6226 0.3913
vn 0.0000 -0.6226 0.7826
vn -0.6777 -0.6226 0.3913
vn -0.6777 -0.6226 -0.3913
vn 0.0000 -1.0000 -0.0000
vn 0.4277 -0.8695 -0.2469
vn -0.0000 -0.8695 0.4939
vn 0.4277 -0.8695 0.2469
vn -0.4277 -0.8695 0.2469
vn -0.0000 -0.8695 -0.4939
vn 0.0000 0.4410 0.8975
vn 0.0000 0.0707 -0.9975
vn -0.7772 -0.4410 -0.4487
vn -0.7772 0.4410 0.4487
vn 0.0000 0.4410 -0.8975
vn 0.7772 0.4410 -0.4487
vn 0.0000 -0.4410 -0.8975
vn -0.7772 -0.4410 0.4487
vn -0.7772 0.4410 -0.4487
vn 0.7773 -0.4410 -0.4487
vn 0.7772 0.4410 0.4487
vn 0.7773 -0.4410 0.4487
vn 0.0000 0.4961 -0.8683
vn -0.4277 -0.8695 -0.2469
vn -0.0000 0.6390 0.7692
vn -0.7519 0.4961 0.4341
vn -0.0000 0.4961 0.8683
vn -0.7519 0.4961 -0.4341
vn 0.7519 0.4961 -0.4341
vn 0.7519 0.4961 0.4341
vn 0.0000 0.6390 -0.7692
vn -0.6661 0.6390 0.3846
vn 0.6661 0.6390 -0.3846
vn -0.6661 0.6390 -0.3846
vn 0.6661 0.6390 0.3846
vn 0.5758 0.7469 -0.3324
vn -0.5758 0.7469 0.3324
vn 0.0000 0.7470 -0.6649
vn 0.0000 0.7469 0.6649
vn -0.5758 0.7469 -0.3324
vn 0.5758 0.7469 0.3324
usemtl RHIGH.059
s off
f 2/1/1 4/2/1 3/3/1 1/4/1
f 4/2/2 6/5/2 5/6/2 3/3/2
f 6/5/3 8/7/3 7/8/3 5/9/3
f 8/7/4 10/10/4 9/11/4 7/8/4
f 10/10/5 12/12/5 11/13/5 9/11/5
f 12/12/6 2/14/6 1/15/6 11/13/6
f 1/16/7 3/17/7 5/18/7 7/19/7 9/20/7 11/21/7
f 2/1/8 13/22/8 14/23/8 4/2/8
f 6/5/9 16/24/9 17/25/9 8/7/9
f 12/12/10 15/26/10 13/27/10 2/14/10
f 10/10/11 18/28/11 20/29/11 15/26/11 12/12/11
f 8/7/12 17/25/12 18/28/12 10/10/12
f 4/2/13 14/23/13 19/30/13 16/24/13 6/5/13
usemtl RLOW.059
f 24/31/14 36/32/14 38/33/14 26/34/14
f 28/35/15 40/36/15 42/37/15 30/38/15
f 30/38/16 42/37/16 44/39/16 32/40/16
f 32/40/17 44/39/17 33/41/17 22/42/17
f 26/34/18 38/33/18 40/36/18 28/35/18
f 55/43/19 54/44/19 37/45/19 39/46/19
f 22/47/20 24/31/20 23/48/20 21/49/20
f 24/31/21 26/34/21 25/50/21 23/48/21
f 26/34/22 28/35/22 27/51/22 25/50/22
f 28/35/23 30/38/23 29/52/23 27/53/23
f 30/38/24 32/40/24 31/54/24 29/52/24
f 32/40/25 22/42/25 21/55/25 31/56/25
f 21/57/26 23/58/26 25/59/26 27/60/26 29/61/26 31/62/26
f 60/63/27 61/64/27 52/65/27 53/66/27
f 58/67/28 59/68/28 54/44/28 55/43/28
f 59/68/29 60/63/29 53/66/29 54/44/29
f 57/69/30 58/67/30 55/43/30 56/70/30
f 61/64/31 62/71/31 51/72/31 52/65/31
f 39/46/32 37/45/32 47/73/32 46/74/32
f 22/47/33 33/75/33 36/32/33 24/31/33
f 51/76/34 56/70/34 35/77/34 43/78/34
f 35/77/35 39/46/35 46/74/35 45/79/35
f 34/80/36 43/81/36 50/82/36 49/83/36
f 41/84/37 34/80/37 49/83/37 48/85/37
f 52/65/38 51/72/38 43/81/38 34/80/38
f 65/86/11 64/87/11 61/64/11 60/63/11
f 56/70/39 55/43/39 39/46/39 35/77/39
f 43/78/40 35/77/40 45/79/40 50/88/40
f 53/66/41 52/65/41 34/80/41 41/84/41
f 37/45/42 41/84/42 48/85/42 47/73/42
f 54/44/43 53/66/43 41/84/43 37/45/43
f 73/89/44 74/90/44 63/91/44 64/87/44
f 68/92/13 67/93/13 58/67/13 57/69/13
f 62/94/45 57/69/45 56/70/45 51/76/45
f 64/87/10 63/91/10 62/71/10 61/64/10
f 63/95/8 68/92/8 57/69/8 62/94/8
f 67/93/9 66/96/9 59/68/9 58/67/9
f 42/37/46 40/36/46 71/97/46 70/98/46
f 69/99/47 70/98/47 67/93/47 68/92/47
f 70/98/48 71/97/48 66/96/48 67/93/48
f 74/100/49 69/99/49 68/92/49 63/95/49
f 72/101/50 73/89/50 64/87/50 65/86/50
f 66/96/12 65/86/12 60/63/12 59/68/12
f 71/97/51 72/101/51 65/86/51 66/96/51
f 36/32/52 33/75/52 74/90/52 73/89/52
f 44/39/53 42/37/53 70/98/53 69/99/53
f 38/33/54 36/32/54 73/89/54 72/101/54
f 33/41/55 44/39/55 69/99/55 74/100/55
f 40/36/56 38/33/56 72/101/56 71/97/56
f 47/73/7 48/85/7 78/102/7 77/103/7
f 50/88/7 45/79/7 75/104/7 80/105/7
f 46/74/7 47/73/7 77/103/7 76/106/7
f 48/85/7 49/83/7 79/107/7 78/102/7
f 49/83/7 50/82/7 80/108/7 79/107/7
f 45/79/7 46/74/7 76/106/7 75/104/7
f 75/104/57 76/106/57 82/109/57 81/110/57
f 78/102/58 79/107/58 85/111/58 84/112/58
f 76/106/59 77/103/59 83/113/59 82/109/59
f 79/107/60 80/108/60 86/114/60 85/111/60
f 77/103/61 78/102/61 84/112/61 83/113/61
f 80/105/62 75/104/62 81/110/62 86/115/62
