# Blender v2.91.0 OBJ File: 'Red_Potion_1(Label).blend'
# www.blender.org
mtllib Red_Potion_1(Label).mtl
o Red_Potion_1(Label)_Cylinder.070
v -0.029689 -0.170539 -0.051422
v -0.032997 -0.153175 -0.057152
v 0.029689 -0.170539 -0.051422
v 0.032997 -0.153175 -0.057152
v 0.059377 -0.170539 -0.000000
v 0.065993 -0.153175 -0.000000
v 0.029689 -0.170539 0.051422
v 0.032997 -0.153175 0.057152
v -0.029689 -0.170539 0.051422
v -0.032997 -0.153175 0.057152
v -0.059377 -0.170539 -0.000000
v -0.065993 -0.153175 -0.000000
v -0.032997 0.110630 -0.057152
v -0.012452 0.140584 -0.021568
v 0.012452 0.140584 -0.021568
v 0.032997 0.110630 -0.057152
v 0.024904 0.140584 -0.000000
v 0.065993 0.110630 -0.000000
v 0.012452 0.140584 0.021568
v 0.032997 0.110630 0.057152
v -0.012452 0.140584 0.021568
v -0.032997 0.110630 0.057152
v -0.024904 0.140584 0.000000
v -0.065993 0.110630 -0.000000
v -0.025636 0.129461 -0.044403
v 0.025636 0.129461 -0.044403
v 0.051272 0.129461 -0.000000
v 0.025636 0.129461 0.044403
v -0.025636 0.129461 0.044403
v -0.051272 0.129461 -0.000000
v -0.010836 0.164934 -0.018769
v 0.010836 0.164934 -0.018769
v 0.021673 0.164934 -0.000000
v 0.010836 0.164934 0.018769
v -0.010836 0.164934 0.018769
v -0.021673 0.164934 -0.000000
v -0.015269 0.169569 -0.026446
v 0.015269 0.169569 -0.026446
v 0.030537 0.169569 -0.000000
v 0.015269 0.169569 0.026446
v -0.015269 0.169569 0.026446
v -0.030537 0.169569 0.000000
v -0.008569 0.188107 -0.014842
v 0.008569 0.188107 -0.014842
v 0.017138 0.188107 -0.000000
v 0.008569 0.188107 0.014842
v -0.008569 0.188107 0.014842
v -0.017138 0.188107 0.000000
v -0.016634 0.188107 -0.028811
v 0.016634 0.188107 -0.028811
v 0.033268 0.188107 0.000000
v 0.016634 0.188107 0.028811
v -0.016634 0.188107 0.028811
v -0.033268 0.188107 0.000000
v -0.032997 -0.065240 -0.057152
v -0.032997 0.022695 -0.057152
v 0.032997 0.022695 -0.057152
v 0.032997 -0.065240 -0.057152
v -0.065993 -0.065240 -0.000000
v -0.065993 0.022695 -0.000000
v 0.065993 0.022695 -0.000000
v 0.065993 -0.065240 -0.000000
v 0.032997 0.022695 0.057152
v 0.032997 -0.065240 0.057152
v -0.032997 0.022695 0.057152
v -0.032997 -0.065240 0.057152
v 0.049495 0.022695 -0.028576
v 0.049495 -0.065240 -0.028576
v -0.049495 0.022695 0.028576
v -0.049495 -0.065240 0.028576
v -0.008775 0.198661 -0.015198
v -0.009752 0.186858 -0.016891
v -0.017549 0.198661 0.000000
v -0.019504 0.186858 0.000000
v -0.008775 0.198661 0.015198
v -0.009752 0.186858 0.016891
v 0.008774 0.198661 0.015198
v 0.009752 0.186858 0.016891
v 0.017549 0.198661 0.000000
v 0.019504 0.186858 0.000000
v 0.008774 0.198661 -0.015198
v 0.009752 0.186858 -0.016891
vt 0.759621 0.503223
vt 0.759621 0.503092
vt 0.759766 0.503092
vt 0.759766 0.503223
vt 0.759910 0.503223
vt 0.759910 0.503092
vt 0.759982 0.503092
vt 0.759982 0.503223
vt 0.759549 0.503223
vt 0.759549 0.503092
vt 0.724778 0.986950
vt 0.724722 0.986950
vt 0.724725 0.986942
vt 0.724775 0.986942
vt 0.724666 0.986950
vt 0.724669 0.986942
vt 0.724609 0.986950
vt 0.724612 0.986942
vt 0.724553 0.986950
vt 0.724556 0.986942
vt 0.724497 0.986950
vt 0.724499 0.986942
vt 0.724440 0.986950
vt 0.724443 0.986942
vt 0.724694 0.986931
vt 0.724757 0.986894
vt 0.724757 0.986821
vt 0.724694 0.986785
vt 0.724631 0.986821
vt 0.724631 0.986894
vt 0.228112 0.946649
vt 0.228112 0.946517
vt 0.228257 0.946517
vt 0.228257 0.946649
vt 0.228184 0.946649
vt 0.228401 0.946649
vt 0.228401 0.946517
vt 0.228546 0.946517
vt 0.228546 0.946649
vt 0.228690 0.946517
vt 0.228690 0.946649
vt 0.228618 0.946649
vt 0.228835 0.946517
vt 0.228835 0.946649
vt 0.228540 0.947102
vt 0.228618 0.947057
vt 0.228618 0.947057
vt 0.228540 0.947102
vt 0.227968 0.946911
vt 0.228112 0.946911
vt 0.228105 0.946930
vt 0.227975 0.946930
vt 0.228257 0.946911
vt 0.228249 0.946930
vt 0.228401 0.946911
vt 0.228394 0.946930
vt 0.228264 0.946930
vt 0.228546 0.946911
vt 0.228538 0.946930
vt 0.228690 0.946911
vt 0.228683 0.946930
vt 0.228553 0.946930
vt 0.228835 0.946911
vt 0.228827 0.946930
vt 0.228184 0.946960
vt 0.228022 0.947053
vt 0.228022 0.947240
vt 0.228184 0.947334
vt 0.228347 0.947240
vt 0.228347 0.947053
vt 0.227968 0.946517
vt 0.227976 0.946497
vt 0.228104 0.946497
vt 0.228249 0.946497
vt 0.228265 0.946497
vt 0.228393 0.946497
vt 0.228538 0.946497
vt 0.228554 0.946497
vt 0.228682 0.946497
vt 0.228827 0.946497
vt 0.227968 0.946649
vt 0.228457 0.947054
vt 0.228618 0.946961
vt 0.228540 0.947192
vt 0.228457 0.947240
vt 0.228618 0.947237
vt 0.228618 0.947332
vt 0.228696 0.947192
vt 0.228778 0.947240
vt 0.228696 0.947102
vt 0.228778 0.947054
vt 0.228696 0.947102
vt 0.228696 0.947192
vt 0.228696 0.947192
vt 0.228696 0.947102
vt 0.228618 0.947237
vt 0.228540 0.947192
vt 0.228618 0.947057
vt 0.228696 0.947102
vt 0.228618 0.947057
vt 0.228540 0.947192
vt 0.228618 0.947237
vt 0.228540 0.947102
vt 0.228561 0.947114
vt 0.228618 0.947081
vt 0.228675 0.947114
vt 0.228675 0.947180
vt 0.228618 0.947213
vt 0.228561 0.947180
vt 0.228618 0.947237
vt 0.228696 0.947192
vt 0.228540 0.947102
vt 0.228540 0.947192
vt 0.227968 0.946780
vt 0.228112 0.946780
vt 0.228257 0.946780
vt 0.228401 0.946780
vt 0.228690 0.946780
vt 0.228835 0.946780
vt 0.228546 0.946780
vt 0.228618 0.946780
vt 0.228184 0.946780
vn 0.8660 0.0000 0.5000
vn -0.8660 0.0000 0.5000
vn -0.0000 0.0000 1.0000
vn 0.8660 0.0000 -0.5000
vn -0.8572 0.1420 -0.4949
vn -0.8572 0.1420 0.4949
vn 0.0000 0.1420 0.9899
vn 0.8572 0.1420 0.4949
vn 0.8572 0.1420 -0.4949
vn 0.0000 0.1420 -0.9899
vn 0.0000 1.0000 0.0000
vn -0.8660 0.0000 -0.5000
vn 0.0000 0.1142 -0.9935
vn 0.0000 -0.3133 -0.9496
vn 0.8224 -0.3133 -0.4748
vn 0.8224 -0.3133 0.4748
vn -0.0000 -0.3133 0.9496
vn -0.8224 -0.3133 0.4748
vn -0.8224 -0.3133 -0.4748
vn 0.0000 -1.0000 0.0000
vn 0.0000 0.5606 -0.8281
vn 0.7171 0.5606 -0.4140
vn 0.7171 0.5606 0.4140
vn -0.0000 0.5606 0.8281
vn -0.7171 0.5606 0.4140
vn -0.7171 0.5606 -0.4140
vn 0.0000 0.0000 -1.0000
vn 0.0000 0.8990 -0.4379
vn 0.3792 0.8990 -0.2189
vn 0.3792 0.8990 0.2189
vn -0.0000 0.8990 0.4379
vn -0.3792 0.8990 0.2189
vn -0.3792 0.8990 -0.2189
vn -0.4476 -0.8561 0.2584
vn -0.8604 0.1142 -0.4967
vn -0.0000 0.1142 0.9935
vn 0.8604 0.1142 -0.4967
vn -0.8604 0.1142 0.4967
vn 0.8604 0.1142 0.4967
vn -0.8591 -0.1265 -0.4960
vn 0.4476 -0.8561 0.2584
vn 0.0000 -0.8561 -0.5168
vn -0.4476 -0.8561 -0.2584
vn -0.0000 -0.8561 0.5168
vn 0.4476 -0.8561 -0.2584
vn -0.0000 -0.1265 0.9920
vn 0.8591 -0.1265 -0.4960
vn -0.8591 -0.1265 0.4960
vn 0.8591 -0.1265 0.4960
vn 0.0000 -0.1265 -0.9920
usemtl RHIGH.056
s off
f 62/1/1 61/2/1 63/3/1 64/4/1
f 66/5/2 65/6/2 69/7/2 70/8/2
f 64/4/3 63/3/3 65/6/3 66/5/3
f 68/9/4 67/10/4 61/2/4 62/1/4
f 72/11/5 74/12/5 73/13/5 71/14/5
f 74/12/6 76/15/6 75/16/6 73/13/6
f 76/15/7 78/17/7 77/18/7 75/16/7
f 78/17/8 80/19/8 79/20/8 77/18/8
f 80/19/9 82/21/9 81/22/9 79/20/9
f 82/21/10 72/23/10 71/24/10 81/22/10
f 71/25/11 73/26/11 75/27/11 77/28/11 79/29/11 81/30/11
usemtl RLOW.056
f 57/31/4 16/32/4 18/33/4 61/34/4 67/35/4
f 63/36/3 20/37/3 22/38/3 65/39/3
f 65/39/2 22/38/2 24/40/2 60/41/2 69/42/2
f 60/41/12 24/40/12 13/43/12 56/44/12
f 61/34/1 18/33/1 20/37/1 63/36/1
f 15/45/13 14/46/13 31/47/13 32/48/13
f 2/49/14 4/50/14 3/51/14 1/52/14
f 4/50/15 6/53/15 5/54/15 3/51/15
f 6/53/16 8/55/16 7/56/16 5/57/16
f 8/55/17 10/58/17 9/59/17 7/56/17
f 10/58/18 12/60/18 11/61/18 9/62/18
f 12/60/19 2/63/19 1/64/19 11/61/19
f 1/65/20 3/66/20 5/67/20 7/68/20 9/69/20 11/70/20
f 16/32/21 13/71/21 25/72/21 26/73/21
f 18/33/22 16/32/22 26/73/22 27/74/22
f 20/37/23 18/33/23 27/75/23 28/76/23
f 22/38/24 20/37/24 28/76/24 29/77/24
f 24/40/25 22/38/25 29/78/25 30/79/25
f 13/43/26 24/40/26 30/79/26 25/80/26
f 56/81/27 13/71/27 16/32/27 57/31/27
f 14/46/28 15/45/28 26/82/28 25/83/28
f 15/45/29 17/84/29 27/85/29 26/82/29
f 17/84/30 19/86/30 28/87/30 27/85/30
f 19/86/31 21/88/31 29/89/31 28/87/31
f 21/88/32 23/90/32 30/91/32 29/89/32
f 23/90/33 14/46/33 25/83/33 30/91/33
f 36/92/34 35/93/34 41/94/34 42/95/34
f 14/46/35 23/90/35 36/92/35 31/47/35
f 21/88/36 19/86/36 34/96/36 35/93/36
f 17/84/37 15/45/37 32/48/37 33/97/37
f 23/90/38 21/88/38 35/93/38 36/92/38
f 19/86/39 17/84/39 33/97/39 34/96/39
f 37/98/40 42/95/40 54/99/40 49/100/40
f 34/96/41 33/97/41 39/101/41 40/102/41
f 32/48/42 31/47/42 37/98/42 38/103/42
f 31/47/43 36/92/43 42/95/43 37/98/43
f 35/93/44 34/96/44 40/102/44 41/94/44
f 33/97/45 32/48/45 38/103/45 39/101/45
f 44/104/11 43/105/11 48/106/11 47/107/11 46/108/11 45/109/11
f 41/94/46 40/102/46 52/110/46 53/111/46
f 39/101/47 38/103/47 50/112/47 51/113/47
f 42/95/48 41/94/48 53/111/48 54/99/48
f 40/102/49 39/101/49 51/113/49 52/110/49
f 38/103/50 37/98/50 49/100/50 50/112/50
f 43/105/11 44/104/11 50/112/11 49/100/11
f 44/104/11 45/109/11 51/113/11 50/112/11
f 45/109/11 46/108/11 52/110/11 51/113/11
f 46/108/11 47/107/11 53/111/11 52/110/11
f 47/107/11 48/106/11 54/99/11 53/111/11
f 48/106/11 43/105/11 49/100/11 54/99/11
f 2/49/27 55/114/27 58/115/27 4/50/27
f 55/114/27 56/81/27 57/31/27 58/115/27
f 6/53/1 62/116/1 64/117/1 8/55/1
f 12/60/12 59/118/12 55/119/12 2/63/12
f 59/118/12 60/41/12 56/44/12 55/119/12
f 10/58/2 66/120/2 70/121/2 59/118/2 12/60/2
f 8/55/3 64/117/3 66/120/3 10/58/3
f 4/50/4 58/115/4 68/122/4 62/116/4 6/53/4
f 58/115/4 57/31/4 67/35/4 68/122/4
f 70/121/2 69/42/2 60/41/2 59/118/2
