# Blender v2.91.0 OBJ File: 'Red_Potion_8(String+Label).blend'
# www.blender.org
mtllib Red_Potion_8(String+Label).mtl
o Red_Potion_8(String+Label)_Cylinder.083
v -0.013270 0.154545 -0.022792
v -0.014742 0.150134 -0.025343
v -0.026488 0.154545 0.000103
v -0.029433 0.150134 0.000103
v -0.013270 0.154545 0.022998
v -0.014742 0.150134 0.025549
v 0.013167 0.154545 0.022998
v 0.014640 0.150134 0.025549
v 0.026386 0.154545 0.000103
v 0.029331 0.150134 0.000103
v 0.013167 0.154545 -0.022792
v 0.014640 0.150134 -0.025343
v -0.014742 0.132139 -0.025343
v -0.029433 0.132139 0.000103
v 0.014640 0.132139 -0.025343
v -0.014742 0.132139 0.025549
v 0.014640 0.132139 0.025549
v 0.029331 0.132139 0.000103
v -0.022088 0.132139 0.012826
v 0.021986 0.132139 -0.012620
v -0.021295 -0.150432 -0.037120
v 0.021563 -0.150432 -0.037120
v 0.042992 -0.150432 -0.000004
v 0.021563 -0.150432 0.037112
v -0.021295 -0.150432 0.037112
v -0.042724 -0.150432 -0.000004
v -0.040998 0.011182 -0.071246
v 0.025438 0.133540 -0.043832
v -0.050474 0.133540 -0.000004
v 0.041266 0.011182 -0.071246
v 0.025438 0.133540 0.043824
v 0.082398 0.011182 -0.000004
v -0.025170 0.133540 0.043824
v 0.041266 0.011182 0.071238
v 0.050742 0.133540 -0.000004
v -0.040998 0.011182 0.071238
v -0.025170 0.133540 -0.043832
v -0.082130 0.011182 -0.000004
v -0.046266 0.140956 -0.000004
v -0.023066 0.140956 0.040180
v 0.023334 0.140956 0.040180
v 0.046535 0.140956 -0.000004
v 0.023334 0.140956 -0.040188
v -0.023066 0.140956 -0.040188
v -0.023066 0.126125 -0.040188
v 0.023334 0.126125 -0.040188
v 0.046535 0.126125 -0.000004
v 0.023334 0.126125 0.040180
v -0.023066 0.126125 0.040180
v -0.046266 0.126125 -0.000004
v -0.029307 0.117783 -0.000004
v -0.014586 0.117783 0.025493
v 0.014855 0.117783 0.025493
v 0.029575 0.117783 -0.000004
v 0.014855 0.117783 -0.025501
v -0.014586 0.117783 -0.025501
v -0.014586 0.075146 -0.025501
v 0.014855 0.075146 -0.025501
v 0.029575 0.075146 -0.000004
v 0.014855 0.075146 0.025493
v -0.014586 0.075146 0.025493
v -0.029307 0.075146 -0.000004
v -0.034944 0.140956 -0.000004
v -0.017405 0.140956 0.030374
v 0.017673 0.140956 0.030374
v 0.035212 0.140956 -0.000004
v 0.017673 0.140956 -0.030382
v -0.017405 0.140956 -0.030382
v -0.028403 0.135913 -0.000004
v -0.014134 0.135913 0.024710
v 0.014403 0.135913 0.024710
v 0.028671 0.135913 -0.000004
v 0.014403 0.135913 -0.024718
v -0.014134 0.135913 -0.024718
v -0.024182 -0.185754 -0.042121
v -0.027315 -0.176178 -0.047548
v 0.024450 -0.185754 -0.042121
v 0.027584 -0.176178 -0.047548
v 0.048767 -0.185754 -0.000004
v 0.055033 -0.176178 -0.000004
v 0.024450 -0.185754 0.042113
v 0.027584 -0.176178 0.047540
v -0.024182 -0.185754 0.042113
v -0.027315 -0.176178 0.047540
v -0.048498 -0.185754 -0.000004
v -0.054765 -0.176178 -0.000004
v -0.027863 -0.096561 -0.048496
v -0.036800 -0.026261 -0.063977
v 0.037069 -0.026261 -0.063977
v 0.028131 -0.096561 -0.048496
v -0.055859 -0.096561 -0.000004
v -0.073735 -0.026261 -0.000004
v 0.074003 -0.026261 -0.000004
v 0.056128 -0.096561 -0.000004
v 0.037069 -0.026261 0.063969
v 0.028131 -0.096561 0.048488
v -0.036800 -0.026261 0.063969
v -0.027863 -0.096561 0.048488
v -0.055268 -0.026261 0.031982
v -0.041861 -0.096561 0.024242
v 0.055536 -0.026261 0.031982
v 0.042129 -0.096561 0.024242
v -0.028692 0.109966 -0.000067
v -0.014927 0.108898 0.023842
v 0.012637 0.107314 0.023842
v 0.026435 0.106798 -0.000066
v 0.012669 0.107866 -0.023975
v -0.014895 0.109450 -0.023975
v -0.028072 0.120760 0.000058
v -0.014306 0.119693 0.023967
v 0.013257 0.118109 0.023967
v 0.027055 0.117593 0.000059
v 0.013289 0.118661 -0.023850
v -0.014274 0.120244 -0.023850
v -0.036230 0.110399 -0.000067
v -0.018700 0.109039 0.030380
v 0.016402 0.107022 0.030381
v 0.033973 0.106365 -0.000066
v 0.016442 0.107725 -0.030513
v -0.018659 0.109742 -0.030514
v -0.035610 0.121194 0.000058
v -0.018080 0.119834 0.030505
v 0.017022 0.117817 0.030506
v 0.034593 0.117160 0.000058
v 0.017063 0.118520 -0.030388
v -0.018039 0.120536 -0.030389
v -0.029082 0.096369 0.000039
v -0.014850 0.096998 0.024689
v 0.013604 0.097974 0.024678
v 0.027826 0.098320 0.000017
v 0.013595 0.097691 -0.024634
v -0.014859 0.096716 -0.024623
v -0.029464 0.107513 -0.000025
v -0.015232 0.108142 0.024625
v 0.013222 0.109117 0.024614
v 0.027444 0.109464 -0.000047
v 0.013212 0.108835 -0.024697
v -0.015241 0.107859 -0.024686
v -0.036863 0.096102 0.000042
v -0.018739 0.096903 0.031433
v 0.017496 0.098146 0.031419
v 0.035608 0.098587 0.000014
v 0.017484 0.097786 -0.031378
v -0.018751 0.096544 -0.031364
v -0.037245 0.107246 -0.000022
v -0.019121 0.108047 0.031370
v 0.017114 0.109289 0.031356
v 0.035226 0.109731 -0.000050
v 0.017102 0.108930 -0.031442
v -0.019133 0.107687 -0.031427
v -0.025876 0.089415 -0.000004
v -0.013266 0.088665 0.021877
v 0.011955 0.087165 0.021877
v 0.024566 0.086415 -0.000004
v 0.011955 0.087165 -0.021885
v -0.013266 0.088665 -0.021885
v -0.025288 0.099293 -0.000004
v -0.012678 0.098543 0.021877
v 0.012543 0.097043 0.021877
v 0.025154 0.096292 -0.000004
v 0.012543 0.097043 -0.021885
v -0.012678 0.098543 -0.021885
v -0.032773 0.089826 -0.000004
v -0.016714 0.088870 0.027860
v 0.015404 0.086960 0.027860
v 0.031463 0.086004 -0.000004
v 0.015404 0.086960 -0.027869
v -0.016714 0.088870 -0.027869
v -0.032186 0.099704 -0.000004
v -0.016127 0.098748 0.027860
v 0.015992 0.096837 0.027860
v 0.032051 0.095882 -0.000004
v 0.015992 0.096837 -0.027869
v -0.016127 0.098748 -0.027868
v -0.027165 0.074680 0.000147
v -0.013636 0.076015 0.023627
v 0.013442 0.077723 0.023603
v 0.026992 0.078094 0.000099
v 0.013464 0.076759 -0.023381
v -0.013615 0.075051 -0.023357
v -0.027944 0.087031 -0.000107
v -0.014415 0.088367 0.023373
v 0.012664 0.090074 0.023349
v 0.026213 0.090445 -0.000155
v 0.012685 0.089110 -0.023635
v -0.014394 0.087402 -0.023611
v -0.034570 0.074213 0.000153
v -0.017342 0.075914 0.030054
v 0.017142 0.078088 0.030024
v 0.034398 0.078561 0.000092
v 0.017169 0.076860 -0.029809
v -0.017315 0.074686 -0.029778
v -0.035349 0.086564 -0.000101
v -0.018121 0.088265 0.029801
v 0.016363 0.090439 0.029770
v 0.033619 0.090912 -0.000161
v 0.016390 0.089211 -0.030062
v -0.018094 0.087037 -0.030032
vt 0.725443 0.989479
vt 0.725221 0.989479
vt 0.725232 0.989450
vt 0.725432 0.989450
vt 0.725000 0.989479
vt 0.725011 0.989450
vt 0.724778 0.989479
vt 0.724790 0.989450
vt 0.724557 0.989479
vt 0.724568 0.989450
vt 0.724336 0.989479
vt 0.724347 0.989450
vt 0.724546 0.989450
vt 0.724114 0.989479
vt 0.724125 0.989450
vt 0.725111 0.989405
vt 0.725359 0.989262
vt 0.725359 0.988975
vt 0.725111 0.988831
vt 0.724862 0.988975
vt 0.724862 0.989262
vt 0.725443 0.989681
vt 0.725221 0.989681
vt 0.725000 0.989681
vt 0.724778 0.989681
vt 0.724336 0.989681
vt 0.724114 0.989681
vt 0.724557 0.989681
vt 0.724446 0.989681
vt 0.725111 0.989681
vt 0.763195 0.512698
vt 0.763195 0.513006
vt 0.763026 0.513006
vt 0.763026 0.512698
vt 0.763533 0.512698
vt 0.763533 0.513006
vt 0.763702 0.512698
vt 0.763702 0.513006
vt 0.723942 0.951820
vt 0.723942 0.951820
vt 0.723942 0.951820
vt 0.723942 0.951820
vt 0.723942 0.951820
vt 0.723942 0.951820
vt 0.723942 0.951820
vt 0.723942 0.951820
vt 0.723942 0.951820
vt 0.723942 0.951820
vt 0.723942 0.951820
vt 0.723942 0.951820
vt 0.723942 0.951820
vt 0.723942 0.951820
vt 0.723942 0.951820
vt 0.723942 0.951820
vt 0.723942 0.951820
vt 0.723942 0.951820
vt 0.723942 0.951820
vt 0.723942 0.951820
vt 0.723942 0.951820
vt 0.723942 0.951820
vt 0.723942 0.951820
vt 0.723942 0.951820
vt 0.723942 0.951820
vt 0.723942 0.951820
vt 0.723942 0.951820
vt 0.723942 0.951820
vt 0.723942 0.951820
vt 0.723942 0.951820
vt 0.723942 0.951820
vt 0.723942 0.951820
vt 0.723942 0.951820
vt 0.723942 0.951820
vt 0.723942 0.951820
vt 0.723942 0.951820
vt 0.723942 0.951820
vt 0.723942 0.951820
vt 0.723942 0.951820
vt 0.723942 0.951820
vt 0.723942 0.951820
vt 0.723942 0.951820
vt 0.723942 0.951820
vt 0.723942 0.951820
vt 0.723942 0.951820
vt 0.723942 0.951820
vt 0.723942 0.951820
vt 0.723942 0.951820
vt 0.723942 0.951820
vt 0.723942 0.951820
vt 0.723942 0.951820
vt 0.723942 0.951820
vt 0.723942 0.951820
vt 0.723942 0.951820
vt 0.723942 0.951820
vt 0.723942 0.951820
vt 0.723942 0.951820
vt 0.723942 0.951820
vt 0.723942 0.951820
vt 0.723942 0.951820
vt 0.723942 0.951820
vt 0.723942 0.951820
vt 0.723942 0.951820
vt 0.723942 0.951820
vt 0.723942 0.951820
vt 0.723942 0.951820
vt 0.723942 0.951820
vt 0.723942 0.951820
vt 0.723942 0.951820
vt 0.723942 0.951820
vt 0.723942 0.951820
vt 0.723942 0.951820
vt 0.723942 0.951820
vt 0.723942 0.951820
vt 0.723942 0.951820
vt 0.723942 0.951820
vt 0.723942 0.951820
vt 0.723942 0.951820
vt 0.723942 0.951820
vt 0.723942 0.951820
vt 0.723942 0.951820
vt 0.723942 0.951820
vt 0.723942 0.951820
vt 0.723942 0.951820
vt 0.723942 0.951820
vt 0.723942 0.951820
vt 0.723942 0.951820
vt 0.723942 0.951820
vt 0.723942 0.951820
vt 0.723942 0.951820
vt 0.723942 0.951820
vt 0.723942 0.951820
vt 0.723942 0.951820
vt 0.723942 0.951820
vt 0.723942 0.951820
vt 0.723942 0.951820
vt 0.230354 0.945852
vt 0.230354 0.946160
vt 0.230016 0.946160
vt 0.230016 0.945852
vt 0.229678 0.945852
vt 0.229678 0.946160
vt 0.229340 0.946160
vt 0.229340 0.945852
vt 0.229002 0.946160
vt 0.229002 0.945852
vt 0.229171 0.945852
vt 0.228664 0.946160
vt 0.228664 0.945852
vt 0.229847 0.945852
vt 0.229340 0.946160
vt 0.229678 0.946160
vt 0.229678 0.946160
vt 0.229340 0.946160
vt 0.230185 0.945045
vt 0.230495 0.944866
vt 0.230495 0.944507
vt 0.230185 0.944328
vt 0.229874 0.944507
vt 0.229874 0.944866
vt 0.230016 0.945238
vt 0.229678 0.945238
vt 0.229690 0.945206
vt 0.230003 0.945206
vt 0.229340 0.945238
vt 0.229352 0.945206
vt 0.229002 0.945238
vt 0.229014 0.945206
vt 0.229327 0.945206
vt 0.230692 0.945238
vt 0.230354 0.945238
vt 0.230366 0.945206
vt 0.230679 0.945206
vt 0.230341 0.945206
vt 0.230016 0.946160
vt 0.230354 0.946160
vt 0.230354 0.946160
vt 0.230016 0.946160
vt 0.229340 0.946160
vt 0.229678 0.946160
vt 0.229002 0.946160
vt 0.229002 0.946160
vt 0.230692 0.946160
vt 0.230692 0.946160
vt 0.229678 0.946160
vt 0.229340 0.946160
vt 0.230692 0.945852
vt 0.230692 0.946160
vt 0.228664 0.946160
vt 0.229002 0.946160
vt 0.228664 0.946160
vt 0.229002 0.946160
vt 0.230354 0.946160
vt 0.230692 0.946160
vt 0.230692 0.946160
vt 0.230354 0.946160
vt 0.230016 0.946160
vt 0.230016 0.946160
vt 0.230016 0.946160
vt 0.230354 0.946160
vt 0.228664 0.946160
vt 0.229002 0.946160
vt 0.229340 0.946160
vt 0.228664 0.946160
vt 0.230692 0.946160
vt 0.228664 0.946160
vt 0.229678 0.946160
vt 0.230016 0.946160
vt 0.229678 0.946160
vt 0.229002 0.946160
vt 0.228664 0.946160
vt 0.229340 0.946160
vt 0.230354 0.946160
vt 0.230692 0.946160
vt 0.229340 0.946160
vt 0.229002 0.946160
vt 0.230354 0.946160
vt 0.230016 0.946160
vt 0.229678 0.946160
vt 0.230692 0.946160
vt 0.228664 0.946160
vt 0.230398 0.945194
vt 0.230647 0.945194
vt 0.230060 0.945194
vt 0.230309 0.945194
vt 0.229722 0.945194
vt 0.229971 0.945194
vt 0.229384 0.945194
vt 0.229633 0.945194
vt 0.229046 0.945194
vt 0.229295 0.945194
vt 0.228708 0.945194
vt 0.228676 0.945206
vt 0.228664 0.945238
vt 0.230692 0.945545
vt 0.230354 0.945545
vt 0.230016 0.945545
vt 0.229847 0.945545
vt 0.229678 0.945545
vt 0.229002 0.945545
vt 0.228664 0.945545
vt 0.229340 0.945545
vt 0.229171 0.945545
vn -0.7497 0.5006 -0.4328
vn -0.7497 0.5006 0.4328
vn 0.0000 0.5006 0.8657
vn 0.7497 0.5006 0.4328
vn 0.7497 0.5006 -0.4328
vn -0.0000 0.5006 -0.8657
vn 0.0000 1.0000 -0.0000
vn -0.8660 0.0000 -0.5000
vn 0.0000 0.0000 1.0000
vn -0.0000 -0.0000 -1.0000
vn 0.8660 -0.0000 -0.5000
vn 0.8660 -0.0000 0.5000
vn -0.8660 0.0000 0.5000
vn -0.8458 -0.2151 0.4883
vn -0.0000 -0.2151 0.9766
vn 0.8458 -0.2151 0.4883
vn 0.0007 0.0115 -0.9999
vn -0.8643 0.0554 -0.5000
vn -0.8649 0.0439 0.5000
vn 0.8643 -0.0554 0.5000
vn -0.0007 -0.0115 0.9999
vn 0.8649 -0.0439 -0.5000
vn -0.8643 0.0555 -0.5000
vn -0.0574 -0.9983 -0.0116
vn 0.0574 0.9983 0.0116
vn -0.0002 -0.0057 -1.0000
vn -0.8656 -0.0325 -0.4997
vn -0.8654 -0.0268 0.5003
vn 0.8656 0.0325 0.4997
vn 0.0002 0.0057 1.0000
vn 0.8654 0.0268 -0.5003
vn 0.0343 -0.9994 0.0057
vn -0.0343 0.9994 -0.0057
vn -0.8645 0.0514 -0.5000
vn -0.8645 0.0514 0.5000
vn 0.8645 -0.0514 0.5000
vn 0.8645 -0.0514 -0.5000
vn -0.0594 -0.9982 0.0000
vn 0.0594 0.9982 -0.0000
vn 0.0004 -0.0205 -0.9998
vn -0.8641 -0.0648 -0.4992
vn -0.8645 -0.0442 0.5006
vn 0.8641 0.0648 0.4992
vn -0.0004 0.0205 0.9998
vn 0.8645 0.0442 -0.5006
vn -0.8641 -0.0647 -0.4992
vn 0.0629 -0.9978 0.0205
vn -0.0629 0.9978 -0.0205
vn 0.8501 -0.1906 -0.4908
vn -0.0000 -0.1906 0.9817
vn -0.8501 -0.1906 0.4908
vn -0.8501 -0.1906 -0.4908
vn 0.8501 -0.1906 0.4908
vn -0.0000 -0.4410 0.8975
vn 0.0000 -1.0000 -0.0000
vn 0.8027 0.3754 0.4634
vn -0.0000 0.3754 0.9269
vn -0.8027 0.3754 0.4634
vn -0.0000 0.3754 -0.9269
vn 0.8027 0.3754 -0.4634
vn 0.4277 -0.8695 -0.2469
vn -0.0000 -0.8695 0.4939
vn 0.4277 -0.8695 0.2469
vn -0.4277 -0.8695 0.2469
vn 0.0000 -0.8695 -0.4939
vn -0.0000 0.4410 0.8975
vn 0.0000 -0.1906 -0.9817
vn -0.7772 -0.4410 -0.4487
vn -0.7772 0.4410 0.4487
vn 0.0000 0.4410 -0.8975
vn 0.7773 0.4410 -0.4487
vn 0.0000 -0.4410 -0.8975
vn -0.7772 -0.4410 0.4487
vn -0.7772 0.4410 -0.4487
vn 0.7772 -0.4410 -0.4487
vn 0.7772 0.4410 0.4487
vn 0.7772 -0.4410 0.4487
vn -0.4277 -0.8695 -0.2469
vn 0.5758 0.7469 -0.3324
vn -0.5758 0.7469 0.3324
vn 0.0000 0.7469 -0.6649
vn -0.0000 0.7469 0.6649
vn -0.5758 0.7469 -0.3324
vn 0.5758 0.7469 0.3324
vn -0.7044 0.5817 -0.4067
vn -0.7044 0.5817 0.4067
vn -0.0000 0.5817 0.8134
vn 0.7044 0.5817 0.4067
vn 0.7044 0.5817 -0.4067
vn 0.0000 0.5817 -0.8134
vn 0.0000 -0.4931 -0.8700
vn 0.7534 -0.4931 -0.4350
vn 0.7534 -0.4931 0.4350
vn 0.0000 -0.4931 0.8700
vn -0.7534 -0.4931 0.4350
vn -0.7534 -0.4931 -0.4350
vn -0.8027 0.3754 -0.4634
vn 0.0000 -0.2066 -0.9784
vn 0.0000 -0.2151 -0.9766
vn 0.8473 -0.2066 0.4892
vn -0.8473 -0.2066 -0.4892
vn -0.8458 -0.2151 -0.4883
vn -0.8473 -0.2066 0.4892
vn -0.0000 -0.2066 0.9784
vn 0.8473 -0.2066 -0.4892
vn 0.8458 -0.2151 -0.4883
usemtl RHIGH.072
s off
f 2/1/1 4/2/1 3/3/1 1/4/1
f 4/2/2 6/5/2 5/6/2 3/3/2
f 6/5/3 8/7/3 7/8/3 5/6/3
f 8/7/4 10/9/4 9/10/4 7/8/4
f 10/9/5 12/11/5 11/12/5 9/13/5
f 12/11/6 2/14/6 1/15/6 11/12/6
f 1/16/7 3/17/7 5/18/7 7/19/7 9/20/7 11/21/7
f 2/1/8 13/22/8 14/23/8 4/2/8
f 6/5/9 16/24/9 17/25/9 8/7/9
f 12/11/10 15/26/10 13/27/10 2/14/10
f 10/9/11 18/28/11 20/29/11 15/26/11 12/11/11
f 8/7/12 17/25/12 18/28/12 10/9/12
f 4/2/13 14/23/13 19/30/13 16/24/13 6/5/13
f 98/31/14 97/32/14 99/33/14 100/34/14
f 96/35/15 95/36/15 97/32/15 98/31/15
f 102/37/16 101/38/16 95/36/16 96/35/16
f 105/39/17 104/40/17 110/41/17 111/42/17
f 106/43/18 105/39/18 111/42/18 112/44/18
f 107/45/19 106/43/19 112/44/19 113/46/19
f 103/47/20 108/48/20 114/49/20 109/50/20
f 108/48/21 107/45/21 113/46/21 114/49/21
f 104/40/22 103/47/22 109/50/22 110/41/22
f 117/51/21 123/52/21 122/53/21 116/54/21
f 118/55/20 124/56/20 123/52/20 117/51/20
f 119/57/22 125/58/22 124/56/22 118/55/22
f 115/59/23 121/60/23 126/61/23 120/62/23
f 120/62/17 126/61/17 125/58/17 119/57/17
f 116/54/19 122/53/19 121/60/19 115/59/19
f 104/40/24 105/39/24 117/51/24 116/54/24
f 108/48/24 103/47/24 115/59/24 120/62/24
f 103/47/24 104/40/24 116/54/24 115/59/24
f 106/43/24 107/45/24 119/57/24 118/55/24
f 107/45/24 108/48/24 120/62/24 119/57/24
f 105/39/24 106/43/24 118/55/24 117/51/24
f 111/42/25 110/41/25 122/53/25 123/52/25
f 109/50/25 114/49/25 126/61/25 121/60/25
f 110/41/25 109/50/25 121/60/25 122/53/25
f 113/46/25 112/44/25 124/56/25 125/58/25
f 114/49/25 113/46/25 125/58/25 126/61/25
f 112/44/25 111/42/25 123/52/25 124/56/25
f 129/63/26 128/64/26 134/65/26 135/66/26
f 130/67/27 129/63/27 135/66/27 136/68/27
f 131/69/28 130/67/28 136/68/28 137/70/28
f 127/71/29 132/72/29 138/73/29 133/74/29
f 132/72/30 131/69/30 137/70/30 138/73/30
f 128/64/31 127/71/31 133/74/31 134/65/31
f 141/75/30 147/76/30 146/77/30 140/78/30
f 142/79/29 148/80/29 147/76/29 141/75/29
f 143/81/31 149/82/31 148/80/31 142/79/31
f 139/83/27 145/84/27 150/85/27 144/86/27
f 144/86/26 150/85/26 149/82/26 143/81/26
f 140/78/28 146/77/28 145/84/28 139/83/28
f 128/64/32 129/63/32 141/75/32 140/78/32
f 132/72/32 127/71/32 139/83/32 144/86/32
f 127/71/32 128/64/32 140/78/32 139/83/32
f 130/67/32 131/69/32 143/81/32 142/79/32
f 131/69/32 132/72/32 144/86/32 143/81/32
f 129/63/32 130/67/32 142/79/32 141/75/32
f 135/66/33 134/65/33 146/77/33 147/76/33
f 133/74/33 138/73/33 150/85/33 145/84/33
f 134/65/33 133/74/33 145/84/33 146/77/33
f 137/70/33 136/68/33 148/80/33 149/82/33
f 138/73/33 137/70/33 149/82/33 150/85/33
f 136/68/33 135/66/33 147/76/33 148/80/33
f 153/87/10 152/88/10 158/89/10 159/90/10
f 154/91/34 153/87/34 159/90/34 160/92/34
f 155/93/35 154/91/35 160/92/35 161/94/35
f 151/95/36 156/96/36 162/97/36 157/98/36
f 156/96/9 155/93/9 161/94/9 162/97/9
f 152/88/37 151/95/37 157/98/37 158/89/37
f 165/99/9 171/100/9 170/101/9 164/102/9
f 166/103/36 172/104/36 171/100/36 165/99/36
f 167/105/37 173/106/37 172/104/37 166/103/37
f 163/107/34 169/108/34 174/109/34 168/110/34
f 168/110/10 174/109/10 173/106/10 167/105/10
f 164/102/35 170/101/35 169/108/35 163/107/35
f 152/88/38 153/87/38 165/99/38 164/102/38
f 156/96/38 151/95/38 163/107/38 168/110/38
f 151/95/38 152/88/38 164/102/38 163/107/38
f 154/91/38 155/93/38 167/105/38 166/103/38
f 155/93/38 156/96/38 168/110/38 167/105/38
f 153/87/38 154/91/38 166/103/38 165/99/38
f 159/90/39 158/89/39 170/101/39 171/100/39
f 157/98/39 162/97/39 174/109/39 169/108/39
f 158/89/39 157/98/39 169/108/39 170/101/39
f 161/94/39 160/92/39 172/104/39 173/106/39
f 162/97/39 161/94/39 173/106/39 174/109/39
f 160/92/39 159/90/39 171/100/39 172/104/39
f 177/111/40 176/112/40 182/113/40 183/114/40
f 178/115/41 177/111/41 183/114/41 184/116/41
f 179/117/42 178/115/42 184/116/42 185/118/42
f 175/119/43 180/120/43 186/121/43 181/122/43
f 180/120/44 179/117/44 185/118/44 186/121/44
f 176/112/45 175/119/45 181/122/45 182/113/45
f 189/123/44 195/124/44 194/125/44 188/126/44
f 190/127/43 196/128/43 195/124/43 189/123/43
f 191/129/45 197/130/45 196/128/45 190/127/45
f 187/131/46 193/132/46 198/133/46 192/134/46
f 192/134/40 198/133/40 197/130/40 191/129/40
f 188/126/42 194/125/42 193/132/42 187/131/42
f 176/112/47 177/111/47 189/123/47 188/126/47
f 180/120/47 175/119/47 187/131/47 192/134/47
f 175/119/47 176/112/47 188/126/47 187/131/47
f 178/115/47 179/117/47 191/129/47 190/127/47
f 179/117/47 180/120/47 192/134/47 191/129/47
f 177/111/47 178/115/47 190/127/47 189/123/47
f 183/114/48 182/113/48 194/125/48 195/124/48
f 181/122/48 186/121/48 198/133/48 193/132/48
f 182/113/48 181/122/48 193/132/48 194/125/48
f 185/118/48 184/116/48 196/128/48 197/130/48
f 186/121/48 185/118/48 197/130/48 198/133/48
f 184/116/48 183/114/48 195/124/48 196/128/48
usemtl RLOW.072
f 89/135/49 30/136/49 32/137/49 93/138/49
f 95/139/50 34/140/50 36/141/50 97/142/50
f 97/142/51 36/141/51 38/143/51 92/144/51 99/145/51
f 92/144/52 38/143/52 27/146/52 88/147/52
f 93/138/53 32/137/53 34/140/53 95/139/53 101/148/53
f 49/149/54 48/150/54 31/151/54 33/152/54
f 75/153/55 77/154/55 79/155/55 81/156/55 83/157/55 85/158/55
f 23/159/56 24/160/56 82/161/56 80/162/56
f 24/160/57 25/163/57 84/164/57 82/161/57
f 25/163/58 26/165/58 86/166/58 84/167/58
f 21/168/59 22/169/59 78/170/59 76/171/59
f 22/169/60 23/159/60 80/162/60 78/172/60
f 54/173/61 55/174/61 46/175/61 47/176/61
f 52/177/62 53/178/62 48/150/62 49/149/62
f 53/178/63 54/173/63 47/176/63 48/150/63
f 51/179/64 52/177/64 49/149/64 50/180/64
f 55/174/65 56/181/65 45/182/65 46/175/65
f 33/152/66 31/151/66 41/183/66 40/184/66
f 88/185/67 27/186/67 30/136/67 89/135/67
f 45/187/68 50/180/68 29/188/68 37/189/68
f 29/188/69 33/152/69 40/184/69 39/190/69
f 28/191/70 37/192/70 44/193/70 43/194/70
f 35/195/71 28/191/71 43/194/71 42/196/71
f 46/175/72 45/182/72 37/192/72 28/191/72
f 59/197/11 58/198/11 55/174/11 54/173/11
f 50/180/73 49/149/73 33/152/73 29/188/73
f 37/189/74 29/188/74 39/190/74 44/199/74
f 47/176/75 46/175/75 28/191/75 35/195/75
f 31/151/76 35/195/76 42/196/76 41/183/76
f 48/150/77 47/176/77 35/195/77 31/151/77
f 62/200/13 61/201/13 52/177/13 51/179/13
f 56/202/78 51/179/78 50/180/78 45/187/78
f 58/198/10 57/203/10 56/181/10 55/174/10
f 57/204/8 62/200/8 51/179/8 56/202/8
f 61/201/9 60/205/9 53/178/9 52/177/9
f 60/205/12 59/197/12 54/173/12 53/178/12
f 41/183/7 42/196/7 66/206/7 65/207/7
f 44/199/7 39/190/7 63/208/7 68/209/7
f 40/184/7 41/183/7 65/207/7 64/210/7
f 42/196/7 43/194/7 67/211/7 66/206/7
f 43/194/7 44/193/7 68/212/7 67/211/7
f 39/190/7 40/184/7 64/210/7 63/208/7
f 63/208/79 64/210/79 70/213/79 69/214/79
f 66/206/80 67/211/80 73/215/80 72/216/80
f 64/210/81 65/207/81 71/217/81 70/213/81
f 67/211/82 68/212/82 74/218/82 73/215/82
f 65/207/83 66/206/83 72/216/83 71/217/83
f 68/209/84 63/208/84 69/214/84 74/219/84
f 38/143/85 62/200/85 57/204/85 27/146/85
f 36/141/86 61/201/86 62/200/86 38/143/86
f 34/140/87 60/205/87 61/201/87 36/141/87
f 32/137/88 59/197/88 60/205/88 34/140/88
f 30/136/89 58/198/89 59/197/89 32/137/89
f 27/146/90 57/204/90 58/198/90 30/136/90
f 77/220/91 75/221/91 76/171/91 78/170/91
f 79/222/92 77/223/92 78/172/92 80/162/92
f 81/224/93 79/225/93 80/162/93 82/161/93
f 83/226/94 81/227/94 82/161/94 84/164/94
f 85/228/95 83/229/95 84/167/95 86/166/95
f 75/230/96 85/228/96 86/166/96 76/231/96
f 26/165/97 21/232/97 76/231/97 86/166/97
f 21/168/98 87/233/98 90/234/98 22/169/98
f 87/233/99 88/185/99 89/135/99 90/234/99
f 23/159/100 94/235/100 102/236/100 96/237/100 24/160/100
f 94/235/16 93/138/16 101/148/16 102/236/16
f 26/165/101 91/238/101 87/239/101 21/232/101
f 91/238/102 92/144/102 88/147/102 87/239/102
f 25/163/103 98/240/103 100/241/103 91/238/103 26/165/103
f 24/160/104 96/237/104 98/240/104 25/163/104
f 22/169/105 90/234/105 94/235/105 23/159/105
f 90/234/106 89/135/106 93/138/106 94/235/106
f 100/241/14 99/145/14 92/144/14 91/238/14
