# Blender v2.91.0 OBJ File: 'Red_Potion_7(Label).blend'
# www.blender.org
mtllib Red_Potion_7(Label).mtl
o Red_Potion_7(Label)_Cylinder.079
v -0.013397 0.201100 -0.022791
v -0.014870 0.196688 -0.025342
v -0.026616 0.201100 0.000103
v -0.029561 0.196688 0.000103
v -0.013397 0.201100 0.022998
v -0.014870 0.196688 0.025549
v 0.013039 0.201100 0.022998
v 0.014512 0.196688 0.025549
v 0.026258 0.201100 0.000103
v 0.029203 0.196688 0.000103
v 0.013039 0.201100 -0.022791
v 0.014512 0.196688 -0.025342
v -0.014870 0.178693 -0.025342
v -0.029561 0.178693 0.000104
v 0.014512 0.178693 -0.025342
v -0.014870 0.178693 0.025549
v 0.014512 0.178693 0.025549
v 0.029203 0.178693 0.000103
v -0.022216 0.178693 0.012826
v 0.021858 0.178693 -0.012619
v -0.029682 -0.139200 -0.051426
v -0.051194 -0.103878 -0.088686
v 0.029695 -0.139200 -0.051426
v 0.051207 -0.103878 -0.088686
v 0.059383 -0.139200 -0.000004
v 0.102407 -0.103878 -0.000004
v 0.029695 -0.139200 0.051419
v 0.051207 -0.103878 0.088678
v -0.029682 -0.139200 0.051419
v -0.051194 -0.103878 0.088678
v -0.059371 -0.139200 -0.000004
v -0.102395 -0.103878 -0.000004
v -0.041126 0.057737 -0.071246
v 0.025310 0.180095 -0.043832
v -0.050602 0.180095 -0.000004
v 0.041138 0.057737 -0.071246
v 0.025310 0.180095 0.043824
v 0.082270 0.057737 -0.000004
v -0.025298 0.180095 0.043824
v 0.041138 0.057737 0.071239
v 0.050614 0.180095 -0.000004
v -0.041126 0.057737 0.071239
v -0.025298 0.180095 -0.043832
v -0.082258 0.057737 -0.000004
v -0.046394 0.187510 -0.000004
v -0.023194 0.187510 0.040180
v 0.023207 0.187510 0.040180
v 0.046407 0.187510 -0.000004
v 0.023207 0.187510 -0.040188
v -0.023194 0.187510 -0.040188
v -0.023194 0.172679 -0.040188
v 0.023207 0.172679 -0.040188
v 0.046407 0.172679 -0.000004
v 0.023207 0.172679 0.040180
v -0.023194 0.172679 0.040180
v -0.046394 0.172679 -0.000004
v -0.029435 0.164337 -0.000004
v -0.014714 0.164337 0.025493
v 0.014727 0.164337 0.025493
v 0.029447 0.164337 -0.000004
v 0.014727 0.164337 -0.025500
v -0.014714 0.164337 -0.025500
v -0.014714 0.121700 -0.025500
v 0.014727 0.121700 -0.025500
v 0.029447 0.121700 -0.000004
v 0.014727 0.121700 0.025493
v -0.014714 0.121700 0.025493
v -0.029435 0.121700 -0.000004
v -0.035072 0.187510 -0.000004
v -0.017533 0.187510 0.030375
v 0.017545 0.187510 0.030375
v 0.035084 0.187510 -0.000004
v 0.017545 0.187510 -0.030382
v -0.017533 0.187510 -0.030382
v -0.028531 0.182468 -0.000004
v -0.014262 0.182468 0.024710
v 0.014275 0.182468 0.024710
v 0.028543 0.182468 -0.000004
v 0.014275 0.182468 -0.024718
v -0.014262 0.182468 -0.024718
v -0.049002 -0.065887 -0.084889
v -0.043356 0.021943 -0.075108
v 0.043368 0.021943 -0.075108
v 0.049015 -0.065887 -0.084889
v -0.098011 -0.065887 -0.000004
v -0.086717 0.021943 -0.000004
v 0.086730 0.021943 -0.000004
v 0.098023 -0.065887 -0.000004
v 0.043368 0.021943 0.075101
v 0.049015 -0.065887 0.084881
v -0.043356 0.021943 0.075101
v -0.049002 -0.065887 0.084881
v -0.065037 0.021943 0.037549
v -0.073506 -0.065887 0.042439
v 0.073519 -0.065887 0.042439
v 0.065049 0.021943 0.037549
vt 0.724880 0.989509
vt 0.724790 0.989509
vt 0.724795 0.989497
vt 0.724876 0.989497
vt 0.724700 0.989509
vt 0.724704 0.989497
vt 0.724609 0.989509
vt 0.724614 0.989497
vt 0.724519 0.989509
vt 0.724523 0.989497
vt 0.724429 0.989509
vt 0.724433 0.989497
vt 0.724338 0.989509
vt 0.724343 0.989497
vt 0.724745 0.989478
vt 0.724846 0.989420
vt 0.724846 0.989303
vt 0.724745 0.989244
vt 0.724643 0.989303
vt 0.724643 0.989420
vt 0.724880 0.989591
vt 0.724790 0.989591
vt 0.724700 0.989591
vt 0.724609 0.989591
vt 0.724429 0.989591
vt 0.724338 0.989591
vt 0.724519 0.989591
vt 0.724474 0.989591
vt 0.724745 0.989591
vt 0.761564 0.505417
vt 0.761564 0.505604
vt 0.761487 0.505604
vt 0.761487 0.505417
vt 0.761719 0.505417
vt 0.761719 0.505604
vt 0.761796 0.505417
vt 0.761796 0.505604
vt 0.228964 0.946408
vt 0.228964 0.946501
vt 0.228809 0.946501
vt 0.228809 0.946408
vt 0.228655 0.946408
vt 0.228655 0.946501
vt 0.228501 0.946501
vt 0.228501 0.946408
vt 0.228346 0.946501
vt 0.228346 0.946408
vt 0.228423 0.946408
vt 0.228192 0.946501
vt 0.228192 0.946408
vt 0.228732 0.946408
vt 0.228501 0.946501
vt 0.228655 0.946501
vt 0.228655 0.946501
vt 0.228501 0.946501
vt 0.229118 0.946080
vt 0.228964 0.946080
vt 0.228972 0.946060
vt 0.229111 0.946060
vt 0.228809 0.946080
vt 0.228817 0.946060
vt 0.228655 0.946080
vt 0.228663 0.946060
vt 0.228501 0.946080
vt 0.228508 0.946060
vt 0.228647 0.946060
vt 0.228346 0.946080
vt 0.228354 0.946060
vt 0.228192 0.946080
vt 0.228199 0.946060
vt 0.228338 0.946060
vt 0.228887 0.946028
vt 0.229060 0.945928
vt 0.229060 0.945728
vt 0.228887 0.945628
vt 0.228713 0.945728
vt 0.228713 0.945928
vt 0.228809 0.946501
vt 0.228964 0.946501
vt 0.228964 0.946501
vt 0.228809 0.946501
vt 0.228501 0.946501
vt 0.228655 0.946501
vt 0.228346 0.946501
vt 0.228346 0.946501
vt 0.229118 0.946501
vt 0.229118 0.946501
vt 0.228655 0.946501
vt 0.228501 0.946501
vt 0.229118 0.946408
vt 0.229118 0.946501
vt 0.228192 0.946501
vt 0.228346 0.946501
vt 0.228192 0.946501
vt 0.228346 0.946501
vt 0.228964 0.946501
vt 0.229118 0.946501
vt 0.229118 0.946501
vt 0.228964 0.946501
vt 0.228809 0.946501
vt 0.228809 0.946501
vt 0.228809 0.946501
vt 0.228964 0.946501
vt 0.228192 0.946501
vt 0.228346 0.946501
vt 0.228501 0.946501
vt 0.228192 0.946501
vt 0.229118 0.946501
vt 0.228192 0.946501
vt 0.228655 0.946501
vt 0.228809 0.946501
vt 0.228655 0.946501
vt 0.228346 0.946501
vt 0.228192 0.946501
vt 0.228501 0.946501
vt 0.228964 0.946501
vt 0.229118 0.946501
vt 0.228501 0.946501
vt 0.228346 0.946501
vt 0.228964 0.946501
vt 0.228809 0.946501
vt 0.228655 0.946501
vt 0.229118 0.946501
vt 0.228192 0.946501
vt 0.229118 0.946220
vt 0.228964 0.946220
vt 0.228809 0.946220
vt 0.228732 0.946220
vt 0.228655 0.946220
vt 0.228346 0.946220
vt 0.228192 0.946220
vt 0.228501 0.946220
vt 0.228423 0.946220
vn -0.7497 0.5006 -0.4328
vn -0.7497 0.5006 0.4328
vn 0.0000 0.5006 0.8657
vn 0.7497 0.5006 0.4328
vn 0.7497 0.5006 -0.4328
vn -0.0000 0.5006 -0.8657
vn 0.0000 1.0000 -0.0000
vn -0.8660 0.0000 -0.5000
vn 0.0000 0.0000 1.0000
vn -0.0000 -0.0000 -1.0000
vn 0.8660 -0.0000 -0.5000
vn 0.8660 -0.0000 0.5000
vn -0.8660 0.0000 0.5000
vn -0.8607 0.1107 0.4969
vn -0.0000 0.1107 0.9939
vn 0.8607 0.1107 0.4969
vn 0.8610 0.1073 -0.4971
vn 0.0000 0.1073 0.9942
vn -0.8610 0.1073 0.4971
vn -0.8610 0.1073 -0.4971
vn 0.8610 0.1073 0.4971
vn -0.0000 -0.4410 0.8975
vn 0.0000 -0.7257 -0.6880
vn 0.5958 -0.7257 -0.3440
vn 0.5958 -0.7257 0.3440
vn 0.0000 -0.7257 0.6880
vn -0.5958 -0.7257 0.3440
vn -0.5958 -0.7257 -0.3440
vn 0.0000 -1.0000 -0.0000
vn 0.4277 -0.8695 -0.2469
vn -0.0000 -0.8695 0.4939
vn 0.4277 -0.8695 0.2469
vn -0.4277 -0.8695 0.2469
vn -0.0000 -0.8695 -0.4939
vn 0.0000 0.4410 0.8975
vn 0.0000 0.1073 -0.9942
vn -0.7772 -0.4410 -0.4487
vn -0.7772 0.4410 0.4487
vn 0.0000 0.4410 -0.8975
vn 0.7772 0.4410 -0.4487
vn 0.0000 -0.4410 -0.8975
vn -0.7773 -0.4410 0.4487
vn -0.7772 0.4410 -0.4487
vn 0.7773 -0.4410 -0.4487
vn 0.7772 0.4410 0.4487
vn 0.7772 -0.4410 0.4487
vn -0.4277 -0.8695 -0.2469
vn 0.5758 0.7469 -0.3324
vn -0.5758 0.7469 0.3324
vn 0.0000 0.7469 -0.6649
vn 0.0000 0.7469 0.6649
vn -0.5758 0.7469 -0.3324
vn 0.5758 0.7469 0.3324
vn -0.7044 0.5817 -0.4067
vn -0.7044 0.5817 0.4067
vn -0.0000 0.5817 0.8134
vn 0.7044 0.5817 0.4067
vn 0.7044 0.5817 -0.4067
vn 0.0000 0.5817 -0.8134
vn 0.0000 0.0994 -0.9950
vn 0.0000 0.1107 -0.9939
vn 0.8617 0.0994 0.4975
vn -0.8617 0.0994 -0.4975
vn -0.8607 0.1107 -0.4969
vn -0.8617 0.0994 0.4975
vn -0.0000 0.0994 0.9950
vn 0.8617 0.0994 -0.4975
vn 0.8607 0.1107 -0.4969
usemtl RHIGH.068
s off
f 2/1/1 4/2/1 3/3/1 1/4/1
f 4/2/2 6/5/2 5/6/2 3/3/2
f 6/5/3 8/7/3 7/8/3 5/6/3
f 8/7/4 10/9/4 9/10/4 7/8/4
f 10/9/5 12/11/5 11/12/5 9/10/5
f 12/11/6 2/13/6 1/14/6 11/12/6
f 1/15/7 3/16/7 5/17/7 7/18/7 9/19/7 11/20/7
f 2/1/8 13/21/8 14/22/8 4/2/8
f 6/5/9 16/23/9 17/24/9 8/7/9
f 12/11/10 15/25/10 13/26/10 2/13/10
f 10/9/11 18/27/11 20/28/11 15/25/11 12/11/11
f 8/7/12 17/24/12 18/27/12 10/9/12
f 4/2/13 14/22/13 19/29/13 16/23/13 6/5/13
f 92/30/14 91/31/14 93/32/14 94/33/14
f 90/34/15 89/35/15 91/31/15 92/30/15
f 95/36/16 96/37/16 89/35/16 90/34/16
usemtl RLOW.068
f 83/38/17 36/39/17 38/40/17 87/41/17
f 89/42/18 40/43/18 42/44/18 91/45/18
f 91/45/19 42/44/19 44/46/19 86/47/19 93/48/19
f 86/47/20 44/46/20 33/49/20 82/50/20
f 87/41/21 38/40/21 40/43/21 89/42/21 96/51/21
f 55/52/22 54/53/22 37/54/22 39/55/22
f 22/56/23 24/57/23 23/58/23 21/59/23
f 24/57/24 26/60/24 25/61/24 23/58/24
f 26/60/25 28/62/25 27/63/25 25/61/25
f 28/62/26 30/64/26 29/65/26 27/66/26
f 30/64/27 32/67/27 31/68/27 29/65/27
f 32/67/28 22/69/28 21/70/28 31/71/28
f 21/72/29 23/73/29 25/74/29 27/75/29 29/76/29 31/77/29
f 60/78/30 61/79/30 52/80/30 53/81/30
f 58/82/31 59/83/31 54/53/31 55/52/31
f 59/83/32 60/78/32 53/81/32 54/53/32
f 57/84/33 58/82/33 55/52/33 56/85/33
f 61/79/34 62/86/34 51/87/34 52/80/34
f 39/55/35 37/54/35 47/88/35 46/89/35
f 82/90/36 33/91/36 36/39/36 83/38/36
f 51/92/37 56/85/37 35/93/37 43/94/37
f 35/93/38 39/55/38 46/89/38 45/95/38
f 34/96/39 43/97/39 50/98/39 49/99/39
f 41/100/40 34/96/40 49/99/40 48/101/40
f 52/80/41 51/87/41 43/97/41 34/96/41
f 65/102/11 64/103/11 61/79/11 60/78/11
f 56/85/42 55/52/42 39/55/42 35/93/42
f 43/94/43 35/93/43 45/95/43 50/104/43
f 53/81/44 52/80/44 34/96/44 41/100/44
f 37/54/45 41/100/45 48/101/45 47/88/45
f 54/53/46 53/81/46 41/100/46 37/54/46
f 68/105/13 67/106/13 58/82/13 57/84/13
f 62/107/47 57/84/47 56/85/47 51/92/47
f 64/103/10 63/108/10 62/86/10 61/79/10
f 63/109/8 68/105/8 57/84/8 62/107/8
f 67/106/9 66/110/9 59/83/9 58/82/9
f 66/110/12 65/102/12 60/78/12 59/83/12
f 47/88/7 48/101/7 72/111/7 71/112/7
f 50/104/7 45/95/7 69/113/7 74/114/7
f 46/89/7 47/88/7 71/112/7 70/115/7
f 48/101/7 49/99/7 73/116/7 72/111/7
f 49/99/7 50/98/7 74/117/7 73/116/7
f 45/95/7 46/89/7 70/115/7 69/113/7
f 69/113/48 70/115/48 76/118/48 75/119/48
f 72/111/49 73/116/49 79/120/49 78/121/49
f 70/115/50 71/112/50 77/122/50 76/118/50
f 73/116/51 74/117/51 80/123/51 79/120/51
f 71/112/52 72/111/52 78/121/52 77/122/52
f 74/114/53 69/113/53 75/119/53 80/124/53
f 44/46/54 68/105/54 63/109/54 33/49/54
f 42/44/55 67/106/55 68/105/55 44/46/55
f 40/43/56 66/110/56 67/106/56 42/44/56
f 38/40/57 65/102/57 66/110/57 40/43/57
f 36/39/58 64/103/58 65/102/58 38/40/58
f 33/49/59 63/109/59 64/103/59 36/39/59
f 22/56/60 81/125/60 84/126/60 24/57/60
f 81/125/61 82/90/61 83/38/61 84/126/61
f 26/60/62 88/127/62 95/128/62 90/129/62 28/62/62
f 88/127/16 87/41/16 96/51/16 95/128/16
f 32/67/63 85/130/63 81/131/63 22/69/63
f 85/130/64 86/47/64 82/50/64 81/131/64
f 30/64/65 92/132/65 94/133/65 85/130/65 32/67/65
f 28/62/66 90/129/66 92/132/66 30/64/66
f 24/57/67 84/126/67 88/127/67 26/60/67
f 84/126/68 83/38/68 87/41/68 88/127/68
f 94/133/14 93/48/14 86/47/14 85/130/14
