# Blender v2.91.0 OBJ File: 'Red_Potion_13(Label).blend'
# www.blender.org
mtllib Red_Potion_13(Label).mtl
o Red_Potion_13(Label)_Cylinder.090
v -0.029689 -0.181668 -0.051422
v -0.032997 -0.164304 -0.057152
v 0.029689 -0.181668 -0.051422
v 0.032997 -0.164304 -0.057152
v 0.059377 -0.181668 0.000000
v 0.065993 -0.164304 0.000000
v 0.029689 -0.181668 0.051422
v 0.032997 -0.164304 0.057152
v -0.029689 -0.181668 0.051422
v -0.032997 -0.164304 0.057152
v -0.059377 -0.181668 0.000000
v -0.065993 -0.164304 0.000000
v -0.044751 0.099150 -0.077511
v -0.012452 0.139673 -0.021568
v 0.012452 0.139673 -0.021568
v 0.044751 0.099150 -0.077511
v 0.024904 0.139673 -0.000000
v 0.089503 0.099150 0.000000
v 0.012452 0.139673 0.021568
v 0.044751 0.099150 0.077512
v -0.012452 0.139673 0.021568
v -0.044751 0.099150 0.077511
v -0.024904 0.139673 0.000000
v -0.089503 0.099150 0.000000
v -0.010836 0.164023 -0.018769
v 0.010836 0.164023 -0.018769
v 0.021673 0.164023 -0.000000
v 0.010836 0.164023 0.018769
v -0.010836 0.164023 0.018769
v -0.021673 0.164023 0.000000
v -0.015269 0.168658 -0.026446
v 0.015269 0.168658 -0.026446
v 0.030537 0.168658 0.000000
v 0.015269 0.168658 0.026446
v -0.015269 0.168658 0.026446
v -0.030537 0.168658 0.000000
v -0.012231 0.187196 -0.021184
v 0.012231 0.187196 -0.021184
v 0.024461 0.187196 0.000000
v 0.012231 0.187196 0.021184
v -0.012231 0.187196 0.021184
v -0.024461 0.187196 0.000000
v -0.016634 0.187196 -0.028811
v 0.016634 0.187196 -0.028811
v 0.033268 0.187196 0.000000
v 0.016634 0.187196 0.028811
v -0.016634 0.187196 0.028811
v -0.033268 0.187196 0.000000
v -0.012251 0.195254 -0.021219
v -0.013616 0.178774 -0.023583
v -0.024502 0.195254 0.000000
v -0.027232 0.178774 0.000000
v -0.012251 0.195254 0.021219
v -0.013616 0.178774 0.023583
v 0.012251 0.195254 0.021219
v 0.013616 0.178774 0.023583
v 0.024502 0.195254 0.000000
v 0.027232 0.178774 0.000000
v 0.012251 0.195254 -0.021219
v 0.013616 0.178774 -0.023583
v -0.036675 -0.081852 -0.063524
v -0.040673 0.007750 -0.070448
v 0.040673 0.007750 -0.070448
v 0.036675 -0.081852 -0.063524
v -0.073351 -0.081852 0.000000
v -0.081347 0.007750 0.000000
v 0.081347 0.007750 0.000000
v 0.073351 -0.081852 0.000000
v 0.040673 0.007750 0.070448
v 0.036675 -0.081852 0.063524
v -0.040673 0.007750 0.070448
v -0.036675 -0.081852 0.063524
v -0.055013 -0.081852 0.031762
v -0.061010 0.007750 0.035224
v 0.061010 0.007750 0.035224
v 0.055013 -0.081852 0.031762
vt 0.724251 0.989205
vt 0.724145 0.989205
vt 0.724150 0.989191
vt 0.724246 0.989191
vt 0.724038 0.989205
vt 0.724043 0.989191
vt 0.724139 0.989191
vt 0.723931 0.989205
vt 0.723937 0.989191
vt 0.723825 0.989205
vt 0.723830 0.989191
vt 0.723718 0.989205
vt 0.723723 0.989191
vt 0.723611 0.989205
vt 0.723616 0.989191
vt 0.724091 0.989169
vt 0.724211 0.989100
vt 0.724211 0.988962
vt 0.724091 0.988893
vt 0.723972 0.988962
vt 0.723972 0.989100
vt 0.760911 0.505196
vt 0.760911 0.505133
vt 0.760945 0.505133
vt 0.760945 0.505196
vt 0.760843 0.505196
vt 0.760843 0.505133
vt 0.760809 0.505196
vt 0.760809 0.505133
vt 0.230408 0.950535
vt 0.230408 0.950470
vt 0.230476 0.950470
vt 0.230476 0.950535
vt 0.230544 0.950535
vt 0.230544 0.950470
vt 0.230612 0.950470
vt 0.230612 0.950535
vt 0.230681 0.950470
vt 0.230681 0.950535
vt 0.230646 0.950535
vt 0.230749 0.950470
vt 0.230749 0.950535
vt 0.230510 0.950535
vt 0.230610 0.950746
vt 0.230646 0.950725
vt 0.230646 0.950725
vt 0.230610 0.950746
vt 0.230340 0.950656
vt 0.230408 0.950656
vt 0.230404 0.950665
vt 0.230343 0.950665
vt 0.230476 0.950656
vt 0.230473 0.950665
vt 0.230544 0.950656
vt 0.230541 0.950665
vt 0.230612 0.950656
vt 0.230609 0.950665
vt 0.230681 0.950656
vt 0.230677 0.950665
vt 0.230749 0.950656
vt 0.230745 0.950665
vt 0.230442 0.950679
vt 0.230365 0.950811
vt 0.230442 0.950855
vt 0.230518 0.950811
vt 0.230518 0.950723
vt 0.230340 0.950535
vt 0.230340 0.950470
vt 0.230683 0.950746
vt 0.230683 0.950788
vt 0.230683 0.950788
vt 0.230683 0.950746
vt 0.230683 0.950746
vt 0.230683 0.950788
vt 0.230646 0.950810
vt 0.230646 0.950810
vt 0.230610 0.950788
vt 0.230610 0.950788
vt 0.230646 0.950725
vt 0.230683 0.950746
vt 0.230646 0.950725
vt 0.230610 0.950788
vt 0.230646 0.950810
vt 0.230610 0.950746
vt 0.230646 0.950810
vt 0.230683 0.950788
vt 0.230610 0.950746
vt 0.230610 0.950788
vt 0.230646 0.950736
vt 0.230619 0.950752
vt 0.230619 0.950783
vt 0.230646 0.950798
vt 0.230673 0.950783
vt 0.230673 0.950752
vt 0.230340 0.950598
vt 0.230408 0.950598
vt 0.230476 0.950598
vt 0.230510 0.950598
vt 0.230544 0.950598
vt 0.230681 0.950598
vt 0.230749 0.950598
vt 0.230612 0.950598
vt 0.230646 0.950598
vn -0.8572 0.1420 -0.4949
vn -0.8572 0.1420 0.4949
vn 0.0000 0.1420 0.9899
vn 0.8572 0.1420 0.4949
vn 0.8572 0.1420 -0.4949
vn 0.0000 0.1420 -0.9899
vn 0.0000 1.0000 -0.0000
vn -0.8635 -0.0771 0.4985
vn -0.0000 -0.0771 0.9970
vn 0.8635 -0.0771 0.4985
vn 0.8635 -0.0771 -0.4985
vn -0.8635 -0.0771 -0.4985
vn 0.0000 0.1142 -0.9935
vn 0.0000 -0.3133 -0.9496
vn 0.8224 -0.3133 -0.4748
vn 0.8224 -0.3133 0.4748
vn -0.0000 -0.3133 0.9496
vn -0.8224 -0.3133 0.4748
vn -0.8224 -0.3133 -0.4748
vn 0.0000 -1.0000 -0.0000
vn 0.0000 -0.0771 -0.9970
vn -0.4476 -0.8561 0.2584
vn -0.8604 0.1142 -0.4967
vn -0.0000 0.1142 0.9935
vn 0.8604 0.1142 -0.4967
vn -0.8604 0.1142 0.4967
vn 0.8604 0.1142 0.4967
vn -0.8591 -0.1265 -0.4960
vn 0.4476 -0.8561 0.2584
vn 0.0000 -0.8561 -0.5168
vn -0.4476 -0.8561 -0.2584
vn -0.0000 -0.8561 0.5168
vn 0.4476 -0.8561 -0.2584
vn -0.0000 -0.1265 0.9920
vn 0.8591 -0.1265 -0.4960
vn -0.8591 -0.1265 0.4960
vn 0.8591 -0.1265 0.4960
vn 0.0000 -0.1265 -0.9920
vn 0.0000 0.8099 -0.5866
vn 0.5080 0.8099 -0.2933
vn 0.5080 0.8099 0.2933
vn -0.0000 0.8099 0.5866
vn -0.5080 0.8099 0.2933
vn -0.5080 0.8099 -0.2933
usemtl RHIGH.081
s off
f 50/1/1 52/2/1 51/3/1 49/4/1
f 52/2/2 54/5/2 53/6/2 51/7/2
f 54/5/3 56/8/3 55/9/3 53/6/3
f 56/8/4 58/10/4 57/11/4 55/9/4
f 58/10/5 60/12/5 59/13/5 57/11/5
f 60/12/6 50/14/6 49/15/6 59/13/6
f 49/16/7 51/17/7 53/18/7 55/19/7 57/20/7 59/21/7
f 72/22/8 71/23/8 74/24/8 73/25/8
f 70/26/9 69/27/9 71/23/9 72/22/9
f 76/28/10 75/29/10 69/27/10 70/26/10
usemtl RLOW.081
f 63/30/11 16/31/11 18/32/11 67/33/11
f 69/34/9 20/35/9 22/36/9 71/37/9
f 71/37/8 22/36/8 24/38/8 66/39/8 74/40/8
f 66/39/12 24/38/12 13/41/12 62/42/12
f 67/33/10 18/32/10 20/35/10 69/34/10 75/43/10
f 15/44/13 14/45/13 25/46/13 26/47/13
f 2/48/14 4/49/14 3/50/14 1/51/14
f 4/49/15 6/52/15 5/53/15 3/50/15
f 6/52/16 8/54/16 7/55/16 5/53/16
f 8/54/17 10/56/17 9/57/17 7/55/17
f 10/56/18 12/58/18 11/59/18 9/57/18
f 12/58/19 2/60/19 1/61/19 11/59/19
f 1/62/20 3/50/20 5/63/20 7/64/20 9/65/20 11/66/20
f 62/67/21 13/68/21 16/31/21 63/30/21
f 30/69/22 29/70/22 35/71/22 36/72/22
f 14/45/23 23/73/23 30/69/23 25/46/23
f 21/74/24 19/75/24 28/76/24 29/70/24
f 17/77/25 15/44/25 26/47/25 27/78/25
f 23/73/26 21/74/26 29/70/26 30/69/26
f 19/75/27 17/77/27 27/78/27 28/76/27
f 31/79/28 36/72/28 48/80/28 43/81/28
f 28/76/29 27/78/29 33/82/29 34/83/29
f 26/47/30 25/46/30 31/79/30 32/84/30
f 25/46/31 30/69/31 36/72/31 31/79/31
f 29/70/32 28/76/32 34/83/32 35/71/32
f 27/78/33 26/47/33 32/84/33 33/82/33
f 35/71/34 34/83/34 46/85/34 47/86/34
f 33/82/35 32/84/35 44/87/35 45/88/35
f 36/72/36 35/71/36 47/86/36 48/80/36
f 34/83/37 33/82/37 45/88/37 46/85/37
f 32/84/38 31/79/38 43/81/38 44/87/38
f 37/89/7 38/90/7 44/87/7 43/81/7
f 38/90/7 39/91/7 45/88/7 44/87/7
f 39/91/7 40/92/7 46/85/7 45/88/7
f 40/92/7 41/93/7 47/86/7 46/85/7
f 41/93/7 42/94/7 48/80/7 47/86/7
f 42/94/7 37/89/7 43/81/7 48/80/7
f 16/31/39 13/68/39 14/45/39 15/44/39
f 18/32/40 16/31/40 15/44/40 17/77/40
f 20/35/41 18/32/41 17/77/41 19/75/41
f 22/36/42 20/35/42 19/75/42 21/74/42
f 24/38/43 22/36/43 21/74/43 23/73/43
f 23/73/44 14/45/44 13/68/44 24/38/44
f 2/48/21 61/95/21 64/96/21 4/49/21
f 61/95/21 62/67/21 63/30/21 64/96/21
f 6/52/10 68/97/10 76/98/10 70/99/10 8/54/10
f 68/97/10 67/33/10 75/43/10 76/98/10
f 12/58/12 65/100/12 61/101/12 2/60/12
f 65/100/12 66/39/12 62/42/12 61/101/12
f 10/56/8 72/102/8 73/103/8 65/100/8 12/58/8
f 8/54/9 70/99/9 72/102/9 10/56/9
f 4/49/11 64/96/11 68/97/11 6/52/11
f 64/96/11 63/30/11 67/33/11 68/97/11
f 73/103/8 74/40/8 66/39/8 65/100/8
