# Blender v2.91.0 OBJ File: 'Blue_Potion_5.blend'
# www.blender.org
mtllib Blue_Potion_5.mtl
o Blue_Potion_5_Cube.001
v -0.102250 -0.182267 0.058102
v -0.107136 -0.167522 0.064000
v -0.116202 -0.182267 0.051126
v -0.127998 -0.167522 0.053569
v -0.060053 0.155831 0.044643
v -0.127998 0.122987 0.053569
v -0.107136 0.122987 0.064000
v -0.116202 -0.182267 -0.051126
v -0.127998 -0.167522 -0.053569
v -0.102250 -0.182267 -0.058102
v -0.107136 -0.167522 -0.064000
v -0.060053 0.155831 -0.044643
v -0.107136 0.122987 -0.064000
v -0.127998 0.122987 -0.053569
v 0.116206 -0.182267 0.051126
v 0.128002 -0.167522 0.053569
v 0.102254 -0.182267 0.058102
v 0.107140 -0.167522 0.064000
v 0.060067 0.155831 0.044643
v 0.107140 0.122987 0.064000
v 0.128002 0.122987 0.053569
v 0.102254 -0.182267 -0.058102
v 0.107140 -0.167522 -0.064000
v 0.116206 -0.182267 -0.051126
v 0.128002 -0.167522 -0.053569
v 0.060067 0.155831 -0.044643
v 0.128002 0.122987 -0.053569
v 0.107140 0.122987 -0.064000
v -0.102250 0.137733 0.058102
v -0.116202 0.137733 0.051126
v -0.116202 0.137733 -0.051126
v -0.102250 0.137733 -0.058102
v 0.102254 0.137733 -0.058102
v 0.116206 0.137733 -0.051126
v 0.116206 0.137733 0.051126
v 0.102254 0.137733 0.058102
v -0.037501 0.175127 0.027886
v -0.037501 0.175127 -0.027886
v 0.037532 0.175127 -0.027886
v 0.037532 0.175127 0.027886
v -0.026873 0.192192 0.027368
v -0.026873 0.192192 -0.027368
v 0.026904 0.192192 -0.027368
v 0.026904 0.192192 0.027368
v -0.038539 0.204608 0.039242
v -0.038539 0.204608 -0.039242
v 0.038570 0.204608 -0.039242
v 0.038570 0.204608 0.039242
v -0.038539 0.222198 0.039242
v -0.038539 0.222198 -0.039242
v 0.038570 0.222198 -0.039242
v 0.038570 0.222198 0.039242
v -0.028958 0.232545 0.029489
v -0.028958 0.232545 -0.029489
v 0.028988 0.232545 -0.029489
v 0.028988 0.232545 0.029489
v -0.023715 0.232545 0.024153
v -0.023715 0.232545 -0.024153
v 0.023746 0.232545 -0.024153
v 0.023746 0.232545 0.024153
v -0.020376 0.225125 0.020755
v -0.020376 0.225125 -0.020755
v 0.020407 0.225125 -0.020755
v 0.020407 0.225125 0.020755
v 0.017755 0.240747 0.021640
v 0.018611 0.236604 0.023837
v 0.020199 0.240747 0.019042
v 0.022265 0.236604 0.019952
v 0.020199 0.240747 -0.019042
v 0.022265 0.236604 -0.019952
v 0.017755 0.240747 -0.021640
v 0.018611 0.236604 -0.023837
v -0.020510 0.240747 0.019042
v -0.022577 0.236604 0.019952
v -0.018067 0.240747 0.021640
v -0.018922 0.236604 0.023837
v -0.018067 0.240747 -0.021640
v -0.018922 0.236604 -0.023837
v -0.020510 0.240747 -0.019042
v -0.022577 0.236604 -0.019952
v 0.018611 0.224947 0.023837
v 0.022265 0.224947 0.019952
v 0.022265 0.224947 -0.019952
v 0.018611 0.224947 -0.023837
v -0.022577 0.224947 0.019952
v -0.018922 0.224947 0.023837
v -0.018922 0.224947 -0.023837
v -0.022577 0.224947 -0.019952
vt 0.727299 0.987422
vt 0.727315 0.987438
vt 0.727310 0.987452
vt 0.727286 0.987428
vt 0.727315 0.987171
vt 0.727299 0.987187
vt 0.727286 0.987182
vt 0.727310 0.987158
vt 0.727566 0.987187
vt 0.727550 0.987171
vt 0.727556 0.987158
vt 0.727580 0.987182
vt 0.727550 0.987438
vt 0.727566 0.987422
vt 0.727580 0.987428
vt 0.727556 0.987452
vt 0.727556 0.987452
vt 0.727310 0.987452
vt 0.727556 0.987158
vt 0.727580 0.987182
vt 0.727593 0.987428
vt 0.727310 0.987158
vt 0.727286 0.987182
vt 0.727286 0.987428
vt 0.583634 0.990448
vt 0.583699 0.990448
vt 0.583699 0.990508
vt 0.583634 0.990508
vt 0.583699 0.990592
vt 0.583634 0.990592
vt 0.583634 0.990580
vt 0.583699 0.990580
vt 0.583699 0.990520
vt 0.583634 0.990520
vt 0.583699 0.990663
vt 0.583634 0.990663
vt 0.583634 0.990652
vt 0.583699 0.990652
vt 0.583699 0.990723
vt 0.583634 0.990723
vt 0.583634 0.990442
vt 0.583699 0.990442
vt 0.583562 0.990650
vt 0.583566 0.990654
vt 0.583559 0.990652
vt 0.583767 0.990654
vt 0.583771 0.990650
vt 0.583774 0.990652
vt 0.583768 0.990658
vt 0.583771 0.990593
vt 0.583767 0.990589
vt 0.583768 0.990586
vt 0.583774 0.990592
vt 0.583566 0.990589
vt 0.583562 0.990593
vt 0.583559 0.990592
vt 0.583565 0.990586
vt 0.583710 0.990589
vt 0.583706 0.990593
vt 0.583627 0.990593
vt 0.583624 0.990589
vt 0.583706 0.990650
vt 0.583710 0.990654
vt 0.583624 0.990654
vt 0.583627 0.990650
vt 0.583766 0.990648
vt 0.583765 0.990595
vt 0.583711 0.990595
vt 0.583712 0.990649
vt 0.583711 0.990648
vt 0.583711 0.990595
vt 0.583711 0.990595
vt 0.583711 0.990648
vt 0.583765 0.990595
vt 0.583765 0.990649
vt 0.583766 0.990648
vt 0.583766 0.990595
vt 0.583711 0.990595
vt 0.583711 0.990648
vt 0.583766 0.990648
vt 0.583766 0.990595
vt 0.583766 0.990595
vt 0.583766 0.990648
vt 0.583766 0.990648
vt 0.583766 0.990595
vt 0.583712 0.990649
vt 0.583711 0.990648
vt 0.583711 0.990595
vt 0.583711 0.990595
vt 0.583711 0.990648
vt 0.583712 0.990595
vt 0.583766 0.990648
vt 0.583766 0.990595
vt 0.583766 0.990648
vt 0.583766 0.990595
vt 0.583711 0.990595
vt 0.583711 0.990648
vn 0.6479 0.4570 0.6094
vn 0.6479 0.4570 -0.6094
vn -0.6479 0.4570 -0.6094
vn -0.6479 0.4570 0.6094
vn 0.8949 0.4463 0.0000
vn 0.0000 0.4685 -0.8835
vn -0.8949 0.4463 0.0000
vn 0.0000 0.4685 0.8835
vn 0.0000 1.0000 0.0000
vn 0.0000 0.0000 1.0000
vn -0.7284 0.0000 -0.6851
vn -1.0000 0.0000 0.0000
vn 0.0000 0.0000 -1.0000
vn 0.7284 0.0000 -0.6851
vn 1.0000 0.0000 0.0000
vn 0.7284 0.0000 0.6851
vn -0.7284 0.0000 0.6851
vn 0.4472 0.0000 -0.8944
vn -0.4472 0.0000 -0.8944
vn 0.4472 0.0000 0.8944
vn -0.4472 0.0000 0.8944
vn -0.3990 -0.4515 0.7981
vn -0.3990 0.4515 0.7981
vn -0.3990 0.4515 -0.7981
vn -0.3990 -0.4515 -0.7981
vn 0.3990 0.4515 -0.7981
vn 0.3990 -0.4515 -0.7981
vn 0.3990 0.4515 0.7981
vn 0.3990 -0.4515 0.7981
vn -0.7809 -0.6247 0.0000
vn 0.0000 -0.3714 -0.9285
vn 0.7809 -0.6247 0.0000
vn 0.0000 -0.3714 0.9285
vn -0.7809 0.6247 0.0000
vn 0.0000 0.3714 0.9285
vn 0.7809 0.6247 0.0000
vn 0.0000 0.3714 -0.9285
vn 0.0000 -1.0000 -0.0000
vn -0.2260 0.8630 0.4519
vn -0.2260 0.8630 -0.4519
vn 0.2260 0.8629 -0.4520
vn 0.2260 0.8629 0.4520
vn -0.3068 0.9518 0.0000
vn 0.0000 0.5967 0.8024
vn 0.3068 0.9518 0.0000
vn 0.0000 0.5967 -0.8024
vn 0.8489 0.5286 0.0000
vn 0.0000 0.6557 -0.7550
vn 0.0000 0.6557 0.7550
vn 0.6504 0.7596 0.0000
vn -0.6501 0.7598 0.0000
vn -0.8489 0.5286 0.0000
vn 0.0000 0.0303 -0.9995
vn 0.0000 0.0303 0.9995
vn 0.7288 -0.6847 0.0000
vn -0.7288 -0.6847 0.0000
vn 0.0000 -0.6911 -0.7227
vn 0.0000 -0.6911 0.7227
vn -0.7337 0.6795 0.0000
vn 0.0000 0.6859 -0.7277
vn 0.0000 0.6859 0.7277
vn 0.7337 0.6795 0.0000
vn 0.9119 0.4104 0.0000
vn -0.9119 0.4104 0.0000
vn 0.0000 0.4164 0.9092
vn 0.0000 0.4164 -0.9092
usemtl RHIGH.011
s off
f 67/1/1 65/2/1 66/3/1 68/4/1
f 71/5/2 69/6/2 70/7/2 72/8/2
f 79/9/3 77/10/3 78/11/3 80/12/3
f 75/13/4 73/14/4 74/15/4 76/16/4
f 68/4/5 70/7/5 69/6/5 67/1/5
f 72/8/6 78/11/6 77/10/6 71/5/6
f 80/12/7 74/15/7 73/14/7 79/9/7
f 76/16/8 66/3/8 65/2/8 75/13/8
f 69/6/9 71/5/9 77/10/9 79/9/9 73/14/9 75/13/9 65/2/9 67/1/9
f 66/3/10 76/16/10 86/17/10 81/18/10
f 80/12/11 78/11/11 87/19/11 88/20/11
f 74/15/12 80/12/12 88/20/12 85/21/12
f 78/11/13 72/8/13 84/22/13 87/19/13
f 72/8/14 70/7/14 83/23/14 84/22/14
f 70/7/15 68/4/15 82/24/15 83/23/15
f 68/4/16 66/3/16 81/18/16 82/24/16
f 76/16/17 74/15/17 85/21/17 86/17/17
usemtl RLOW.011
f 4/25/12 6/26/12 14/27/12 9/28/12
f 27/29/18 25/30/18 23/31/18 28/32/18
f 13/33/19 11/34/19 9/28/19 14/27/19
f 20/35/20 18/36/20 16/37/20 21/38/20
f 18/36/10 20/35/10 7/39/10 2/40/10
f 11/34/13 13/33/13 28/32/13 23/31/13
f 25/30/15 27/29/15 21/38/15 16/37/15
f 2/41/21 7/42/21 6/26/21 4/25/21
f 3/43/22 1/44/22 2/40/22 4/45/22
f 29/46/23 30/47/23 6/48/23 7/49/23
f 31/50/24 32/51/24 13/52/24 14/53/24
f 10/54/25 8/55/25 9/56/25 11/57/25
f 33/58/26 34/59/26 27/29/26 28/32/26
f 24/60/27 22/61/27 23/31/27 25/30/27
f 35/62/28 36/63/28 20/35/28 21/38/28
f 17/64/29 15/65/29 16/37/29 18/36/29
f 4/45/30 9/56/30 8/55/30 3/43/30
f 11/57/31 23/31/31 22/61/31 10/54/31
f 25/30/32 16/37/32 15/65/32 24/60/32
f 18/36/33 2/40/33 1/44/33 17/64/33
f 30/47/34 31/50/34 14/53/34 6/48/34
f 36/63/35 29/46/35 7/49/35 20/35/35
f 21/38/36 27/29/36 34/59/36 35/62/36
f 28/32/37 13/52/37 32/51/37 33/58/37
f 8/55/38 10/54/38 22/61/38 24/60/38 15/65/38 17/64/38 1/44/38 3/43/38
f 5/66/39 30/47/39 29/46/39
f 12/67/40 32/51/40 31/50/40
f 26/68/41 34/59/41 33/58/41
f 19/69/42 36/63/42 35/62/42
f 5/66/43 12/67/43 31/50/43 30/47/43
f 19/69/44 5/66/44 29/46/44 36/63/44
f 26/68/45 19/69/45 35/62/45 34/59/45
f 12/67/46 26/68/46 33/58/46 32/51/46
f 40/70/47 39/71/47 43/72/47 44/73/47
f 26/68/48 12/67/48 38/74/48 39/71/48
f 5/66/49 19/69/49 40/70/49 37/75/49
f 19/69/50 26/68/50 39/71/50 40/70/50
f 12/67/51 5/66/51 37/75/51 38/74/51
f 38/74/52 37/75/52 41/76/52 42/77/52
f 39/71/53 38/74/53 42/77/53 43/72/53
f 37/75/54 40/70/54 44/73/54 41/76/54
f 44/73/55 43/72/55 47/78/55 48/79/55
f 42/77/56 41/76/56 45/80/56 46/81/56
f 43/72/57 42/77/57 46/81/57 47/78/57
f 41/76/58 44/73/58 48/79/58 45/80/58
f 50/82/59 49/83/59 53/84/59 54/85/59
f 46/81/12 45/80/12 49/83/12 50/82/12
f 52/86/10 49/83/10 45/80/10 48/79/10
f 56/87/9 55/88/9 59/89/9 60/90/9
f 51/91/60 50/82/60 54/85/60 55/88/60
f 49/83/61 52/86/61 56/87/61 53/84/61
f 52/86/62 51/91/62 55/88/62 56/87/62
f 47/78/13 46/81/13 50/82/13 51/91/13
f 51/91/15 52/86/15 48/79/15 47/78/15
f 54/85/9 53/84/9 57/92/9 58/93/9
f 55/88/9 54/85/9 58/93/9 59/89/9
f 53/84/9 56/87/9 60/90/9 57/92/9
f 58/93/63 57/92/63 61/94/63 62/95/63
f 60/90/64 59/89/64 63/96/64 64/97/64
f 59/89/65 58/93/65 62/95/65 63/96/65
f 57/92/66 60/90/66 64/97/66 61/94/66
