# Blender v2.91.0 OBJ File: 'Blue_Potion_1.blend'
# www.blender.org
mtllib Blue_Potion_1.mtl
o Blue_Potion_1_Cylinder
v -0.029689 -0.170539 -0.051422
v -0.032997 -0.153175 -0.057152
v 0.029689 -0.170539 -0.051422
v 0.032997 -0.153175 -0.057152
v 0.059377 -0.170539 0.000000
v 0.065993 -0.153175 0.000000
v 0.029689 -0.170539 0.051422
v 0.032997 -0.153175 0.057152
v -0.029689 -0.170539 0.051422
v -0.032997 -0.153175 0.057152
v -0.059377 -0.170539 0.000000
v -0.065993 -0.153175 0.000000
v -0.032997 0.110630 -0.057152
v -0.012452 0.140584 -0.021568
v 0.012452 0.140584 -0.021568
v 0.032997 0.110630 -0.057152
v 0.024904 0.140584 -0.000000
v 0.065993 0.110630 0.000000
v 0.012452 0.140584 0.021568
v 0.032997 0.110630 0.057152
v -0.012452 0.140584 0.021568
v -0.032997 0.110630 0.057152
v -0.024904 0.140584 0.000000
v -0.065993 0.110630 0.000000
v -0.025636 0.129461 -0.044403
v 0.025636 0.129461 -0.044403
v 0.051272 0.129461 -0.000000
v 0.025636 0.129461 0.044403
v -0.025636 0.129461 0.044403
v -0.051272 0.129461 0.000000
v -0.010836 0.164934 -0.018769
v 0.010836 0.164934 -0.018769
v 0.021673 0.164934 -0.000000
v 0.010836 0.164934 0.018769
v -0.010836 0.164934 0.018769
v -0.021673 0.164934 0.000000
v -0.015269 0.169569 -0.026446
v 0.015269 0.169569 -0.026446
v 0.030537 0.169569 -0.000000
v 0.015269 0.169569 0.026446
v -0.015269 0.169569 0.026446
v -0.030537 0.169569 0.000000
v -0.007985 0.188106 -0.013830
v 0.007985 0.188106 -0.013830
v 0.015970 0.188106 -0.000000
v 0.007985 0.188106 0.013830
v -0.007985 0.188106 0.013830
v -0.015970 0.188106 0.000000
v -0.016634 0.188107 -0.028811
v 0.016634 0.188107 -0.028811
v 0.033268 0.188107 0.000000
v 0.016634 0.188107 0.028811
v -0.016634 0.188107 0.028811
v -0.033268 0.188107 0.000000
v -0.008627 0.198572 -0.014943
v -0.009589 0.186967 -0.016608
v -0.017255 0.198572 0.000000
v -0.019177 0.186967 0.000000
v -0.008627 0.198572 0.014943
v -0.009589 0.186967 0.016608
v 0.008627 0.198572 0.014943
v 0.009589 0.186967 0.016608
v 0.017255 0.198572 0.000000
v 0.019177 0.186967 0.000000
v 0.008627 0.198572 -0.014943
v 0.009589 0.186967 -0.016608
vt 0.584001 0.985780
vt 0.584001 0.985803
vt 0.583993 0.985803
vt 0.583993 0.985780
vt 0.583984 0.985780
vt 0.583984 0.985803
vt 0.583976 0.985803
vt 0.583976 0.985780
vt 0.583968 0.985803
vt 0.583968 0.985780
vt 0.583959 0.985803
vt 0.583959 0.985780
vt 0.583976 0.985770
vt 0.583972 0.985772
vt 0.583972 0.985772
vt 0.583976 0.985770
vt 0.584001 0.985779
vt 0.584009 0.985779
vt 0.583993 0.985779
vt 0.583985 0.985779
vt 0.583976 0.985779
vt 0.583968 0.985779
vt 0.584009 0.985804
vt 0.584001 0.985804
vt 0.583993 0.985804
vt 0.583985 0.985804
vt 0.583976 0.985804
vt 0.583968 0.985804
vt 0.583976 0.985764
vt 0.583972 0.985762
vt 0.583967 0.985764
vt 0.583967 0.985770
vt 0.583967 0.985770
vt 0.583967 0.985764
vt 0.583967 0.985764
vt 0.583967 0.985770
vt 0.583972 0.985762
vt 0.583976 0.985764
vt 0.583972 0.985772
vt 0.583967 0.985770
vt 0.583972 0.985772
vt 0.583976 0.985764
vt 0.583972 0.985762
vt 0.583976 0.985770
vt 0.583975 0.985769
vt 0.583972 0.985771
vt 0.583969 0.985769
vt 0.583969 0.985765
vt 0.583972 0.985763
vt 0.583975 0.985765
vt 0.583972 0.985762
vt 0.583967 0.985764
vt 0.583976 0.985770
vt 0.583976 0.985764
vt 0.727270 0.987212
vt 0.727034 0.987212
vt 0.727046 0.987182
vt 0.727259 0.987182
vt 0.726798 0.987212
vt 0.726810 0.987182
vt 0.726562 0.987212
vt 0.726574 0.987182
vt 0.726326 0.987212
vt 0.726338 0.987182
vt 0.726090 0.987212
vt 0.726102 0.987182
vt 0.725854 0.987212
vt 0.725866 0.987182
vt 0.726916 0.987134
vt 0.727181 0.986981
vt 0.727181 0.986675
vt 0.726916 0.986522
vt 0.726652 0.986675
vt 0.726652 0.986981
vn 0.8660 0.0000 -0.5000
vn -0.0000 0.0000 1.0000
vn -0.8660 0.0000 0.5000
vn -0.8660 0.0000 -0.5000
vn 0.8660 0.0000 0.5000
vn 0.0000 0.1142 -0.9935
vn 0.0000 -0.3133 -0.9496
vn 0.8224 -0.3133 -0.4748
vn 0.8224 -0.3133 0.4748
vn -0.0000 -0.3133 0.9496
vn -0.8224 -0.3133 0.4748
vn -0.8224 -0.3133 -0.4748
vn 0.0000 -1.0000 -0.0000
vn 0.0000 0.5606 -0.8281
vn 0.7171 0.5606 -0.4140
vn 0.7171 0.5606 0.4140
vn -0.0000 0.5606 0.8281
vn -0.7171 0.5606 0.4140
vn -0.7171 0.5606 -0.4140
vn 0.0000 0.0000 -1.0000
vn 0.0000 0.8990 -0.4379
vn 0.3792 0.8990 -0.2189
vn 0.3792 0.8990 0.2189
vn -0.0000 0.8990 0.4379
vn -0.3792 0.8990 0.2189
vn -0.3792 0.8990 -0.2189
vn -0.4476 -0.8561 0.2584
vn -0.8604 0.1142 -0.4967
vn -0.0000 0.1142 0.9935
vn 0.8604 0.1142 -0.4967
vn -0.8604 0.1142 0.4967
vn 0.8604 0.1142 0.4967
vn -0.8591 -0.1265 -0.4960
vn 0.4476 -0.8561 0.2584
vn 0.0000 -0.8561 -0.5168
vn -0.4476 -0.8561 -0.2584
vn -0.0000 -0.8561 0.5168
vn 0.4476 -0.8561 -0.2584
vn 0.0000 1.0000 0.0000
vn -0.0000 -0.1265 0.9920
vn 0.8591 -0.1265 -0.4960
vn -0.8591 -0.1265 0.4960
vn 0.8591 -0.1265 0.4960
vn 0.0000 -0.1265 -0.9920
vn -0.8572 0.1420 -0.4949
vn -0.8572 0.1420 0.4949
vn 0.0000 0.1420 0.9899
vn 0.8572 0.1420 0.4949
vn 0.8572 0.1420 -0.4949
vn 0.0000 0.1420 -0.9899
usemtl RLOW
s off
f 4/1/1 16/2/1 18/3/1 6/4/1
f 8/5/2 20/6/2 22/7/2 10/8/2
f 10/8/3 22/7/3 24/9/3 12/10/3
f 12/10/4 24/9/4 13/11/4 2/12/4
f 6/4/5 18/3/5 20/6/5 8/5/5
f 15/13/6 14/14/6 31/15/6 32/16/6
f 2/12/7 4/1/7 3/17/7 1/18/7
f 4/1/8 6/4/8 5/19/8 3/17/8
f 6/4/9 8/5/9 7/20/9 5/19/9
f 8/5/10 10/8/10 9/21/10 7/20/10
f 10/8/11 12/10/11 11/22/11 9/21/11
f 12/10/12 2/12/12 1/18/12 11/22/12
f 1/18/13 3/17/13 5/19/13 7/20/13 9/21/13 11/22/13
f 16/2/14 13/11/14 25/23/14 26/24/14
f 18/3/15 16/2/15 26/24/15 27/25/15
f 20/6/16 18/3/16 27/25/16 28/26/16
f 22/7/17 20/6/17 28/26/17 29/27/17
f 24/9/18 22/7/18 29/27/18 30/28/18
f 13/11/19 24/9/19 30/28/19 25/23/19
f 2/12/20 13/11/20 16/2/20 4/1/20
f 14/14/21 15/13/21 26/24/21 25/23/21
f 15/13/22 17/29/22 27/25/22 26/24/22
f 17/29/23 19/30/23 28/26/23 27/25/23
f 19/30/24 21/31/24 29/27/24 28/26/24
f 21/31/25 23/32/25 30/28/25 29/27/25
f 23/32/26 14/14/26 25/23/26 30/28/26
f 36/33/27 35/34/27 41/35/27 42/36/27
f 14/14/28 23/32/28 36/33/28 31/15/28
f 21/31/29 19/30/29 34/37/29 35/34/29
f 17/29/30 15/13/30 32/16/30 33/38/30
f 23/32/31 21/31/31 35/34/31 36/33/31
f 19/30/32 17/29/32 33/38/32 34/37/32
f 37/39/33 42/36/33 54/40/33 49/41/33
f 34/37/34 33/38/34 39/42/34 40/43/34
f 32/16/35 31/15/35 37/39/35 38/44/35
f 31/15/36 36/33/36 42/36/36 37/39/36
f 35/34/37 34/37/37 40/43/37 41/35/37
f 33/38/38 32/16/38 38/44/38 39/42/38
f 44/45/39 43/46/39 48/47/39 47/48/39 46/49/39 45/50/39
f 41/35/40 40/43/40 52/51/40 53/52/40
f 39/42/41 38/44/41 50/53/41 51/54/41
f 42/36/42 41/35/42 53/52/42 54/40/42
f 40/43/43 39/42/43 51/54/43 52/51/43
f 38/44/44 37/39/44 49/41/44 50/53/44
f 43/46/39 44/45/39 50/53/39 49/41/39
f 44/45/39 45/50/39 51/54/39 50/53/39
f 45/50/39 46/49/39 52/51/39 51/54/39
f 46/49/39 47/48/39 53/52/39 52/51/39
f 47/48/39 48/47/39 54/40/39 53/52/39
f 48/47/39 43/46/39 49/41/39 54/40/39
usemtl RHIGH
f 56/55/45 58/56/45 57/57/45 55/58/45
f 58/56/46 60/59/46 59/60/46 57/57/46
f 60/59/47 62/61/47 61/62/47 59/60/47
f 62/61/48 64/63/48 63/64/48 61/62/48
f 64/63/49 66/65/49 65/66/49 63/64/49
f 66/65/50 56/67/50 55/68/50 65/66/50
f 55/69/39 57/70/39 59/71/39 61/72/39 63/73/39 65/74/39
