# Blender v2.91.0 OBJ File: 'Blue_Potion_8.blend'
# www.blender.org
mtllib Blue_Potion_8.mtl
o Blue_Potion_8_Cylinder.001
v -0.013395 0.174075 -0.022793
v -0.014868 0.169664 -0.025344
v -0.026614 0.174075 0.000102
v -0.029559 0.169664 0.000102
v -0.013395 0.174075 0.022997
v -0.014868 0.169664 0.025548
v 0.013041 0.174075 0.022997
v 0.014514 0.169664 0.025548
v 0.026260 0.174075 0.000102
v 0.029205 0.169664 0.000102
v 0.013041 0.174075 -0.022793
v 0.014514 0.169664 -0.025344
v -0.014868 0.151668 -0.025344
v -0.029559 0.151668 0.000102
v 0.014514 0.151668 -0.025344
v -0.014868 0.151668 0.025548
v 0.014514 0.151668 0.025548
v 0.029205 0.151668 0.000102
v -0.022214 0.151668 0.012825
v 0.021860 0.151668 -0.012621
v -0.021421 -0.130902 -0.037121
v 0.021437 -0.130902 -0.037121
v 0.042867 -0.130902 -0.000005
v 0.021438 -0.130902 0.037112
v -0.021421 -0.130902 0.037112
v -0.042850 -0.130902 -0.000005
v -0.041124 0.030712 -0.071247
v 0.025312 0.153070 -0.043833
v -0.050600 0.153070 -0.000005
v 0.041140 0.030712 -0.071247
v 0.025312 0.153070 0.043823
v 0.082272 0.030712 -0.000005
v -0.025296 0.153070 0.043823
v 0.041140 0.030712 0.071238
v 0.050616 0.153070 -0.000005
v -0.041124 0.030712 0.071238
v -0.025296 0.153070 -0.043833
v -0.082255 0.030712 -0.000005
v -0.046392 0.160485 -0.000005
v -0.023192 0.160485 0.040179
v 0.023209 0.160485 0.040179
v 0.046409 0.160485 -0.000005
v 0.023209 0.160485 -0.040189
v -0.023192 0.160485 -0.040189
v -0.023192 0.145655 -0.040189
v 0.023209 0.145655 -0.040189
v 0.046409 0.145655 -0.000005
v 0.023209 0.145655 0.040179
v -0.023192 0.145655 0.040179
v -0.046392 0.145655 -0.000005
v -0.029433 0.137313 -0.000005
v -0.014712 0.137313 0.025492
v 0.014729 0.137313 0.025492
v 0.029450 0.137313 -0.000005
v 0.014729 0.137313 -0.025502
v -0.014712 0.137313 -0.025502
v -0.014712 0.094675 -0.025502
v 0.014729 0.094675 -0.025502
v 0.029450 0.094675 -0.000005
v 0.014729 0.094675 0.025492
v -0.014712 0.094675 0.025492
v -0.029433 0.094675 -0.000005
v -0.035070 0.160485 -0.000005
v -0.017531 0.160485 0.030374
v 0.017547 0.160485 0.030374
v 0.035086 0.160485 -0.000005
v 0.017547 0.160485 -0.030383
v -0.017531 0.160485 -0.030383
v -0.028529 0.155443 -0.000005
v -0.014260 0.155443 0.024709
v 0.014277 0.155443 0.024709
v 0.028546 0.155443 -0.000005
v 0.014277 0.155443 -0.024719
v -0.014260 0.155443 -0.024719
v -0.024308 -0.166225 -0.042122
v -0.027441 -0.156649 -0.047549
v 0.024325 -0.166225 -0.042122
v 0.027458 -0.156649 -0.047549
v 0.048641 -0.166225 -0.000005
v 0.054907 -0.156649 -0.000005
v 0.024325 -0.166225 0.042112
v 0.027458 -0.156649 0.047539
v -0.024308 -0.166225 0.042112
v -0.027441 -0.156649 0.047539
v -0.048624 -0.166225 -0.000005
v -0.054891 -0.156649 -0.000005
vt 0.723037 0.989901
vt 0.722925 0.989901
vt 0.722930 0.989886
vt 0.723031 0.989886
vt 0.722813 0.989901
vt 0.722818 0.989886
vt 0.722701 0.989901
vt 0.722706 0.989886
vt 0.722589 0.989901
vt 0.722594 0.989886
vt 0.722477 0.989901
vt 0.722483 0.989886
vt 0.722365 0.989901
vt 0.722371 0.989886
vt 0.722869 0.989863
vt 0.722994 0.989791
vt 0.722994 0.989646
vt 0.722869 0.989573
vt 0.722743 0.989646
vt 0.722743 0.989791
vt 0.723037 0.990003
vt 0.722925 0.990003
vt 0.722813 0.990003
vt 0.722701 0.990003
vt 0.722477 0.990003
vt 0.722365 0.990003
vt 0.722589 0.990003
vt 0.722533 0.990003
vt 0.722869 0.990003
vt 0.585198 0.986193
vt 0.585198 0.986603
vt 0.585047 0.986603
vt 0.585047 0.986193
vt 0.584897 0.986193
vt 0.584897 0.986603
vt 0.584747 0.986603
vt 0.584747 0.986193
vt 0.584596 0.986603
vt 0.584596 0.986193
vt 0.584446 0.986603
vt 0.584446 0.986193
vt 0.584747 0.986603
vt 0.584897 0.986603
vt 0.584897 0.986603
vt 0.584747 0.986603
vt 0.585122 0.986107
vt 0.585261 0.986028
vt 0.585261 0.985868
vt 0.585122 0.985788
vt 0.584984 0.985868
vt 0.584984 0.986028
vt 0.584902 0.986179
vt 0.585042 0.986179
vt 0.584752 0.986179
vt 0.584602 0.986179
vt 0.584741 0.986179
vt 0.585348 0.986193
vt 0.585203 0.986179
vt 0.585342 0.986179
vt 0.585053 0.986179
vt 0.585047 0.986603
vt 0.585198 0.986603
vt 0.585198 0.986603
vt 0.585047 0.986603
vt 0.584747 0.986603
vt 0.584897 0.986603
vt 0.584596 0.986603
vt 0.584596 0.986603
vt 0.585348 0.986603
vt 0.585348 0.986603
vt 0.584897 0.986603
vt 0.584747 0.986603
vt 0.585348 0.986603
vt 0.584446 0.986603
vt 0.584596 0.986603
vt 0.584446 0.986603
vt 0.584596 0.986603
vt 0.585198 0.986603
vt 0.585348 0.986603
vt 0.585348 0.986603
vt 0.585198 0.986603
vt 0.585047 0.986603
vt 0.585047 0.986603
vt 0.585047 0.986603
vt 0.585198 0.986603
vt 0.584446 0.986603
vt 0.584596 0.986603
vt 0.584747 0.986603
vt 0.584446 0.986603
vt 0.585348 0.986603
vt 0.584446 0.986603
vt 0.584897 0.986603
vt 0.585047 0.986603
vt 0.584897 0.986603
vt 0.584596 0.986603
vt 0.584446 0.986603
vt 0.584747 0.986603
vt 0.585198 0.986603
vt 0.585348 0.986603
vt 0.584747 0.986603
vt 0.584596 0.986603
vt 0.585198 0.986603
vt 0.585047 0.986603
vt 0.584897 0.986603
vt 0.585348 0.986603
vt 0.584446 0.986603
vt 0.585217 0.986173
vt 0.585328 0.986173
vt 0.585067 0.986173
vt 0.584917 0.986173
vt 0.585028 0.986173
vt 0.584766 0.986173
vt 0.584616 0.986173
vt 0.584727 0.986173
vt 0.584466 0.986173
vt 0.584452 0.986179
vn -0.7497 0.5006 -0.4328
vn -0.7497 0.5006 0.4328
vn 0.0000 0.5006 0.8657
vn 0.7497 0.5006 0.4328
vn 0.7497 0.5006 -0.4328
vn 0.0000 0.5006 -0.8657
vn 0.0000 1.0000 -0.0000
vn -0.8660 0.0000 -0.5000
vn 0.0000 0.0000 1.0000
vn -0.0000 -0.0000 -1.0000
vn 0.8660 -0.0000 -0.5000
vn 0.8660 -0.0000 0.5000
vn -0.8660 0.0000 0.5000
vn 0.8473 -0.2066 -0.4892
vn -0.0000 -0.2066 0.9784
vn -0.8473 -0.2066 0.4892
vn -0.8473 -0.2066 -0.4892
vn 0.8473 -0.2066 0.4892
vn -0.0000 -0.4410 0.8975
vn 0.0000 -1.0000 -0.0000
vn 0.8027 0.3754 0.4634
vn -0.0000 0.3754 0.9269
vn -0.8027 0.3754 0.4634
vn -0.0000 0.3754 -0.9269
vn 0.8027 0.3754 -0.4634
vn 0.4277 -0.8695 -0.2469
vn 0.0000 -0.8695 0.4939
vn 0.4277 -0.8695 0.2469
vn -0.4277 -0.8695 0.2469
vn -0.0000 -0.8695 -0.4939
vn -0.0000 0.4410 0.8975
vn 0.0000 -0.2066 -0.9784
vn -0.7772 -0.4410 -0.4487
vn -0.7772 0.4410 0.4487
vn 0.0000 0.4410 -0.8975
vn 0.7772 0.4410 -0.4487
vn 0.0000 -0.4410 -0.8975
vn -0.7772 -0.4410 0.4487
vn -0.7772 0.4410 -0.4487
vn 0.7772 -0.4410 -0.4487
vn 0.7772 0.4410 0.4487
vn 0.7772 -0.4410 0.4487
vn -0.4277 -0.8695 -0.2469
vn 0.5758 0.7469 -0.3324
vn -0.5758 0.7469 0.3324
vn 0.0000 0.7469 -0.6649
vn -0.0000 0.7469 0.6649
vn -0.5758 0.7469 -0.3324
vn 0.5758 0.7469 0.3324
vn -0.7044 0.5817 -0.4067
vn -0.7044 0.5817 0.4067
vn -0.0000 0.5817 0.8134
vn 0.7044 0.5817 0.4067
vn 0.7044 0.5817 -0.4067
vn 0.0000 0.5817 -0.8134
vn 0.0000 -0.4931 -0.8700
vn 0.7534 -0.4931 -0.4350
vn 0.7534 -0.4931 0.4350
vn 0.0000 -0.4931 0.8700
vn -0.7534 -0.4931 0.4350
vn -0.7534 -0.4931 -0.4350
vn -0.8027 0.3754 -0.4634
usemtl RHIGH.019
s off
f 2/1/1 4/2/1 3/3/1 1/4/1
f 4/2/2 6/5/2 5/6/2 3/3/2
f 6/5/3 8/7/3 7/8/3 5/6/3
f 8/7/4 10/9/4 9/10/4 7/8/4
f 10/9/5 12/11/5 11/12/5 9/10/5
f 12/11/6 2/13/6 1/14/6 11/12/6
f 1/15/7 3/16/7 5/17/7 7/18/7 9/19/7 11/20/7
f 2/1/8 13/21/8 14/22/8 4/2/8
f 6/5/9 16/23/9 17/24/9 8/7/9
f 12/11/10 15/25/10 13/26/10 2/13/10
f 10/9/11 18/27/11 20/28/11 15/25/11 12/11/11
f 8/7/12 17/24/12 18/27/12 10/9/12
f 4/2/13 14/22/13 19/29/13 16/23/13 6/5/13
usemtl RLOW.019
f 22/30/14 30/31/14 32/32/14 23/33/14
f 24/34/15 34/35/15 36/36/15 25/37/15
f 25/37/16 36/36/16 38/38/16 26/39/16
f 26/39/17 38/38/17 27/40/17 21/41/17
f 23/33/18 32/32/18 34/35/18 24/34/18
f 49/42/19 48/43/19 31/44/19 33/45/19
f 75/46/20 77/47/20 79/48/20 81/49/20 83/50/20 85/51/20
f 23/33/21 24/34/21 82/52/21 80/53/21
f 24/34/22 25/37/22 84/54/22 82/52/22
f 25/37/23 26/39/23 86/55/23 84/56/23
f 21/57/24 22/30/24 78/58/24 76/59/24
f 22/30/25 23/33/25 80/60/25 78/58/25
f 54/61/26 55/62/26 46/63/26 47/64/26
f 52/65/27 53/66/27 48/43/27 49/42/27
f 53/66/28 54/61/28 47/64/28 48/43/28
f 51/67/29 52/65/29 49/42/29 50/68/29
f 55/62/30 56/69/30 45/70/30 46/63/30
f 33/45/31 31/44/31 41/71/31 40/72/31
f 21/57/32 27/73/32 30/31/32 22/30/32
f 45/74/33 50/68/33 29/75/33 37/76/33
f 29/75/34 33/45/34 40/72/34 39/77/34
f 28/78/35 37/79/35 44/80/35 43/81/35
f 35/82/36 28/78/36 43/81/36 42/83/36
f 46/63/37 45/70/37 37/79/37 28/78/37
f 59/84/11 58/85/11 55/62/11 54/61/11
f 50/68/38 49/42/38 33/45/38 29/75/38
f 37/76/39 29/75/39 39/77/39 44/86/39
f 47/64/40 46/63/40 28/78/40 35/82/40
f 31/44/41 35/82/41 42/83/41 41/71/41
f 48/43/42 47/64/42 35/82/42 31/44/42
f 62/87/13 61/88/13 52/65/13 51/67/13
f 56/89/43 51/67/43 50/68/43 45/74/43
f 58/85/10 57/90/10 56/69/10 55/62/10
f 57/91/8 62/87/8 51/67/8 56/89/8
f 61/88/9 60/92/9 53/66/9 52/65/9
f 60/92/12 59/84/12 54/61/12 53/66/12
f 41/71/7 42/83/7 66/93/7 65/94/7
f 44/86/7 39/77/7 63/95/7 68/96/7
f 40/72/7 41/71/7 65/94/7 64/97/7
f 42/83/7 43/81/7 67/98/7 66/93/7
f 43/81/7 44/80/7 68/99/7 67/98/7
f 39/77/7 40/72/7 64/97/7 63/95/7
f 63/95/44 64/97/44 70/100/44 69/101/44
f 66/93/45 67/98/45 73/102/45 72/103/45
f 64/97/46 65/94/46 71/104/46 70/100/46
f 67/98/47 68/99/47 74/105/47 73/102/47
f 65/94/48 66/93/48 72/103/48 71/104/48
f 68/96/49 63/95/49 69/101/49 74/106/49
f 38/38/50 62/87/50 57/91/50 27/40/50
f 36/36/51 61/88/51 62/87/51 38/38/51
f 34/35/52 60/92/52 61/88/52 36/36/52
f 32/32/53 59/84/53 60/92/53 34/35/53
f 30/31/54 58/85/54 59/84/54 32/32/54
f 27/40/55 57/91/55 58/85/55 30/31/55
f 77/107/56 75/108/56 76/59/56 78/58/56
f 79/109/57 77/107/57 78/58/57 80/60/57
f 81/110/58 79/111/58 80/53/58 82/52/58
f 83/112/59 81/110/59 82/52/59 84/54/59
f 85/113/60 83/114/60 84/56/60 86/55/60
f 75/115/61 85/113/61 86/55/61 76/116/61
f 26/39/62 21/41/62 76/116/62 86/55/62
