# Blender v2.91.0 OBJ File: 'Blue_Potion_2(Label).blend'
# www.blender.org
mtllib Blue_Potion_2(Label).mtl
o Blue_Potion_2(Label)_Cylinder.004
v -0.031563 0.183521 -0.054285
v -0.035061 0.172993 -0.060345
v -0.062959 0.183521 0.000096
v -0.069956 0.172993 0.000096
v -0.031563 0.183521 0.054477
v -0.035061 0.172993 0.060536
v 0.031231 0.183521 0.054477
v 0.034730 0.172993 0.060536
v 0.062628 0.183521 0.000096
v 0.069625 0.172993 0.000096
v 0.031231 0.183521 -0.054285
v 0.034730 0.172993 -0.060345
v -0.035061 0.130041 -0.060345
v -0.069956 0.130041 0.000096
v 0.034730 0.130041 -0.060345
v -0.035061 0.130041 0.060536
v 0.034730 0.130041 0.060536
v 0.069625 0.130041 0.000096
v -0.052508 0.130041 0.030316
v 0.052177 0.130041 -0.030124
v -0.051761 -0.184177 -0.089699
v -0.057531 -0.166813 -0.099692
v 0.051801 -0.184177 -0.089699
v 0.057570 -0.166813 -0.099692
v 0.103582 -0.184177 -0.000011
v 0.115121 -0.166813 -0.000011
v 0.051801 -0.184177 0.089676
v 0.057570 -0.166813 0.099669
v -0.051761 -0.184177 0.089676
v -0.057531 -0.166813 0.099669
v -0.103542 -0.184177 -0.000011
v -0.115081 -0.166813 -0.000011
v -0.057531 0.096992 -0.099692
v 0.057570 0.096992 -0.099692
v 0.115121 0.096992 -0.000011
v 0.057570 0.096992 0.099669
v -0.057531 0.096992 0.099669
v -0.115081 0.096992 -0.000011
v -0.050827 0.118959 -0.088081
v 0.050866 0.118959 -0.088081
v 0.101713 0.118959 -0.000011
v 0.050866 0.118959 0.088058
v -0.050827 0.118959 0.088058
v -0.101674 0.118959 -0.000011
v -0.050827 0.132863 -0.088081
v 0.050866 0.132863 -0.088081
v 0.101713 0.132863 -0.000011
v 0.050866 0.132863 0.088058
v -0.050827 0.132863 0.088058
v -0.101674 0.132863 -0.000011
v -0.056660 0.143985 -0.098184
v 0.056700 0.143985 -0.098184
v 0.113380 0.143985 -0.000011
v 0.056700 0.143985 0.098161
v -0.056660 0.143985 0.098161
v -0.113341 0.143985 -0.000011
v -0.051151 0.156962 -0.088641
v 0.051190 0.156962 -0.088641
v 0.102361 0.156962 -0.000011
v 0.051190 0.156962 0.088619
v -0.051151 0.156962 0.088619
v -0.102321 0.156962 -0.000011
v -0.041899 0.156962 -0.072617
v 0.041938 0.156962 -0.072617
v 0.083857 0.156962 -0.000011
v 0.041938 0.156962 0.072594
v -0.041899 0.156962 0.072594
v -0.083818 0.156962 -0.000011
v -0.034719 0.144912 -0.060180
v 0.034758 0.144912 -0.060180
v 0.069496 0.144912 -0.000011
v 0.034758 0.144912 0.060157
v -0.034719 0.144912 0.060157
v -0.069457 0.144912 -0.000011
v -0.057531 -0.095976 -0.099692
v -0.057531 0.026154 -0.099692
v 0.057570 0.026154 -0.099692
v 0.057570 -0.095976 -0.099692
v -0.115081 -0.095976 -0.000011
v -0.115081 0.026154 -0.000011
v 0.115121 0.026154 -0.000011
v 0.115121 -0.095976 -0.000011
v 0.057570 0.026154 0.099669
v 0.057570 -0.095976 0.099669
v -0.057531 0.026154 0.099669
v -0.057531 -0.095976 0.099669
v 0.086345 -0.095976 -0.049852
v 0.086345 0.026154 -0.049852
v -0.086306 -0.095976 0.049829
v -0.086306 0.026154 0.049829
vt 0.727783 0.989842
vt 0.727729 0.989842
vt 0.727732 0.989835
vt 0.727780 0.989835
vt 0.727676 0.989842
vt 0.727678 0.989835
vt 0.727622 0.989842
vt 0.727625 0.989835
vt 0.727569 0.989842
vt 0.727572 0.989835
vt 0.727516 0.989842
vt 0.727518 0.989835
vt 0.727462 0.989842
vt 0.727465 0.989835
vt 0.727702 0.989824
vt 0.727762 0.989789
vt 0.727762 0.989720
vt 0.727702 0.989686
vt 0.727643 0.989720
vt 0.727643 0.989789
vt 0.727783 0.989890
vt 0.727729 0.989890
vt 0.727676 0.989890
vt 0.727622 0.989890
vt 0.727516 0.989890
vt 0.727462 0.989890
vt 0.727569 0.989890
vt 0.727542 0.989890
vt 0.727702 0.989890
vt 0.585092 0.988992
vt 0.585092 0.989081
vt 0.584995 0.989081
vt 0.584995 0.988992
vt 0.585044 0.988992
vt 0.584897 0.988992
vt 0.584897 0.989081
vt 0.584799 0.989081
vt 0.584799 0.988992
vt 0.584701 0.989081
vt 0.584701 0.988992
vt 0.584750 0.988992
vt 0.584604 0.989081
vt 0.584604 0.988992
vt 0.585190 0.988815
vt 0.585092 0.988815
vt 0.585097 0.988802
vt 0.585185 0.988802
vt 0.584995 0.988815
vt 0.585000 0.988802
vt 0.584897 0.988815
vt 0.584902 0.988802
vt 0.584799 0.988815
vt 0.584804 0.988802
vt 0.584701 0.988815
vt 0.584706 0.988802
vt 0.584604 0.988815
vt 0.584608 0.988802
vt 0.585044 0.988782
vt 0.585153 0.988719
vt 0.585153 0.988592
vt 0.585044 0.988528
vt 0.584934 0.988592
vt 0.584934 0.988719
vt 0.585190 0.988992
vt 0.585190 0.989081
vt 0.584701 0.989081
vt 0.584604 0.989081
vt 0.584897 0.989081
vt 0.584799 0.989081
vt 0.585092 0.989081
vt 0.584995 0.989081
vt 0.585190 0.989081
vt 0.584799 0.989081
vt 0.584701 0.989081
vt 0.584995 0.989081
vt 0.584897 0.989081
vt 0.585190 0.989081
vt 0.585092 0.989081
vt 0.584604 0.989081
vt 0.584701 0.989081
vt 0.584604 0.989081
vt 0.584897 0.989081
vt 0.584799 0.989081
vt 0.585092 0.989081
vt 0.584995 0.989081
vt 0.585190 0.989081
vt 0.584799 0.989081
vt 0.584701 0.989081
vt 0.584995 0.989081
vt 0.584897 0.989081
vt 0.585190 0.989081
vt 0.585092 0.989081
vt 0.584604 0.989081
vt 0.584799 0.989081
vt 0.584701 0.989081
vt 0.584995 0.989081
vt 0.584897 0.989081
vt 0.585190 0.989081
vt 0.585092 0.989081
vt 0.584604 0.989081
vt 0.584701 0.989081
vt 0.584604 0.989081
vt 0.584897 0.989081
vt 0.584799 0.989081
vt 0.585092 0.989081
vt 0.584995 0.989081
vt 0.585190 0.989081
vt 0.585190 0.988904
vt 0.585092 0.988904
vt 0.584995 0.988904
vt 0.584897 0.988904
vt 0.762171 0.513972
vt 0.762171 0.514061
vt 0.762073 0.514061
vt 0.762073 0.513972
vt 0.584701 0.988904
vt 0.584604 0.988904
vt 0.584799 0.988904
vt 0.584750 0.988904
vt 0.761976 0.513972
vt 0.761976 0.514061
vt 0.761927 0.514061
vt 0.761927 0.513972
vt 0.585044 0.988904
vt 0.762220 0.513972
vt 0.762220 0.514061
vn -0.7506 0.4988 -0.4334
vn -0.7506 0.4988 0.4334
vn 0.0000 0.4988 0.8667
vn 0.7506 0.4988 0.4334
vn 0.7506 0.4988 -0.4334
vn 0.0000 0.4988 -0.8667
vn 0.0000 1.0000 -0.0000
vn -0.8660 0.0000 -0.5000
vn 0.0000 0.0000 1.0000
vn 0.0000 -0.0000 -1.0000
vn 0.8660 -0.0000 -0.5000
vn 0.8660 -0.0000 0.5000
vn -0.8660 0.0000 0.5000
vn 0.0000 -0.4988 -0.8667
vn 0.7506 -0.4988 -0.4334
vn 0.7506 -0.4988 0.4334
vn -0.0000 -0.4988 0.8667
vn -0.7506 -0.4988 0.4334
vn -0.7506 -0.4988 -0.4334
vn 0.0000 -1.0000 0.0000
vn -0.7657 0.4673 -0.4420
vn -0.0000 0.4673 0.8841
vn 0.7657 0.4673 -0.4420
vn -0.7657 0.4673 0.4420
vn 0.7657 0.4673 0.4420
vn 0.0000 0.4673 -0.8841
vn -0.6410 -0.6724 -0.3701
vn -0.0000 -0.6724 0.7402
vn 0.6410 -0.6724 -0.3701
vn -0.6410 -0.6724 0.3701
vn 0.6410 -0.6724 0.3701
vn 0.0000 -0.6724 -0.7402
vn -0.6977 0.5924 0.4028
vn 0.6977 0.5924 0.4028
vn 0.0000 0.5924 -0.8056
vn -0.6977 0.5924 -0.4028
vn -0.0000 0.5924 0.8056
vn 0.6977 0.5924 -0.4028
vn 0.6026 0.7182 0.3479
vn 0.0000 0.7182 -0.6958
vn -0.6026 0.7182 0.3479
vn 0.6026 0.7182 -0.3479
vn -0.6026 0.7182 -0.3479
vn -0.0000 0.7182 0.6958
usemtl RHIGH.003
s off
f 2/1/1 4/2/1 3/3/1 1/4/1
f 4/2/2 6/5/2 5/6/2 3/3/2
f 6/5/3 8/7/3 7/8/3 5/6/3
f 8/7/4 10/9/4 9/10/4 7/8/4
f 10/9/5 12/11/5 11/12/5 9/10/5
f 12/11/6 2/13/6 1/14/6 11/12/6
f 1/15/7 3/16/7 5/17/7 7/18/7 9/19/7 11/20/7
f 2/1/8 13/21/8 14/22/8 4/2/8
f 6/5/9 16/23/9 17/24/9 8/7/9
f 12/11/10 15/25/10 13/26/10 2/13/10
f 10/9/11 18/27/11 20/28/11 15/25/11 12/11/11
f 8/7/12 17/24/12 18/27/12 10/9/12
f 4/2/13 14/22/13 19/29/13 16/23/13 6/5/13
usemtl RLOW.003
f 77/30/11 34/31/11 35/32/11 81/33/11 88/34/11
f 83/35/9 36/36/9 37/37/9 85/38/9
f 85/38/13 37/37/13 38/39/13 80/40/13 90/41/13
f 80/40/8 38/39/8 33/42/8 76/43/8
f 81/33/12 35/32/12 36/36/12 83/35/12
f 22/44/14 24/45/14 23/46/14 21/47/14
f 24/45/15 26/48/15 25/49/15 23/46/15
f 26/48/16 28/50/16 27/51/16 25/49/16
f 28/50/17 30/52/17 29/53/17 27/51/17
f 30/52/18 32/54/18 31/55/18 29/53/18
f 32/54/19 22/56/19 21/57/19 31/55/19
f 21/58/20 23/59/20 25/60/20 27/61/20 29/62/20 31/63/20
f 76/64/10 33/65/10 34/31/10 77/30/10
f 33/42/21 38/39/21 44/66/21 39/67/21
f 37/37/22 36/36/22 42/68/22 43/69/22
f 35/32/23 34/31/23 40/70/23 41/71/23
f 38/39/24 37/37/24 43/69/24 44/66/24
f 36/36/25 35/32/25 41/71/25 42/68/25
f 34/31/26 33/65/26 39/72/26 40/70/26
f 44/66/13 43/69/13 49/73/13 50/74/13
f 42/68/12 41/71/12 47/75/12 48/76/12
f 40/70/10 39/72/10 45/77/10 46/78/10
f 39/67/8 44/66/8 50/74/8 45/79/8
f 43/69/9 42/68/9 48/76/9 49/73/9
f 41/71/11 40/70/11 46/78/11 47/75/11
f 45/79/27 50/74/27 56/80/27 51/81/27
f 49/73/28 48/76/28 54/82/28 55/83/28
f 47/75/29 46/78/29 52/84/29 53/85/29
f 50/74/30 49/73/30 55/83/30 56/80/30
f 48/76/31 47/75/31 53/85/31 54/82/31
f 46/78/32 45/77/32 51/86/32 52/84/32
f 56/80/33 55/83/33 61/87/33 62/88/33
f 54/82/34 53/85/34 59/89/34 60/90/34
f 52/84/35 51/86/35 57/91/35 58/92/35
f 51/81/36 56/80/36 62/88/36 57/93/36
f 55/83/37 54/82/37 60/90/37 61/87/37
f 53/85/38 52/84/38 58/92/38 59/89/38
f 62/88/7 61/87/7 67/94/7 68/95/7
f 60/90/7 59/89/7 65/96/7 66/97/7
f 58/92/7 57/91/7 63/98/7 64/99/7
f 57/93/7 62/88/7 68/95/7 63/100/7
f 61/87/7 60/90/7 66/97/7 67/94/7
f 59/89/7 58/92/7 64/99/7 65/96/7
f 63/100/39 68/95/39 74/101/39 69/102/39
f 67/94/40 66/97/40 72/103/40 73/104/40
f 65/96/41 64/99/41 70/105/41 71/106/41
f 68/95/42 67/94/42 73/104/42 74/101/42
f 66/97/43 65/96/43 71/106/43 72/103/43
f 64/99/44 63/98/44 69/107/44 70/105/44
f 22/44/10 75/108/10 78/109/10 24/45/10
f 75/108/10 76/64/10 77/30/10 78/109/10
f 26/48/12 82/110/12 84/111/12 28/50/12
f 82/112/12 81/113/12 83/114/12 84/115/12
f 32/54/8 79/116/8 75/117/8 22/56/8
f 79/116/8 80/40/8 76/43/8 75/117/8
f 30/52/13 86/118/13 89/119/13 79/116/13 32/54/13
f 86/120/13 85/121/13 90/122/13 89/123/13
f 28/50/9 84/111/9 86/118/9 30/52/9
f 84/115/9 83/114/9 85/121/9 86/120/9
f 24/45/11 78/109/11 87/124/11 82/110/11 26/48/11
f 78/109/11 77/30/11 88/34/11 87/124/11
f 87/125/11 88/126/11 81/113/11 82/112/11
f 89/119/13 90/41/13 80/40/13 79/116/13
