# Blender v2.91.0 OBJ File: 'Blue_Potion_15.blend'
# www.blender.org
mtllib Blue_Potion_15.mtl
o Blue_Potion_15_Cylinder.039
v -0.013602 0.113364 -0.022670
v -0.015098 0.108953 -0.025207
v -0.026611 0.113364 0.000345
v -0.029556 0.108953 0.000372
v -0.013184 0.113364 0.023118
v -0.014634 0.108953 0.025682
v 0.013251 0.113364 0.022877
v 0.014747 0.108953 0.025414
v 0.026260 0.113364 -0.000138
v 0.029206 0.108953 -0.000165
v 0.012834 0.113364 -0.022911
v 0.014283 0.108953 -0.025475
v -0.015098 0.090957 -0.025207
v -0.029556 0.090957 0.000372
v 0.014283 0.090957 -0.025475
v -0.014634 0.090957 0.025682
v 0.014747 0.090957 0.025414
v 0.029206 0.090957 -0.000165
v -0.022095 0.090957 0.013027
v 0.021744 0.090957 -0.012820
v -0.020701 -0.094345 -0.035131
v -0.027159 -0.085684 -0.046086
v 0.020074 -0.094345 -0.035503
v 0.026332 -0.085684 -0.046574
v 0.040784 -0.094345 -0.000377
v 0.053501 -0.085684 -0.000493
v 0.020719 -0.094345 0.035121
v 0.027178 -0.085684 0.046076
v -0.020056 -0.094345 0.035493
v -0.026314 -0.085684 0.046564
v -0.040766 -0.094345 0.000367
v -0.053482 -0.085684 0.000483
v -0.043527 -0.056101 -0.073847
v 0.024912 0.092359 -0.044062
v -0.050597 0.092359 0.000456
v 0.042190 -0.056100 -0.074629
v 0.025712 0.092359 0.043590
v 0.085726 -0.056100 -0.000788
v -0.024894 0.092359 0.044052
v 0.043545 -0.056100 0.073836
v 0.050615 0.092359 -0.000467
v -0.042172 -0.056100 0.074619
v -0.025694 0.092359 -0.043601
v -0.085708 -0.056100 0.000777
v -0.046390 0.099774 0.000418
v -0.022824 0.099774 0.040389
v 0.023575 0.099774 0.039965
v 0.046408 0.099774 -0.000429
v 0.022842 0.099774 -0.040399
v -0.023557 0.099774 -0.039976
v -0.023557 0.084944 -0.039976
v 0.022842 0.084944 -0.040399
v 0.046408 0.084944 -0.000429
v 0.023575 0.084944 0.039965
v -0.022824 0.084944 0.040389
v -0.046390 0.084944 0.000418
v -0.029431 0.076602 0.000263
v -0.014478 0.076602 0.025625
v 0.014962 0.076602 0.025356
v 0.029449 0.076602 -0.000274
v 0.014496 0.076602 -0.025635
v -0.014944 0.076602 -0.025367
v -0.014944 0.059040 -0.025367
v 0.014496 0.059040 -0.025635
v 0.029449 0.059040 -0.000274
v 0.014962 0.059040 0.025356
v -0.014478 0.059040 0.025625
v -0.029431 0.059040 0.000263
v -0.086302 0.026333 0.000782
v -0.042464 0.026333 0.075136
v 0.043847 0.026333 0.074349
v 0.086320 0.026333 -0.000793
v 0.042483 0.026333 -0.075147
v -0.043829 0.026333 -0.074359
v -0.035067 0.099774 0.000315
v -0.017252 0.099774 0.030532
v 0.017825 0.099774 0.030212
v 0.035086 0.099774 -0.000325
v 0.017270 0.099774 -0.030543
v -0.017806 0.099774 -0.030222
v -0.028527 0.094732 0.000255
v -0.014033 0.094732 0.024838
v 0.014503 0.094732 0.024577
v 0.028545 0.094732 -0.000266
v 0.014052 0.094732 -0.024848
v -0.014484 0.094732 -0.024588
v -0.023877 -0.077131 -0.040519
v 0.023152 -0.077131 -0.040948
v -0.047019 -0.077131 0.000424
v 0.047038 -0.077131 -0.000434
v 0.023895 -0.077131 0.040508
v -0.023134 -0.077131 0.040937
v -0.049991 -0.014884 0.088452
v 0.050010 -0.014884 -0.088463
v 0.051615 -0.014884 0.087525
v 0.101616 -0.014884 -0.000933
v -0.051597 -0.014884 -0.087536
v -0.101598 -0.014884 0.000922
vt 0.725465 0.988660
vt 0.725364 0.988660
vt 0.725369 0.988646
vt 0.725460 0.988646
vt 0.725263 0.988660
vt 0.725268 0.988646
vt 0.725162 0.988660
vt 0.725167 0.988646
vt 0.725060 0.988660
vt 0.725066 0.988646
vt 0.724959 0.988660
vt 0.724964 0.988646
vt 0.724858 0.988660
vt 0.724863 0.988646
vt 0.725313 0.988626
vt 0.725427 0.988429
vt 0.725313 0.988364
vt 0.725200 0.988429
vt 0.725200 0.988560
vt 0.725465 0.988751
vt 0.725364 0.988751
vt 0.725263 0.988751
vt 0.725162 0.988751
vt 0.724959 0.988751
vt 0.724858 0.988751
vt 0.725060 0.988751
vt 0.725010 0.988751
vt 0.725313 0.988751
vt 0.583509 0.988918
vt 0.583509 0.989452
vt 0.583280 0.989452
vt 0.583280 0.988918
vt 0.583051 0.988918
vt 0.583051 0.989452
vt 0.582823 0.989452
vt 0.582823 0.988918
vt 0.582594 0.989452
vt 0.582594 0.988918
vt 0.582365 0.989452
vt 0.582365 0.988918
vt 0.582823 0.989452
vt 0.583051 0.989452
vt 0.583051 0.989452
vt 0.582823 0.989452
vt 0.583738 0.988827
vt 0.583509 0.988827
vt 0.583521 0.988798
vt 0.583727 0.988798
vt 0.583280 0.988827
vt 0.583292 0.988798
vt 0.583051 0.988827
vt 0.583063 0.988798
vt 0.582823 0.988827
vt 0.582834 0.988798
vt 0.583040 0.988798
vt 0.582594 0.988827
vt 0.582605 0.988798
vt 0.582365 0.988827
vt 0.582376 0.988798
vt 0.583395 0.988751
vt 0.583652 0.988603
vt 0.583652 0.988306
vt 0.583395 0.988158
vt 0.583138 0.988306
vt 0.583138 0.988603
vt 0.583280 0.989452
vt 0.583509 0.989452
vt 0.583509 0.989452
vt 0.583280 0.989452
vt 0.582823 0.989452
vt 0.583051 0.989452
vt 0.582594 0.989452
vt 0.582594 0.989452
vt 0.583738 0.989452
vt 0.583738 0.989452
vt 0.583051 0.989452
vt 0.582823 0.989452
vt 0.583738 0.988918
vt 0.583738 0.989452
vt 0.582365 0.989452
vt 0.582594 0.989452
vt 0.582365 0.989452
vt 0.582594 0.989452
vt 0.583509 0.989452
vt 0.583738 0.989452
vt 0.583738 0.989452
vt 0.583509 0.989452
vt 0.583280 0.989452
vt 0.583280 0.989452
vt 0.583280 0.989452
vt 0.583509 0.989452
vt 0.582365 0.989452
vt 0.583509 0.989452
vt 0.583738 0.989452
vt 0.583738 0.989452
vt 0.582594 0.989452
vt 0.582823 0.989452
vt 0.582365 0.989452
vt 0.582365 0.989452
vt 0.583051 0.989452
vt 0.582823 0.989452
vt 0.583051 0.989452
vt 0.583051 0.989452
vt 0.582823 0.989452
vt 0.582594 0.989452
vt 0.582365 0.989452
vt 0.583280 0.989452
vt 0.583509 0.989452
vt 0.583738 0.989452
vt 0.582594 0.989452
vt 0.583280 0.989452
vt 0.582365 0.989452
vt 0.583280 0.989452
vt 0.583051 0.989452
vt 0.582594 0.989452
vt 0.582365 0.989452
vt 0.582823 0.989452
vt 0.583509 0.989452
vt 0.583738 0.989452
vt 0.582823 0.989452
vt 0.582594 0.989452
vt 0.583509 0.989452
vt 0.583280 0.989452
vt 0.583051 0.989452
vt 0.583738 0.989452
vt 0.582365 0.989452
vn -0.7536 0.5006 -0.4260
vn -0.7457 0.5006 0.4397
vn 0.0079 0.5006 0.8656
vn 0.7536 0.5006 0.4260
vn 0.7457 0.5006 -0.4397
vn -0.0079 0.5006 -0.8656
vn 0.0000 1.0000 -0.0000
vn -0.8706 0.0000 -0.4921
vn 0.0091 -0.0000 1.0000
vn -0.0091 -0.0000 -1.0000
vn 0.8614 -0.0000 -0.5079
vn 0.8706 -0.0000 0.4921
vn -0.8614 0.0000 0.5079
vn 0.4579 -0.8470 -0.2700
vn 0.0049 -0.8470 0.5316
vn -0.4579 -0.8470 0.2700
vn -0.4628 -0.8470 -0.2616
vn 0.4628 -0.8470 0.2616
vn 0.0082 -0.4410 0.8975
vn -0.0056 -0.7860 -0.6181
vn 0.5325 -0.7860 -0.3140
vn 0.5381 -0.7860 0.3042
vn 0.0056 -0.7860 0.6181
vn -0.5325 -0.7860 0.3140
vn -0.5381 -0.7860 -0.3042
vn 0.0000 -1.0000 0.0000
vn 0.4254 -0.8695 -0.2508
vn 0.0045 -0.8695 0.4939
vn 0.4299 -0.8695 0.2430
vn -0.4254 -0.8695 0.2508
vn -0.0045 -0.8695 -0.4939
vn 0.0082 0.4410 0.8975
vn -0.0049 -0.8470 -0.5316
vn -0.7813 -0.4410 -0.4416
vn -0.7731 0.4410 0.4558
vn -0.0082 0.4410 -0.8975
vn 0.7731 0.4410 -0.4558
vn -0.0082 -0.4410 -0.8975
vn -0.7731 -0.4410 0.4558
vn -0.7813 0.4410 -0.4416
vn 0.7731 -0.4410 -0.4558
vn 0.7813 0.4410 0.4416
vn 0.7813 -0.4410 0.4416
vn -0.0050 0.8331 -0.5532
vn -0.4299 -0.8695 -0.2430
vn 0.0087 0.3060 0.9520
vn -0.4765 0.8331 0.2810
vn 0.0050 0.8331 0.5532
vn -0.4816 0.8331 -0.2722
vn 0.4765 0.8331 -0.2810
vn 0.4816 0.8331 0.2722
vn -0.0087 0.3060 -0.9520
vn -0.8201 0.3060 0.4835
vn 0.8201 0.3060 -0.4835
vn -0.8288 0.3060 -0.4685
vn 0.8288 0.3060 0.4685
vn 0.5727 0.7469 -0.3377
vn -0.5727 0.7469 0.3377
vn -0.0061 0.7469 -0.6649
vn 0.0061 0.7469 0.6649
vn -0.5788 0.7469 -0.3272
vn 0.5788 0.7469 0.3272
vn -0.0076 0.5476 -0.8367
vn 0.7284 0.5476 0.4117
vn -0.7284 0.5476 -0.4117
vn -0.7208 0.5476 0.4250
vn 0.0076 0.5476 0.8367
vn 0.7208 0.5476 -0.4250
vn 0.8257 -0.3167 0.4667
vn -0.8257 -0.3167 -0.4667
vn 0.8171 -0.3167 -0.4817
vn -0.8171 -0.3167 0.4817
vn -0.0087 -0.3167 -0.9485
vn 0.0087 -0.3167 0.9485
usemtl RHIGH.015
s off
f 2/1/1 4/2/1 3/3/1 1/4/1
f 4/2/2 6/5/2 5/6/2 3/3/2
f 6/5/3 8/7/3 7/8/3 5/6/3
f 8/7/4 10/9/4 9/10/4 7/8/4
f 10/9/5 12/11/5 11/12/5 9/10/5
f 12/11/6 2/13/6 1/14/6 11/12/6
f 1/15/7 3/3/7 5/16/7 7/17/7 9/18/7 11/19/7
f 2/1/8 13/20/8 14/21/8 4/2/8
f 6/5/9 16/22/9 17/23/9 8/7/9
f 12/11/10 15/24/10 13/25/10 2/13/10
f 10/9/11 18/26/11 20/27/11 15/24/11 12/11/11
f 8/7/12 17/23/12 18/26/12 10/9/12
f 4/2/13 14/21/13 19/28/13 16/22/13 6/5/13
usemtl RLOW.015
f 88/29/14 36/30/14 38/31/14 90/32/14
f 91/33/15 40/34/15 42/35/15 92/36/15
f 92/36/16 42/35/16 44/37/16 89/38/16
f 89/38/17 44/37/17 33/39/17 87/40/17
f 90/32/18 38/31/18 40/34/18 91/33/18
f 55/41/19 54/42/19 37/43/19 39/44/19
f 22/45/20 24/46/20 23/47/20 21/48/20
f 24/46/21 26/49/21 25/50/21 23/47/21
f 26/49/22 28/51/22 27/52/22 25/50/22
f 28/51/23 30/53/23 29/54/23 27/55/23
f 30/53/24 32/56/24 31/57/24 29/54/24
f 32/56/25 22/58/25 21/59/25 31/57/25
f 21/60/26 23/61/26 25/62/26 27/63/26 29/64/26 31/65/26
f 60/66/27 61/67/27 52/68/27 53/69/27
f 58/70/28 59/71/28 54/42/28 55/41/28
f 59/71/29 60/66/29 53/69/29 54/42/29
f 57/72/30 58/70/30 55/41/30 56/73/30
f 61/67/31 62/74/31 51/75/31 52/68/31
f 39/44/32 37/43/32 47/76/32 46/77/32
f 87/78/33 33/79/33 36/30/33 88/29/33
f 51/80/34 56/73/34 35/81/34 43/82/34
f 35/81/35 39/44/35 46/77/35 45/83/35
f 34/84/36 43/85/36 50/86/36 49/87/36
f 41/88/37 34/84/37 49/87/37 48/89/37
f 52/68/38 51/75/38 43/85/38 34/84/38
f 65/90/11 64/91/11 61/67/11 60/66/11
f 56/73/39 55/41/39 39/44/39 35/81/39
f 43/82/40 35/81/40 45/83/40 50/92/40
f 53/69/41 52/68/41 34/84/41 41/88/41
f 37/43/42 41/88/42 48/89/42 47/76/42
f 54/42/43 53/69/43 41/88/43 37/43/43
f 73/93/44 74/94/44 63/95/44 64/91/44
f 68/96/13 67/97/13 58/70/13 57/72/13
f 62/98/45 57/72/45 56/73/45 51/80/45
f 64/91/10 63/95/10 62/74/10 61/67/10
f 63/99/8 68/96/8 57/72/8 62/98/8
f 67/97/9 66/100/9 59/71/9 58/70/9
f 93/101/46 95/102/46 71/103/46 70/104/46
f 69/105/47 70/104/47 67/97/47 68/96/47
f 70/104/48 71/103/48 66/100/48 67/97/48
f 74/106/49 69/105/49 68/96/49 63/99/49
f 72/107/50 73/93/50 64/91/50 65/90/50
f 66/100/12 65/90/12 60/66/12 59/71/12
f 71/103/51 72/107/51 65/90/51 66/100/51
f 94/108/52 97/109/52 74/94/52 73/93/52
f 98/110/53 93/101/53 70/104/53 69/105/53
f 96/111/54 94/108/54 73/93/54 72/107/54
f 97/112/55 98/110/55 69/105/55 74/106/55
f 95/102/56 96/111/56 72/107/56 71/103/56
f 47/76/7 48/89/7 78/113/7 77/114/7
f 50/92/7 45/83/7 75/115/7 80/116/7
f 46/77/7 47/76/7 77/114/7 76/117/7
f 48/89/7 49/87/7 79/118/7 78/113/7
f 49/87/7 50/86/7 80/119/7 79/118/7
f 45/83/7 46/77/7 76/117/7 75/115/7
f 75/115/57 76/117/57 82/120/57 81/121/57
f 78/113/58 79/118/58 85/122/58 84/123/58
f 76/117/59 77/114/59 83/124/59 82/120/59
f 79/118/60 80/119/60 86/125/60 85/122/60
f 77/114/61 78/113/61 84/123/61 83/124/61
f 80/116/62 75/115/62 81/121/62 86/126/62
f 22/45/63 87/78/63 88/29/63 24/46/63
f 26/49/64 90/32/64 91/33/64 28/51/64
f 32/56/65 89/38/65 87/40/65 22/58/65
f 30/53/66 92/36/66 89/38/66 32/56/66
f 28/51/67 91/33/67 92/36/67 30/53/67
f 24/46/68 88/29/68 90/32/68 26/49/68
f 40/34/69 38/31/69 96/111/69 95/102/69
f 33/39/70 44/37/70 98/110/70 97/112/70
f 38/31/71 36/30/71 94/108/71 96/111/71
f 44/37/72 42/35/72 93/101/72 98/110/72
f 36/30/73 33/79/73 97/109/73 94/108/73
f 42/35/74 40/34/74 95/102/74 93/101/74
