# Blender v2.91.0 OBJ File: 'Blue_Potion_16.blend'
# www.blender.org
mtllib Blue_Potion_16.mtl
o Blue_Potion_16_Cylinder.038
v -0.023151 0.124514 -0.012832
v -0.025715 0.120102 -0.014282
v -0.022909 0.124514 0.013603
v -0.025447 0.120102 0.015099
v 0.000105 0.124514 0.026612
v 0.000132 0.120102 0.029558
v 0.022878 0.124514 0.013185
v 0.025443 0.120102 0.014635
v 0.022637 0.124514 -0.013250
v 0.025175 0.120102 -0.014746
v -0.000377 0.124514 -0.026259
v -0.000404 0.120102 -0.029205
v -0.025715 0.102107 -0.014282
v -0.025447 0.102107 0.015099
v -0.000404 0.102107 -0.029205
v 0.000132 0.102107 0.029558
v 0.025443 0.102107 0.014635
v 0.025175 0.102107 -0.014746
v -0.012657 0.102107 0.022328
v 0.012385 0.102107 -0.021975
v -0.035529 -0.105521 -0.020075
v -0.045486 -0.096860 -0.025703
v -0.000403 -0.105521 -0.040785
v -0.000507 -0.096860 -0.052222
v 0.035095 -0.105521 -0.020719
v 0.044948 -0.096860 -0.026529
v 0.035467 -0.105521 0.020055
v 0.045425 -0.096860 0.025684
v 0.000341 -0.105521 0.040765
v 0.000446 -0.096860 0.052202
v -0.035157 -0.105521 0.020700
v -0.045010 -0.096860 0.026509
v -0.074655 -0.067276 -0.042191
v -0.000493 0.103509 -0.050616
v -0.043626 0.103509 0.025693
v -0.000813 -0.067276 -0.085726
v 0.044026 0.103509 0.024893
v 0.073811 -0.067276 -0.043546
v 0.000431 0.103509 0.050596
v 0.074593 -0.067276 0.042171
v 0.043564 0.103509 -0.025713
v 0.000751 -0.067276 0.085707
v -0.044088 0.103509 -0.024913
v -0.073872 -0.067276 0.043526
v -0.040001 0.110924 0.023556
v 0.000393 0.110924 0.046389
v 0.040363 0.110924 0.022823
v 0.039940 0.110924 -0.023576
v -0.000454 0.110924 -0.046408
v -0.040425 0.110924 -0.022842
v -0.040425 0.096094 -0.022842
v -0.000454 0.096094 -0.046408
v 0.039940 0.096094 -0.023576
v 0.040363 0.096094 0.022823
v 0.000393 0.096094 0.046389
v -0.040001 0.096094 0.023556
v -0.025392 0.087751 0.014943
v 0.000238 0.087751 0.029430
v 0.025599 0.087751 0.014478
v 0.025331 0.087751 -0.014962
v -0.000299 0.087751 -0.029450
v -0.025661 0.087751 -0.014497
v -0.025661 0.070190 -0.014497
v -0.000299 0.070190 -0.029450
v 0.025331 0.070190 -0.014962
v 0.025599 0.070190 0.014478
v 0.000238 0.070190 0.029430
v -0.025392 0.070190 0.014943
v -0.074385 0.015157 0.043828
v 0.000757 0.015157 0.086301
v 0.075111 0.015157 0.042464
v 0.074323 0.015157 -0.043848
v -0.000818 0.015157 -0.086321
v -0.075172 0.015157 -0.042483
v -0.030248 0.110924 0.017806
v 0.000289 0.110924 0.035067
v 0.030506 0.110924 0.017251
v 0.030186 0.110924 -0.017825
v -0.000351 0.110924 -0.035086
v -0.030568 0.110924 -0.017271
v -0.024613 0.105882 0.014484
v 0.000230 0.105882 0.028526
v 0.024812 0.105882 0.014033
v 0.024552 0.105882 -0.014503
v -0.000291 0.105882 -0.028546
v -0.024874 0.105882 -0.014052
v 0.056910 0.031798 0.000009
v 0.052681 0.034750 0.008941
v 0.044223 0.040654 0.008941
v 0.039994 0.043606 0.000009
v 0.044223 0.040654 -0.008924
v 0.052681 0.034750 -0.008924
v 0.062951 0.045751 -0.008924
v 0.056720 0.053971 -0.008924
v 0.053604 0.058081 0.000009
v 0.056720 0.053971 0.008941
v 0.062951 0.045751 0.008941
v 0.066066 0.041641 0.000009
v 0.081159 0.049543 -0.008060
v 0.082314 0.058789 -0.008060
v 0.082892 0.063411 0.000009
v 0.082314 0.058789 0.008078
v 0.081159 0.049543 0.008078
v 0.080581 0.044921 0.000009
v 0.097488 0.035632 -0.008060
v 0.104920 0.041252 -0.008060
v 0.108635 0.044062 0.000009
v 0.104920 0.041252 0.008078
v 0.097488 0.035632 0.008078
v 0.093773 0.032822 0.000009
v 0.099380 0.018348 -0.008060
v 0.108644 0.017355 -0.008060
v 0.113276 0.016859 0.000009
v 0.108644 0.017355 0.008078
v 0.099380 0.018348 0.008078
v 0.094748 0.018844 0.000009
v 0.093631 0.002258 -0.008060
v 0.100540 -0.003993 -0.008060
v 0.103995 -0.007119 0.000009
v 0.100540 -0.003993 0.008078
v 0.093631 0.002258 0.008078
v 0.090177 0.005384 0.000009
v 0.081335 -0.008702 -0.008060
v 0.084758 -0.017368 -0.008060
v 0.086470 -0.021700 0.000009
v 0.084758 -0.017368 0.008078
v 0.081335 -0.008702 0.008078
v 0.079623 -0.004369 0.000009
v -0.056261 0.031798 0.000009
v -0.052032 0.034750 -0.008924
v -0.043574 0.040654 -0.008924
v -0.039345 0.043606 0.000009
v -0.043574 0.040654 0.008941
v -0.052032 0.034750 0.008941
v -0.062302 0.045751 0.008941
v -0.056071 0.053971 0.008941
v -0.052956 0.058081 0.000009
v -0.056071 0.053971 -0.008924
v -0.062302 0.045751 -0.008924
v -0.065418 0.041641 0.000009
v -0.080510 0.049543 0.008078
v -0.081666 0.058789 0.008078
v -0.082243 0.063411 0.000009
v -0.081666 0.058789 -0.008060
v -0.080510 0.049543 -0.008060
v -0.079933 0.044921 0.000009
v -0.096840 0.035632 0.008078
v -0.104271 0.041252 0.008078
v -0.107987 0.044062 0.000009
v -0.104271 0.041252 -0.008060
v -0.096840 0.035632 -0.008060
v -0.093124 0.032822 0.000009
v -0.098731 0.018348 0.008078
v -0.107996 0.017355 0.008078
v -0.112628 0.016859 0.000009
v -0.107996 0.017355 -0.008060
v -0.098731 0.018348 -0.008060
v -0.094099 0.018844 0.000009
v -0.092983 0.002258 0.008078
v -0.099892 -0.003993 0.008078
v -0.103346 -0.007119 0.000009
v -0.099892 -0.003993 -0.008060
v -0.092983 0.002258 -0.008060
v -0.089529 0.005384 0.000009
v -0.080687 -0.008702 0.008078
v -0.084110 -0.017368 0.008078
v -0.085822 -0.021700 0.000009
v -0.084110 -0.017368 -0.008060
v -0.080687 -0.008702 -0.008060
v -0.078975 -0.004369 0.000009
v -0.040973 -0.088307 -0.023152
v -0.000460 -0.088307 -0.047038
v -0.040544 -0.088307 0.023876
v 0.040483 -0.088307 -0.023896
v 0.040912 -0.088307 0.023133
v 0.000398 -0.088307 0.047019
v 0.000896 -0.026060 0.101597
v -0.000958 -0.026060 -0.101617
v 0.088427 -0.026060 0.049991
v 0.087500 -0.026060 -0.051616
v -0.088488 -0.026060 -0.050010
v -0.087561 -0.026060 0.051597
vt 0.583777 0.987602
vt 0.583777 0.987731
vt 0.583722 0.987731
vt 0.583722 0.987602
vt 0.583667 0.987602
vt 0.583667 0.987731
vt 0.583611 0.987731
vt 0.583611 0.987602
vt 0.583556 0.987731
vt 0.583556 0.987602
vt 0.583501 0.987731
vt 0.583501 0.987602
vt 0.583611 0.987731
vt 0.583667 0.987731
vt 0.583667 0.987731
vt 0.583611 0.987731
vt 0.583833 0.987580
vt 0.583777 0.987580
vt 0.583780 0.987573
vt 0.583830 0.987573
vt 0.583722 0.987580
vt 0.583725 0.987573
vt 0.583667 0.987580
vt 0.583669 0.987573
vt 0.583611 0.987580
vt 0.583614 0.987573
vt 0.583556 0.987580
vt 0.583559 0.987573
vt 0.583501 0.987580
vt 0.583503 0.987573
vt 0.583750 0.987561
vt 0.583812 0.987526
vt 0.583812 0.987454
vt 0.583750 0.987418
vt 0.583687 0.987454
vt 0.583687 0.987526
vt 0.583722 0.987731
vt 0.583777 0.987731
vt 0.583777 0.987731
vt 0.583722 0.987731
vt 0.583611 0.987731
vt 0.583667 0.987731
vt 0.583556 0.987731
vt 0.583556 0.987731
vt 0.583833 0.987731
vt 0.583833 0.987731
vt 0.583667 0.987731
vt 0.583611 0.987731
vt 0.583833 0.987602
vt 0.583833 0.987731
vt 0.583501 0.987731
vt 0.583556 0.987731
vt 0.583501 0.987731
vt 0.583556 0.987731
vt 0.583777 0.987731
vt 0.583833 0.987731
vt 0.583833 0.987731
vt 0.583777 0.987731
vt 0.583722 0.987731
vt 0.583722 0.987731
vt 0.583722 0.987731
vt 0.583777 0.987731
vt 0.583501 0.987731
vt 0.583777 0.987731
vt 0.583833 0.987731
vt 0.583833 0.987731
vt 0.583556 0.987731
vt 0.583611 0.987731
vt 0.583501 0.987731
vt 0.583501 0.987731
vt 0.583667 0.987731
vt 0.583611 0.987731
vt 0.583667 0.987731
vt 0.583667 0.987731
vt 0.583611 0.987731
vt 0.583556 0.987731
vt 0.583501 0.987731
vt 0.583722 0.987731
vt 0.583777 0.987731
vt 0.583833 0.987731
vt 0.583556 0.987731
vt 0.583722 0.987731
vt 0.583501 0.987731
vt 0.583722 0.987731
vt 0.583667 0.987731
vt 0.583556 0.987731
vt 0.583501 0.987731
vt 0.583611 0.987731
vt 0.583777 0.987731
vt 0.583833 0.987731
vt 0.583611 0.987731
vt 0.583556 0.987731
vt 0.583777 0.987731
vt 0.583722 0.987731
vt 0.583667 0.987731
vt 0.583833 0.987731
vt 0.583501 0.987731
vt 0.583722 0.987731
vt 0.583777 0.987731
vt 0.583777 0.987731
vt 0.583722 0.987731
vt 0.583556 0.987731
vt 0.583611 0.987731
vt 0.583611 0.987731
vt 0.583556 0.987731
vt 0.583833 0.987731
vt 0.583833 0.987731
vt 0.583501 0.987731
vt 0.583501 0.987731
vt 0.583667 0.987731
vt 0.583667 0.987731
vt 0.583611 0.987731
vt 0.583667 0.987731
vt 0.583777 0.987731
vt 0.583833 0.987731
vt 0.583722 0.987731
vt 0.583501 0.987731
vt 0.583556 0.987731
vt 0.583722 0.987731
vt 0.583777 0.987731
vt 0.583501 0.987731
vt 0.583556 0.987731
vt 0.583611 0.987731
vt 0.583667 0.987731
vt 0.583833 0.987731
vt 0.583611 0.987731
vt 0.583667 0.987731
vt 0.583777 0.987731
vt 0.583833 0.987731
vt 0.583722 0.987731
vt 0.583501 0.987731
vt 0.583556 0.987731
vt 0.583722 0.987731
vt 0.583777 0.987731
vt 0.583501 0.987731
vt 0.583556 0.987731
vt 0.583611 0.987731
vt 0.583667 0.987731
vt 0.583833 0.987731
vt 0.583611 0.987731
vt 0.583667 0.987731
vt 0.583777 0.987731
vt 0.583833 0.987731
vt 0.583722 0.987731
vt 0.583501 0.987731
vt 0.583556 0.987731
vt 0.583722 0.987731
vt 0.583777 0.987731
vt 0.583777 0.987731
vt 0.583722 0.987731
vt 0.583556 0.987731
vt 0.583611 0.987731
vt 0.583611 0.987731
vt 0.583556 0.987731
vt 0.583833 0.987731
vt 0.583833 0.987731
vt 0.583501 0.987731
vt 0.583501 0.987731
vt 0.583667 0.987731
vt 0.583667 0.987731
vt 0.583611 0.987731
vt 0.583667 0.987731
vt 0.583777 0.987731
vt 0.583833 0.987731
vt 0.583722 0.987731
vt 0.583501 0.987731
vt 0.583556 0.987731
vt 0.583722 0.987731
vt 0.583777 0.987731
vt 0.583501 0.987731
vt 0.583556 0.987731
vt 0.583611 0.987731
vt 0.583667 0.987731
vt 0.583833 0.987731
vt 0.583611 0.987731
vt 0.583667 0.987731
vt 0.583777 0.987731
vt 0.583833 0.987731
vt 0.583722 0.987731
vt 0.583501 0.987731
vt 0.583556 0.987731
vt 0.583722 0.987731
vt 0.583777 0.987731
vt 0.583501 0.987731
vt 0.583556 0.987731
vt 0.583611 0.987731
vt 0.583667 0.987731
vt 0.583833 0.987731
vt 0.583611 0.987731
vt 0.583667 0.987731
vt 0.583777 0.987731
vt 0.583833 0.987731
vt 0.583722 0.987731
vt 0.583501 0.987731
vt 0.583556 0.987731
vt 0.727736 0.989826
vt 0.727698 0.989826
vt 0.727700 0.989821
vt 0.727734 0.989821
vt 0.727660 0.989826
vt 0.727662 0.989821
vt 0.727622 0.989826
vt 0.727624 0.989821
vt 0.727585 0.989826
vt 0.727587 0.989821
vt 0.727547 0.989826
vt 0.727549 0.989821
vt 0.727509 0.989826
vt 0.727511 0.989821
vt 0.727721 0.989740
vt 0.727679 0.989716
vt 0.727637 0.989740
vt 0.727637 0.989789
vt 0.727736 0.989860
vt 0.727698 0.989860
vt 0.727660 0.989860
vt 0.727622 0.989860
vt 0.727547 0.989860
vt 0.727509 0.989860
vt 0.727585 0.989860
vt 0.727566 0.989860
vt 0.727679 0.989860
vn 0.2616 -0.8470 -0.4628
vn 0.2700 -0.8470 0.4579
vn -0.2616 -0.8470 0.4628
vn -0.5316 -0.8470 0.0049
vn 0.5316 -0.8470 -0.0049
vn 0.4558 -0.4410 0.7731
vn -0.3343 -0.7528 -0.5670
vn 0.3239 -0.7528 -0.5730
vn 0.6582 -0.7528 -0.0060
vn 0.3343 -0.7528 0.5670
vn -0.3239 -0.7528 0.5730
vn -0.6582 -0.7528 0.0060
vn 0.0000 -1.0000 0.0000
vn 0.2430 -0.8695 -0.4299
vn 0.2508 -0.8695 0.4254
vn 0.4939 -0.8695 -0.0045
vn -0.2430 -0.8695 0.4299
vn -0.2508 -0.8695 -0.4254
vn 0.4558 0.4410 0.7731
vn -0.2700 -0.8470 -0.4579
vn -0.8975 -0.4410 0.0082
vn -0.4416 0.4410 0.7813
vn -0.4558 0.4410 -0.7731
vn 0.4416 0.4410 -0.7813
vn -0.4558 -0.4410 -0.7731
vn 0.4921 -0.0000 -0.8706
vn -0.4416 -0.4410 0.7813
vn -0.8975 0.4410 0.0082
vn 0.4416 -0.4410 -0.7813
vn 0.8975 0.4410 -0.0082
vn 0.8975 -0.4410 -0.0082
vn -0.3784 0.6669 -0.6419
vn -0.4921 0.0000 0.8706
vn -0.4939 -0.8695 0.0045
vn -0.5079 -0.0000 -0.8614
vn -1.0000 -0.0000 0.0091
vn 0.5079 0.0000 0.8614
vn 0.4835 0.3060 0.8201
vn -0.3667 0.6669 0.6487
vn 0.3784 0.6669 0.6419
vn -0.7451 0.6669 0.0068
vn 0.3667 0.6669 -0.6487
vn 1.0000 0.0000 -0.0091
vn 0.7451 0.6669 -0.0068
vn -0.4835 0.3060 -0.8201
vn -0.4685 0.3060 0.8288
vn 0.4685 0.3060 -0.8288
vn -0.9520 0.3060 0.0087
vn 0.9520 0.3060 -0.0087
vn -0.0000 1.0000 -0.0000
vn 0.3272 0.7469 -0.5788
vn -0.3272 0.7469 0.5788
vn -0.3377 0.7469 -0.5727
vn 0.3377 0.7469 0.5727
vn -0.6649 0.7469 0.0061
vn 0.6649 0.7469 -0.0061
vn -0.6331 0.5948 -0.4954
vn 0.6355 -0.5923 0.4954
vn -0.0000 0.0000 -1.0000
vn 0.6355 -0.5923 -0.4954
vn 0.0000 -0.0000 1.0000
vn -0.6331 0.5948 0.4954
vn 0.0373 0.0108 0.9992
vn 0.0373 0.0108 -0.9992
vn -0.1534 0.8695 0.4695
vn -0.1534 0.8695 -0.4695
vn 0.1982 -0.8595 -0.4711
vn 0.1982 -0.8595 0.4711
vn 0.5365 0.7032 -0.4666
vn -0.5862 -0.6653 -0.4624
vn -0.5862 -0.6653 0.4624
vn 0.5365 0.7032 0.4666
vn 0.8707 0.1425 0.4708
vn 0.8707 0.1425 -0.4708
vn -0.8805 -0.0807 -0.4671
vn -0.8805 -0.0807 0.4671
vn 0.8187 -0.3140 -0.4807
vn -0.8283 0.2892 -0.4799
vn -0.8283 0.2892 0.4799
vn 0.8187 -0.3140 0.4807
vn 0.5610 -0.6684 0.4885
vn 0.5610 -0.6684 -0.4885
vn -0.5866 0.6472 -0.4869
vn -0.5866 0.6472 0.4869
vn 0.6331 0.5948 0.4954
vn -0.6355 -0.5923 -0.4954
vn -0.6355 -0.5923 0.4954
vn 0.6331 0.5948 -0.4954
vn -0.0373 0.0108 -0.9992
vn -0.0373 0.0108 0.9992
vn 0.1534 0.8695 -0.4695
vn 0.1534 0.8695 0.4695
vn -0.1982 -0.8595 0.4711
vn -0.1982 -0.8595 -0.4711
vn -0.5365 0.7032 0.4666
vn 0.5862 -0.6653 0.4624
vn 0.5862 -0.6653 -0.4624
vn -0.5365 0.7032 -0.4666
vn -0.8707 0.1425 -0.4708
vn -0.8707 0.1425 0.4708
vn 0.8805 -0.0807 0.4671
vn 0.8805 -0.0807 -0.4671
vn -0.8187 -0.3140 0.4807
vn 0.8283 0.2892 0.4799
vn 0.8283 0.2892 -0.4799
vn -0.8187 -0.3140 -0.4807
vn -0.5610 -0.6684 -0.4885
vn -0.5610 -0.6684 0.4885
vn 0.5866 0.6472 0.4869
vn 0.5866 0.6472 -0.4869
vn -0.4497 0.4648 -0.7627
vn 0.8854 0.4648 -0.0081
vn -0.8854 0.4648 0.0081
vn -0.4357 0.4648 0.7708
vn 0.4497 0.4648 0.7627
vn 0.4357 0.4648 -0.7708
vn 0.9485 -0.3167 -0.0087
vn -0.9485 -0.3167 0.0087
vn 0.4667 -0.3167 -0.8257
vn -0.4667 -0.3167 0.8257
vn -0.4817 -0.3167 -0.8171
vn 0.4817 -0.3167 0.8171
vn -0.8656 0.5006 0.0079
vn -0.4260 0.5006 0.7536
vn 0.4397 0.5006 0.7457
vn 0.8656 0.5006 -0.0079
vn 0.4260 0.5006 -0.7536
vn -0.4397 0.5006 -0.7457
usemtl RLOW.016
s off
f 172/1/1 36/2/1 38/3/1 174/4/1
f 175/5/2 40/6/2 42/7/2 176/8/2
f 176/8/3 42/7/3 44/9/3 173/10/3
f 173/10/4 44/9/4 33/11/4 171/12/4
f 174/4/5 38/3/5 40/6/5 175/5/5
f 55/13/6 54/14/6 37/15/6 39/16/6
f 22/17/7 24/18/7 23/19/7 21/20/7
f 24/18/8 26/21/8 25/22/8 23/19/8
f 26/21/9 28/23/9 27/24/9 25/22/9
f 28/23/10 30/25/10 29/26/10 27/24/10
f 30/25/11 32/27/11 31/28/11 29/26/11
f 32/27/12 22/29/12 21/30/12 31/28/12
f 21/31/13 23/32/13 25/33/13 27/34/13 29/35/13 31/36/13
f 60/37/14 61/38/14 52/39/14 53/40/14
f 58/41/15 59/42/15 54/14/15 55/13/15
f 59/42/16 60/37/16 53/40/16 54/14/16
f 57/43/17 58/41/17 55/13/17 56/44/17
f 61/38/18 62/45/18 51/46/18 52/39/18
f 39/16/19 37/15/19 47/47/19 46/48/19
f 171/49/20 33/50/20 36/2/20 172/1/20
f 51/51/21 56/44/21 35/52/21 43/53/21
f 35/52/22 39/16/22 46/48/22 45/54/22
f 34/55/23 43/56/23 50/57/23 49/58/23
f 41/59/24 34/55/24 49/58/24 48/60/24
f 52/39/25 51/46/25 43/56/25 34/55/25
f 65/61/26 64/62/26 61/38/26 60/37/26
f 56/44/27 55/13/27 39/16/27 35/52/27
f 43/53/28 35/52/28 45/54/28 50/63/28
f 53/40/29 52/39/29 34/55/29 41/59/29
f 37/15/30 41/59/30 48/60/30 47/47/30
f 54/14/31 53/40/31 41/59/31 37/15/31
f 73/64/32 74/65/32 63/66/32 64/62/32
f 68/67/33 67/68/33 58/41/33 57/43/33
f 62/69/34 57/43/34 56/44/34 51/51/34
f 64/62/35 63/66/35 62/45/35 61/38/35
f 63/70/36 68/67/36 57/43/36 62/69/36
f 67/68/37 66/71/37 59/42/37 58/41/37
f 177/72/38 179/73/38 71/74/38 70/75/38
f 69/76/39 70/75/39 67/68/39 68/67/39
f 70/75/40 71/74/40 66/71/40 67/68/40
f 74/77/41 69/76/41 68/67/41 63/70/41
f 72/78/42 73/64/42 64/62/42 65/61/42
f 66/71/43 65/61/43 60/37/43 59/42/43
f 71/74/44 72/78/44 65/61/44 66/71/44
f 178/79/45 181/80/45 74/65/45 73/64/45
f 182/81/46 177/72/46 70/75/46 69/76/46
f 180/82/47 178/79/47 73/64/47 72/78/47
f 181/83/48 182/81/48 69/76/48 74/77/48
f 179/73/49 180/82/49 72/78/49 71/74/49
f 47/47/50 48/60/50 78/84/50 77/85/50
f 50/63/50 45/54/50 75/86/50 80/87/50
f 46/48/50 47/47/50 77/85/50 76/88/50
f 48/60/50 49/58/50 79/89/50 78/84/50
f 49/58/50 50/57/50 80/90/50 79/89/50
f 45/54/50 46/48/50 76/88/50 75/86/50
f 75/86/51 76/88/51 82/91/51 81/92/51
f 78/84/52 79/89/52 85/93/52 84/94/52
f 76/88/53 77/85/53 83/95/53 82/91/53
f 79/89/54 80/90/54 86/96/54 85/93/54
f 77/85/55 78/84/55 84/94/55 83/95/55
f 80/87/56 75/86/56 81/92/56 86/97/56
f 95/98/57 94/99/57 91/100/57 90/101/57
f 98/102/58 97/103/58 88/104/58 87/105/58
f 94/99/59 93/106/59 92/107/59 91/100/59
f 93/108/60 98/102/60 87/105/60 92/109/60
f 97/103/61 96/110/61 89/111/61 88/104/61
f 96/110/62 95/98/62 90/101/62 89/111/62
f 96/110/63 97/103/63 103/112/63 102/113/63
f 93/106/64 94/99/64 100/114/64 99/115/64
f 95/98/65 96/110/65 102/113/65 101/116/65
f 94/99/66 95/98/66 101/116/66 100/114/66
f 98/102/67 93/108/67 99/117/67 104/118/67
f 97/103/68 98/102/68 104/118/68 103/112/68
f 100/114/69 101/116/69 107/119/69 106/120/69
f 104/118/70 99/117/70 105/121/70 110/122/70
f 103/112/71 104/118/71 110/122/71 109/123/71
f 102/113/61 103/112/61 109/123/61 108/124/61
f 99/115/59 100/114/59 106/120/59 105/125/59
f 101/116/72 102/113/72 108/124/72 107/119/72
f 108/124/61 109/123/61 115/126/61 114/127/61
f 105/125/59 106/120/59 112/128/59 111/129/59
f 107/119/73 108/124/73 114/127/73 113/130/73
f 106/120/74 107/119/74 113/130/74 112/128/74
f 110/122/75 105/121/75 111/131/75 116/132/75
f 109/123/76 110/122/76 116/132/76 115/126/76
f 112/128/77 113/130/77 119/133/77 118/134/77
f 116/132/78 111/131/78 117/135/78 122/136/78
f 115/126/79 116/132/79 122/136/79 121/137/79
f 114/127/61 115/126/61 121/137/61 120/138/61
f 111/129/59 112/128/59 118/134/59 117/139/59
f 113/130/80 114/127/80 120/138/80 119/133/80
f 120/138/61 121/137/61 127/140/61 126/141/61
f 117/139/59 118/134/59 124/142/59 123/143/59
f 119/133/81 120/138/81 126/141/81 125/144/81
f 118/134/82 119/133/82 125/144/82 124/142/82
f 122/136/83 117/135/83 123/145/83 128/146/83
f 121/137/84 122/136/84 128/146/84 127/140/84
f 137/147/85 136/148/85 133/149/85 132/150/85
f 140/151/86 139/152/86 130/153/86 129/154/86
f 136/148/61 135/155/61 134/156/61 133/149/61
f 135/157/87 140/151/87 129/154/87 134/158/87
f 139/152/59 138/159/59 131/160/59 130/153/59
f 138/159/88 137/147/88 132/150/88 131/160/88
f 138/159/89 139/152/89 145/161/89 144/162/89
f 135/155/90 136/148/90 142/163/90 141/164/90
f 137/147/91 138/159/91 144/162/91 143/165/91
f 136/148/92 137/147/92 143/165/92 142/163/92
f 140/151/93 135/157/93 141/166/93 146/167/93
f 139/152/94 140/151/94 146/167/94 145/161/94
f 142/163/95 143/165/95 149/168/95 148/169/95
f 146/167/96 141/166/96 147/170/96 152/171/96
f 145/161/97 146/167/97 152/171/97 151/172/97
f 144/162/59 145/161/59 151/172/59 150/173/59
f 141/164/61 142/163/61 148/169/61 147/174/61
f 143/165/98 144/162/98 150/173/98 149/168/98
f 150/173/59 151/172/59 157/175/59 156/176/59
f 147/174/61 148/169/61 154/177/61 153/178/61
f 149/168/99 150/173/99 156/176/99 155/179/99
f 148/169/100 149/168/100 155/179/100 154/177/100
f 152/171/101 147/170/101 153/180/101 158/181/101
f 151/172/102 152/171/102 158/181/102 157/175/102
f 154/177/103 155/179/103 161/182/103 160/183/103
f 158/181/104 153/180/104 159/184/104 164/185/104
f 157/175/105 158/181/105 164/185/105 163/186/105
f 156/176/59 157/175/59 163/186/59 162/187/59
f 153/178/61 154/177/61 160/183/61 159/188/61
f 155/179/106 156/176/106 162/187/106 161/182/106
f 162/187/59 163/186/59 169/189/59 168/190/59
f 159/188/61 160/183/61 166/191/61 165/192/61
f 161/182/107 162/187/107 168/190/107 167/193/107
f 160/183/108 161/182/108 167/193/108 166/191/108
f 164/185/109 159/184/109 165/194/109 170/195/109
f 163/186/110 164/185/110 170/195/110 169/189/110
f 22/17/111 171/49/111 172/1/111 24/18/111
f 26/21/112 174/4/112 175/5/112 28/23/112
f 32/27/113 173/10/113 171/12/113 22/29/113
f 30/25/114 176/8/114 173/10/114 32/27/114
f 28/23/115 175/5/115 176/8/115 30/25/115
f 24/18/116 172/1/116 174/4/116 26/21/116
f 40/6/117 38/3/117 180/82/117 179/73/117
f 33/11/118 44/9/118 182/81/118 181/83/118
f 38/3/119 36/2/119 178/79/119 180/82/119
f 44/9/120 42/7/120 177/72/120 182/81/120
f 36/2/121 33/50/121 181/80/121 178/79/121
f 42/7/122 40/6/122 179/73/122 177/72/122
usemtl RHIGH.016
f 2/196/123 4/197/123 3/198/123 1/199/123
f 4/197/124 6/200/124 5/201/124 3/198/124
f 6/200/125 8/202/125 7/203/125 5/201/125
f 8/202/126 10/204/126 9/205/126 7/203/126
f 10/204/127 12/206/127 11/207/127 9/205/127
f 12/206/128 2/208/128 1/209/128 11/207/128
f 1/199/50 3/198/50 5/210/50 7/211/50 9/212/50 11/213/50
f 2/196/36 13/214/36 14/215/36 4/197/36
f 6/200/37 16/216/37 17/217/37 8/202/37
f 12/206/35 15/218/35 13/219/35 2/208/35
f 10/204/26 18/220/26 20/221/26 15/218/26 12/206/26
f 8/202/43 17/217/43 18/220/43 10/204/43
f 4/197/33 14/215/33 19/222/33 16/216/33 6/200/33
